<svg width="16" height="16" viewBox="0 0 16 16" fill="none" xmlns="http://www.w3.org/2000/svg">
<g clip-path="url(#clip0_975_3668)">
<path d="M0 16H16V0H0V16Z" fill="#808080" fill-opacity="0.01"/>
<path d="M3 1.03003C1 1.03003 1 3.03003 1 3.03003V13.03C1 15.03 3 15.03 3 15.03H6.072L6.064 15.018L6.062 15.014L5.937 14.797L7.57 13.854C7.52602 13.5815 7.50262 13.3061 7.5 13.03C7.5043 12.7546 7.52904 12.4798 7.574 12.208L5.937 11.262L6.062 11.046L7.812 8.01403L7.937 7.79803L9.574 8.74303C10.0054 8.39859 10.4861 8.12083 11 7.91903V6.03003H15V3.03003C15 3.03003 15 1.03003 13 1.03003H3ZM13 11.03C12.4696 11.03 11.9609 11.2407 11.5858 11.6158C11.2107 11.9909 11 12.4996 11 13.03C11 13.5605 11.2107 14.0692 11.5858 14.4442C11.9609 14.8193 12.4696 15.03 13 15.03C13.5304 15.03 14.0391 14.8193 14.4142 14.4442C14.7893 14.0692 15 13.5605 15 13.03C15 12.4996 14.7893 11.9909 14.4142 11.6158C14.0391 11.2407 13.5304 11.03 13 11.03Z" fill="#232323"/>
</g>
<defs>
<clipPath id="clip0_975_3668">
<rect width="16" height="16" fill="white"/>
</clipPath>
</defs>
</svg>
