<svg width="16" height="16" viewBox="0 0 16 16" fill="none" xmlns="http://www.w3.org/2000/svg">
<g clip-path="url(#clip0_975_3671)">
<path d="M0 0H16V16H0V0Z" fill="#808080" fill-opacity="0.00"/>
<path d="M4 1.01001C2.355 1.01001 1 2.36501 1 4.01001V12.01C1 13.655 2.355 15.01 4 15.01H12C13.645 15.01 15 13.655 15 12.01V4.01001C15 2.36501 13.645 1.01001 12 1.01001H4ZM4 3.01001H12C12.571 3.01001 13 3.43901 13 4.01001V12.01C13 12.581 12.571 13.01 12 13.01H4C3.429 13.01 3 12.581 3 12.01V4.01001C3 3.43901 3.429 3.01001 4 3.01001Z" fill="#232323"/>
<path opacity="0.5" d="M4 4.01001V10.01L5.5 8.51001L7 10.01L9.5 7.51001L12 10.01V4.01001H4Z" fill="#232323"/>
<path d="M8 8.01001L12 12.01H4L8 8.01001Z" fill="#232323"/>
</g>
<defs>
<clipPath id="clip0_975_3671">
<rect width="16" height="16" fill="white"/>
</clipPath>
</defs>
</svg>
