<svg width="16" height="17" viewBox="0 0 16 17" fill="none" xmlns="http://www.w3.org/2000/svg">
<g clip-path="url(#clip0_975_3674)">
<path d="M0 0.119995V16.12H16V0.119995H0Z" fill="#808080" fill-opacity="0.01"/>
<path d="M8 -0.0100098L7.56201 0.208984L1.56201 3.27097L1 3.55197V12.802L1.56299 13.084L7.56299 16.021L8 16.24L8.43799 16.021L14.438 13.021L15 12.74V3.48999L14.437 3.20898L8.43701 0.208984L8 -0.0100098ZM8 2.23999L13 4.73999V11.49L8 13.99V7.23999L7.56201 7.02097L3.03198 4.73999L8 2.23999Z" fill="#232323"/>
<path opacity="0.5" d="M8 7.23999L13 4.73999V11.49L8 13.99V7.23999Z" fill="#232323"/>
</g>
<defs>
<clipPath id="clip0_975_3674">
<rect width="16" height="16.25" fill="white"/>
</clipPath>
</defs>
</svg>
