<svg width="16" height="16" viewBox="0 0 16 16" fill="none" xmlns="http://www.w3.org/2000/svg">
<g clip-path="url(#clip0_975_3677)">
<path d="M0 0H16V16H0V0Z" fill="#808080" fill-opacity="0.01"/>
<path d="M4 1C3.46957 1 2.96089 1.21071 2.58582 1.58578C2.21074 1.96086 2 2.46957 2 3V14C2 14.5304 2.21074 15.0391 2.58582 15.4142C2.96089 15.7893 3.46957 16 4 16H12C12.5304 16 13.0391 15.7893 13.4142 15.4142C13.7893 15.0391 14 14.5304 14 14V5.953C14.0004 5.4398 13.8035 4.94608 13.45 4.57401L10.482 1.60699L10.48 1.605C10.2936 1.41355 10.0708 1.2614 9.82471 1.15749C9.57859 1.05358 9.31416 1.00002 9.047 1H4Z" fill="#232323"/>
</g>
<defs>
<clipPath id="clip0_975_3677">
<rect width="16" height="16" fill="white"/>
</clipPath>
</defs>
</svg>
