<svg width="16" height="16" viewBox="0 0 16 16" fill="none" xmlns="http://www.w3.org/2000/svg">
<g clip-path="url(#clip0_975_3676)">
<path d="M0.00100708 0H16.001V16H0.00100708V0Z" fill="#808080" fill-opacity="0.00"/>
<path d="M8.00101 1C6.14449 1 4.36401 1.7375 3.05126 3.05025C1.7385 4.36301 1.00101 6.14348 1.00101 8C1.00101 9.85652 1.7385 11.637 3.05126 12.9497C4.36401 14.2625 6.14449 15 8.00101 15C9.85752 15 11.638 14.2625 12.9508 12.9497C14.2635 11.637 15.001 9.85652 15.001 8C15.001 6.14348 14.2635 4.36301 12.9508 3.05025C11.638 1.7375 9.85752 1 8.00101 1ZM7.50101 2.938C7.56801 2.93 7.65201 2.941 7.72001 2.938C7.72801 2.969 7.67101 3.083 7.59501 3.25C7.10901 4.311 7.08101 5.554 7.53201 6.219C7.61401 6.339 7.68801 6.454 7.68801 6.469C7.68801 6.484 7.60001 6.5 7.50101 6.5C7.26701 6.5 7.04601 6.358 6.59501 6C6.39501 5.841 6.13301 5.708 6.03201 5.687C5.87401 5.656 5.83201 5.67 5.62601 5.875C5.43501 6.066 5.37601 6.169 5.37601 6.344C5.37601 7.007 6.16301 7.534 7.62601 7.844C9.61301 8.264 10.102 8.643 10.157 9.688C10.226 10.998 9.52901 11.985 8.00101 12.75C7.81901 12.841 7.70201 12.877 7.62601 12.906C7.59201 12.903 7.56601 12.909 7.53201 12.906C7.50734 12.8039 7.49724 12.6989 7.50201 12.594C7.50201 11.898 7.22701 11.182 6.81401 10.781C6.59855 10.596 6.36847 10.4288 6.12601 10.281C5.86001 10.117 5.59201 9.925 5.53201 9.844C5.43301 9.708 5.42501 9.625 5.50201 9.375C5.64001 8.918 5.80501 8.664 6.12601 8.375C6.29401 8.224 6.46401 8.097 6.50101 8.094C6.53801 8.091 6.28601 8.015 5.90701 7.938C5.52901 7.86 4.97501 7.698 4.68901 7.594C4.16501 7.404 3.45901 7.007 3.18901 6.719L3.15701 6.688C3.34505 5.93385 3.70544 5.23358 4.20985 4.64224C4.71425 4.0509 5.34894 3.5846 6.06401 3.28C6.36401 3.153 6.67401 3.066 7.00101 3C7.16401 2.966 7.33301 2.954 7.50101 2.937V2.938ZM12.188 5.281C12.306 5.354 12.749 6.313 12.876 6.781C13.039 7.385 13.028 8.431 12.876 9.031C12.818 9.26 12.744 9.473 12.72 9.5C12.696 9.527 12.606 9.374 12.501 9.188C12.396 9.002 12.061 8.606 11.782 8.313C10.978 7.464 10.852 7.021 11.188 6.343C11.358 6.003 12.098 5.225 12.188 5.281Z" fill="#232323"/>
</g>
<defs>
<clipPath id="clip0_975_3676">
<rect width="16" height="16" fill="white"/>
</clipPath>
</defs>
</svg>
