<svg width="17" height="16" viewBox="0 0 17 16" fill="none" xmlns="http://www.w3.org/2000/svg">
<g clip-path="url(#clip0_975_3679)">
<path d="M0.00299072 0V16H16.003V0H0.00299072Z" fill="#808080" fill-opacity="0.01"/>
<path d="M2.00299 1C1.47256 1 0.96385 1.21071 0.588777 1.58579C0.213704 1.96086 0.00299072 2.46957 0.00299072 3V13C0.00299072 13.5304 0.213704 14.0391 0.588777 14.4142C0.96385 14.7893 1.47256 15 2.00299 15H14.003C14.5334 15 15.0421 14.7893 15.4172 14.4142C15.7923 14.0391 16.003 13.5304 16.003 13V1H12.503L14.003 4H12.003L10.503 1H8.50299L10.003 4H8.00299L6.50299 1H4.50299L6.00299 4H4.00299L2.50299 1H2.00299ZM6.00299 6L11.003 8.5L6.00299 11V6Z" fill="#232323"/>
</g>
<defs>
<clipPath id="clip0_975_3679">
<rect width="16.003" height="16" fill="white"/>
</clipPath>
</defs>
</svg>
