<svg width="17" height="16" viewBox="0 0 17 16" fill="none" xmlns="http://www.w3.org/2000/svg">
<g clip-path="url(#clip0_975_3681)">
<path d="M3.00299 1C1.89499 1 1.00299 1.892 1.00299 3V13C1.00299 14.108 1.89499 15 3.00299 15H13.003C14.111 15 15.003 14.108 15.003 13V3C15.003 1.892 14.111 1 13.003 1H3.00299ZM3.00299 5H13.003V13H3.00299V5Z" fill="#232323"/>
<path d="M0.00299072 0H16.003V16H0.00299072V0Z" fill="#808080" fill-opacity="0.01"/>
<path opacity="0.5" d="M9.00299 8H11.003V10H9.00299V8Z" fill="#232323"/>
<path d="M6.00299 4.5C6.00299 4.22386 5.77913 4 5.50299 4C5.22685 4 5.00299 4.22386 5.00299 4.5V13.25C5.00299 13.5261 5.22685 13.75 5.50299 13.75C5.77913 13.75 6.00299 13.5261 6.00299 13.25V4.5Z" fill="#232323"/>
<path d="M9.00299 5C9.00299 4.72386 8.77913 4.5 8.50299 4.5C8.22685 4.5 8.00299 4.72386 8.00299 5V13.25C8.00299 13.5261 8.22685 13.75 8.50299 13.75C8.77913 13.75 9.00299 13.5261 9.00299 13.25V5Z" fill="#232323"/>
<path d="M12.003 5C12.003 4.72386 11.7791 4.5 11.503 4.5C11.2268 4.5 11.003 4.72386 11.003 5V14C11.003 14.2761 11.2268 14.5 11.503 14.5C11.7791 14.5 12.003 14.2761 12.003 14V5Z" fill="#232323"/>
<path d="M13.503 7H2.50299C2.22685 7 2.00299 7.22386 2.00299 7.5C2.00299 7.77614 2.22685 8 2.50299 8H13.503C13.7791 8 14.003 7.77614 14.003 7.5C14.003 7.22386 13.7791 7 13.503 7Z" fill="#232323"/>
<path d="M13.753 10H2.50299C2.22685 10 2.00299 10.2239 2.00299 10.5C2.00299 10.7761 2.22685 11 2.50299 11H13.753C14.0291 11 14.253 10.7761 14.253 10.5C14.253 10.2239 14.0291 10 13.753 10Z" fill="#232323"/>
</g>
<defs>
<clipPath id="clip0_975_3681">
<rect width="16" height="16" fill="white" transform="translate(0.00299072)"/>
</clipPath>
</defs>
</svg>
