<svg width="17" height="16" viewBox="0 0 17 16" fill="none" xmlns="http://www.w3.org/2000/svg">
<g clip-path="url(#clip0_975_3680)">
<path d="M0.00299072 0H16.003V16H0.00299072V0Z" fill="#808080" fill-opacity="0.01"/>
<path d="M3.00299 1.01001C1.89499 1.01001 1.00299 1.90201 1.00299 3.01001V13.01C1.00299 14.118 1.89499 15.01 3.00299 15.01H13.003C14.111 15.01 15.003 14.118 15.003 13.01V3.01001C15.003 1.90201 14.111 1.01001 13.003 1.01001H3.00299ZM8.00299 4.00001C9.06386 4.00001 10.0813 4.42144 10.8314 5.17158C11.5816 5.92173 12.003 6.93914 12.003 8.00001V8.50001C12.0029 8.80766 11.9082 9.10784 11.7318 9.35986C11.5553 9.61188 11.3056 9.80355 11.0166 9.90889C10.7275 10.0142 10.4131 10.0281 10.1159 9.94874C9.81863 9.86934 9.553 9.70046 9.35499 9.46501C8.9881 9.80775 8.50506 9.99889 8.00299 10C7.60743 10 7.22075 9.88271 6.89185 9.66295C6.56295 9.44319 6.30661 9.13083 6.15523 8.76538C6.00386 8.39992 5.96425 7.99779 6.04142 7.60983C6.11859 7.22187 6.30907 6.8655 6.58878 6.5858C6.86848 6.30609 7.22485 6.11561 7.61281 6.03844C8.00077 5.96127 8.4029 6.00087 8.76836 6.15225C9.13381 6.30363 9.44617 6.55997 9.66593 6.88887C9.88569 7.21777 10.003 7.60445 10.003 8.00001V8.50001C10.003 8.63262 10.0557 8.7598 10.1494 8.85356C10.2432 8.94733 10.3704 9.00001 10.503 9.00001C10.6356 9.00001 10.7628 8.94733 10.8565 8.85356C10.9503 8.7598 11.003 8.63262 11.003 8.50001V8.00001C11.003 7.40667 10.827 6.82665 10.4974 6.3333C10.1678 5.83995 9.69922 5.45543 9.15104 5.22837C8.60286 5.00131 7.99966 4.9419 7.41772 5.05765C6.83578 5.17341 6.30123 5.45913 5.88167 5.87869C5.46211 6.29825 5.17639 6.8328 5.06064 7.41474C4.94488 7.99668 5.00429 8.59988 5.23135 9.14806C5.45842 9.69624 5.84293 10.1648 6.33628 10.4944C6.82963 10.8241 7.40965 11 8.00299 11H10.503C10.503 11 11.003 11 11.003 11.5C10.972 12 10.503 12 10.503 12H8.00299C6.94212 12 5.92471 11.5786 5.17456 10.8284C4.42442 10.0783 4.00299 9.06088 4.00299 8.00001C4.00299 6.93914 4.42442 5.92173 5.17456 5.17158C5.92471 4.42144 6.94212 4.00001 8.00299 4.00001ZM8.00299 7.00001C7.73777 7.00001 7.48342 7.10537 7.29588 7.2929C7.10835 7.48044 7.00299 7.73479 7.00299 8.00001C7.00299 8.26523 7.10835 8.51958 7.29588 8.70712C7.48342 8.89465 7.73777 9.00001 8.00299 9.00001C8.26821 9.00001 8.52256 8.89465 8.7101 8.70712C8.89763 8.51958 9.00299 8.26523 9.00299 8.00001C9.00299 7.73479 8.89763 7.48044 8.7101 7.2929C8.52256 7.10537 8.26821 7.00001 8.00299 7.00001Z" fill="#232323"/>
</g>
<defs>
<clipPath id="clip0_975_3680">
<rect width="16" height="16" fill="white" transform="translate(0.00299072)"/>
</clipPath>
</defs>
</svg>
