<svg width="16" height="16" viewBox="0 0 16 16" fill="none" xmlns="http://www.w3.org/2000/svg">
<g clip-path="url(#clip0_975_3685)">
<path d="M0 0H16V16H0V0Z" fill="#808080" fill-opacity="0.01"/>
<path d="M3 1C1 1 1 3 1 3V13C1 15 3 15 3 15H13C13 15 15 15 15 13V3C15 1 13 1 13 1H11H3ZM6 3.004H7L12 3.008H13V13.004H3V3.008H4L6 3.004ZM6 4.004L4 4.008V6.008L6 6.004V4.004ZM7 4.004V6.004L12 6.008V4.008L7 4.004ZM6 7.004L4 7.008V9.004H6V7.004ZM7 7.004V9.004H12V7.008L7 7.004ZM4 10.004V12.004L6 12.002V10.004H4ZM7 10.004V12.002L12 12.004V10.004H7Z" fill="#232323"/>
</g>
<defs>
<clipPath id="clip0_975_3685">
<rect width="16" height="16" fill="white"/>
</clipPath>
</defs>
</svg>
