<svg width="16" height="16" viewBox="0 0 16 16" fill="none" xmlns="http://www.w3.org/2000/svg">
<g clip-path="url(#clip0_975_3684)">
<path d="M0 0H16V16H0V0Z" fill="#808080" fill-opacity="0.01"/>
<path d="M0.5 1.01001C0.367392 1.01001 0.240192 1.0627 0.146423 1.15646C0.0526552 1.25023 0 1.3774 0 1.51001C0 1.64262 0.0526552 1.76979 0.146423 1.86356C0.240192 1.95732 0.367392 2.01001 0.5 2.01001H1V10.01C1 11.01 2 11.01 2 11.01H7V12.26L4.28003 14.104C4.02003 14.229 3.92798 14.617 4.09198 14.854C4.25598 15.091 4.63298 15.114 4.84198 14.916L7.5 13.104L10.158 14.916C10.367 15.114 10.745 15.09 10.908 14.854C11.072 14.617 10.979 14.229 10.721 14.104L8 12.26V11.01H13C13 11.01 14.008 11.01 14 10.01V2.01001H14.5C14.6326 2.01001 14.7598 1.95732 14.8536 1.86356C14.9473 1.76979 15 1.64262 15 1.51001C15 1.3774 14.9473 1.25023 14.8536 1.15646C14.7598 1.0627 14.6326 1.01001 14.5 1.01001H1H0.5ZM3 3.01001H12V9.01001H11L7.5 5.51001L4 9.01001H3V3.01001Z" fill="#232323"/>
<path opacity="0.5" d="M4 3.01001V7.01001L5.313 5.51001L6.625 7.01001L8.813 4.51001L11 7.01001V3.01001H4Z" fill="#232323"/>
</g>
<defs>
<clipPath id="clip0_975_3684">
<rect width="16" height="16" fill="white"/>
</clipPath>
</defs>
</svg>
