<svg width="16" height="16" viewBox="0 0 16 16" fill="none" xmlns="http://www.w3.org/2000/svg">
<g clip-path="url(#clip0_412_3920)">
<path d="M0 0H16V16H0V0Z" fill="#808080" fill-opacity="0.01"/>
<path d="M6.50004 1C5.70604 1.001 5.72004 1.033 5.96904 2.031L7.59404 7H3.09404L1.87504 5.219C1.73504 5.01 1.75204 5 1.53004 5H1.31104C0.884043 5 1.03104 5.438 1.03104 5.438L1.31104 8L1.03104 10.563C1.03104 10.563 0.891043 11 1.28104 11H1.53104C1.74104 11 1.73404 10.991 1.87404 10.781L3.09304 9.001H7.59304L5.96804 13.938C5.70704 14.984 5.70404 15 6.50004 15C6.93204 15 6.93404 14.988 7.21904 14.5L10.906 9H14C14.554 9 15 8.554 15 8C15 7.446 14.554 7 14 7H10.906L7.22004 1.5C6.95304 1.043 6.93604 1.002 6.56304 1H6.50004Z" fill="#232323"/>
</g>
<defs>
<clipPath id="clip0_412_3920">
<rect width="16" height="16" fill="white"/>
</clipPath>
</defs>
</svg>
