<svg width="16" height="16" viewBox="0 0 16 16" fill="none" xmlns="http://www.w3.org/2000/svg">
<g clip-path="url(#clip0_511_3565)">
<path d="M3.5 0C2.57296 0.00394771 1.68502 0.373956 1.0295 1.02948C0.373972 1.685 0.00394771 2.57296 0 3.5V12.5C0 14.422 1.578 16 3.5 16H11.5C13.422 16 15 14.422 15 12.5V3.5C15 1.578 13.422 0 11.5 0H3.5ZM3.5 2H11.5C12.348 2 13 2.652 13 3.5V9.5C13 10.331 12.331 11 11.5 11H3.5C2.669 11 2 10.331 2 9.5V3.5C2 2.652 2.652 2 3.5 2ZM3.5 12C3.89782 12 4.27935 12.158 4.56065 12.4393C4.84196 12.7206 5 13.1022 5 13.5C5 13.8978 4.84196 14.2794 4.56065 14.5607C4.27935 14.842 3.89782 15 3.5 15C3.10218 15 2.72065 14.842 2.43935 14.5607C2.15804 14.2794 2 13.8978 2 13.5C2 13.1022 2.15804 12.7206 2.43935 12.4393C2.72065 12.158 3.10218 12 3.5 12ZM7.5 12C7.89782 12 8.27935 12.158 8.56065 12.4393C8.84196 12.7206 9 13.1022 9 13.5C9 13.8978 8.84196 14.2794 8.56065 14.5607C8.27935 14.842 7.89782 15 7.5 15C7.10218 15 6.72065 14.842 6.43935 14.5607C6.15804 14.2794 6 13.8978 6 13.5C6 13.1022 6.15804 12.7206 6.43935 12.4393C6.72065 12.158 7.10218 12 7.5 12ZM11.5 12C11.8978 12 12.2793 12.158 12.5607 12.4393C12.842 12.7206 13 13.1022 13 13.5C13 13.8978 12.842 14.2794 12.5607 14.5607C12.2793 14.842 11.8978 15 11.5 15C11.1022 15 10.7207 14.842 10.4393 14.5607C10.158 14.2794 10 13.8978 10 13.5C10 13.1022 10.158 12.7206 10.4393 12.4393C10.7207 12.158 11.1022 12 11.5 12Z" fill="#232323"/>
<path fill-rule="evenodd" clip-rule="evenodd" d="M7.5 2.5L6.25 4.49974H7V6.99942H5.5V6.36351C5.65172 6.27592 5.77777 6.15002 5.86552 5.9984C5.95327 5.84679 5.99964 5.67479 6 5.49962C6.00018 5.32406 5.95412 5.15155 5.86647 4.99943C5.77882 4.84732 5.65266 4.72096 5.50067 4.63306C5.34868 4.54517 5.17622 4.49883 5.00064 4.49872C4.82506 4.49861 4.65254 4.54472 4.50044 4.63242C4.34834 4.72012 4.22202 4.84632 4.13417 4.99832C4.04632 5.15033 4.00005 5.32278 4 5.49833C3.99995 5.67389 4.04614 5.84637 4.13391 5.99841C4.22168 6.15046 4.34794 6.27673 4.5 6.36451V6.99942C4.5 7.99929 5.5 7.99929 5.5 7.99929H7V8.63521C6.84828 8.7228 6.72223 8.8487 6.63448 9.00031C6.54673 9.15193 6.50036 9.32393 6.5 9.4991C6.49982 9.67466 6.54588 9.84717 6.63353 9.99929C6.72118 10.1514 6.84735 10.2778 6.99934 10.3657C7.15133 10.4536 7.32378 10.4999 7.49936 10.5C7.67494 10.5001 7.84746 10.454 7.99956 10.3663C8.15166 10.2786 8.27798 10.1524 8.36583 10.0004C8.45368 9.84839 8.49995 9.67594 8.5 9.50038C8.50005 9.32483 8.45386 9.15235 8.36609 9.0003C8.27832 8.84825 8.15206 8.72199 8 8.63422V7.99929H9.5C9.5 7.99929 10.5 7.99929 10.5 6.99942V6.49949C10.5 6.49949 11.0625 6.4055 11 5.99955V4.99968C11.0625 4.43725 10.5 4.49974 10.5 4.49974H9.5C8.9685 4.49974 9 4.99968 9 4.99968V5.99955C9 6.49949 9.5 6.49949 9.5 6.49949V6.99942H8V4.49974H8.75L7.5 2.5Z" fill="#232323"/>
</g>
<defs>
<clipPath id="clip0_511_3565">
<rect width="16" height="16" fill="white"/>
</clipPath>
</defs>
</svg>
