<svg width="16" height="16" viewBox="0 0 16 16" fill="none" xmlns="http://www.w3.org/2000/svg">
<path d="M8 2.004C4.676 2.004 2 4.68 2 8.004V12.004C2 12.004 2 14.004 4 14.004H4.5C5.331 14.004 6 13.335 6 12.504V10.504C6 9.673 5.331 9.004 4.5 9.004H4V8.004C3.99881 7.47838 4.10146 6.9577 4.30206 6.47186C4.50266 5.98602 4.79724 5.5446 5.16891 5.17293C5.54059 4.80126 5.98203 4.50666 6.46786 4.30606C6.9537 4.10546 7.47438 4.00281 8 4.004C10.216 4.004 12 5.788 12 8.004V9.004H11.5C10.669 9.004 10 9.673 10 10.504V12.504C10 13.335 10.669 14.004 11.5 14.004H12C12 14.004 14 14.004 14 12.004V8.004C14 4.68 11.324 2.004 8 2.004Z" fill="#232323"/>
</svg>
