<svg width="16" height="16" viewBox="0 0 16 16" fill="none" xmlns="http://www.w3.org/2000/svg">
<g clip-path="url(#clip0_511_3581)">
<path d="M0 0H16V16H0V0Z" fill="#808080" fill-opacity="0.01"/>
<path d="M4.40991 12.85C4.56039 12.9916 4.75121 13.0828 4.9559 13.111L9.3749 13.641L10.7889 15.056C10.8816 15.149 10.9918 15.2229 11.1131 15.2733C11.2344 15.3237 11.3645 15.3496 11.4959 15.3496C11.6273 15.3496 11.7574 15.3237 11.8787 15.2733C12 15.2229 12.1102 15.149 12.2029 15.056L15.0319 12.227C15.125 12.1343 15.1988 12.0241 15.2492 11.9027C15.2996 11.7814 15.3255 11.6514 15.3255 11.52C15.3255 11.3886 15.2996 11.2585 15.2492 11.1372C15.1988 11.0159 15.125 10.9057 15.0319 10.813L13.6179 9.39898L13.0879 4.97898C13.0109 4.34798 12.2029 3.74198 11.4959 4.44898L7.9609 7.98498L4.42489 11.52C3.93889 12.006 4.07291 12.54 4.40991 12.85Z" fill="#232323"/>
<path opacity="0.35" d="M5.56989 8.94998L3.71387 7.97798C4.42087 5.85598 5.83487 4.44199 7.95587 3.73499L8.92886 5.59099C6.80686 6.29799 6.27688 6.82899 5.56888 8.95099L5.56989 8.94998Z" fill="#232323"/>
<path opacity="0.35" d="M2.2601 8.03001L0.183105 7.27902C0.890105 3.74302 3.71809 0.915008 7.25409 0.208008L8.0051 2.28502C4.4701 2.99202 2.9671 4.49501 2.2601 8.03001Z" fill="#232323"/>
</g>
<defs>
<clipPath id="clip0_511_3581">
<rect width="16" height="16" fill="white"/>
</clipPath>
</defs>
</svg>
