<svg width="16" height="16" viewBox="0 0 16 16" fill="none" xmlns="http://www.w3.org/2000/svg">
<g clip-path="url(#clip0_511_3575)">
<path d="M0 0H16V16H0V0Z" fill="#808080" fill-opacity="0.01"/>
<path d="M3.05991 4.27C2.91833 4.42049 2.82712 4.61131 2.79892 4.81599L2.26892 9.235L0.853912 10.649C0.760847 10.7417 0.687013 10.8519 0.636627 10.9732C0.586241 11.0945 0.560303 11.2246 0.560303 11.356C0.560303 11.4874 0.586241 11.6174 0.636627 11.7388C0.687013 11.8601 0.760847 11.9703 0.853912 12.063L3.68292 14.892C3.77564 14.9851 3.88582 15.0589 4.00714 15.1093C4.12847 15.1597 4.25855 15.1856 4.38992 15.1856C4.52129 15.1856 4.65135 15.1597 4.77267 15.1093C4.894 15.0589 5.00417 14.9851 5.09689 14.892L5.80389 14.185L6.51089 13.477L10.9309 12.947C11.5619 12.871 12.1679 12.063 11.4609 11.357L7.9249 7.821L4.38992 4.285C3.90392 3.799 3.36991 3.933 3.05991 4.27Z" fill="#232323"/>
<path opacity="0.35" d="M6.94998 5.43999L7.92197 3.58398C10.044 4.29098 11.458 5.70499 12.165 7.82599L10.309 8.79898C9.60196 6.67698 9.07097 6.14698 6.94897 5.43898L6.94998 5.43999Z" fill="#232323"/>
<path opacity="0.35" d="M7.87988 2.12L8.63089 0.0429993C12.1669 0.749999 14.9949 3.578 15.7019 7.114L13.6249 7.86501C12.9179 4.33001 11.4149 2.827 7.87988 2.12Z" fill="#232323"/>
</g>
<defs>
<clipPath id="clip0_511_3575">
<rect width="16" height="16" fill="white"/>
</clipPath>
</defs>
</svg>
