<svg width="16" height="16" viewBox="0 0 16 16" fill="none" xmlns="http://www.w3.org/2000/svg">
<g clip-path="url(#clip0_511_3569)">
<path d="M0 0.00201416H16V16.002H0V0.00201416Z" fill="#808080" fill-opacity="0.00"/>
<path d="M8 0.00201416C4.676 0.00201416 2 2.67801 2 6.00201V10.002C2 10.002 2 12.002 4 12.002H4.5C5.331 12.002 6 11.333 6 10.502V8.50201C6 7.67101 5.331 7.00201 4.5 7.00201H4V6.00201C4 3.78601 5.784 2.00201 8 2.00201C10.216 2.00201 12 3.78601 12 6.00201V7.00201H11.5C10.669 7.00201 10 7.67101 10 8.50201V10.502C10 11.333 10.669 12.002 11.5 12.002H13C13 13.664 11.662 15.002 10 15.002H6V16.002H10C12.216 16.002 14 14.218 14 12.002V6.00201C14 2.67801 11.324 0.00201416 8 0.00201416Z" fill="#232323"/>
<path d="M9 14.002H7C6.44772 14.002 6 14.4497 6 15.002C6 15.5543 6.44772 16.002 7 16.002H9C9.55228 16.002 10 15.5543 10 15.002C10 14.4497 9.55228 14.002 9 14.002Z" fill="#232323"/>
</g>
<defs>
<clipPath id="clip0_511_3569">
<rect width="16" height="16.003" fill="white"/>
</clipPath>
</defs>
</svg>
