<svg width="16" height="17" viewBox="0 0 16 17" fill="none" xmlns="http://www.w3.org/2000/svg">
<g clip-path="url(#clip0_1527_4619)">
<path d="M8.5 0.0180054C5.453 0.0180054 3 2.69401 3 6.01801V10.018C3 13.342 5.453 16.018 8.5 16.018C11.547 16.018 14 13.342 14 10.018V6.01801C14 2.69401 11.547 0.0180054 8.5 0.0180054ZM8.46 2.08001C8.52712 2.07895 8.59376 2.09143 8.65595 2.11668C8.71815 2.14194 8.77462 2.17946 8.822 2.22701L11.822 5.22701C11.8718 5.27665 11.9106 5.33623 11.9358 5.40187C11.961 5.46751 11.972 5.53773 11.9683 5.60794C11.9645 5.67816 11.946 5.74678 11.9139 5.80934C11.8818 5.8719 11.8368 5.92699 11.782 5.97101L9.145 8.08101L11.781 10.19C11.8359 10.2339 11.8809 10.289 11.9131 10.3515C11.9453 10.414 11.9639 10.4826 11.9678 10.5528C11.9717 10.6231 11.9607 10.6933 11.9356 10.759C11.9104 10.8247 11.8717 10.8843 11.822 10.934L8.822 13.934C8.75208 14.0037 8.66309 14.0512 8.56624 14.0704C8.4694 14.0896 8.36903 14.0797 8.27781 14.0419C8.18658 14.0041 8.10857 13.9402 8.05362 13.8582C7.99866 13.7762 7.96922 13.6797 7.969 13.581V9.02001L5.781 10.77C5.67714 10.848 5.54699 10.8826 5.4181 10.8663C5.28922 10.8501 5.17172 10.7843 5.09049 10.6829C5.00926 10.5815 4.97068 10.4525 4.9829 10.3232C4.99513 10.1939 5.05721 10.0744 5.156 9.99001L7.543 8.08001L5.156 6.17001C5.10245 6.12978 5.05753 6.0792 5.0239 6.02128C4.99028 5.96336 4.96863 5.89927 4.96025 5.83282C4.95187 5.76638 4.95692 5.69892 4.97511 5.63446C4.99329 5.57 5.02425 5.50986 5.06613 5.45759C5.10801 5.40532 5.15996 5.362 5.2189 5.3302C5.27785 5.2984 5.34258 5.27877 5.40926 5.27246C5.47593 5.26616 5.5432 5.27331 5.60706 5.29351C5.67092 5.3137 5.73007 5.34651 5.781 5.39001L7.969 7.14001V2.58001C7.96898 2.44877 8.02056 2.32279 8.11261 2.22925C8.20465 2.13571 8.32978 2.08211 8.461 2.08001H8.46ZM8.969 3.78701V6.94001L10.721 5.54001L8.969 3.78701ZM8.969 9.22101V12.373L10.721 10.621L8.969 9.22101Z" fill="#232323"/>
<path d="M0 0H16V16H0V0Z" fill="#808080" fill-opacity="0.01"/>
</g>
<defs>
<clipPath id="clip0_1527_4619">
<rect width="16" height="16.02" fill="white"/>
</clipPath>
</defs>
</svg>
