<svg width="17" height="16" viewBox="0 0 17 16" fill="none" xmlns="http://www.w3.org/2000/svg">
<path d="M0 0V16H16V0H0Z" fill="#808080" fill-opacity="0.00"/>
<path d="M1.5 1C1.36739 1 1.24022 1.05269 1.14645 1.14645C1.05269 1.24022 1 1.36739 1 1.5C1 1.63261 1.05269 1.75978 1.14645 1.85355C1.24022 1.94731 1.36739 2 1.5 2H2V10C2 11 3 11 3 11H8V12.25L5.28 14.094C5.02 14.219 4.92801 14.607 5.09201 14.844C5.25601 15.081 5.63301 15.104 5.84201 14.906L8.5 13.094L11.158 14.906C11.367 15.104 11.745 15.08 11.908 14.844C12.072 14.607 11.98 14.219 11.721 14.094L9 12.25V11H14C14 11 15.008 11 15 10V2H15.5C15.6326 2 15.7598 1.94731 15.8535 1.85355C15.9473 1.75978 16 1.63261 16 1.5C16 1.36739 15.9473 1.24022 15.8535 1.14645C15.7598 1.05269 15.6326 1 15.5 1H2H1.5ZM4 3H13V9H4V3Z" fill="#232323"/>
</svg>
