<svg width="16" height="16" viewBox="0 0 16 16" fill="none" xmlns="http://www.w3.org/2000/svg">
<g clip-path="url(#clip0_514_3601)">
<path d="M0 16V0H16V16H0Z" fill="#808080" fill-opacity="0.00"/>
<path d="M3.00391 1.03C2.00391 1.03 2.00391 2.03 2.00391 2.03V14.03C2.00391 14.03 2.00391 15.03 3.00391 15.03H13.0039C13.0039 15.03 14.0039 15.03 14.0039 14.03V2.03C14.0039 2.03 14.0039 1.03 13.0039 1.03H3.00391ZM8.00391 3.03C9.06477 3.03 10.0822 3.45142 10.8323 4.20157C11.5825 4.95171 12.0039 5.96913 12.0039 7.03C12.0039 8.09086 11.5825 9.10828 10.8323 9.85843C10.0822 10.6086 9.06477 11.03 8.00391 11.03H4.00391V7.03C4.00391 5.96913 4.42533 4.95171 5.17548 4.20157C5.92562 3.45142 6.94304 3.03 8.00391 3.03ZM8.00391 5.03C7.47347 5.03 6.96476 5.24071 6.58969 5.61578C6.21462 5.99086 6.00391 6.49957 6.00391 7.03C6.00391 7.56043 6.21462 8.06914 6.58969 8.44421C6.96476 8.81929 7.47347 9.03 8.00391 9.03C8.53434 9.03 9.04305 8.81929 9.41812 8.44421C9.79319 8.06914 10.0039 7.56043 10.0039 7.03C10.0039 6.49957 9.79319 5.99086 9.41812 5.61578C9.04305 5.24071 8.53434 5.03 8.00391 5.03Z" fill="#232323"/>
</g>
<defs>
<clipPath id="clip0_514_3601">
<rect width="16" height="16" fill="white"/>
</clipPath>
</defs>
</svg>
