<svg width="16" height="16" viewBox="0 0 16 16" fill="none" xmlns="http://www.w3.org/2000/svg">
<g clip-path="url(#clip0_514_3602)">
<path d="M0 -0.00299072H16V15.997H0V-0.00299072Z" fill="#808080" fill-opacity="0.00"/>
<path fill-rule="evenodd" clip-rule="evenodd" d="M8 0L5.5 4H7V9H4V7.728C4.30344 7.5528 4.55555 7.30096 4.73105 6.9977C4.90655 6.69443 4.99929 6.35039 5 6C5.00036 5.64884 4.90825 5.30377 4.73294 4.9995C4.55763 4.69523 4.30532 4.44248 4.00134 4.26666C3.69736 4.09085 3.35244 3.99818 3.00128 3.99796C2.65012 3.99773 2.30509 4.08996 2.00089 4.26538C1.69668 4.4408 1.44404 4.69324 1.26834 4.99728C1.09264 5.30133 1.00009 5.64628 1 5.99744C0.99991 6.3486 1.09228 6.69359 1.26782 6.99773C1.44336 7.30186 1.69589 7.55442 2 7.73V9C2 11 4 11 4 11H7V12.272C6.69656 12.4472 6.44445 12.699 6.26895 13.0023C6.09345 13.3056 6.00071 13.6496 6 14C5.99964 14.3512 6.09175 14.6962 6.26706 15.0005C6.44237 15.3048 6.69468 15.5575 6.99866 15.7333C7.30264 15.9092 7.64756 16.0018 7.99872 16.002C8.34988 16.0023 8.69491 15.91 8.99911 15.7346C9.30332 15.5592 9.55596 15.3068 9.73166 15.0027C9.90736 14.6987 9.99991 14.3537 10 14.0026C10.0001 13.6514 9.90772 13.3064 9.73218 13.0023C9.55664 12.6981 9.30411 12.4456 9 12.27V11H12C12 11 14 11 14 9V8C14 8 15.125 7.812 15 7V5C15.125 3.875 14 4 14 4H12C10.937 4 11 5 11 5V7C11 8 12 8 12 8V9H9V4H10.5L8 0Z" fill="#232323"/>
</g>
<defs>
<clipPath id="clip0_514_3602">
<rect width="16" height="16.003" fill="white"/>
</clipPath>
</defs>
</svg>
