<svg width="16" height="16" viewBox="0 0 16 16" fill="none" xmlns="http://www.w3.org/2000/svg">
<g clip-path="url(#clip0_514_3600)">
<path d="M16 0V16H0V0H16Z" fill="#808080" fill-opacity="0.00"/>
<path d="M3 1C2.446 1 2 1.446 2 2V14C2 14.554 2.446 15 3 15H13C13.554 15 14 14.554 14 14V2C14 1.446 13.554 1 13 1H3ZM5 11C5.26522 11 5.51956 11.1054 5.70709 11.2929C5.89463 11.4804 6 11.7348 6 12C6 12.2652 5.89463 12.5196 5.70709 12.7071C5.51956 12.8946 5.26522 13 5 13C4.73478 13 4.48044 12.8946 4.29291 12.7071C4.10537 12.5196 4 12.2652 4 12C4 11.7348 4.10537 11.4804 4.29291 11.2929C4.48044 11.1054 4.73478 11 5 11Z" fill="#232323"/>
</g>
<defs>
<clipPath id="clip0_514_3600">
<rect width="16" height="16" fill="white"/>
</clipPath>
</defs>
</svg>
