<svg width="16" height="16" viewBox="0 0 16 16" fill="none" xmlns="http://www.w3.org/2000/svg">
<g clip-path="url(#clip0_514_3599)">
<path d="M8.5 5.03C7.83696 5.03 7.20108 5.2934 6.73224 5.76224C6.2634 6.23108 6 6.86696 6 7.53C6 8.19304 6.2634 8.82892 6.73224 9.29776C7.20108 9.7666 7.83696 10.03 8.5 10.03C9.16304 10.03 9.79892 9.7666 10.2678 9.29776C10.7366 8.82892 11 8.19304 11 7.53C11 6.86696 10.7366 6.23108 10.2678 5.76224C9.79892 5.2934 9.16304 5.03 8.5 5.03ZM8.5 6.03C8.89782 6.03 9.27936 6.18804 9.56067 6.46935C9.84197 6.75065 10 7.13217 10 7.53C10 7.92782 9.84197 8.30936 9.56067 8.59067C9.27936 8.87197 8.89782 9.03 8.5 9.03C8.10218 9.03 7.72064 8.87197 7.43933 8.59067C7.15803 8.30936 7 7.92782 7 7.53C7 7.13217 7.15803 6.75065 7.43933 6.46935C7.72064 6.18804 8.10218 6.03 8.5 6.03Z" fill="#232323"/>
<path d="M7 11.03H10V12.03H7V11.03Z" fill="#232323"/>
<path d="M7 13.03H10V14.03H7V13.03Z" fill="#232323"/>
<path d="M2.84009 3.996L4.96109 1.875L5.66809 2.582L3.54709 4.703L2.84009 3.996Z" fill="#232323"/>
<path d="M4.25391 5.40999L6.37491 3.28998L7.08191 3.99599L4.96191 6.11798L4.25391 5.40999Z" fill="#232323"/>
<path d="M12.0321 1.875L14.1531 3.996L12.0331 6.118L9.91113 3.996L12.0321 1.875Z" fill="#232323"/>
<path d="M0 15.999H16V-0.00100708H0V15.999Z" fill="#808080" fill-opacity="0.00"/>
</g>
<defs>
<clipPath id="clip0_514_3599">
<rect width="16" height="16" fill="white"/>
</clipPath>
</defs>
</svg>
