<svg width="16" height="16" viewBox="0 0 16 16" fill="none" xmlns="http://www.w3.org/2000/svg">
<g clip-path="url(#clip0_514_3603)">
<path d="M0 16H16V0H0V16Z" fill="#808080" fill-opacity="0.00"/>
<path d="M1 11.03C0.446 11.03 0 11.476 0 12.03V14.03C0 14.584 0.446 15.03 1 15.03H15C15.554 15.03 16 14.584 16 14.03V12.03C16 11.476 15.554 11.03 15 11.03H1ZM2 12.03H4V14.03H2V12.03Z" fill="#232323"/>
<path d="M1 6.03C0.446 6.03 0 6.476 0 7.03V9.03C0 9.584 0.446 10.03 1 10.03H15C15.554 10.03 16 9.584 16 9.03V7.03C16 6.476 15.554 6.03 15 6.03H1ZM2 7.03H4V9.03H2V7.03Z" fill="#232323"/>
<path d="M1 1.03C0.446 1.03 0 1.476 0 2.03V4.03C0 4.584 0.446 5.03 1 5.03H15C15.554 5.03 16 4.584 16 4.03V2.03C16 1.476 15.554 1.03 15 1.03H1ZM2 2.03H4V4.03H2V2.03Z" fill="#232323"/>
</g>
<defs>
<clipPath id="clip0_514_3603">
<rect width="16" height="16" fill="white"/>
</clipPath>
</defs>
</svg>
