<svg width="16" height="16" viewBox="0 0 16 16" fill="none" xmlns="http://www.w3.org/2000/svg">
<g clip-path="url(#clip0_514_3606)">
<path d="M3.49707 1C3.22007 1 2.99707 1.223 2.99707 1.5V3.5C2.99707 3.777 3.22007 4 3.49707 4H5.49707C5.77407 4 5.99707 3.777 5.99707 3.5V1.5C5.99707 1.223 5.77407 1 5.49707 1H3.49707ZM7.49707 1C7.22007 1 6.99707 1.223 6.99707 1.5V3.5C6.99707 3.777 7.22007 4 7.49707 4H9.49707C9.77407 4 9.99707 3.777 9.99707 3.5V1.5C9.99707 1.223 9.77407 1 9.49707 1H7.49707ZM11.4971 1C11.2201 1 10.9971 1.223 10.9971 1.5V3.5C10.9971 3.777 11.2201 4 11.4971 4H13.4971C13.7741 4 13.9971 3.777 13.9971 3.5V1.5C13.9971 1.223 13.7741 1 13.4971 1H11.4971ZM3.49707 5C3.22007 5 2.99707 5.223 2.99707 5.5V7.5C2.99707 7.777 3.22007 8 3.49707 8H5.49707C5.77407 8 5.99707 7.777 5.99707 7.5V5.5C5.99707 5.223 5.77407 5 5.49707 5H3.49707ZM7.49707 5C7.22007 5 6.99707 5.223 6.99707 5.5V7.5C6.99707 7.777 7.22007 8 7.49707 8H9.49707C9.77407 8 9.99707 7.777 9.99707 7.5V5.5C9.99707 5.223 9.77407 5 9.49707 5H7.49707ZM11.4971 5C11.2201 5 10.9971 5.223 10.9971 5.5V7.5C10.9971 7.777 11.2201 8 11.4971 8H13.4971C13.7741 8 13.9971 7.777 13.9971 7.5V5.5C13.9971 5.223 13.7741 5 13.4971 5H11.4971ZM3.49707 9C3.22007 9 2.99707 9.223 2.99707 9.5V11.5C2.99707 11.777 3.22007 12 3.49707 12H5.49707C5.77407 12 5.99707 11.777 5.99707 11.5V9.5C5.99707 9.223 5.77407 9 5.49707 9H3.49707ZM7.49707 9C7.22007 9 6.99707 9.223 6.99707 9.5V11.5C6.99707 11.777 7.22007 12 7.49707 12H9.49707C9.77407 12 9.99707 11.777 9.99707 11.5V9.5C9.99707 9.223 9.77407 9 9.49707 9H7.49707ZM11.4971 9C11.2201 9 10.9971 9.223 10.9971 9.5V11.5C10.9971 11.777 11.2201 12 11.4971 12H13.4971C13.7741 12 13.9971 11.777 13.9971 11.5V9.5C13.9971 9.223 13.7741 9 13.4971 9H11.4971ZM7.49707 13C7.22007 13 6.99707 13.223 6.99707 13.5V15.5C6.99707 15.777 7.22007 16 7.49707 16H9.49707C9.77407 16 9.99707 15.777 9.99707 15.5V13.5C9.99707 13.223 9.77407 13 9.49707 13H7.49707Z" fill="#232323"/>
<path d="M15.9971 0V16H-0.00292969V0H15.9971Z" fill="#808080" fill-opacity="0.00"/>
</g>
<defs>
<clipPath id="clip0_514_3606">
<rect width="16" height="16" fill="white"/>
</clipPath>
</defs>
</svg>
