<svg width="16" height="16" viewBox="0 0 16 16" fill="none" xmlns="http://www.w3.org/2000/svg">
<g clip-path="url(#clip0_515_3612)">
<path d="M0 0H16V16H0V0Z" fill="#808080" fill-opacity="0.00"/>
<path d="M2 2C1 2 1 3 1 3V12C1 12 1 13 2 13H14C14 13 15 13 15 12V3C15 3 15 2 14 2H2ZM3 4H13V11L3 10.976V4ZM0 14V14.997H16V14C16 13 15 13 15 13H0.977997C0.977997 13 0 13 0 14Z" fill="#232323"/>
</g>
<defs>
<clipPath id="clip0_515_3612">
<rect width="16" height="16" fill="white"/>
</clipPath>
</defs>
</svg>
