<svg width="17" height="16" viewBox="0 0 17 16" fill="none" xmlns="http://www.w3.org/2000/svg">
<g clip-path="url(#clip0_515_3621)">
<path d="M0.00292969 0H16.0029V16H0.00292969V0Z" fill="#808080" fill-opacity="0.00"/>
<path d="M3.33691 2C2.71839 2.00158 2.12566 2.248 1.68829 2.68536C1.25093 3.12273 1.00451 3.71547 1.00293 4.334V11.666C1.00451 12.2845 1.25093 12.8773 1.68829 13.3146C2.12566 13.752 2.71839 13.9984 3.33691 14H12.6689C13.2874 13.9984 13.8802 13.752 14.3176 13.3146C14.7549 12.8773 15.0013 12.2845 15.0029 11.666V4.334C15.0013 3.71547 14.7549 3.12273 14.3176 2.68536C13.8802 2.248 13.2874 2.00158 12.6689 2H3.33691ZM3.33691 3H12.6689C13.2989 3 13.8099 3.42 13.9559 4H2.04993C2.19593 3.42 2.70591 3 3.33691 3ZM2.00293 6H14.0029V11.666C14.0048 11.8417 13.9716 12.016 13.9052 12.1787C13.8388 12.3414 13.7406 12.4892 13.6164 12.6135C13.4921 12.7377 13.3443 12.8359 13.1816 12.9023C13.0189 12.9687 12.8446 13.0019 12.6689 13H3.33691C3.16121 13.0019 2.98691 12.9687 2.82422 12.9023C2.66152 12.8359 2.51371 12.7377 2.38947 12.6135C2.26522 12.4892 2.16702 12.3414 2.10065 12.1787C2.03427 12.016 2.00106 11.8417 2.00293 11.666V6Z" fill="#232323"/>
<path d="M11.0068 11H13.0068V12H11.0068V11Z" fill="#232323"/>
<path d="M3.00684 7H11.0068V9H3.00684V7Z" fill="#232323"/>
<path d="M3.00684 10H6.00684V12H3.00684V10Z" fill="#232323"/>
</g>
<defs>
<clipPath id="clip0_515_3621">
<rect width="16" height="16" fill="white" transform="translate(0.00292969)"/>
</clipPath>
</defs>
</svg>
