<svg width="16" height="16" viewBox="0 0 16 16" fill="none" xmlns="http://www.w3.org/2000/svg">
<g clip-path="url(#clip0_515_3623)">
<path d="M1 10V13C1 13 1 14 2 14H7V16H9V14H14C15 14 15 13 15 13V10H1ZM3 11H4V12H3V11Z" fill="#232323"/>
<path d="M0 0H16V16H0V0Z" fill="#808080" fill-opacity="0.00"/>
<path d="M2 5C1.5 5 1 5.5 1 6V9H15V6C15 5.5 14.5 5 14 5H2ZM4 6.006C4.554 6.006 5 6.452 5 7.006C5 7.56 4.554 8.006 4 8.006C3.446 8.006 3 7.56 3 7.006C3 6.452 3.446 6.006 4 6.006Z" fill="#232323"/>
<path d="M4 1V4H12V1H4Z" fill="#232323"/>
</g>
<defs>
<clipPath id="clip0_515_3623">
<rect width="16" height="16" fill="white"/>
</clipPath>
</defs>
</svg>
