<svg width="16" height="16" viewBox="0 0 16 16" fill="none" xmlns="http://www.w3.org/2000/svg">
<path d="M15 4C15 2 13 2 13 2L3 2C1 2 1 4 1 4V12C1 12 1 14 3 14H13L15 12V4ZM10.998 9.99799L11 11C11 12 10 12 10 12L8.998 11.998V9.99799H10.998ZM11 5L10.995 5.99799H8.995V3.99799L10 4C10 4 11 4 11 5ZM10.995 6.99799V8.99799H8.995V6.99799H10.995ZM7.99899 3.99799L7.99899 11.998H5.99899V3.99799H7.99899ZM5.002 9.99799V11.998L4 12C3 12 3 11 3 11L3.002 9.99799H5.002ZM4.998 3.99799V5.99799L2.998 5.99799L3 5C3 4 4 4 4 4L4.998 3.99799ZM4.998 6.99799V8.99799H2.998V6.99799H4.998Z" fill="#232323"/>
</svg>
