<svg width="16" height="16" viewBox="0 0 16 16" fill="none" xmlns="http://www.w3.org/2000/svg">
<path d="M12.2857 0H3.71429C2.77143 0 2 0.72 2 1.6V14.4C2 15.28 2.77143 15.992 3.71429 15.992L12.2857 16C13.2286 16 14 15.28 14 14.4V1.6C14 0.72 13.2286 0 12.2857 0ZM8 1.6C8.94286 1.6 9.71429 2.32 9.71429 3.2C9.71429 4.08 8.94286 4.8 8 4.8C7.04857 4.8 6.28571 4.08 6.28571 3.2C6.28571 2.32 7.04857 1.6 8 1.6ZM8 14.4C5.63429 14.4 3.71429 12.608 3.71429 10.4C3.71429 8.192 5.63429 6.4 8 6.4C10.3657 6.4 12.2857 8.192 12.2857 10.4C12.2857 12.608 10.3657 14.4 8 14.4ZM8 8C6.57714 8 5.42857 9.072 5.42857 10.4C5.42857 11.728 6.57714 12.8 8 12.8C9.42286 12.8 10.5714 11.728 10.5714 10.4C10.5714 9.072 9.42286 8 8 8Z" fill="#232323"/>
</svg>
