<svg width="16" height="16" viewBox="0 0 16 16" fill="none" xmlns="http://www.w3.org/2000/svg">
<g clip-path="url(#clip0_515_3630)">
<path d="M16 0V16H0V0H16Z" fill="#808080" fill-opacity="0.00"/>
<path d="M4 0C4 0 2 0 2 2V16H14V2C14 0 12 0 12 0H4ZM8 2V5H11L8 10V7H5L8 2ZM5 12C5.26522 12 5.51956 12.1054 5.70709 12.2929C5.89463 12.4804 6 12.7348 6 13C6 13.2652 5.89463 13.5196 5.70709 13.7071C5.51956 13.8946 5.26522 14 5 14C4.73478 14 4.48044 13.8946 4.29291 13.7071C4.10537 13.5196 4 13.2652 4 13C4 12.7348 4.10537 12.4804 4.29291 12.2929C4.48044 12.1054 4.73478 12 5 12Z" fill="#232323"/>
</g>
<defs>
<clipPath id="clip0_515_3630">
<rect width="16" height="16" fill="white"/>
</clipPath>
</defs>
</svg>
