<svg width="16" height="16" viewBox="0 0 16 16" fill="none" xmlns="http://www.w3.org/2000/svg">
<g clip-path="url(#clip0_1527_5096)">
<path d="M0 0V16H16V0H0Z" fill="#808080" fill-opacity="0.00"/>
<path d="M4 8C5.65685 8 7 6.65685 7 5C7 3.34315 5.65685 2 4 2C2.34315 2 1 3.34315 1 5C1 6.65685 2.34315 8 4 8Z" fill="#232323"/>
<path d="M11 8C12.6569 8 14 6.65685 14 5C14 3.34315 12.6569 2 11 2C9.34315 2 8 3.34315 8 5C8 6.65685 9.34315 8 11 8Z" fill="#232323"/>
<path d="M12 9L15 7V13L12 11V9Z" fill="#232323"/>
<path d="M10 7H3C1.89543 7 1 7.89543 1 9V11C1 12.1046 1.89543 13 3 13H10C11.1046 13 12 12.1046 12 11V9C12 7.89543 11.1046 7 10 7Z" fill="#232323"/>
</g>
<defs>
<clipPath id="clip0_1527_5096">
<rect width="16" height="16" fill="white"/>
</clipPath>
</defs>
</svg>
