<svg width="16" height="16" viewBox="0 0 16 16" fill="none" xmlns="http://www.w3.org/2000/svg">
<g clip-path="url(#clip0_1527_5094)">
<path d="M16 7.96997H14C14.0001 6.65682 13.569 5.37997 12.773 4.33558C11.9771 3.29118 10.8602 2.53703 9.594 2.18897C9.562 2.17897 9.532 2.16597 9.5 2.15797C9.245 2.09197 8.986 2.06397 8.719 2.03297C8.486 2.00497 8.24 1.96997 8 1.96997C7.38516 1.97009 6.774 2.06486 6.188 2.25097V2.28297C5.35328 2.53964 4.58517 2.97662 3.938 3.56297L5.125 5.15797C5.627 4.64397 6.283 4.30997 7 4.12597V4.09597C7.38 4.00597 7.79 3.97297 8.188 4.00097C8.369 4.01397 8.537 4.03097 8.718 4.06397C10.587 4.40197 12 6.00597 12 7.96997H10L13 11.97L16 7.96997ZM12.062 12.376L10.875 10.782C10.373 11.296 9.717 11.629 9 11.814V11.844C8.62 11.934 8.21 11.967 7.812 11.939C7.63425 11.9283 7.45728 11.9073 7.282 11.876C5.413 11.538 4 9.93397 4 7.96997H6L3 3.96997L0 7.96997H2C1.99991 9.28312 2.43097 10.56 3.22695 11.6044C4.02294 12.6488 5.13982 13.4029 6.406 13.751C6.438 13.76 6.468 13.774 6.5 13.782C6.755 13.848 7.014 13.876 7.281 13.907C7.514 13.935 7.759 13.97 8 13.97C8.61489 13.9695 9.22605 13.8744 9.812 13.688V13.658C10.6469 13.4007 11.415 12.963 12.062 12.376Z" fill="#232323"/>
<path d="M16 16H0V0H16V16Z" fill="#808080" fill-opacity="0.00"/>
</g>
<defs>
<clipPath id="clip0_1527_5094">
<rect width="16" height="16" fill="white"/>
</clipPath>
</defs>
</svg>
