<svg width="16" height="16" viewBox="0 0 16 16" fill="none" xmlns="http://www.w3.org/2000/svg">
<g clip-path="url(#clip0_975_3669)">
<path d="M0 0H16V16H0V0Z" fill="#808080" fill-opacity="0.01"/>
<path d="M4 1C3.446 1 3 1.446 3 2V3H1C0.446 3 0 3.446 0 4V12C0 12.554 0.446 13 1 13H3V14C3 14.554 3.446 15 4 15C4.554 15 5 14.554 5 14V13H7V14C7 14.554 7.446 15 8 15C8.554 15 9 14.554 9 14V13H11V14C11 14.554 11.446 15 12 15C12.554 15 13 14.554 13 14V13H15C15.554 13 16 12.554 16 12V4C16 3.446 15.554 3 15 3H13V2C13 1.446 12.554 1 12 1C11.446 1 11 1.446 11 2V3H9V2C9 1.446 8.554 1 8 1C7.446 1 7 1.446 7 2V3H5V2C5 1.446 4.554 1 4 1ZM2 5H14V6C13.4696 6 12.9609 6.21071 12.5858 6.58579C12.2107 6.96086 12 7.46957 12 8C12 8.53043 12.2107 9.03914 12.5858 9.41421C12.9609 9.78929 13.4696 10 14 10V11H2V5Z" fill="#232323"/>
</g>
<defs>
<clipPath id="clip0_975_3669">
<rect width="16" height="16" fill="white"/>
</clipPath>
</defs>
</svg>
