<svg width="16" height="16" viewBox="0 0 16 16" fill="none" xmlns="http://www.w3.org/2000/svg">
<g clip-path="url(#clip0_975_3667)">
<path d="M6.5 1C5.669 1 5 1.669 5 2.5V4H2C1.446 4 1 4.446 1 5V8H2.5C3.331 8 4 8.669 4 9.5C4 10.331 3.331 11 2.5 11H1V14C1 14.554 1.446 15 2 15H5V13.5C5 12.669 5.669 12 6.5 12C7.331 12 8 12.669 8 13.5V15H11C11.554 15 12 14.554 12 14V11H13.5C14.331 11 15 10.331 15 9.5C15 8.669 14.331 8 13.5 8H12V5C12 4.446 11.554 4 11 4H8V2.5C8 1.669 7.331 1 6.5 1Z" fill="#232323"/>
<path d="M0 0H16V16H0V0Z" fill="#808080" fill-opacity="0.01"/>
</g>
<defs>
<clipPath id="clip0_975_3667">
<rect width="16" height="16" fill="white"/>
</clipPath>
</defs>
</svg>
