<svg width="16" height="16" viewBox="0 0 16 16" fill="none" xmlns="http://www.w3.org/2000/svg">
<g clip-path="url(#clip0_975_3665)">
<path d="M0 0H16V16H0V0Z" fill="#808080" fill-opacity="0.01"/>
<path d="M2 2V3C2 3.55 2.453 4 3 4C5.38695 4 7.67613 4.94821 9.36396 6.63604C11.0518 8.32387 12 10.6131 12 13C12 13.55 12.453 14 13 14H14V13C14 6.925 9.075 2 3 2H2ZM2 6V7C2 7.55 2.453 8 3 8C4.32608 8 5.59785 8.52678 6.53553 9.46447C7.47322 10.4021 8 11.6739 8 13C8 13.55 8.453 14 9 14H10V13C10 11.1435 9.2625 9.36301 7.94975 8.05025C6.63699 6.7375 4.85652 6 3 6H2ZM4 10C3.46957 10 2.96086 10.2107 2.58579 10.5858C2.21071 10.9609 2 11.4696 2 12C2 12.5304 2.21071 13.0391 2.58579 13.4142C2.96086 13.7893 3.46957 14 4 14C4.53043 14 5.03914 13.7893 5.41421 13.4142C5.78929 13.0391 6 12.5304 6 12C6 11.4696 5.78929 10.9609 5.41421 10.5858C5.03914 10.2107 4.53043 10 4 10Z" fill="#232323"/>
</g>
<defs>
<clipPath id="clip0_975_3665">
<rect width="16" height="16" fill="white"/>
</clipPath>
</defs>
</svg>
