<svg width="16" height="16" viewBox="0 0 16 16" fill="none" xmlns="http://www.w3.org/2000/svg">
<g clip-path="url(#clip0_975_3672)">
<path d="M0 0H16V16H0V0Z" fill="#808080" fill-opacity="0.01"/>
<path d="M3 2.01001C2.46957 2.01001 1.96089 2.22072 1.58582 2.59579C1.21074 2.97087 1 3.47958 1 4.01001V13.01C1 13.5404 1.21074 14.0492 1.58582 14.4242C1.96089 14.7993 2.46957 15.01 3 15.01H13C13.5304 15.01 14.0391 14.7993 14.4142 14.4242C14.7893 14.0492 15 13.5404 15 13.01V6.01001C15 5.47958 14.7893 4.97087 14.4142 4.59579C14.0391 4.22072 13.5304 4.01001 13 4.01001H9L7 2.01001H3Z" fill="#232323"/>
</g>
<defs>
<clipPath id="clip0_975_3672">
<rect width="16" height="16" fill="white"/>
</clipPath>
</defs>
</svg>
