<svg width="16" height="16" viewBox="0 0 16 16" fill="none" xmlns="http://www.w3.org/2000/svg">
<g clip-path="url(#clip0_975_3673)">
<path d="M0 0H16V16H0V0Z" fill="#808080" fill-opacity="0.00"/>
<path d="M8 1C4.158 1 1 4.158 1 8C1 11.842 4.158 15 8 15C11.842 15 15 11.842 15 8C15 4.158 11.842 1 8 1ZM8 6C9.099 6 10 6.901 10 8C10 9.099 9.099 10 8 10C6.901 10 6 9.099 6 8C6 6.901 6.901 6 8 6Z" fill="#232323"/>
</g>
<defs>
<clipPath id="clip0_975_3673">
<rect width="16" height="16" fill="white"/>
</clipPath>
</defs>
</svg>
