<svg width="16" height="16" viewBox="0 0 16 16" fill="none" xmlns="http://www.w3.org/2000/svg">
<g clip-path="url(#clip0_975_3675)">
<path d="M0 0H16V16H0V0Z" fill="#808080" fill-opacity="0.00"/>
<path d="M3.97999 3C3.71862 3.0042 3.46938 3.11099 3.28604 3.29732C3.1027 3.48365 2.99996 3.73459 2.99999 3.996V4C2.99999 4.554 3.44599 5 3.99999 5H12C12.554 5 13 4.554 13 4V3.996C13 3.73459 12.8973 3.48365 12.714 3.29732C12.5306 3.11099 12.2814 3.0042 12.02 3H3.97999ZM3.97999 7C3.71531 7.00265 3.46252 7.11034 3.27723 7.29938C3.09194 7.48842 2.98934 7.74331 2.99199 8.008C2.99465 8.27269 3.10234 8.52548 3.29137 8.71076C3.48041 8.89605 3.73531 8.99865 3.99999 8.996H7.99999C8.13105 8.99626 8.26088 8.97071 8.38206 8.9208C8.50325 8.87089 8.61341 8.7976 8.70627 8.70511C8.79913 8.61262 8.87286 8.50275 8.92326 8.38177C8.97366 8.26078 8.99973 8.13106 8.99999 8V7.996C9.00003 7.73459 8.89729 7.48365 8.71395 7.29732C8.53061 7.11099 8.28137 7.0042 8.01999 7H3.97999ZM5.99999 10.996L3.98399 11C3.71931 11.0021 3.46631 11.1093 3.28064 11.298C3.09498 11.4866 2.99187 11.7413 2.99399 12.006C2.99612 12.2707 3.1033 12.5237 3.29196 12.7093C3.48062 12.895 3.73531 12.9981 3.99999 12.996H5.99999C6.55399 12.996 6.99999 12.55 6.99999 11.996C7.00026 11.8649 6.97467 11.7349 6.9247 11.6137C6.87472 11.4925 6.80134 11.3822 6.70875 11.2894C6.61615 11.1965 6.50616 11.1228 6.38507 11.0724C6.26397 11.0221 6.13414 10.9961 6.00299 10.996H5.99999Z" fill="#232323"/>
<path d="M11 7C10.446 7 10 7.446 10 8V11.094C9.83965 11.0353 9.67071 11.0036 9.5 11C9.20333 11 8.91332 11.088 8.66665 11.2528C8.41997 11.4176 8.22771 11.6519 8.11418 11.926C8.00065 12.2001 7.97094 12.5017 8.02882 12.7926C8.0867 13.0836 8.22956 13.3509 8.43934 13.5607C8.64912 13.7704 8.91639 13.9133 9.20736 13.9712C9.49834 14.0291 9.79994 13.9994 10.074 13.8858C10.3481 13.7723 10.5824 13.58 10.7472 13.3334C10.912 13.0867 11 12.7967 11 12.5V9H14V11.094C13.8396 11.0353 13.6707 11.0036 13.5 11C13.2033 11 12.9133 11.088 12.6666 11.2528C12.42 11.4176 12.2277 11.6519 12.1142 11.926C12.0006 12.2001 11.9709 12.5017 12.0288 12.7926C12.0867 13.0836 12.2296 13.3509 12.4393 13.5607C12.6491 13.7704 12.9164 13.9133 13.2074 13.9712C13.4983 14.0291 13.7999 13.9994 14.074 13.8858C14.3481 13.7723 14.5824 13.58 14.7472 13.3334C14.912 13.0867 15 12.7967 15 12.5V8C15 7.446 14.554 7 14 7H11Z" fill="#232323"/>
</g>
<defs>
<clipPath id="clip0_975_3675">
<rect width="16" height="16" fill="white"/>
</clipPath>
</defs>
</svg>
