<svg width="256" height="256" viewBox="0 0 256 256" fill="none" xmlns="http://www.w3.org/2000/svg">
<path d="M160 8V48C160 56.8366 167.163 64 176 64H216V232C216 240.837 208.837 248 200 248H56C47.1634 248 40 240.837 40 232V24C40 15.1634 47.1634 8 56 8H160Z" fill="url(#paint0_linear_4873_1048)"/>
<path d="M160 8L216 64H176C167.163 64 160 56.8366 160 48V8Z" fill="#EEEEEE"/>
<path d="M180 216H76V112H180L128 164L180 216Z" fill="url(#paint1_linear_4873_1048)"/>
<defs>
<linearGradient id="paint0_linear_4873_1048" x1="216" y1="8.00001" x2="40" y2="248" gradientUnits="userSpaceOnUse">
<stop stop-color="#BEBEBE"/>
<stop offset="1" stop-color="#9E9E9E"/>
</linearGradient>
<linearGradient id="paint1_linear_4873_1048" x1="180" y1="112" x2="76" y2="216" gradientUnits="userSpaceOnUse">
<stop offset="0.00343514" stop-color="#E44857"/>
<stop offset="0.4689" stop-color="#C711E1"/>
<stop offset="1" stop-color="#7F52FF"/>
</linearGradient>
</defs>
</svg>
