<svg width="16" height="16" viewBox="0 0 16 16" fill="none" xmlns="http://www.w3.org/2000/svg">
<g clip-path="url(#clip0_975_3683)">
<path d="M0 0H16V16H0V0Z" fill="#808080" fill-opacity="0.01"/>
<path d="M2.99999 1C0.999995 1.004 0.999995 3.004 0.999995 3.004C1.01799 6.402 0.985995 9.972 0.999995 13.004C0.999995 15.004 2.99999 15.004 2.99999 15.004H13C13 15.004 15 15.004 15 13.004V3.004C15 1.004 13 1.004 13 1.004L2.99999 1ZM5.49999 4.004C5.89782 4.004 6.27936 4.16204 6.56066 4.44334C6.84197 4.72465 6.99999 5.10617 6.99999 5.504C6.99999 5.90182 6.84197 6.28336 6.56066 6.56467C6.27936 6.84597 5.89782 7.004 5.49999 7.004C5.10217 7.004 4.72063 6.84597 4.43933 6.56467C4.15802 6.28336 3.99999 5.90182 3.99999 5.504C3.99999 5.10617 4.15802 4.72465 4.43933 4.44334C4.72063 4.16204 5.10217 4.004 5.49999 4.004ZM8.49999 9.004C8.94599 9.004 9.33199 9.217 9.57199 9.479C9.81199 9.74 9.94699 10.031 10.072 10.281C10.197 10.531 10.312 10.741 10.416 10.854C10.52 10.967 10.571 11.004 10.75 11.004H12V12.004H10.75C10.304 12.004 9.918 11.791 9.678 11.529C9.438 11.268 9.303 10.977 9.178 10.727C9.053 10.477 8.93801 10.267 8.83401 10.154C8.73001 10.041 8.67899 10.004 8.49999 10.004C8.32099 10.004 8.26998 10.041 8.16598 10.154C8.06198 10.268 7.94699 10.477 7.82199 10.727C7.69699 10.977 7.56199 11.267 7.32199 11.529C7.08199 11.791 6.69599 12.004 6.24999 12.004H3.99999V11.004H6.24999C6.42999 11.004 6.48001 10.967 6.58401 10.854C6.68801 10.74 6.803 10.531 6.928 10.281C7.053 10.031 7.188 9.741 7.428 9.479C7.668 9.217 8.05399 9.004 8.49999 9.004Z" fill="#232323"/>
</g>
<defs>
<clipPath id="clip0_975_3683">
<rect width="16" height="16" fill="white"/>
</clipPath>
</defs>
</svg>
