<svg width="16" height="16" viewBox="0 0 16 16" fill="none" xmlns="http://www.w3.org/2000/svg">
<g clip-path="url(#clip0_412_3917)">
<path d="M8 1.00305C6.14348 1.00305 4.36301 1.74055 3.05025 3.0533C1.7375 4.36606 1 6.14654 1 8.00305C1 9.85957 1.7375 11.64 3.05025 12.9528C4.36301 14.2656 6.14348 15.0031 8 15.0031C9.85652 15.0031 11.637 14.2656 12.9497 12.9528C14.2625 11.64 15 9.85957 15 8.00305C15 6.14654 14.2625 4.36606 12.9497 3.0533C11.637 1.74055 9.85652 1.00305 8 1.00305ZM8 3.00305C9.32608 3.00305 10.5979 3.52984 11.5355 4.46752C12.4732 5.4052 13 6.67697 13 8.00305C13 9.32913 12.4732 10.6009 11.5355 11.5386C10.5979 12.4763 9.32608 13.0031 8 13.0031C6.67392 13.0031 5.40215 12.4763 4.46447 11.5386C3.52678 10.6009 3 9.32913 3 8.00305C3 6.67697 3.52678 5.4052 4.46447 4.46752C5.40215 3.52984 6.67392 3.00305 8 3.00305Z" fill="#232323"/>
<path d="M0 0.00305176H16V16.0031H0V0.00305176Z" fill="#808080" fill-opacity="0.01"/>
<path d="M10.41 5.18298C10.313 5.20891 10.2259 5.26323 10.16 5.33898L8.00398 7.49498L6.34798 5.83998C6.18998 5.58298 5.77898 5.53398 5.56598 5.74698C5.35298 5.95998 5.40298 6.37098 5.65998 6.52698L7.65998 8.52698C7.75488 8.61098 7.87724 8.65736 8.00398 8.65736C8.13072 8.65736 8.25308 8.61098 8.34798 8.52698L10.848 6.02698C11.14 5.72898 10.823 5.11698 10.41 5.18398V5.18298Z" fill="#232323"/>
</g>
<defs>
<clipPath id="clip0_412_3917">
<rect width="16" height="16" fill="white"/>
</clipPath>
</defs>
</svg>
