<svg width="16" height="16" viewBox="0 0 16 16" fill="none" xmlns="http://www.w3.org/2000/svg">
<g clip-path="url(#clip0_412_3918)">
<path d="M0 0H16V16H0V0Z" fill="#808080" fill-opacity="0.01"/>
<path d="M8 1C6.14348 1 4.36301 1.7375 3.05025 3.05025C1.7375 4.36301 1 6.14348 1 8C1 9.85652 1.7375 11.637 3.05025 12.9497C4.36301 14.2625 6.14348 15 8 15C8.68701 15.0048 9.3711 14.9102 10.031 14.719C10.085 14.299 10.245 13.88 10.562 13.563L10.625 13.5L10.562 13.438C10.3153 13.1873 10.1423 12.8735 10.062 12.531C9.41671 12.8347 8.71318 12.9947 8 13C7.01109 13 6.04439 12.7068 5.22215 12.1573C4.3999 11.6079 3.75904 10.827 3.3806 9.91342C3.00216 8.99979 2.90315 7.99445 3.09607 7.02455C3.289 6.05464 3.7652 5.16373 4.46447 4.46447C5.16373 3.7652 6.05464 3.289 7.02455 3.09607C7.99445 2.90315 8.99979 3.00216 9.91342 3.3806C10.827 3.75904 11.6079 4.3999 12.1573 5.22215C12.7068 6.04439 13 7.01109 13 8C13 8.741 12.82 9.43 12.531 10.063C12.863 10.143 13.181 10.307 13.437 10.563L13.5 10.625L13.562 10.563C13.88 10.245 14.299 10.085 14.719 10.031C14.911 9.392 14.999 8.701 14.999 8.001C14.999 6.14448 14.2615 4.36401 12.9487 3.05125C11.636 1.7385 9.85552 1.001 7.999 1.001L8 1ZM10.406 5.188C10.309 5.21393 10.2219 5.26826 10.156 5.344L8 7.5L6.344 5.844C6.187 5.587 5.776 5.537 5.563 5.75C5.35 5.963 5.399 6.374 5.656 6.531L7.656 8.531C7.7509 8.61501 7.87326 8.66138 8 8.66138C8.12674 8.66138 8.2491 8.61501 8.344 8.531L10.844 6.031C11.137 5.733 10.819 5.121 10.406 5.188Z" fill="#232323"/>
<path d="M10.9999 11V12C10.9999 12.276 11.0999 12.538 11.2809 12.719L12.0619 13.5L11.2819 14.281C11.0968 14.4742 10.9955 14.7326 10.9999 15V16H11.9999C12.2759 16 12.5379 15.9 12.7189 15.719L13.4999 14.938L14.2809 15.718C14.4619 15.9 14.7239 16 14.9999 16H15.9999V15C15.9999 14.724 15.8999 14.462 15.7189 14.281L14.9379 13.5L15.7179 12.719C15.8999 12.538 15.9999 12.276 15.9999 12V11H14.9999C14.7239 11 14.4619 11.1 14.2809 11.281L13.4999 12.062L12.7189 11.282C12.5258 11.0969 12.2674 10.9956 11.9999 11H10.9999Z" fill="#232323"/>
</g>
<defs>
<clipPath id="clip0_412_3918">
<rect width="16" height="16" fill="white"/>
</clipPath>
</defs>
</svg>
