<svg width="16" height="16" viewBox="0 0 16 16" fill="none" xmlns="http://www.w3.org/2000/svg">
<g clip-path="url(#clip0_412_3915)">
<path d="M7.06952 2.04997C6.86327 2.05624 6.66407 2.1265 6.49951 2.25098L2.99951 5.00098H0.999512C0.445512 5.00098 -0.000488281 5.44698 -0.000488281 6.00098V10.001C-0.000488281 10.555 0.445512 11.001 0.999512 11.001H2.99951L6.49951 13.751C6.99951 14.144 7.99951 14.001 7.99951 13.001V3.00098C7.99951 2.31398 7.52752 2.03097 7.06952 2.04997Z" fill="#232323"/>
<path opacity="0.35" d="M8.99951 5.62L10.9995 4.995C11.9995 6.995 11.9995 8.995 10.9995 10.995L8.99951 10.37C9.99951 8.37 9.99951 7.62 8.99951 5.62Z" fill="#232323"/>
<path opacity="0.35" d="M11.9995 3.93994L13.9995 3.00195C15.9995 6.00195 15.9995 10.002 13.9995 13.002L11.9995 12.0649C13.9995 9.06494 13.9995 6.93994 11.9995 3.93994Z" fill="#232323"/>
</g>
<defs>
<clipPath id="clip0_412_3915">
<rect width="16" height="16" fill="white" transform="translate(-0.000488281)"/>
</clipPath>
</defs>
</svg>
