<svg width="17" height="16" viewBox="0 0 17 16" fill="none" xmlns="http://www.w3.org/2000/svg">
<g clip-path="url(#clip0_412_3913)">
<path d="M16.2017 13.7982L3.20157 0.798003C2.81221 0.40865 2.18094 0.408657 1.79159 0.79801C1.40224 1.18736 1.40223 1.81863 1.79158 2.20799L14.7917 15.2081C15.1811 15.5975 15.8124 15.5975 16.2017 15.2081C16.5911 14.8188 16.5911 14.1875 16.2017 13.7982Z" fill="#232323"/>
<path fill-rule="evenodd" clip-rule="evenodd" d="M12.999 7.58997V3.00863C12.999 2.31611 12.468 2.03082 11.9528 2.04997C11.7208 2.0563 11.4967 2.12713 11.3115 2.25261L8.9025 3.94861L12.999 7.58997ZM6.72691 5.0247L12.999 10.5999V13.089C12.999 14.097 11.874 14.2412 11.3115 13.845L7.37402 11.0729H5.12402C4.50077 11.0729 3.99902 10.6233 3.99902 10.0649V6.03274C3.99902 5.47428 4.50077 5.0247 5.12402 5.0247H6.72691Z" fill="#232323"/>
</g>
<defs>
<clipPath id="clip0_412_3913">
<rect width="16" height="16" fill="white" transform="translate(0.998779)"/>
</clipPath>
</defs>
</svg>
