<svg width="16" height="16" viewBox="0 0 16 16" fill="none" xmlns="http://www.w3.org/2000/svg">
<g clip-path="url(#clip0_412_3914)">
<path d="M7.06903 2.04997C6.86279 2.05624 6.66359 2.1265 6.49902 2.25098L2.99902 5.00098H0.999023C0.445023 5.00098 -0.000976562 5.44698 -0.000976562 6.00098V10.001C-0.000976562 10.555 0.445023 11.001 0.999023 11.001H2.99902L6.49902 13.751C6.99902 14.144 7.99902 14.001 7.99902 13.001V3.00098C7.99902 2.31398 7.52703 2.03097 7.06903 2.04997Z" fill="#232323"/>
<path d="M8.99902 5.62L10.999 4.995C11.999 6.995 11.999 8.995 10.999 10.995L8.99902 10.37C9.99902 8.37 9.99902 7.62 8.99902 5.62Z" fill="#232323"/>
<path opacity="0.35" d="M11.999 3.93994L13.999 3.00195C15.999 6.00195 15.999 10.002 13.999 13.002L11.999 12.0649C13.999 9.06494 13.999 6.93994 11.999 3.93994Z" fill="#232323"/>
</g>
<defs>
<clipPath id="clip0_412_3914">
<rect width="16" height="16" fill="white" transform="translate(-0.000976562)"/>
</clipPath>
</defs>
</svg>
