<svg width="16" height="16" viewBox="0 0 16 16" fill="none" xmlns="http://www.w3.org/2000/svg">
<path d="M7.07001 2.04997C6.86376 2.05624 6.66456 2.1265 6.5 2.25098L3 5.00098H1C0.446 5.00098 0 5.44698 0 6.00098V10.001C0 10.555 0.446 11.001 1 11.001H3L6.5 13.751C7 14.144 8 14.001 8 13.001V3.00098C8 2.31398 7.52801 2.03097 7.07001 2.04997Z" fill="#232323"/>
<path d="M9 5.62L11 4.995C12 6.995 12 8.995 11 10.995L9 10.37C10 8.37 10 7.62 9 5.62Z" fill="#232323"/>
<path d="M12 3.93994L14 3.00195C16 6.00195 16 10.002 14 13.002L12 12.0649C14 9.06494 14 6.93994 12 3.93994Z" fill="#232323"/>
</svg>
