<svg width="16" height="16" viewBox="0 0 16 16" fill="none" xmlns="http://www.w3.org/2000/svg">
<g clip-path="url(#clip0_412_3872)">
<path d="M0 0.00299072H16V16.003H0V0.00299072Z" fill="#808080" fill-opacity="0.01"/>
<path fill-rule="evenodd" clip-rule="evenodd" d="M7.97989 0.00299135C7.72025 0.00723626 7.47243 0.112311 7.28888 0.295991L0.288879 7.29599C0.101408 7.48352 -0.00390625 7.73783 -0.00390625 8.00299C-0.00390625 8.26816 0.101408 8.52246 0.288879 8.70999L7.28888 15.71C7.47641 15.8975 7.73072 16.0028 7.99588 16.0028C8.26104 16.0028 8.51535 15.8975 8.70288 15.71L15.7029 8.70999C15.8904 8.52246 15.9957 8.26816 15.9957 8.00299C15.9957 7.73783 15.8904 7.48352 15.7029 7.29599L8.70288 0.295991C8.60815 0.201198 8.49533 0.126414 8.37112 0.0760809C8.24692 0.0257475 8.11389 0.000892191 7.97989 0.00299135ZM7.99588 4.00299C8.52631 4.00299 9.03502 4.2137 9.4101 4.58878C9.78517 4.96385 9.99588 5.47256 9.99588 6.00299C9.99588 6.53342 9.78517 7.04213 9.4101 7.41721C9.03502 7.79228 8.52631 8.00299 7.99588 8.00299V9.00299H6.99588V7.00299H7.99588C8.19366 7.00299 8.387 6.94435 8.55145 6.83447C8.7159 6.72459 8.84408 6.56841 8.91977 6.38568C8.99546 6.20296 9.01524 6.00187 8.97665 5.80789C8.93807 5.61391 8.84282 5.43575 8.70297 5.2959C8.56312 5.15605 8.38496 5.0608 8.19098 5.02222C7.997 4.98363 7.79592 5.00341 7.61319 5.0791C7.43046 5.15479 7.27428 5.28297 7.1644 5.44742C7.05452 5.61187 6.99588 5.80521 6.99588 6.00299H5.99588C5.99588 5.47256 6.20659 4.96385 6.58167 4.58878C6.95674 4.2137 7.46545 4.00299 7.99588 4.00299ZM7.49588 9.75299C7.69479 9.75299 7.88556 9.832 8.02621 9.97266C8.16687 10.1133 8.24588 10.3041 8.24588 10.503C8.24588 10.7019 8.16687 10.8927 8.02621 11.0333C7.88556 11.174 7.69479 11.253 7.49588 11.253C7.29697 11.253 7.1062 11.174 6.96555 11.0333C6.82489 10.8927 6.74588 10.7019 6.74588 10.503C6.74588 10.3041 6.82489 10.1133 6.96555 9.97266C7.1062 9.832 7.29697 9.75299 7.49588 9.75299Z" fill="#232323"/>
</g>
<defs>
<clipPath id="clip0_412_3872">
<rect width="16" height="16" fill="white"/>
</clipPath>
</defs>
</svg>
