<svg width="16" height="16" viewBox="0 0 16 16" fill="none" xmlns="http://www.w3.org/2000/svg">
<g clip-path="url(#clip0_412_3851)">
<path d="M4 2.99597C2.355 2.99597 1 4.35097 1 5.99597V9.99597C1 11.641 2.355 12.996 4 12.996H12C12.7937 12.9918 13.5537 12.6749 14.1153 12.1141C14.6769 11.5532 14.9947 10.7936 15 9.99997V5.99597C14.9958 5.20231 14.6789 4.44228 14.1181 3.88069C13.5573 3.3191 12.7977 3.00122 12.004 2.99597C12.0029 2.99597 12.0019 2.99639 12.0012 2.99714C12.0004 2.99789 12 2.99891 12 2.99997C11.7353 2.99732 11.4804 3.09992 11.2914 3.28521C11.1023 3.4705 10.9947 3.72328 10.992 3.98797C10.9894 4.25265 11.0919 4.50756 11.2772 4.69659C11.4625 4.88563 11.7153 4.99332 11.98 4.99597H12C12.571 4.99597 13 5.42497 13 5.99597V9.99597C13 10.567 12.571 10.996 12 10.996H4C3.429 10.996 3 10.567 3 9.99597V5.99597C3 5.42497 3.429 4.99597 4 4.99597H7V2.99597H4Z" fill="#232323"/>
<path d="M10 4L6 1V7L10 4Z" fill="#232323"/>
<path d="M0 0H16V16H0V0Z" fill="#808080" fill-opacity="0.01"/>
</g>
<defs>
<clipPath id="clip0_412_3851">
<rect width="16" height="16" fill="white"/>
</clipPath>
</defs>
</svg>
