<svg width="16" height="16" viewBox="0 0 16 16" fill="none" xmlns="http://www.w3.org/2000/svg">
<g clip-path="url(#clip0_412_3849)">
<path d="M1.99999 2.99999C1.86893 2.99868 1.73888 3.02319 1.6173 3.07213C1.49571 3.12107 1.38497 3.19348 1.29137 3.28522C1.19777 3.37697 1.12316 3.48625 1.0718 3.60683C1.02043 3.72741 0.993307 3.85694 0.991993 3.988C0.99068 4.11905 1.0152 4.24909 1.06414 4.37067C1.11308 4.49226 1.18547 4.60301 1.27721 4.69661C1.36896 4.79022 1.47826 4.86482 1.59884 4.91619C1.71942 4.96756 1.84894 4.99468 1.98 4.99599H4.99999C5.57099 4.99599 5.99999 5.42499 5.99999 5.99599V9.99599C5.99999 11.641 7.35499 12.996 8.99999 12.996H14V10.996H8.99999C8.42899 10.996 7.99999 10.567 7.99999 9.99599V5.99599C7.9954 5.20851 7.68277 4.45409 7.12902 3.89417C6.57526 3.33425 5.82436 3.0133 5.03698 2.99999H3.99999H1.99999Z" fill="#232323"/>
<path d="M8.99999 3C8.76999 3 8.55998 3.04399 8.34398 3.09399C8.82498 3.64399 9.20499 4.271 9.37499 5H14V3H8.99999ZM2.99999 11V11.004H1.99999C1.7353 11.0013 1.48041 11.1039 1.29137 11.2892C1.10233 11.4745 0.994646 11.7273 0.991994 11.992C0.989341 12.2567 1.09192 12.5116 1.27721 12.7006C1.4625 12.8897 1.71531 12.9973 1.98 13H4.99999C5.22999 13 5.43999 12.956 5.65599 12.906C5.17499 12.356 4.79499 11.729 4.62499 11H2.99999Z" fill="#232323"/>
<path d="M12 1V7L16 4L12 1Z" fill="#232323"/>
<path d="M12 9V15L16 12L12 9Z" fill="#232323"/>
<path d="M0 0H16V16H0V0Z" fill="#808080" fill-opacity="0.01"/>
</g>
<defs>
<clipPath id="clip0_412_3849">
<rect width="16" height="16" fill="white"/>
</clipPath>
</defs>
</svg>
