<svg width="16" height="16" viewBox="0 0 16 16" fill="none" xmlns="http://www.w3.org/2000/svg">
<g clip-path="url(#clip0_412_3825)">
<path d="M10.9999 11V12C10.9999 12.276 11.0999 12.538 11.2809 12.719L12.0619 13.5L11.2819 14.281C11.0968 14.4742 10.9955 14.7326 10.9999 15V16H11.9999C12.2759 16 12.5379 15.9 12.7189 15.719L13.4999 14.938L14.2809 15.718C14.4619 15.9 14.7239 16 14.9999 16H15.9999V15C15.9999 14.724 15.8999 14.462 15.7189 14.281L14.9379 13.5L15.7179 12.719C15.8999 12.538 15.9999 12.276 15.9999 12V11H14.9999C14.7239 11 14.4619 11.1 14.2809 11.281L13.4999 12.062L12.7189 11.282C12.5258 11.0969 12.2674 10.9956 11.9999 11H10.9999Z" fill="#232323"/>
<path d="M16 0H0V16H16V0Z" fill="#808080" fill-opacity="0.00"/>
<path opacity="0.35" d="M6 5L10.5 10.5L15 5C14.997 5.004 13.667 5 13 5V2H8V5H6Z" fill="#232323"/>
<path opacity="0.35" d="M10 12L5.5 6.5L1 12C1.003 11.996 2.333 12 3 12V15H8V12H10Z" fill="#232323"/>
</g>
<defs>
<clipPath id="clip0_412_3825">
<rect width="16" height="16.003" fill="white"/>
</clipPath>
</defs>
</svg>
