<svg width="16" height="17" viewBox="0 0 16 17" fill="none" xmlns="http://www.w3.org/2000/svg">
<path d="M0 0H16V16H0V0Z" fill="#808080" fill-opacity="0.01"/>
<path d="M8 2C7.20435 2 6.4413 2.31607 5.87869 2.87868C5.31608 3.44129 5 4.20435 5 5C5 5.79565 5.31608 6.55871 5.87869 7.12132C6.4413 7.68393 7.20435 8 8 8C8.79565 8 9.5587 7.68393 10.1213 7.12132C10.6839 6.55871 11 5.79565 11 5C11 4.20435 10.6839 3.44129 10.1213 2.87868C9.5587 2.31607 8.79565 2 8 2ZM8 10C2 10.003 2 14.004 2 14.004V15.004H8.76199C8.26626 14.2644 8.00108 13.3944 8 12.504C8.00046 11.6249 8.25842 10.7652 8.742 10.031C8.502 10.017 8.263 10 8 10Z" fill="#232323"/>
<path fill-rule="evenodd" clip-rule="evenodd" d="M12.5 9C11.5717 9 10.6815 9.36874 10.0251 10.0251C9.36875 10.6815 9 11.5717 9 12.5C9 13.4283 9.36875 14.3185 10.0251 14.9749C10.6815 15.6313 11.5717 16 12.5 16C13.4283 16 14.3185 15.6313 14.9749 14.9749C15.6312 14.3185 16 13.4283 16 12.5C16 11.5717 15.6312 10.6815 14.9749 10.0251C14.3185 9.36874 13.4283 9 12.5 9ZM12 10H13V12H15V13H12V10Z" fill="#232323"/>
</svg>
