<svg width="16" height="17" viewBox="0 0 16 17" fill="none" xmlns="http://www.w3.org/2000/svg">
<g clip-path="url(#clip0_412_3762)">
<path d="M0 0.00299072H16V16.003H0V0.00299072Z" fill="#808080" fill-opacity="0.01"/>
<path d="M8 2.00299C7.20435 2.00299 6.4413 2.31907 5.87869 2.88168C5.31608 3.44429 5 4.20734 5 5.00299C5 5.79864 5.31608 6.56169 5.87869 7.1243C6.4413 7.68691 7.20435 8.00299 8 8.00299C8.79565 8.00299 9.5587 7.68691 10.1213 7.1243C10.6839 6.56169 11 5.79864 11 5.00299C11 4.20734 10.6839 3.44429 10.1213 2.88168C9.5587 2.31907 8.79565 2.00299 8 2.00299ZM8 10.003C2 10.006 2 14.007 2 14.007V15.007H10V10.179C9.34046 10.0567 8.67075 9.9978 8 10.003Z" fill="#232323"/>
<path d="M10.9999 11.003V12.003C10.9999 12.279 11.0999 12.541 11.2809 12.722L12.0619 13.503L11.2809 14.284C11.0962 14.4773 10.9952 14.7357 10.9999 15.003V16.003H11.9999C12.2759 16.003 12.5379 15.903 12.7189 15.722L13.4989 14.94L14.2809 15.722C14.4619 15.902 14.7239 16.003 14.9999 16.003H15.9999V15.003C15.9999 14.727 15.8999 14.465 15.7189 14.284L14.9369 13.503L15.7189 12.722C15.8989 12.541 15.9989 12.279 15.9989 12.003V11.003H14.9989C14.7239 11.003 14.4619 11.103 14.2809 11.284L13.4999 12.065L12.7189 11.285C12.5255 11.0997 12.2667 10.9983 11.9989 11.003H10.9999Z" fill="#232323"/>
</g>
<defs>
<clipPath id="clip0_412_3762">
<rect width="16.001" height="16.007" fill="white"/>
</clipPath>
</defs>
</svg>
