<svg width="16" height="16" viewBox="0 0 16 16" fill="none" xmlns="http://www.w3.org/2000/svg">
<g clip-path="url(#clip0_412_3764)">
<path d="M0 0H16V16H0V0Z" fill="#808080" fill-opacity="0.00"/>
<path d="M8 2C8.79565 2 9.5587 2.31608 10.1213 2.87869C10.6839 3.4413 11 4.20435 11 5C11 5.79565 10.6839 6.5587 10.1213 7.12131C9.5587 7.68392 8.79565 8 8 8C7.20435 8 6.4413 7.68392 5.87869 7.12131C5.31608 6.5587 5 5.79565 5 5C5 4.20435 5.31608 3.4413 5.87869 2.87869C6.4413 2.31608 7.20435 2 8 2ZM8 10C14 9.997 14 14.003 14 14.003V15.003H2V14.003C2 14.003 2 10.003 8 10Z" fill="#232323"/>
</g>
<defs>
<clipPath id="clip0_412_3764">
<rect width="16" height="16" fill="white"/>
</clipPath>
</defs>
</svg>
