<svg width="17" height="16" viewBox="0 0 17 16" fill="none" xmlns="http://www.w3.org/2000/svg">
<g clip-path="url(#clip0_412_3748)">
<path d="M0.998779 0.00299072H16.9988V16.003H0.998779V0.00299072Z" fill="#808080" fill-opacity="0.01"/>
<path d="M3.9787 11.993C3.88879 11.9975 3.80176 12.0261 3.72678 12.0759C3.6518 12.1257 3.59166 12.1949 3.5527 12.276L2.5527 14.276C2.49343 14.3947 2.48373 14.5321 2.52574 14.6579C2.56775 14.7837 2.65802 14.8877 2.7767 14.947C2.89539 15.0063 3.03276 15.016 3.1586 14.974C3.28444 14.932 3.38843 14.8417 3.44771 14.723L4.44771 12.723C4.48833 12.6449 4.50759 12.5574 4.50356 12.4695C4.49952 12.3815 4.47234 12.2962 4.42474 12.2221C4.37715 12.148 4.31084 12.0878 4.23251 12.0476C4.15419 12.0074 4.06664 11.9885 3.9787 11.993ZM6.4787 11.993C6.38879 11.9975 6.30176 12.0261 6.22678 12.0759C6.1518 12.1257 6.09166 12.1949 6.0527 12.276L5.0527 14.276C4.99343 14.3947 4.98373 14.5321 5.02574 14.6579C5.06775 14.7837 5.15802 14.8877 5.2767 14.947C5.39539 15.0063 5.53276 15.016 5.6586 14.974C5.78444 14.932 5.88843 14.8417 5.94771 14.723L6.94771 12.723C6.98833 12.6449 7.00759 12.5574 7.00356 12.4695C6.99952 12.3815 6.97234 12.2962 6.92474 12.2221C6.87715 12.148 6.81084 12.0878 6.73251 12.0476C6.65419 12.0074 6.56664 11.9885 6.4787 11.993ZM8.9787 11.993C8.88879 11.9975 8.80176 12.0261 8.72678 12.0759C8.6518 12.1257 8.59166 12.1949 8.5527 12.276L7.5527 14.276C7.52335 14.3348 7.50586 14.3988 7.50124 14.4643C7.49661 14.5298 7.50494 14.5956 7.52574 14.6579C7.54654 14.7202 7.57941 14.7778 7.62247 14.8274C7.66553 14.877 7.71794 14.9177 7.7767 14.947C7.83547 14.9764 7.89944 14.9939 7.96497 14.9985C8.03049 15.0031 8.09629 14.9948 8.1586 14.974C8.22091 14.9532 8.27851 14.9203 8.32811 14.8773C8.37772 14.8342 8.41836 14.7818 8.44771 14.723L9.44771 12.723C9.48833 12.6449 9.50759 12.5574 9.50356 12.4695C9.49952 12.3815 9.47234 12.2962 9.42474 12.2221C9.37715 12.148 9.31084 12.0878 9.23251 12.0476C9.15419 12.0074 9.06664 11.9885 8.9787 11.993ZM11.4787 11.993C11.3888 11.9975 11.3018 12.0261 11.2268 12.0759C11.1518 12.1257 11.0917 12.1949 11.0527 12.276L10.0527 14.276C10.0234 14.3348 10.0059 14.3988 10.0012 14.4643C9.99661 14.5298 10.0049 14.5956 10.0257 14.6579C10.0465 14.7202 10.0794 14.7778 10.1225 14.8274C10.1655 14.877 10.2179 14.9177 10.2767 14.947C10.3355 14.9764 10.3994 14.9939 10.465 14.9985C10.5305 15.0031 10.5963 14.9948 10.6586 14.974C10.7209 14.9532 10.7785 14.9203 10.8281 14.8773C10.8777 14.8342 10.9184 14.7818 10.9477 14.723L11.9477 12.723C11.9883 12.6449 12.0076 12.5574 12.0036 12.4695C11.9995 12.3815 11.9723 12.2962 11.9247 12.2221C11.8772 12.148 11.8108 12.0878 11.7325 12.0476C11.6542 12.0074 11.5666 11.9885 11.4787 11.993ZM13.9787 11.993C13.8888 11.9975 13.8018 12.0261 13.7268 12.0759C13.6518 12.1257 13.5917 12.1949 13.5527 12.276L12.5527 14.276C12.5234 14.3348 12.5059 14.3988 12.5012 14.4643C12.4966 14.5298 12.5049 14.5956 12.5257 14.6579C12.5465 14.7202 12.5794 14.7778 12.6225 14.8274C12.6655 14.877 12.7179 14.9177 12.7767 14.947C12.8355 14.9764 12.8994 14.9939 12.965 14.9985C13.0305 15.0031 13.0963 14.9948 13.1586 14.974C13.2209 14.9532 13.2785 14.9203 13.3281 14.8773C13.3777 14.8342 13.4184 14.7818 13.4477 14.723L14.4477 12.723C14.4883 12.6449 14.5076 12.5574 14.5036 12.4695C14.4995 12.3815 14.4723 12.2962 14.4247 12.2221C14.3772 12.148 14.3108 12.0878 14.2325 12.0476C14.1542 12.0074 14.0666 11.9885 13.9787 11.993Z" fill="#232323"/>
<path d="M8.99878 0.00299072C6.92778 0.00299072 5.16378 1.27099 4.40478 3.06499C3.45882 3.20307 2.59413 3.67694 1.96876 4.4C1.34338 5.12305 0.999081 6.04701 0.998779 7.00299C0.998779 8.06386 1.42021 9.08127 2.17035 9.83142C2.9205 10.5816 3.93791 11.003 4.99878 11.003H13.4988C14.427 11.003 15.3173 10.6342 15.9737 9.97786C16.63 9.32149 16.9988 8.43125 16.9988 7.50299C16.9992 6.64569 16.684 5.81824 16.1133 5.17844C15.5427 4.53865 14.7565 4.13127 13.9048 4.03399C13.6784 2.89885 13.0661 1.87709 12.1717 1.14227C11.2774 0.407448 10.1563 0.00489359 8.99878 0.00299072Z" fill="#232323"/>
</g>
<defs>
<clipPath id="clip0_412_3748">
<rect width="16" height="16" fill="white" transform="translate(0.998779)"/>
</clipPath>
</defs>
</svg>
