<svg width="16" height="17" viewBox="0 0 16 17" fill="none" xmlns="http://www.w3.org/2000/svg">
<g clip-path="url(#clip0_412_3754)">
<path d="M0.000976562 -0.00500488H16.001V15.995H0.000976562V-0.00500488Z" fill="#A4A4A4" fill-opacity="0.01"/>
<path d="M7.751 1.03497C4.988 1.13597 2.442 2.83997 1.439 5.59697C0.174999 9.06997 1.807 12.922 5.126 14.41C5.02676 14.0648 4.98454 13.7057 5.001 13.347C5.029 12.347 5.585 11.46 6.376 10.879C5.58197 10.0009 5.04296 8.92251 4.81719 7.76037C4.59143 6.59823 4.68749 5.39649 5.095 4.28497C5.609 2.87197 6.569 1.77597 7.751 1.03497Z" fill="#242424"/>
<path d="M11.001 9.005C9.68897 9.005 8.59597 9.86301 8.18897 11.036C7.55859 11.1143 6.98183 11.4301 6.57636 11.9191C6.1709 12.4081 5.9673 13.0333 6.0071 13.6673C6.04691 14.3013 6.32712 14.8962 6.79057 15.3306C7.25401 15.765 7.86576 16.0062 8.50097 16.005H13.501C14.1363 16.0065 14.7482 15.7654 15.2118 15.3311C15.6755 14.8968 15.9559 14.3019 15.9958 13.6678C16.0358 13.0337 15.8322 12.4084 15.4268 11.9193C15.0213 11.4302 14.4444 11.1143 13.814 11.036C13.406 9.86301 12.313 9.005 11.001 9.005Z" fill="#242424"/>
</g>
<defs>
<clipPath id="clip0_412_3754">
<rect width="16.002" height="16.005" fill="white" transform="translate(-0.000976562)"/>
</clipPath>
</defs>
</svg>
