<svg width="17" height="16" viewBox="0 0 17 16" fill="none" xmlns="http://www.w3.org/2000/svg">
<g clip-path="url(#clip0_412_3747)">
<path d="M8.99829 0C6.92729 0 5.16329 1.268 4.40429 3.063C3.4585 3.20105 2.59395 3.67478 1.9686 4.39763C1.34324 5.12048 0.998833 6.04419 0.998291 7C0.998291 8.06087 1.41972 9.07828 2.16986 9.82843C2.92001 10.5786 3.93743 11 4.99829 11H13.4983C14.4265 11 15.3168 10.6313 15.9732 9.97487C16.6295 9.3185 16.9983 8.42826 16.9983 7.5C16.9987 6.6427 16.6835 5.81525 16.1129 5.17545C15.5422 4.53566 14.7561 4.12828 13.9043 4.031C13.6779 2.89586 13.0656 1.8741 12.1712 1.13928C11.2769 0.404457 10.1558 0.00190287 8.99829 0V0Z" fill="#232323"/>
<path d="M0.998291 0H16.9983V16H0.998291V0Z" fill="#808080" fill-opacity="0.01"/>
<path opacity="0.35" d="M3.99836 12V13.133L3.01636 12.566L2.51636 13.434L3.49636 14L2.51636 14.566L3.01636 15.434L3.99836 14.867V16H4.99836V14.867L5.98036 15.434L6.48036 14.566L5.50036 14L6.48036 13.434L5.98036 12.566L4.99836 13.133V12H3.99836Z" fill="#232323"/>
<path opacity="0.35" d="M8.99836 12V13.133L8.01636 12.566L7.51636 13.434L8.49636 14L7.51636 14.566L8.01636 15.434L8.99836 14.867V16H9.99836V14.867L10.9804 15.434L11.4804 14.566L10.5004 14L11.4804 13.434L10.9804 12.566L9.99836 13.133V12H8.99836Z" fill="#232323"/>
<path opacity="0.35" d="M13.9984 12V13.133L13.0164 12.566L12.5164 13.434L13.4964 14L12.5164 14.566L13.0164 15.434L13.9984 14.867V16H14.9984V14.867L15.9804 15.434L16.4804 14.566L15.5004 14L16.4804 13.434L15.9804 12.566L14.9984 13.133V12H13.9984Z" fill="#232323"/>
</g>
<defs>
<clipPath id="clip0_412_3747">
<rect width="16" height="16" fill="white" transform="translate(0.998291)"/>
</clipPath>
</defs>
</svg>
