<svg width="16" height="16" viewBox="0 0 16 16" fill="none" xmlns="http://www.w3.org/2000/svg">
<g clip-path="url(#clip0_412_3755)">
<path d="M-0.000488281 0H15.9995V16H-0.000488281V0Z" fill="#525252" fill-opacity="0.01"/>
<path d="M7.99951 0L7.49951 1.031C7.66451 1.02 7.83151 1 7.99951 1C8.16751 1 8.33451 1.02 8.49951 1.031L7.99951 0ZM7.99951 2C7.21158 2 6.43136 2.15519 5.70341 2.45672C4.97546 2.75825 4.31402 3.20021 3.75687 3.75736C3.19972 4.31451 2.75776 4.97595 2.45623 5.7039C2.15471 6.43185 1.99951 7.21207 1.99951 8C1.99951 8.78793 2.15471 9.56815 2.45623 10.2961C2.75776 11.0241 3.19972 11.6855 3.75687 12.2426C4.31402 12.7998 4.97546 13.2417 5.70341 13.5433C6.43136 13.8448 7.21158 14 7.99951 14C9.59081 14 11.1169 13.3679 12.2422 12.2426C13.3674 11.1174 13.9995 9.5913 13.9995 8C13.9995 6.4087 13.3674 4.88258 12.2422 3.75736C11.1169 2.63214 9.59081 2 7.99951 2ZM2.34351 2.344L2.71851 3.438C2.93651 3.186 3.18551 2.937 3.43751 2.718L2.34351 2.344ZM13.6555 2.344L12.5615 2.719C12.8125 2.937 13.0615 3.186 13.2805 3.438L13.6555 2.344ZM1.02951 7.5L-0.000488281 8L1.02951 8.5C1.01951 8.335 0.999512 8.168 0.999512 8C0.999512 7.832 1.01951 7.665 1.02951 7.5ZM14.9675 7.5C14.9795 7.665 14.9985 7.832 14.9985 8C14.9985 8.168 14.9785 8.335 14.9675 8.5L15.9995 8L14.9675 7.5ZM2.71751 12.562L2.34251 13.656L3.43651 13.281C3.18014 13.0583 2.93956 12.8181 2.71651 12.562H2.71751ZM13.2795 12.562C13.0566 12.8182 12.8164 13.0588 12.5605 13.282L13.6545 13.656L13.2795 12.562ZM7.49951 14.97L7.99951 16L8.49951 14.97C8.33351 14.981 8.16751 15 7.99951 15C7.83151 15 7.66451 14.981 7.49951 14.97Z" fill="#232323"/>
</g>
<defs>
<clipPath id="clip0_412_3755">
<rect width="16" height="16" fill="white" transform="translate(-0.000488281)"/>
</clipPath>
</defs>
</svg>
