<svg width="16" height="16" viewBox="0 0 16 16" fill="none" xmlns="http://www.w3.org/2000/svg">
<g clip-path="url(#clip0_412_3749)">
<path d="M-0.000976562 0.00299072H15.999V16.003H-0.000976562V0.00299072Z" fill="#808080" fill-opacity="0.01"/>
<path d="M7.99909 0.00299072C5.92809 0.00299072 4.16408 1.27099 3.40509 3.06499C2.76105 3.15882 2.14985 3.40913 1.625 3.79397C1.10015 4.17882 0.677652 4.68648 0.394514 5.2725C0.111376 5.85851 -0.0237702 6.50501 0.000910859 7.15537C0.025592 7.80573 0.209347 8.44012 0.536085 9.00299H0.519085C0.801426 9.49019 1.1834 9.91232 1.64004 10.2418C2.09669 10.5713 2.61772 10.8007 3.16909 10.915L5.49909 8.58499L7.24709 10.333C7.43109 9.84299 7.68909 9.39399 8.04209 9.04199L10.4991 6.58499L12.9561 9.04199C13.4108 9.49763 13.7339 10.0678 13.8911 10.692L13.9051 10.688V10.69L13.9211 10.682C13.9211 10.682 13.9241 10.682 13.9251 10.68L13.9381 10.672C14.5517 10.4003 15.0732 9.95612 15.4391 9.39352C15.805 8.83091 15.9996 8.17411 15.9991 7.50299C15.9995 6.64584 15.6844 5.81852 15.114 5.17875C14.5436 4.53897 13.7577 4.13149 12.9061 4.03399C12.6797 2.89869 12.0672 1.87679 11.1726 1.14195C10.2781 0.407112 9.15674 0.00466278 7.99909 0.00299072ZM10.4991 9.41299L9.45609 10.456C9.29909 10.6111 9.17644 10.7974 9.09609 11.003H11.9011C11.821 10.7975 11.6987 10.6112 11.5421 10.456L10.4991 9.41299Z" fill="#232323"/>
<path d="M10.499 8.00299L10.155 8.34698L8.74902 9.75299C8.29602 10.206 7.99902 10.816 7.99902 11.503C7.99902 12.878 9.12402 14.003 10.499 14.003C11.874 14.003 12.999 12.878 12.999 11.503C12.999 10.816 12.702 10.206 12.249 9.75299L10.843 8.34698L10.499 8.00299ZM5.49902 10.003L5.15503 10.347L3.74902 11.753C3.29602 12.206 2.99902 12.816 2.99902 13.503C2.99902 14.878 4.12402 16.003 5.49902 16.003C6.87402 16.003 7.99902 14.878 7.99902 13.503C7.99902 12.816 7.70202 12.206 7.24902 11.753L5.84302 10.347L5.49902 10.003Z" fill="#232323"/>
</g>
<defs>
<clipPath id="clip0_412_3749">
<rect width="16" height="16" fill="white" transform="translate(-0.000976562)"/>
</clipPath>
</defs>
</svg>
