<svg width="16" height="16" viewBox="0 0 16 16" fill="none" xmlns="http://www.w3.org/2000/svg">
<g clip-path="url(#clip0_412_3750)">
<path d="M-0.000488281 0.00299072H15.9995V16.003H-0.000488281V0.00299072Z" fill="#808080" fill-opacity="0.01"/>
<path d="M6.99951 6.00299V10.003L7.24951 12.003H8.74951L8.99951 10.003V6.00299H6.99951ZM6.99951 13.003V15.003H8.99951V13.003H6.99951Z" fill="#F44336"/>
<path d="M7.99951 0.00299072C5.92851 0.00299072 4.16451 1.27099 3.40551 3.06499C2.45955 3.20307 1.59487 3.67694 0.969491 4.4C0.344115 5.12305 -0.000186719 6.04701 -0.000488281 7.00299C-0.000488281 8.06386 0.420939 9.08127 1.17108 9.83142C1.92123 10.5816 2.93865 11.003 3.99951 11.003H5.99951V5.00299H9.99951V11.003H12.4995C13.4278 11.003 14.318 10.6342 14.9744 9.97786C15.6308 9.32149 15.9995 8.43125 15.9995 7.50299C15.9999 6.64569 15.6847 5.81824 15.1141 5.17844C14.5434 4.53865 13.7573 4.13127 12.9055 4.03399C12.6791 2.89885 12.0668 1.87709 11.1725 1.14227C10.2781 0.407448 9.157 0.00489359 7.99951 0.00299072Z" fill="#232323"/>
</g>
<defs>
<clipPath id="clip0_412_3750">
<rect width="16" height="16" fill="white" transform="translate(-0.000488281)"/>
</clipPath>
</defs>
</svg>
