<svg width="16" height="16" viewBox="0 0 16 16" fill="none" xmlns="http://www.w3.org/2000/svg">
<g clip-path="url(#clip0_412_3751)">
<path d="M10 8C8.68804 8 7.59504 8.858 7.18704 10.031C6.55657 10.1093 5.97973 10.4252 5.57425 10.9143C5.16878 11.4033 4.96524 12.0287 5.00518 12.6628C5.04512 13.2968 5.32553 13.8918 5.78917 14.3261C6.25281 14.7604 6.86473 15.0015 7.50004 15H12.5C13.1353 15.0015 13.7473 14.7604 14.2109 14.3261C14.6746 13.8918 14.955 13.2968 14.9949 12.6628C15.0348 12.0287 14.8313 11.4033 14.4258 10.9143C14.0203 10.4252 13.4435 10.1093 12.813 10.031C12.405 8.858 11.312 8 10 8Z" fill="#232323"/>
<path d="M0 0H16V16H0V0Z" fill="#808080" fill-opacity="0.01"/>
<path d="M8 0C5.929 0 4.165 1.268 3.406 3.063C2.46021 3.20105 1.59566 3.67478 0.970306 4.39763C0.344952 5.12048 0.000541617 6.04419 0 7C0 7.732 0.211 8.41 0.555 9C0.789672 9.40281 1.09329 9.76126 1.452 10.059C1.505 10.104 1.559 10.151 1.615 10.193C1.89649 10.4064 2.20522 10.5813 2.533 10.713C2.7752 10.8095 3.02645 10.8815 3.283 10.928C3.516 10.971 3.754 11 4 11H4.393C4.837 10.205 5.616 9.614 6.522 9.324C7.167 8.001 8.423 7 10 7C11.577 7 12.833 8 13.479 9.324C13.982 9.485 14.444 9.741 14.834 10.07C14.9935 9.92832 15.1401 9.77271 15.272 9.605C15.299 9.57 15.328 9.536 15.354 9.5C15.464 9.341 15.566 9.176 15.65 9C15.87 8.547 16 8.041 16 7.5C16.0004 6.6427 15.6852 5.81525 15.1146 5.17545C14.5439 4.53566 13.7578 4.12828 12.906 4.031C12.6796 2.89586 12.0673 1.8741 11.1729 1.13928C10.2786 0.404457 9.15749 0.00190287 8 0V0ZM10 9C9.125 9 8.408 9.567 8.133 10.36L7.928 10.945L7.496 11H12.5L12.072 10.945L11.867 10.359C11.592 9.567 10.875 9 10 9Z" fill="#232323"/>
</g>
<defs>
<clipPath id="clip0_412_3751">
<rect width="16" height="16" fill="white"/>
</clipPath>
</defs>
</svg>
