<svg width="17" height="16" viewBox="0 0 17 16" fill="none" xmlns="http://www.w3.org/2000/svg">
<g clip-path="url(#clip0_515_3699)">
<path d="M9.50305 8V12.281C9.20038 12.1007 8.85535 12.0037 8.50305 12C8.10749 12 7.72081 12.1173 7.39191 12.3371C7.06301 12.5568 6.80667 12.8692 6.65529 13.2346C6.50392 13.6001 6.46431 14.0022 6.54148 14.3902C6.61865 14.7781 6.80913 15.1345 7.08884 15.4142C7.36854 15.6939 7.72491 15.8844 8.11287 15.9616C8.50083 16.0387 8.90297 15.9991 9.26842 15.8478C9.63387 15.6964 9.94623 15.44 10.166 15.1111C10.3858 14.7822 10.5031 14.3956 10.5031 14L10.5061 10H14.5061L14.5031 12.281C14.2004 12.1007 13.8554 12.0037 13.5031 12C13.1075 12 12.7208 12.1173 12.3919 12.3371C12.063 12.5568 11.8067 12.8692 11.6553 13.2346C11.5039 13.6001 11.4643 14.0022 11.5415 14.3902C11.6187 14.7781 11.8091 15.1345 12.0888 15.4142C12.3685 15.6939 12.7249 15.8844 13.1129 15.9616C13.5008 16.0387 13.903 15.9991 14.2684 15.8478C14.6339 15.6964 14.9462 15.44 15.166 15.1111C15.3858 14.7822 15.5031 14.3956 15.5031 14V8H10.5031H9.50305Z" fill="#232323"/>
<path d="M1.50302 1V2H1.49902V14H1.50302V16H2.50302V15H3.50302V16H4.50302V14H4.49902L4.50302 13H5.50302L5.49902 11H4.49902V6H12.499V7H15.499V3H15.503V1H14.503V2H13.503V1H12.503V2H12.499L12.503 4H4.50302L4.49902 3H4.50302V1H3.50302V2H2.50302V1H1.50302ZM2.49902 3H3.49902V4H2.49902V3ZM13.499 3H14.499V4H13.499V3ZM2.49902 5H3.49902V6H2.49902V5ZM13.499 5H14.499V6H13.499V5ZM2.49902 7H3.49902V8H2.49902V7ZM2.49902 9H3.49902V10H2.49902V9ZM2.49902 11H3.49902V12H2.49902V11ZM2.49902 13H3.49902V14H2.49902V13Z" fill="#232323"/>
</g>
<defs>
<clipPath id="clip0_515_3699">
<rect width="16" height="16" fill="white" transform="translate(0.503052)"/>
</clipPath>
</defs>
</svg>
