<svg width="17" height="16" viewBox="0 0 17 16" fill="none" xmlns="http://www.w3.org/2000/svg">
<g clip-path="url(#clip0_515_3698)">
<path d="M8.39297 -1.03086e-05C6.28297 0.0299897 3.44796 0.802019 3.49596 3.28002C3.54596 5.86702 6.41297 4.94201 6.64597 5.99901C6.68097 5.95401 6.73397 5.91701 6.77097 5.87401C6.96797 5.66101 7.16596 5.48602 7.36396 5.28002C7.67596 4.92802 7.99997 4.60099 8.33097 4.24999C9.43697 3.07099 9.48496 2.99999 12.127 0.99999C11.092 0.37899 9.86896 0.0339897 8.82996 -1.03086e-05C8.69596 -0.00501031 8.53297 -0.00201031 8.39297 -1.03086e-05ZM6.48997 1.531C7.31697 1.531 7.98696 2.202 7.98696 3.031C7.99432 3.23219 7.96104 3.4328 7.88912 3.62084C7.8172 3.80888 7.70812 3.98048 7.56838 4.12542C7.42865 4.27035 7.26113 4.38567 7.07584 4.46441C6.89055 4.54315 6.69129 4.58373 6.48997 4.58373C6.28864 4.58373 6.08938 4.54315 5.90409 4.46441C5.7188 4.38567 5.55129 4.27035 5.41155 4.12542C5.27182 3.98048 5.16273 3.80888 5.09081 3.62084C5.01889 3.4328 4.98562 3.23219 4.99297 3.031C4.99297 2.203 5.66297 1.531 6.48997 1.531ZM13.759 2.19298C12.341 4.42598 11.392 5.74902 10.389 6.78002C9.74997 7.43802 9.22597 8.09196 8.76697 8.56096C7.92797 9.45096 6.82897 10.501 5.61697 11.654C5.67997 13.124 6.42697 14.401 8.86097 14.872C12.759 15.628 16.888 13.048 16.472 7.812C16.294 5.563 15.067 3.53001 13.759 2.19201V2.19298ZM14.101 5.99901C14.3662 5.99901 14.6205 6.10432 14.8081 6.29186C14.9956 6.4794 15.101 6.7338 15.101 6.99901C15.101 7.26423 14.9956 7.51857 14.8081 7.70611C14.6205 7.89364 14.3662 7.99901 14.101 7.99901C13.8358 7.99901 13.5814 7.89364 13.3939 7.70611C13.2063 7.51857 13.101 7.26423 13.101 6.99901C13.101 6.7338 13.2063 6.4794 13.3939 6.29186C13.5814 6.10432 13.8358 5.99901 14.101 5.99901ZM13.477 8.99901C13.7422 8.99901 13.9965 9.10432 14.1841 9.29186C14.3716 9.4794 14.477 9.7338 14.477 9.99901C14.477 10.2642 14.3716 10.5186 14.1841 10.7061C13.9965 10.8936 13.7422 10.999 13.477 10.999C13.2117 10.999 12.9574 10.8936 12.7699 10.7061C12.5823 10.5186 12.477 10.2642 12.477 9.99901C12.477 9.7338 12.5823 9.4794 12.7699 9.29186C12.9574 9.10432 13.2117 8.99901 13.477 8.99901ZM8.48696 10.999C8.74657 11.0072 8.99281 11.1161 9.17354 11.3027C9.35428 11.4892 9.45534 11.7387 9.45534 11.9985C9.45534 12.2582 9.35428 12.5078 9.17354 12.6943C8.99281 12.8809 8.74657 12.9898 8.48696 12.998C8.22174 12.998 7.96739 12.8926 7.77985 12.7051C7.59232 12.5175 7.48696 12.2632 7.48696 11.998C7.48696 11.7328 7.59232 11.4784 7.77985 11.2909C7.96739 11.1033 8.22174 10.998 8.48696 10.998V10.999ZM11.481 10.999C11.7406 11.0072 11.9868 11.1161 12.1675 11.3027C12.3483 11.4892 12.4493 11.7387 12.4493 11.9985C12.4493 12.2582 12.3483 12.5078 12.1675 12.6943C11.9868 12.8809 11.7406 12.9898 11.481 12.998C11.2157 12.998 10.9614 12.8926 10.7739 12.7051C10.5863 12.5175 10.481 12.2632 10.481 11.998C10.481 11.7328 10.5863 11.4784 10.7739 11.2909C10.9614 11.1033 11.2157 10.998 11.481 10.998V10.999Z" fill="#232323"/>
<path d="M0.505005 13.5C2.057 13.5 1.89901 11.712 2.65201 11.214C3.52501 10.637 4.291 11.352 4.444 11.94C4.636 12.683 4.32701 13.572 3.31401 13.825C2.24001 14.093 0.652005 14.1011 0.505005 13.4991V13.5Z" fill="#232323"/>
<path d="M14.543 0C12.743 1.299 10.337 3.30201 8.42796 5.33301C8.25496 5.51801 8.08797 5.69598 7.92397 5.88098C7.81997 5.98798 7.71196 6.07599 7.60896 6.18799C7.54296 6.26499 7.48296 6.35098 7.41896 6.42798C5.54596 8.49798 3.69895 11.108 2.50195 13.06C5.47995 10.763 7.41796 8.89503 8.64896 7.59003C8.88896 7.34403 9.17796 7.02399 9.49896 6.66699C10.703 5.33199 12.425 3.229 14.543 0Z" fill="#232323"/>
</g>
<defs>
<clipPath id="clip0_515_3698">
<rect width="16" height="16" fill="white" transform="translate(0.503052)"/>
</clipPath>
</defs>
</svg>
