<svg width="17" height="16" viewBox="0 0 17 16" fill="none" xmlns="http://www.w3.org/2000/svg">
<g clip-path="url(#clip0_515_3701)">
<path d="M0.505004 12C0.509004 11.776 0.617004 11.47 0.809004 11.296L2.97 9.17903C3.203 8.93603 3.757 8.88703 3.981 9.02303C4.061 9.02403 5.117 9.65303 5.27 9.88803C5.886 10.834 4.925 11.715 4.096 11.435L3.746 11.223L2.144 12.795C1.507 13.32 0.452004 12.887 0.503004 12H0.505004Z" fill="#232323"/>
<path d="M12.122 0.117973C12.512 0.0169727 12.912 0.00797269 13.292 0.0379727L11.932 2.34297C11.8654 2.45442 11.8217 2.57805 11.8034 2.70661C11.7852 2.83517 11.7929 2.96608 11.826 3.09164C11.859 3.21721 11.9168 3.3349 11.996 3.43782C12.0752 3.54074 12.1741 3.62681 12.287 3.69097L13.161 4.19897C13.2732 4.26509 13.3974 4.30841 13.5264 4.32646C13.6554 4.3445 13.7867 4.3369 13.9128 4.30411C14.0388 4.27132 14.1572 4.21397 14.261 4.13535C14.3649 4.05674 14.4522 3.9584 14.518 3.84597L15.878 1.53997C16.09 1.85397 16.278 2.20597 16.379 2.59297C16.866 4.44597 15.748 6.34097 13.883 6.82697C13.493 6.92897 13.093 6.93697 12.713 6.90697L11.91 8.02297L8.5 7.99997C8.5 7.99997 10.02 5.42297 10.127 5.40497C9.90166 5.08469 9.73195 4.7287 9.625 4.35197C9.139 2.49997 10.257 0.603973 12.123 0.117973H12.122Z" fill="#232323"/>
<path d="M4.10207 0.718972C3.87705 0.7702 3.65765 0.843557 3.44707 0.937973C3.43007 1.56197 3.53307 2.37897 3.29007 2.59397C3.05207 2.80397 2.25407 2.62797 1.63707 2.56197C1.50534 2.79951 1.40069 3.05109 1.32507 3.31197C1.80207 3.70797 2.46307 4.15197 2.47907 4.46897C2.49507 4.78897 1.85407 5.27397 1.41907 5.71897C1.52207 5.97597 1.66907 6.21197 1.82407 6.43697C2.43107 6.31097 3.18807 6.06397 3.44707 6.24997C3.71007 6.43997 3.71107 7.25497 3.79007 7.87497C4.03907 7.94997 4.30207 7.97897 4.57007 7.99997C4.85007 7.44497 5.13707 6.67997 5.44407 6.59397C5.75907 6.50497 6.40607 7.05197 6.94107 7.37397C7.16007 7.22397 7.35407 7.03797 7.53407 6.84397C7.28107 6.27097 6.81407 5.55197 6.94107 5.24997C7.06907 4.94797 7.91507 4.77997 8.50107 4.56197C8.50607 4.48897 8.53307 4.41797 8.53307 4.34397C8.53307 4.15197 8.49907 3.96397 8.47007 3.78097C7.86507 3.62097 7.00507 3.53997 6.84807 3.24997C6.69107 2.96197 7.08907 2.18897 7.28507 1.59397C7.08424 1.41409 6.86425 1.25682 6.62907 1.12497C6.12907 1.49997 5.54707 2.11897 5.22507 2.06197C4.90907 2.00597 4.56307 1.24197 4.22707 0.718972C4.18707 0.725972 4.14207 0.710972 4.10207 0.718972ZM4.72607 2.59397C5.17363 2.59397 5.60285 2.77176 5.91932 3.08823C6.23578 3.4047 6.41357 3.83392 6.41357 4.28147C6.41357 4.72903 6.23578 5.15825 5.91932 5.47472C5.60285 5.79118 5.17363 5.96897 4.72607 5.96897C4.27852 5.96897 3.8493 5.79118 3.53283 5.47472C3.21636 5.15825 3.03857 4.72903 3.03857 4.28147C3.03857 3.83392 3.21636 3.4047 3.53283 3.08823C3.8493 2.77176 4.27852 2.59397 4.72607 2.59397Z" fill="#232323"/>
<path d="M3.5 9H13.485L13.493 15.063C13.493 15.555 13.021 16 12.499 16H4.506C4.3747 16.0003 4.24464 15.9746 4.12331 15.9244C4.00197 15.8742 3.89176 15.8005 3.79901 15.7076C3.70626 15.6146 3.6328 15.5043 3.58285 15.3828C3.53291 15.2614 3.50747 15.1313 3.508 15L3.5 9Z" fill="#232323"/>
<path d="M16.4641 11.977C16.4601 11.753 16.3521 11.447 16.1601 11.273L13.9991 9.15602C13.7661 8.91302 13.2121 8.86402 12.9881 9.00002C12.9081 9.00102 11.8521 9.63002 11.6991 9.86502C11.0831 10.811 12.0431 11.692 12.8731 11.412L13.2231 11.2L14.8251 12.772C15.4621 13.298 16.5171 12.864 16.4651 11.977H16.4641Z" fill="#232323"/>
</g>
<defs>
<clipPath id="clip0_515_3701">
<rect width="16" height="16" fill="white" transform="translate(0.503052)"/>
</clipPath>
</defs>
</svg>
