<svg width="17" height="16" viewBox="0 0 17 16" fill="none" xmlns="http://www.w3.org/2000/svg">
<g clip-path="url(#clip0_515_3702)">
<path d="M3.56905 0H3.43705C1.81665 0 0.503052 1.33688 0.503052 2.986V13.014C0.503052 14.6631 1.81665 16 3.43705 16H3.56905C5.18946 16 6.50305 14.6631 6.50305 13.014V2.986C6.50305 1.33688 5.18946 0 3.56905 0Z" fill="#232323"/>
<path d="M5.90906 0C6.78706 0.713 7.37906 1.792 7.37906 3V4H9.50306C9.42906 2.907 10.7521 2 11.5031 2C12.1831 2 12.5031 2.012 12.5031 3V4H13.7221C14.9511 3.4 15.5031 2.03 15.5031 1.312C15.5031 0.577 13.1181 0 11.8161 0H5.90906Z" fill="#232323"/>
<path d="M7.50305 4.99998V9.31298C10.2691 11.975 13.6281 11.719 13.6281 11.719C13.6281 11.719 13.9811 10.199 11.7221 7.68898L9.34705 4.99998H7.56605C7.54305 5.00298 7.52305 4.99898 7.50305 4.99998ZM10.4781 7.53198L12.1611 9.26898C10.3631 9.43498 10.0111 8.41298 10.4781 7.53198Z" fill="#232323"/>
</g>
<defs>
<clipPath id="clip0_515_3702">
<rect width="16" height="16" fill="white" transform="translate(0.503052)"/>
</clipPath>
</defs>
</svg>
