<svg width="17" height="16" viewBox="0 0 17 16" fill="none" xmlns="http://www.w3.org/2000/svg">
<g clip-path="url(#clip0_515_3697)">
<path d="M2.5 0C1.392 0 0.5 0.892 0.5 2V14C0.5 15.108 1.392 16 2.5 16C3.608 16 4.5 15.108 4.5 14V10H12.5V14C12.5 15.108 13.392 16 14.5 16C15.608 16 16.5 15.108 16.5 14V2C16.5 0.892 15.608 0 14.5 0H2.5ZM4 2H5C5.277 2 5.5 2.223 5.5 2.5V4H7C7.277 4 7.5 4.223 7.5 4.5V5.5C7.5 5.777 7.277 6 7 6H5.5V7.5C5.5 7.777 5.277 8 5 8H4C3.9343 8.00013 3.86922 7.98729 3.8085 7.96221C3.74778 7.93713 3.69261 7.9003 3.64615 7.85385C3.5997 7.80739 3.56287 7.75222 3.53779 7.6915C3.51271 7.63077 3.49987 7.5657 3.5 7.5V6H2C1.9343 6.00013 1.86922 5.98729 1.8085 5.96221C1.74778 5.93713 1.69261 5.9003 1.64615 5.85385C1.5997 5.80739 1.56287 5.75222 1.53779 5.6915C1.51271 5.63077 1.49987 5.5657 1.5 5.5V4.5C1.5 4.223 1.723 4 2 4H3.5V2.5C3.5 2.223 3.723 2 4 2ZM12 2H13C13.277 2 13.5 2.223 13.5 2.5V3.5C13.5 3.777 13.277 4 13 4H12C11.9343 4.00013 11.8692 3.98729 11.8085 3.96221C11.7478 3.93713 11.6926 3.9003 11.6462 3.85385C11.5997 3.80739 11.5629 3.75222 11.5378 3.6915C11.5127 3.63078 11.4999 3.5657 11.5 3.5V2.5C11.5 2.223 11.723 2 12 2ZM10 4H11C11.277 4 11.5 4.223 11.5 4.5V5.5C11.5 5.777 11.277 6 11 6H10C9.9343 6.00013 9.86922 5.98729 9.8085 5.96221C9.74778 5.93713 9.69261 5.9003 9.64615 5.85385C9.5997 5.80739 9.56287 5.75222 9.53779 5.6915C9.51271 5.63077 9.49987 5.5657 9.5 5.5V4.5C9.5 4.223 9.723 4 10 4ZM14 4H15C15.277 4 15.5 4.223 15.5 4.5V5.5C15.5 5.777 15.277 6 15 6H14C13.9343 6.00013 13.8692 5.98729 13.8085 5.96221C13.7478 5.93713 13.6926 5.9003 13.6462 5.85385C13.5997 5.80739 13.5629 5.75222 13.5378 5.6915C13.5127 5.63077 13.4999 5.5657 13.5 5.5V4.5C13.5 4.223 13.723 4 14 4ZM12 6H13C13.277 6 13.5 6.223 13.5 6.5V7.5C13.5 7.777 13.277 8 13 8H12C11.9343 8.00013 11.8692 7.98729 11.8085 7.96221C11.7478 7.93713 11.6926 7.9003 11.6462 7.85385C11.5997 7.80739 11.5629 7.75222 11.5378 7.6915C11.5127 7.63077 11.4999 7.5657 11.5 7.5V6.5C11.5 6.223 11.723 6 12 6Z" fill="#232323"/>
</g>
<defs>
<clipPath id="clip0_515_3697">
<rect width="16.003" height="16" fill="white" transform="translate(0.5)"/>
</clipPath>
</defs>
</svg>
