<svg width="17" height="16" viewBox="0 0 17 16" fill="none" xmlns="http://www.w3.org/2000/svg">
<path d="M5.5131 0.0999756C5.2919 0.100356 5.07706 0.17407 4.90223 0.30957C4.72739 0.44507 4.60241 0.63471 4.54685 0.848816C4.49129 1.06292 4.50829 1.28938 4.59519 1.4928C4.68209 1.69621 4.83397 1.86508 5.02707 1.97296L5.51709 2.24597V4.92996C5.38709 5.13396 5.26709 5.31696 5.07709 5.64496C4.80509 6.11496 4.47209 6.70496 4.11109 7.35196C3.37086 8.68003 2.63652 10.0114 1.90809 11.346C1.33509 12.393 1.35707 13.8 2.20807 14.86C2.88207 15.76 3.9461 16 4.8281 16H12.1751C13.0571 16 14.1251 15.76 14.7981 14.858C15.6481 13.798 15.6671 12.393 15.0951 11.346C13.9321 8.97698 12.6211 7.12697 11.5331 4.94897V2.24896L12.0231 1.97296C12.2163 1.86504 12.3682 1.6961 12.4551 1.49258C12.5419 1.28907 12.5589 1.06249 12.5032 0.848328C12.4475 0.634167 12.3224 0.444534 12.1474 0.309113C11.9724 0.173691 11.7574 0.100135 11.5361 0.0999756H5.5131ZM7.51709 2.09998H9.53208V5.20697C9.53208 5.3595 9.56699 5.51 9.6341 5.64697C10.8361 8.10397 12.2081 9.98998 13.3201 12.264C13.3265 12.2778 13.3331 12.2914 13.3401 12.305C13.5791 12.744 13.5931 13.188 13.2401 13.619C13.2277 13.6336 13.2156 13.6486 13.2041 13.664C13.0601 13.863 12.7151 14 12.1751 14H4.82709C4.28709 14 3.9431 13.863 3.7981 13.664C3.78752 13.6487 3.7765 13.6336 3.76508 13.619C3.41108 13.188 3.42409 12.744 3.66309 12.305C4.38856 10.9761 5.1199 9.6504 5.85709 8.32797C6.21509 7.68697 6.54508 7.10097 6.80808 6.64697C7.07108 6.19297 7.29909 5.83397 7.32609 5.79697C7.45031 5.62539 7.51684 5.4188 7.51609 5.20697L7.51709 2.09998Z" fill="#232323"/>
<path d="M6.72303 9L4.50403 12.999H12.504L10.285 9H6.72303Z" fill="#232323"/>
</svg>
