<svg width="17" height="16" viewBox="0 0 17 16" fill="none" xmlns="http://www.w3.org/2000/svg">
<g clip-path="url(#clip0_515_3696)">
<path fill-rule="evenodd" clip-rule="evenodd" d="M8.497 8C4.498 8 2.499 11 2.499 14H0.75C0.5 14 0.5 14.157 0.5 14.25V15.75C0.5 16 0.638 16 0.75 16H16.244C16.439 16.006 16.494 15.87 16.494 15.75V14.25C16.515 14.104 16.494 14 16.244 14H14.494C14.494 11 12.495 8 8.497 8ZM8.497 11C10.847 11 11.496 12.762 11.496 14H5.498C5.498 12.802 6.201 11 8.497 11Z" fill="#232323"/>
<path d="M15.4891 0.6C15.1976 0.364506 14.8715 0.175292 14.5225 0.039L14.5005 2.271C14.4965 2.729 14.0487 3 13.4949 3H12.4953C11.9415 2.993 11.4927 2.69 11.4967 2.232L11.5187 0C11.1728 0.133 10.8289 0.304 10.541 0.536C9.16457 1.65 9.14658 3.486 10.501 4.634C10.7849 4.874 11.1258 5.054 11.4677 5.196C11.4957 5.207 11.4957 7.25 11.4957 7.25C12.9851 8 13.8467 9 14.4945 10V5.252C14.8404 5.118 15.1612 4.931 15.4491 4.698C16.8266 3.584 16.8446 1.748 15.4891 0.6Z" fill="#232323"/>
</g>
<defs>
<clipPath id="clip0_515_3696">
<rect width="16" height="16" fill="white" transform="translate(0.5)"/>
</clipPath>
</defs>
</svg>
