<svg width="16" height="16" viewBox="0 0 16 16" fill="none" xmlns="http://www.w3.org/2000/svg">
<path d="M6.25194 1L6.09794 2.844C5.51309 3.06059 4.96934 3.37507 4.48994 3.774L2.81494 2.984L1.06494 6.016L2.58594 7.072C2.53174 7.3784 2.50364 7.68885 2.50194 8C2.50209 8.31237 2.52886 8.62417 2.58194 8.932L1.06494 9.984L2.81494 13.015L4.48594 12.228C4.96698 12.6252 5.51209 12.9376 6.09794 13.152L6.25194 15H9.75194L9.90594 13.156C10.4908 12.9394 11.0345 12.6249 11.5139 12.226L13.1899 13.016L14.9399 9.984L13.4179 8.928C13.4721 8.6216 13.5002 8.31115 13.5019 8C13.5018 7.68763 13.475 7.37583 13.4219 7.068L14.9399 6.016L13.1899 2.984L11.5179 3.772C11.0369 3.37481 10.4918 3.06235 9.90594 2.848L9.75194 1H6.25194ZM8.00194 6C8.53237 6 9.04108 6.21071 9.41615 6.58579C9.79123 6.96086 10.0019 7.46957 10.0019 8C10.0019 8.53043 9.79123 9.03914 9.41615 9.41421C9.04108 9.78929 8.53237 10 8.00194 10C7.47151 10 6.9628 9.78929 6.58773 9.41421C6.21266 9.03914 6.00194 8.53043 6.00194 8C6.00194 7.46957 6.21266 6.96086 6.58773 6.58579C6.9628 6.21071 7.47151 6 8.00194 6Z" fill="#232323"/>
</svg>
