<svg width="16" height="16" viewBox="0 0 16 16" fill="none" xmlns="http://www.w3.org/2000/svg">
<g clip-path="url(#clip0_515_3705)">
<path d="M0.00195187 12C0.00595187 11.776 0.113952 11.47 0.305952 11.296L2.46695 9.17903C2.69995 8.93603 3.25395 8.88703 3.47795 9.02303C3.55795 9.02403 4.61395 9.65303 4.76695 9.88803C5.38295 10.834 4.42195 11.715 3.59295 11.435L3.24295 11.223L1.64095 12.795C1.00395 13.32 -0.0510481 12.887 -4.81282e-05 12H0.00195187Z" fill="#232323"/>
<path d="M11.6189 0.117973C12.0089 0.0169727 12.4089 0.00797269 12.7889 0.0379727L11.4289 2.34297C11.3623 2.45442 11.3186 2.57805 11.3004 2.70661C11.2822 2.83517 11.2898 2.96608 11.3229 3.09164C11.356 3.21721 11.4138 3.3349 11.493 3.43782C11.5721 3.54074 11.6711 3.62681 11.7839 3.69097L12.6579 4.19897C12.7702 4.26509 12.8944 4.30841 13.0234 4.32646C13.1524 4.3445 13.2836 4.3369 13.4097 4.30411C13.5358 4.27132 13.6541 4.21397 13.758 4.13535C13.8618 4.05674 13.9492 3.9584 14.0149 3.84597L15.3749 1.53997C15.5869 1.85397 15.7749 2.20597 15.8759 2.59297C16.3629 4.44597 15.2449 6.34097 13.3799 6.82697C12.9899 6.92897 12.5899 6.93697 12.2099 6.90697L11.4069 8.02297L7.99695 7.99997C7.99695 7.99997 9.51695 5.42297 9.62395 5.40497C9.39861 5.08469 9.22889 4.7287 9.12195 4.35197C8.63595 2.49997 9.75395 0.603973 11.6199 0.117973H11.6189Z" fill="#232323"/>
<path d="M3.59902 0.718972C3.374 0.7702 3.1546 0.843557 2.94402 0.937973C2.92702 1.56197 3.03002 2.37897 2.78702 2.59397C2.54902 2.80397 1.75102 2.62797 1.13402 2.56197C1.00229 2.79951 0.897634 3.05109 0.822021 3.31197C1.29902 3.70797 1.96002 4.15197 1.97602 4.46897C1.99202 4.78897 1.35102 5.27397 0.916021 5.71897C1.01902 5.97597 1.16602 6.21197 1.32102 6.43697C1.92802 6.31097 2.68502 6.06397 2.94402 6.24997C3.20702 6.43997 3.20802 7.25497 3.28702 7.87497C3.53602 7.94997 3.79902 7.97897 4.06702 7.99997C4.34702 7.44497 4.63402 6.67997 4.94102 6.59397C5.25602 6.50497 5.90302 7.05197 6.43802 7.37397C6.65702 7.22397 6.85102 7.03797 7.03102 6.84397C6.77802 6.27097 6.31102 5.55197 6.43802 5.24997C6.56602 4.94797 7.41202 4.77997 7.99802 4.56197C8.00302 4.48897 8.03002 4.41797 8.03002 4.34397C8.03002 4.15197 7.99602 3.96397 7.96702 3.78097C7.36202 3.62097 6.50202 3.53997 6.34502 3.24997C6.18802 2.96197 6.58602 2.18897 6.78202 1.59397C6.58119 1.41409 6.3612 1.25682 6.12602 1.12497C5.62602 1.49997 5.04402 2.11897 4.72202 2.06197C4.40602 2.00597 4.06002 1.24197 3.72402 0.718972C3.68402 0.725972 3.63902 0.710972 3.59902 0.718972ZM4.22302 2.59397C4.67057 2.59397 5.0998 2.77176 5.41626 3.08823C5.73273 3.4047 5.91052 3.83392 5.91052 4.28147C5.91052 4.72903 5.73273 5.15825 5.41626 5.47472C5.0998 5.79118 4.67057 5.96897 4.22302 5.96897C3.77547 5.96897 3.34625 5.79118 3.02978 5.47472C2.71331 5.15825 2.53552 4.72903 2.53552 4.28147C2.53552 3.83392 2.71331 3.4047 3.02978 3.08823C3.34625 2.77176 3.77547 2.59397 4.22302 2.59397Z" fill="#232323"/>
<path d="M2.99695 9H12.9819L12.9899 15.063C12.9899 15.555 12.5179 16 11.9959 16H4.00295C3.87165 16.0003 3.74159 15.9746 3.62025 15.9244C3.49892 15.8742 3.38871 15.8005 3.29596 15.7076C3.20321 15.6146 3.12975 15.5043 3.0798 15.3828C3.02986 15.2614 3.00442 15.1313 3.00495 15L2.99695 9Z" fill="#232323"/>
<path d="M15.961 11.977C15.957 11.753 15.849 11.447 15.657 11.273L13.496 9.15602C13.263 8.91302 12.709 8.86402 12.485 9.00002C12.405 9.00102 11.349 9.63002 11.196 9.86502C10.58 10.811 11.54 11.692 12.37 11.412L12.72 11.2L14.322 12.772C14.959 13.298 16.014 12.864 15.962 11.977H15.961Z" fill="#232323"/>
</g>
<defs>
<clipPath id="clip0_515_3705">
<rect width="16" height="16" fill="white"/>
</clipPath>
</defs>
</svg>
