<svg width="16" height="16" viewBox="0 0 16 16" fill="none" xmlns="http://www.w3.org/2000/svg">
<path d="M4 9C5.65685 9 7 7.65685 7 6C7 4.34315 5.65685 3 4 3C2.34315 3 1 4.34315 1 6C1 7.65685 2.34315 9 4 9Z" fill="#232323"/>
<path d="M11 9C12.6569 9 14 7.65685 14 6C14 4.34315 12.6569 3 11 3C9.34315 3 8 4.34315 8 6C8 7.65685 9.34315 9 11 9Z" fill="#232323"/>
<path d="M12 10L15 8V14L12 12V10Z" fill="#232323"/>
<path d="M10 8H3C1.89543 8 1 8.89543 1 10V12C1 13.1046 1.89543 14 3 14H10C11.1046 14 12 13.1046 12 12V10C12 8.89543 11.1046 8 10 8Z" fill="#232323"/>
</svg>
