<svg width="16" height="16" viewBox="0 0 16 16" fill="none" xmlns="http://www.w3.org/2000/svg">
<path d="M7.72 1.01001C5.91328 1.08104 4.20414 1.84842 2.95055 3.1514C1.69696 4.45439 0.996182 6.1919 0.994995 8.00001C0.994995 8.91926 1.17606 9.82951 1.52784 10.6788C1.87962 11.5281 2.39524 12.2997 3.04525 12.9498C3.69526 13.5998 4.46693 14.1154 5.31621 14.4672C6.16549 14.8189 7.07574 15 7.995 15C8.91425 15 9.8245 14.8189 10.6738 14.4672C11.5231 14.1154 12.2947 13.5998 12.9447 12.9498C13.5948 12.2997 14.1104 11.5281 14.4622 10.6788C14.8139 9.82951 14.995 8.91926 14.995 8.00001C14.9931 6.17852 14.2813 4.42951 13.0107 3.12436C11.7401 1.81922 10.0108 1.06075 8.18999 1.01001H7.72ZM7.995 4.00001C8.52028 4.00001 9.04043 4.10347 9.52573 4.30449C10.011 4.50551 10.452 4.80015 10.8234 5.17158C11.1949 5.54302 11.4895 5.98397 11.6905 6.46928C11.8915 6.95458 11.995 7.47472 11.995 8.00001V8.50001C11.9949 8.80766 11.9002 9.10784 11.7238 9.35986C11.5473 9.61188 11.2976 9.80355 11.0086 9.90889C10.7195 10.0142 10.4051 10.0281 10.1079 9.94874C9.81063 9.86934 9.54501 9.70046 9.347 9.46501C8.98005 9.80766 8.49705 9.99879 7.995 10C7.59943 10 7.21275 9.88271 6.88385 9.66295C6.55496 9.44319 6.29861 9.13083 6.14724 8.76538C5.99586 8.39992 5.95625 7.99779 6.03342 7.60983C6.1106 7.22187 6.30108 6.8655 6.58078 6.5858C6.86049 6.30609 7.21685 6.11561 7.60481 6.03844C7.99278 5.96127 8.39491 6.00087 8.76036 6.15225C9.12581 6.30363 9.43817 6.55997 9.65793 6.88887C9.8777 7.21777 9.995 7.60445 9.995 8.00001V8.50001C9.995 8.63262 10.0477 8.7598 10.1414 8.85356C10.2352 8.94733 10.3624 9.00001 10.495 9.00001C10.6276 9.00001 10.7548 8.94733 10.8485 8.85356C10.9423 8.7598 10.995 8.63262 10.995 8.50001V8.00001C10.995 7.40667 10.819 6.82665 10.4894 6.3333C10.1598 5.83995 9.69122 5.45543 9.14305 5.22837C8.59487 5.00131 7.99167 4.9419 7.40972 5.05765C6.82778 5.17341 6.29323 5.45913 5.87367 5.87869C5.45412 6.29825 5.1684 6.8328 5.05264 7.41474C4.93688 7.99668 4.99629 8.59988 5.22336 9.14806C5.45042 9.69624 5.83494 10.1648 6.32828 10.4944C6.82163 10.8241 7.40165 11 7.995 11H10.495C10.495 11 10.995 11 10.995 11.5C10.965 12 10.495 12 10.495 12H7.995C6.93413 12 5.91671 11.5786 5.16657 10.8284C4.41642 10.0783 3.995 9.06088 3.995 8.00001C3.995 6.93914 4.41642 5.92173 5.16657 5.17158C5.91671 4.42144 6.93413 4.00001 7.995 4.00001ZM7.995 7.00001C7.72978 7.00001 7.47542 7.10537 7.28789 7.2929C7.10035 7.48044 6.995 7.73479 6.995 8.00001C6.995 8.26523 7.10035 8.51958 7.28789 8.70712C7.47542 8.89465 7.72978 9.00001 7.995 9.00001C8.26021 9.00001 8.51457 8.89465 8.7021 8.70712C8.88964 8.51958 8.995 8.26523 8.995 8.00001C8.995 7.73479 8.88964 7.48044 8.7021 7.2929C8.51457 7.10537 8.26021 7.00001 7.995 7.00001Z" fill="#232323"/>
</svg>
