<svg width="16" height="16" viewBox="0 0 16 16" fill="none" xmlns="http://www.w3.org/2000/svg">
<path d="M0.5 0.97998C0.367392 0.97998 0.240222 1.03266 0.146454 1.12643C0.0526857 1.22019 0 1.34737 0 1.47998C0 1.61259 0.0526857 1.73977 0.146454 1.83353C0.240222 1.9273 0.367392 1.97998 0.5 1.97998H1V9.97998C1 10.98 2 10.98 2 10.98H7V12.23L4.28 14.074C4.02 14.199 3.92801 14.587 4.09201 14.824C4.25601 15.061 4.63301 15.084 4.84201 14.886L7.5 13.074L10.158 14.886C10.367 15.084 10.745 15.06 10.908 14.824C11.072 14.587 10.98 14.199 10.721 14.074L8 12.23V10.98H13C13 10.98 14.008 10.98 14 9.97998V1.97998H14.5C14.6326 1.97998 14.7598 1.9273 14.8535 1.83353C14.9473 1.73977 15 1.61259 15 1.47998C15 1.34737 14.9473 1.22019 14.8535 1.12643C14.7598 1.03266 14.6326 0.97998 14.5 0.97998H1H0.5ZM3 2.97998H12V8.97998H11L7.5 5.47998L4 8.97998H3V2.97998Z" fill="#232323"/>
<path opacity="0.5" d="M4 3V7L5.313 5.5L6.625 7L8.813 4.5L11 7V3H4Z" fill="#232323"/>
</svg>
