<svg width="16" height="16" viewBox="0 0 16 16" fill="none" xmlns="http://www.w3.org/2000/svg">
<path d="M12.0449 12C11.6704 12 11.3296 11.9259 11.0225 11.7778C10.7154 11.6296 10.4682 11.4296 10.2809 11.1778C10.0936 10.9259 10 10.6407 10 10.3222C10 9.81111 10.2097 9.4037 10.6292 9.1C11.0487 8.7963 11.5955 8.5963 12.2697 8.5L13.9438 8.26667V7.94444C13.9438 7.58889 13.839 7.31111 13.6292 7.11111C13.427 6.91111 13.0936 6.81111 12.6292 6.81111C12.2921 6.81111 12.0187 6.87778 11.809 7.01111C11.6067 7.14444 11.4644 7.31481 11.382 7.52222C11.3371 7.63333 11.2584 7.68889 11.1461 7.68889H10.6404C10.5581 7.68889 10.4944 7.66667 10.4494 7.62222C10.412 7.57037 10.3933 7.51111 10.3933 7.44444C10.3933 7.33333 10.4345 7.1963 10.5169 7.03333C10.6067 6.87037 10.7416 6.71111 10.9213 6.55556C11.1011 6.4 11.3296 6.27037 11.6067 6.16667C11.8914 6.05556 12.236 6 12.6404 6C13.0899 6 13.4682 6.05926 13.7753 6.17778C14.0824 6.28889 14.3221 6.44074 14.4944 6.63333C14.6742 6.82593 14.8015 7.04444 14.8764 7.28889C14.9588 7.53333 15 7.78148 15 8.03333V11.6333C15 11.7074 14.9738 11.7704 14.9213 11.8222C14.8764 11.8667 14.8165 11.8889 14.7416 11.8889H14.2247C14.1423 11.8889 14.0787 11.8667 14.0337 11.8222C13.9888 11.7704 13.9663 11.7074 13.9663 11.6333V11.1556C13.8689 11.2889 13.7378 11.4222 13.573 11.5556C13.4082 11.6815 13.2022 11.7889 12.9551 11.8778C12.7079 11.9593 12.4045 12 12.0449 12ZM12.2809 11.1667C12.588 11.1667 12.8689 11.1037 13.1236 10.9778C13.3783 10.8444 13.5768 10.6407 13.7191 10.3667C13.8689 10.0926 13.9438 9.74815 13.9438 9.33333V9.02222L12.6404 9.21111C12.1086 9.28519 11.7079 9.41111 11.4382 9.58889C11.1685 9.75926 11.0337 9.97778 11.0337 10.2444C11.0337 10.4519 11.0936 10.6259 11.2135 10.7667C11.3408 10.9 11.4981 11 11.6854 11.0667C11.8801 11.1333 12.0787 11.1667 12.2809 11.1667Z" fill="black"/>
<path d="M1.25397 12C1.18624 12 1.12698 11.9743 1.07619 11.9229C1.0254 11.8714 1 11.8114 1 11.7429C1 11.7 1.00423 11.6529 1.0127 11.6014L4.1619 3.28286C4.19577 3.19714 4.24233 3.12857 4.30159 3.07714C4.36085 3.02571 4.44974 3 4.56825 3H5.43175C5.5418 3 5.62645 3.02571 5.68571 3.07714C5.75344 3.12857 5.80423 3.19714 5.83809 3.28286L8.9746 11.6014C8.99153 11.6529 9 11.7 9 11.7429C9 11.8114 8.9746 11.8714 8.92381 11.9229C8.87302 11.9743 8.81376 12 8.74603 12H8.09841C7.99683 12 7.92063 11.9743 7.86984 11.9229C7.82751 11.8714 7.79788 11.8243 7.78095 11.7814L7.08254 9.95571H2.91746L2.21905 11.7814C2.21058 11.8243 2.18095 11.8714 2.13016 11.9229C2.07937 11.9743 2.00317 12 1.90159 12H1.25397ZM3.28571 8.85H6.71429L5 4.28571L3.28571 8.85Z" fill="black"/>
</svg>
