<svg width="16" height="16" viewBox="0 0 16 16" fill="none" xmlns="http://www.w3.org/2000/svg">
<path d="M8 13C6.96296 13 6.0679 12.831 5.31481 12.493C4.57407 12.1549 4 11.6423 3.59259 10.9549C3.19753 10.2563 3 9.36056 3 8.26761V1.40563C3 1.28169 3.03704 1.18592 3.11111 1.11831C3.18519 1.03944 3.29012 1 3.42593 1H4.37037C4.50617 1 4.61111 1.03944 4.68519 1.11831C4.7716 1.18592 4.81481 1.28169 4.81481 1.40563V8.30141C4.81481 9.40563 5.09877 10.2225 5.66667 10.7521C6.23457 11.2817 7.01235 11.5465 8 11.5465C8.97531 11.5465 9.74691 11.2817 10.3148 10.7521C10.8951 10.2225 11.1852 9.40563 11.1852 8.30141V1.40563C11.1852 1.28169 11.2222 1.18592 11.2963 1.11831C11.3827 1.03944 11.4877 1 11.6111 1H12.5741C12.6975 1 12.7963 1.03944 12.8704 1.11831C12.9568 1.18592 13 1.28169 13 1.40563V8.26761C13 9.36056 12.7963 10.2563 12.3889 10.9549C11.9938 11.6423 11.4259 12.1549 10.6852 12.493C9.94444 12.831 9.04938 13 8 13Z" fill="black"/>
<path d="M3 14.3C3 14.1343 3.13431 14 3.3 14H12.7C12.8657 14 13 14.1343 13 14.3V14.7C13 14.8657 12.8657 15 12.7 15H3.3C3.13431 15 3 14.8657 3 14.7V14.3Z" fill="black"/>
</svg>
