<svg width="16" height="16" viewBox="0 0 16 16" fill="none" xmlns="http://www.w3.org/2000/svg">
<path d="M2.5059 15C2.3575 15 2.23609 14.9533 2.14165 14.86C2.04722 14.7667 2 14.6467 2 14.5V1.5C2 1.35333 2.04722 1.23333 2.14165 1.14C2.23609 1.04667 2.3575 1 2.5059 1H8.67791C9.83811 1 10.7892 1.16 11.5312 1.48C12.2732 1.8 12.8196 2.26 13.1703 2.86C13.5346 3.44667 13.7167 4.14667 13.7167 4.96C13.7167 5.44 13.6223 5.86667 13.4334 6.24C13.258 6.6 13.0354 6.9 12.7656 7.14C12.5093 7.38 12.2664 7.55333 12.0371 7.66C12.5497 7.9 13.0017 8.29333 13.3929 8.84C13.7976 9.38667 14 10.0267 14 10.76C14 11.64 13.7976 12.4 13.3929 13.04C13.0017 13.6667 12.4216 14.1533 11.6526 14.5C10.8971 14.8333 9.96627 15 8.86003 15H2.5059ZM5.62226 12.4H8.45531C9.03541 12.4 9.47386 12.2333 9.77066 11.9C10.0675 11.5667 10.2159 11.1867 10.2159 10.76C10.2159 10.2933 10.0607 9.9 9.75042 9.58C9.45363 9.26 9.02192 9.1 8.45531 9.1H5.62226V12.4ZM5.62226 6.56H8.27319C8.82631 6.56 9.23777 6.42 9.50759 6.14C9.79089 5.86 9.93255 5.5 9.93255 5.06C9.93255 4.63333 9.79089 4.28667 9.50759 4.02C9.23777 3.74 8.82631 3.6 8.27319 3.6H5.62226V6.56Z" fill="black"/>
</svg>
