<svg width="16" height="16" viewBox="0 0 16 16" fill="none" xmlns="http://www.w3.org/2000/svg">
<path fill-rule="evenodd" clip-rule="evenodd" d="M2 6H3V5C3 4.73478 3.10543 4.48051 3.29297 4.29297C3.48051 4.10543 3.73478 4 4 4C4.26522 4 4.51949 4.10543 4.70703 4.29297C4.89457 4.48051 5 4.73478 5 5V6H10C11 6 11 7 11 7V11.9961L12 12C12.2652 12 12.5195 12.1054 12.707 12.293C12.8946 12.4805 13 12.7348 13 13C13 13.2652 12.8946 13.5195 12.707 13.707C12.5195 13.8946 12.2652 14 12 14H11V15C11 15.2652 10.8946 15.5195 10.707 15.707C10.5195 15.8946 10.2652 16 10 16C9.73478 16 9.4805 15.8946 9.29297 15.707C9.10543 15.5195 9 15.2652 9 15V14H4C4 14 3 14 3 13V8H2C1.73478 8 1.48051 7.89457 1.29297 7.70703C1.10543 7.51949 1 7.26522 1 7C1 6.73478 1.10543 6.48051 1.29297 6.29297C1.48051 6.10543 1.73478 6 2 6ZM5 11.9961L9 12V8H5V11.9961Z" fill="#232323"/>
<path d="M14.7064 7.71088C14.8941 7.52354 14.9997 7.2693 15 7.00408C15.0009 6.17567 15 3.50195 15 3.00195C15 2.00195 13.9989 1.00199 13 1.00195C12.5 1.00193 9.43275 1.00046 9.00106 0.999999L8.99893 0L5 2L9 4L8.99893 3C9.28249 3.0003 11.4726 3.00065 12 3C12.5274 2.99934 13 3.47389 13 4.00244C13 4.50244 13.0005 6.54682 13 7.00195C12.9997 7.26717 13.1048 7.52164 13.2921 7.70937C13.4795 7.89711 13.7337 8.00273 13.9989 8.00302C14.2642 8.0033 14.5186 7.89821 14.7064 7.71088Z" fill="#232323"/>
</svg>
