<svg width="16" height="16" viewBox="0 0 16 16" fill="none" xmlns="http://www.w3.org/2000/svg">
<path d="M11.4434 1.79035C11.0584 1.2844 10.5163 1.04319 9.9522 1.0052C8.33142 0.896324 6.75707 2.15383 5.57915 3.09699C3.70542 4.59737 1.86782 6.55006 1.20903 7.39973C0.868932 7.8389 0.952539 8.46741 1.39653 8.80403C1.84094 9.14048 2.47871 9.05746 2.81939 8.61848C3.37482 7.90226 5.24783 6.16924 6.85649 4.65461C7.78521 3.78019 9.5 2.49998 9.79692 3.0052C10.2325 3.74639 6.8987 6.26985 5.08794 8.58821C4.72753 9.04965 4.52748 9.44361 4.41118 9.9261C4.28378 10.4552 4.33853 11.0859 4.82427 11.597C5.28385 12.0804 5.87982 12.2065 6.42192 12.138C6.91294 12.0759 7.3841 11.8566 7.78521 11.6224C8.59205 11.1512 9.48775 10.3924 10.2881 9.71418C11.0982 9.02783 12.8794 7.4223 12.9483 7.75227C13 7.99998 12.3187 8.82516 11.9454 9.26789C11.5212 9.77093 10.9335 10.4117 10.5206 10.9398C10.0793 11.5041 9.6193 12.1694 9.61919 12.9154C9.61931 13.6247 9.94525 14.1786 10.4483 14.5267C10.8922 14.8337 11.4096 14.9383 11.7999 14.9769C12.3033 15.0266 12.8209 14.998 13.3194 14.9095C13.8704 14.8115 14.2767 14.2906 14.1622 13.722C14.0524 13.1792 13.5492 12.8915 13 13L12.9792 13.0043C12.5714 13.0895 11.8279 13.2447 11.7031 12.9349C11.6 12.7 12.125 12.1654 12.125 12.1654C12.125 12.1654 14.2143 10.0111 14.7803 8.64387C14.924 8.29658 15.0312 7.8835 14.9913 7.44172C14.9488 6.97392 14.7469 6.54398 14.3926 6.19367C13.9122 5.71892 13.3035 5.63456 12.7833 5.72199C12.3063 5.80226 11.847 6.02971 11.4522 6.26985C10.6575 6.75326 9.76644 7.51586 8.9688 8.19172C8.21697 8.82876 6.86082 10.3333 6.57622 9.9925C6.34381 9.71418 9.02111 7.24809 11.0928 4.88801C11.4951 4.42973 11.6528 3.98357 11.7696 3.48078C11.8934 2.94682 11.8544 2.33068 11.4434 1.79035Z" fill="#232323"/>
</svg>
