<svg width="16" height="16" viewBox="0 0 16 16" fill="none" xmlns="http://www.w3.org/2000/svg">
<g clip-path="url(#clip0_5303_101)">
<path d="M6.52356 15C6.36998 15 6.24433 14.9533 6.1466 14.86C6.04887 14.7667 6 14.6467 6 14.5V4H2.50262C2.363 4 2.24433 3.95333 2.1466 3.86C2.04887 3.76667 2 3.65333 2 3.52V1.5C2 1.35333 2.04887 1.23333 2.1466 1.14C2.24433 1.04667 2.363 1 2.50262 1H13.4764C13.63 1 13.7557 1.04667 13.8534 1.14C13.9511 1.23333 14 1.35333 14 1.5V3.52C14 3.65333 13.9511 3.76667 13.8534 3.86C13.7557 3.95333 13.63 4 13.4764 4H10V14.5C10 14.6467 9.95113 14.7667 9.8534 14.86C9.75567 14.9533 9.63002 15 9.47644 15H6.52356Z" fill="black"/>
</g>
<defs>
<clipPath id="clip0_5303_101">
<rect width="16" height="16" fill="white"/>
</clipPath>
</defs>
</svg>
