<svg width="16" height="16" viewBox="0 0 16 16" fill="none" xmlns="http://www.w3.org/2000/svg">
<path d="M3.21141 13.9072C3.15452 13.9072 3.10332 13.8875 3.05781 13.8481C3.01799 13.8087 2.99807 13.7581 2.99807 13.6962V9.50211L1.76924 10.4388C1.71804 10.4782 1.66399 10.4923 1.6071 10.481C1.5559 10.4698 1.51039 10.4388 1.47057 10.3882L1.04389 9.83966C1.00975 9.78903 0.99553 9.73558 1.00122 9.67932C1.0126 9.62307 1.04389 9.57806 1.09509 9.5443L3.04074 8.05907C3.07488 8.03657 3.10617 8.0225 3.13461 8.01688C3.16875 8.00563 3.20572 8 3.24555 8H4.15011C4.207 8 4.25535 8.01969 4.29518 8.05907C4.335 8.09845 4.35491 8.14909 4.35491 8.21097V13.6962C4.35491 13.7581 4.335 13.8087 4.29518 13.8481C4.25535 13.8875 4.207 13.9072 4.15011 13.9072H3.21141Z" fill="#232323"/>
<path d="M7.60207 14C7.09005 14 6.66053 13.9184 6.3135 13.7553C5.96647 13.5921 5.70193 13.3783 5.51988 13.1139C5.34352 12.8495 5.24965 12.5682 5.23827 12.27C5.23827 12.2194 5.25534 12.1772 5.28947 12.1435C5.3236 12.1097 5.36627 12.0928 5.41747 12.0928H6.38177C6.45004 12.0928 6.50408 12.1097 6.5439 12.1435C6.58942 12.1716 6.62355 12.211 6.64631 12.2616C6.7032 12.4135 6.77716 12.5373 6.86818 12.6329C6.96489 12.7286 7.07583 12.7989 7.20099 12.8439C7.32615 12.8889 7.45984 12.9114 7.60207 12.9114C7.78412 12.9114 7.95194 12.8748 8.10555 12.8017C8.25915 12.7229 8.38147 12.6104 8.47249 12.4641C8.56352 12.3179 8.60903 12.1378 8.60903 11.9241C8.60903 11.7384 8.56636 11.5752 8.48102 11.4346C8.39569 11.294 8.27622 11.1842 8.12261 11.1055C7.96901 11.0267 7.79549 10.9873 7.60207 10.9873C7.45415 10.9873 7.33184 11.0042 7.23512 11.038C7.1441 11.0717 7.0673 11.1139 7.00472 11.1646C6.94214 11.2096 6.88525 11.2518 6.83405 11.2911C6.78284 11.3249 6.72595 11.3418 6.66337 11.3418H5.71615C5.66495 11.3418 5.61943 11.3249 5.57961 11.2911C5.54548 11.2518 5.52841 11.2068 5.52841 11.1561L5.82709 8.24473C5.83846 8.16596 5.86691 8.10689 5.91242 8.06751C5.96362 8.0225 6.02336 8 6.09163 8H9.40265C9.46523 8 9.51643 8.01969 9.55625 8.05907C9.59608 8.09845 9.61599 8.14909 9.61599 8.21097V8.88608C9.61599 8.94233 9.59608 8.99015 9.55625 9.02954C9.51643 9.06892 9.46523 9.08861 9.40265 9.08861H6.93645L6.80845 10.3291C6.92223 10.256 7.06161 10.1913 7.22659 10.135C7.39726 10.0731 7.63336 10.0422 7.93488 10.0422C8.20795 10.0422 8.4668 10.0872 8.71143 10.1772C8.96175 10.2616 9.18362 10.3882 9.37705 10.557C9.57048 10.7257 9.72124 10.9283 9.82933 11.1646C9.94311 11.3952 10 11.6596 10 11.9578C10 12.3629 9.90329 12.7201 9.70986 13.0295C9.51643 13.3333 9.24051 13.5724 8.8821 13.7468C8.52369 13.9156 8.09701 14 7.60207 14Z" fill="#232323"/>
<path d="M1.5 4L6 7V5.01465C6.16505 5.00595 6.33174 5 6.5 5C10.0899 5 13 7.01472 13 9.5C13 10.4041 12.613 11.244 11.9502 11.9492C11.6152 12.3713 11.6558 12.9781 12.0479 13.3281C12.455 13.6916 13.1076 13.6232 13.4854 13.2002C14.4387 12.1498 15 10.8755 15 9.5C15 5.91015 11.1944 3 6.5 3C6.33214 3 6.16545 3.00438 6 3.01172V1L1.5 4Z" fill="#232323"/>
</svg>
