<svg width="16" height="16" viewBox="0 0 16 16" fill="none" xmlns="http://www.w3.org/2000/svg">
<path d="M7.21141 13.9072C7.15452 13.9072 7.10332 13.8875 7.05781 13.8481C7.01799 13.8087 6.99807 13.7581 6.99807 13.6962V9.50211L5.76924 10.4388C5.71804 10.4782 5.66399 10.4923 5.6071 10.481C5.5559 10.4698 5.51039 10.4388 5.47057 10.3882L5.04389 9.83966C5.00975 9.78903 4.99553 9.73558 5.00122 9.67932C5.0126 9.62307 5.04389 9.57806 5.09509 9.5443L7.04074 8.05907C7.07488 8.03657 7.10617 8.0225 7.13461 8.01688C7.16875 8.00563 7.20572 8 7.24555 8H8.15011C8.207 8 8.25535 8.01969 8.29518 8.05907C8.335 8.09845 8.35491 8.14909 8.35491 8.21097V13.6962C8.35491 13.7581 8.335 13.8087 8.29518 13.8481C8.25535 13.8875 8.207 13.9072 8.15011 13.9072H7.21141Z" fill="#232323"/>
<path d="M11.6021 14C11.0901 14 10.6605 13.9184 10.3135 13.7553C9.96647 13.5921 9.70193 13.3783 9.51988 13.1139C9.34352 12.8495 9.24965 12.5682 9.23827 12.27C9.23827 12.2194 9.25534 12.1772 9.28947 12.1435C9.3236 12.1097 9.36627 12.0928 9.41747 12.0928H10.3818C10.45 12.0928 10.5041 12.1097 10.5439 12.1435C10.5894 12.1716 10.6236 12.211 10.6463 12.2616C10.7032 12.4135 10.7772 12.5373 10.8682 12.6329C10.9649 12.7286 11.0758 12.7989 11.201 12.8439C11.3261 12.8889 11.4598 12.9114 11.6021 12.9114C11.7841 12.9114 11.9519 12.8748 12.1055 12.8017C12.2592 12.7229 12.3815 12.6104 12.4725 12.4641C12.5635 12.3179 12.609 12.1378 12.609 11.9241C12.609 11.7384 12.5664 11.5752 12.481 11.4346C12.3957 11.294 12.2762 11.1842 12.1226 11.1055C11.969 11.0267 11.7955 10.9873 11.6021 10.9873C11.4542 10.9873 11.3318 11.0042 11.2351 11.038C11.1441 11.0717 11.0673 11.1139 11.0047 11.1646C10.9421 11.2096 10.8852 11.2518 10.834 11.2911C10.7828 11.3249 10.726 11.3418 10.6634 11.3418H9.71615C9.66495 11.3418 9.61943 11.3249 9.57961 11.2911C9.54548 11.2518 9.52841 11.2068 9.52841 11.1561L9.82709 8.24473C9.83846 8.16596 9.86691 8.10689 9.91242 8.06751C9.96362 8.0225 10.0234 8 10.0916 8H13.4026C13.4652 8 13.5164 8.01969 13.5563 8.05907C13.5961 8.09845 13.616 8.14909 13.616 8.21097V8.88608C13.616 8.94233 13.5961 8.99015 13.5563 9.02954C13.5164 9.06892 13.4652 9.08861 13.4026 9.08861H10.9364L10.8084 10.3291C10.9222 10.256 11.0616 10.1913 11.2266 10.135C11.3973 10.0731 11.6334 10.0422 11.9349 10.0422C12.208 10.0422 12.4668 10.0872 12.7114 10.1772C12.9617 10.2616 13.1836 10.3882 13.377 10.557C13.5705 10.7257 13.7212 10.9283 13.8293 11.1646C13.9431 11.3952 14 11.6596 14 11.9578C14 12.3629 13.9033 12.7201 13.7099 13.0295C13.5164 13.3333 13.2405 13.5724 12.8821 13.7468C12.5237 13.9156 12.097 14 11.6021 14Z" fill="#232323"/>
<path d="M14.5 4L10 7V5.01465C9.83495 5.00595 9.66826 5 9.5 5C5.91015 5 3 7.01472 3 9.5C3 10.4041 3.38701 11.244 4.0498 11.9492C4.38477 12.3713 4.34421 12.9781 3.95215 13.3281C3.545 13.6916 2.89241 13.6232 2.51465 13.2002C1.56125 12.1498 1 10.8755 1 9.5C1 5.91015 4.80558 3 9.5 3C9.66786 3 9.83455 3.00438 10 3.01172V1L14.5 4Z" fill="#232323"/>
</svg>
