<svg width="16" height="16" viewBox="0 0 16 16" fill="none" xmlns="http://www.w3.org/2000/svg">
<path d="M5.20759 13.9169C5.1467 13.9169 5.09688 13.8975 5.05813 13.8587C5.01938 13.8199 5 13.7701 5 13.7091V13.2105C5 13.1662 5.01107 13.108 5.03321 13.036C5.06089 12.9584 5.11902 12.8837 5.20759 12.8116L6.30367 11.723C6.70778 11.4127 7.0344 11.1496 7.2835 10.9335C7.53815 10.7175 7.72637 10.5208 7.84815 10.3435C7.96994 10.1662 8.03083 9.99446 8.03083 9.82825C8.03083 9.61219 7.96994 9.4349 7.84815 9.2964C7.7319 9.15235 7.54092 9.08033 7.2752 9.08033C7.09806 9.08033 6.94859 9.11911 6.8268 9.19668C6.71055 9.2687 6.61921 9.36565 6.55278 9.48753C6.48635 9.60942 6.44207 9.74238 6.41992 9.88643C6.40332 9.95845 6.36734 10.0083 6.31198 10.036C6.26216 10.0637 6.20957 10.0776 6.15421 10.0776H5.27402C5.21866 10.0776 5.17438 10.0609 5.14116 10.0277C5.10795 9.98892 5.09134 9.94737 5.09134 9.90305C5.09688 9.6482 5.14947 9.4072 5.24911 9.18006C5.35429 8.95291 5.50099 8.75069 5.6892 8.57341C5.87742 8.39612 6.10439 8.25762 6.3701 8.15789C6.63582 8.05263 6.93752 8 7.2752 8C7.74021 8 8.13048 8.07756 8.44602 8.23269C8.76156 8.38227 8.99959 8.59003 9.16013 8.85596C9.32067 9.12188 9.40094 9.42936 9.40094 9.77839C9.40094 10.0443 9.34558 10.2909 9.23486 10.518C9.12968 10.7452 8.97468 10.964 8.76986 11.1745C8.56504 11.3795 8.32146 11.5928 8.03914 11.8144L7.05931 12.795H9.3179C9.37879 12.795 9.42862 12.8144 9.46737 12.8532C9.50612 12.892 9.52549 12.9418 9.52549 13.0028V13.7091C9.52549 13.7701 9.50612 13.8199 9.46737 13.8587C9.42862 13.8975 9.37879 13.9169 9.3179 13.9169H5.20759Z" fill="#232323"/>
<path d="M12.6791 14C12.2806 14 11.9373 13.9446 11.6495 13.8338C11.3672 13.7175 11.1319 13.5596 10.9437 13.3601C10.761 13.1551 10.6226 12.9197 10.5285 12.6537C10.4399 12.3823 10.3873 12.0942 10.3707 11.7895C10.3652 11.6399 10.3596 11.4737 10.3541 11.2909C10.3541 11.1025 10.3541 10.9141 10.3541 10.7258C10.3596 10.5374 10.3652 10.3657 10.3707 10.2105C10.3818 9.90582 10.4344 9.6205 10.5285 9.35457C10.6281 9.08864 10.7721 8.85596 10.9603 8.65651C11.1485 8.45706 11.3838 8.30194 11.6661 8.19114C11.9539 8.07479 12.2916 8.01662 12.6791 8.01662C13.0666 8.01662 13.4015 8.07479 13.6839 8.19114C13.9662 8.30194 14.2015 8.45706 14.3897 8.65651C14.5779 8.85596 14.7191 9.08864 14.8132 9.35457C14.9128 9.6205 14.9709 9.90582 14.9875 10.2105C14.9931 10.3657 14.9958 10.5374 14.9958 10.7258C15.0014 10.9141 15.0014 11.1025 14.9958 11.2909C14.9958 11.4737 14.9931 11.6399 14.9875 11.7895C14.9709 12.0942 14.9156 12.3823 14.8215 12.6537C14.7274 12.9197 14.5862 13.1551 14.398 13.3601C14.2153 13.5596 13.98 13.7175 13.6922 13.8338C13.4098 13.9446 13.0722 14 12.6791 14ZM12.6791 12.9197C13.0002 12.9197 13.2355 12.8144 13.3849 12.6039C13.5344 12.3934 13.6147 12.108 13.6257 11.7479C13.6313 11.5873 13.634 11.4211 13.634 11.2493C13.6396 11.0776 13.6396 10.9058 13.634 10.7341C13.634 10.5623 13.6313 10.4017 13.6257 10.2521C13.6147 9.90859 13.5344 9.62881 13.3849 9.41274C13.2355 9.19668 13.0002 9.08587 12.6791 9.08033C12.3525 9.08587 12.1145 9.19668 11.965 9.41274C11.8211 9.62881 11.7436 9.90859 11.7325 10.2521C11.727 10.4017 11.7214 10.5623 11.7159 10.7341C11.7159 10.9058 11.7159 11.0776 11.7159 11.2493C11.7214 11.4211 11.727 11.5873 11.7325 11.7479C11.7436 12.108 11.8239 12.3934 11.9733 12.6039C12.1228 12.8144 12.3581 12.9197 12.6791 12.9197Z" fill="#232323"/>
<path d="M14.5 4L10 7V5.01465C9.83495 5.00595 9.66826 5 9.5 5C5.91015 5 3 7.01472 3 9.5C3 10.4041 3.38701 11.244 4.0498 11.9492C4.38477 12.3713 4.34421 12.9781 3.95215 13.3281C3.545 13.6916 2.89241 13.6232 2.51465 13.2002C1.56125 12.1498 1 10.8755 1 9.5C1 5.91015 4.80558 3 9.5 3C9.66786 3 9.83455 3.00438 10 3.01172V1L14.5 4Z" fill="#232323"/>
</svg>
