<svg width="16" height="16" viewBox="0 0 16 16" fill="none" xmlns="http://www.w3.org/2000/svg">
<path d="M7.31577 14C6.91208 14 6.56567 13.95 6.27654 13.85C5.98741 13.75 5.7501 13.6222 5.56462 13.4667C5.37914 13.3111 5.24003 13.1417 5.14729 12.9583C5.05455 12.7694 5.00546 12.5889 5 12.4167C5 12.3667 5.01637 12.325 5.0491 12.2917C5.08183 12.2583 5.12274 12.2417 5.17184 12.2417H6.07197C6.13197 12.2417 6.18107 12.2556 6.21926 12.2833C6.25745 12.3056 6.2929 12.3472 6.32564 12.4083C6.36928 12.5361 6.4402 12.6389 6.53839 12.7167C6.63659 12.7944 6.75115 12.85 6.88208 12.8833C7.01846 12.9111 7.16302 12.925 7.31577 12.925C7.62127 12.925 7.8613 12.8528 8.03587 12.7083C8.21044 12.5639 8.29772 12.3611 8.29772 12.1C8.29772 11.8333 8.2159 11.6417 8.05224 11.525C7.88858 11.4083 7.65673 11.35 7.35669 11.35H6.48111C6.42656 11.35 6.38019 11.3306 6.342 11.2917C6.30382 11.2528 6.28472 11.2056 6.28472 11.15V10.7417C6.28472 10.675 6.29563 10.6194 6.31745 10.575C6.34473 10.5306 6.37201 10.4972 6.39928 10.475L7.80675 9.15833H5.49916C5.43915 9.15833 5.39005 9.13889 5.35187 9.1C5.31368 9.06111 5.29459 9.01389 5.29459 8.95833V8.29167C5.29459 8.23056 5.31368 8.18056 5.35187 8.14167C5.39005 8.10278 5.43915 8.08333 5.49916 8.08333H9.13238C9.19239 8.08333 9.24149 8.10278 9.27968 8.14167C9.31786 8.18056 9.33696 8.23056 9.33696 8.29167V8.89167C9.33696 8.95278 9.32605 9.00556 9.30423 9.05C9.28241 9.08889 9.25513 9.11944 9.2224 9.14167L7.88858 10.4833L7.97041 10.4917C8.29227 10.525 8.57867 10.6056 8.82962 10.7333C9.08056 10.8611 9.27695 11.0444 9.41879 11.2833C9.56608 11.5167 9.63973 11.8139 9.63973 12.175C9.63973 12.5528 9.5388 12.8778 9.33696 13.15C9.13511 13.4222 8.85962 13.6333 8.51048 13.7833C8.16134 13.9278 7.76311 14 7.31577 14Z" fill="#232323"/>
<path d="M12.7129 14C12.3201 14 11.9819 13.9444 11.6982 13.8333C11.42 13.7167 11.1881 13.5583 11.0026 13.3583C10.8226 13.1528 10.6862 12.9167 10.5935 12.65C10.5062 12.3778 10.4544 12.0889 10.438 11.7833C10.4326 11.6333 10.4271 11.4667 10.4216 11.2833C10.4216 11.0944 10.4216 10.9056 10.4216 10.7167C10.4271 10.5278 10.4326 10.3556 10.438 10.2C10.4489 9.89444 10.5007 9.60833 10.5935 9.34167C10.6917 9.075 10.8335 8.84167 11.019 8.64167C11.2045 8.44167 11.4363 8.28611 11.7145 8.175C11.9982 8.05833 12.331 8 12.7129 8C13.0947 8 13.4248 8.05833 13.703 8.175C13.9812 8.28611 14.2131 8.44167 14.3986 8.64167C14.584 8.84167 14.7231 9.075 14.8159 9.34167C14.9141 9.60833 14.9714 9.89444 14.9877 10.2C14.9932 10.3556 14.9959 10.5278 14.9959 10.7167C15.0014 10.9056 15.0014 11.0944 14.9959 11.2833C14.9959 11.4667 14.9932 11.6333 14.9877 11.7833C14.9714 12.0889 14.9168 12.3778 14.8241 12.65C14.7313 12.9167 14.5922 13.1528 14.4067 13.3583C14.2267 13.5583 13.9949 13.7167 13.7112 13.8333C13.433 13.9444 13.1002 14 12.7129 14ZM12.7129 12.9167C13.0293 12.9167 13.2611 12.8111 13.4084 12.6C13.5557 12.3889 13.6348 12.1028 13.6457 11.7417C13.6512 11.5806 13.6539 11.4139 13.6539 11.2417C13.6594 11.0694 13.6594 10.8972 13.6539 10.725C13.6539 10.5528 13.6512 10.3917 13.6457 10.2417C13.6348 9.89722 13.5557 9.61667 13.4084 9.4C13.2611 9.18333 13.0293 9.07222 12.7129 9.06667C12.391 9.07222 12.1564 9.18333 12.0091 9.4C11.8673 9.61667 11.7909 9.89722 11.78 10.2417C11.7746 10.3917 11.7691 10.5528 11.7636 10.725C11.7636 10.8972 11.7636 11.0694 11.7636 11.2417C11.7691 11.4139 11.7746 11.5806 11.78 11.7417C11.7909 12.1028 11.87 12.3889 12.0173 12.6C12.1646 12.8111 12.3965 12.9167 12.7129 12.9167Z" fill="#232323"/>
<path d="M14.5 4L10 7V5.01465C9.83495 5.00595 9.66826 5 9.5 5C5.91015 5 3 7.01472 3 9.5C3 10.4041 3.38701 11.244 4.0498 11.9492C4.38477 12.3713 4.34421 12.9781 3.95215 13.3281C3.545 13.6916 2.89241 13.6232 2.51465 13.2002C1.56125 12.1498 1 10.8755 1 9.5C1 5.91015 4.80558 3 9.5 3C9.66786 3 9.83455 3.00438 10 3.01172V1L14.5 4Z" fill="#232323"/>
</svg>
