<svg width="16" height="16" viewBox="0 0 16 16" fill="none" xmlns="http://www.w3.org/2000/svg">
<path d="M3.31577 14C2.91208 14 2.56567 13.95 2.27654 13.85C1.98741 13.75 1.7501 13.6222 1.56462 13.4667C1.37914 13.3111 1.24003 13.1417 1.14729 12.9583C1.05455 12.7694 1.00546 12.5889 1 12.4167C1 12.3667 1.01637 12.325 1.0491 12.2917C1.08183 12.2583 1.12274 12.2417 1.17184 12.2417H2.07197C2.13197 12.2417 2.18107 12.2556 2.21926 12.2833C2.25745 12.3056 2.2929 12.3472 2.32564 12.4083C2.36928 12.5361 2.4402 12.6389 2.53839 12.7167C2.63659 12.7944 2.75115 12.85 2.88208 12.8833C3.01846 12.9111 3.16302 12.925 3.31577 12.925C3.62127 12.925 3.8613 12.8528 4.03587 12.7083C4.21044 12.5639 4.29772 12.3611 4.29772 12.1C4.29772 11.8333 4.2159 11.6417 4.05224 11.525C3.88858 11.4083 3.65673 11.35 3.35669 11.35H2.48111C2.42656 11.35 2.38019 11.3306 2.342 11.2917C2.30382 11.2528 2.28472 11.2056 2.28472 11.15V10.7417C2.28472 10.675 2.29563 10.6194 2.31745 10.575C2.34473 10.5306 2.37201 10.4972 2.39928 10.475L3.80675 9.15833H1.49916C1.43915 9.15833 1.39005 9.13889 1.35187 9.1C1.31368 9.06111 1.29459 9.01389 1.29459 8.95833V8.29167C1.29459 8.23056 1.31368 8.18056 1.35187 8.14167C1.39005 8.10278 1.43915 8.08333 1.49916 8.08333H5.13238C5.19239 8.08333 5.24149 8.10278 5.27968 8.14167C5.31786 8.18056 5.33696 8.23056 5.33696 8.29167V8.89167C5.33696 8.95278 5.32605 9.00556 5.30423 9.05C5.28241 9.08889 5.25513 9.11944 5.2224 9.14167L3.88858 10.4833L3.97041 10.4917C4.29227 10.525 4.57867 10.6056 4.82962 10.7333C5.08056 10.8611 5.27695 11.0444 5.41879 11.2833C5.56608 11.5167 5.63973 11.8139 5.63973 12.175C5.63973 12.5528 5.5388 12.8778 5.33696 13.15C5.13511 13.4222 4.85962 13.6333 4.51048 13.7833C4.16134 13.9278 3.76311 14 3.31577 14Z" fill="#232323"/>
<path d="M8.71287 14C8.32009 14 7.98186 13.9444 7.69818 13.8333C7.41996 13.7167 7.18811 13.5583 7.00263 13.3583C6.82261 13.1528 6.68623 12.9167 6.59349 12.65C6.5062 12.3778 6.45438 12.0889 6.43801 11.7833C6.43256 11.6333 6.4271 11.4667 6.42164 11.2833C6.42164 11.0944 6.42164 10.9056 6.42164 10.7167C6.4271 10.5278 6.43256 10.3556 6.43801 10.2C6.44892 9.89444 6.50075 9.60833 6.59349 9.34167C6.69168 9.075 6.83352 8.84167 7.019 8.64167C7.20448 8.44167 7.43633 8.28611 7.71455 8.175C7.99822 8.05833 8.331 8 8.71287 8C9.09474 8 9.42478 8.05833 9.703 8.175C9.98122 8.28611 10.2131 8.44167 10.3986 8.64167C10.584 8.84167 10.7231 9.075 10.8159 9.34167C10.9141 9.60833 10.9714 9.89444 10.9877 10.2C10.9932 10.3556 10.9959 10.5278 10.9959 10.7167C11.0014 10.9056 11.0014 11.0944 10.9959 11.2833C10.9959 11.4667 10.9932 11.6333 10.9877 11.7833C10.9714 12.0889 10.9168 12.3778 10.8241 12.65C10.7313 12.9167 10.5922 13.1528 10.4067 13.3583C10.2267 13.5583 9.99486 13.7167 9.71119 13.8333C9.43297 13.9444 9.10019 14 8.71287 14ZM8.71287 12.9167C9.02927 12.9167 9.26113 12.8111 9.40842 12.6C9.55571 12.3889 9.63481 12.1028 9.64572 11.7417C9.65118 11.5806 9.65391 11.4139 9.65391 11.2417C9.65936 11.0694 9.65936 10.8972 9.65391 10.725C9.65391 10.5528 9.65118 10.3917 9.64572 10.2417C9.63481 9.89722 9.55571 9.61667 9.40842 9.4C9.26113 9.18333 9.02927 9.07222 8.71287 9.06667C8.39101 9.07222 8.15643 9.18333 8.00914 9.4C7.8673 9.61667 7.79092 9.89722 7.78001 10.2417C7.77456 10.3917 7.7691 10.5528 7.76365 10.725C7.76365 10.8972 7.76365 11.0694 7.76365 11.2417C7.7691 11.4139 7.77456 11.5806 7.78001 11.7417C7.79092 12.1028 7.87003 12.3889 8.01732 12.6C8.16461 12.8111 8.39646 12.9167 8.71287 12.9167Z" fill="#232323"/>
<path d="M1.5 4L6 7V5.01465C6.16505 5.00595 6.33174 5 6.5 5C10.0899 5 13 7.01472 13 9.5C13 10.4041 12.613 11.244 11.9502 11.9492C11.6152 12.3713 11.6558 12.9781 12.0479 13.3281C12.455 13.6916 13.1076 13.6232 13.4854 13.2002C14.4387 12.1498 15 10.8755 15 9.5C15 5.91015 11.1944 3 6.5 3C6.33214 3 6.16545 3.00438 6 3.01172V1L1.5 4Z" fill="#232323"/>
</svg>
