<svg width="16" height="16" viewBox="0 0 16 16" fill="none" xmlns="http://www.w3.org/2000/svg">
<path d="M1.20759 13.9169C1.1467 13.9169 1.09688 13.8975 1.05813 13.8587C1.01938 13.8199 1 13.7701 1 13.7091V13.2105C1 13.1662 1.01107 13.108 1.03321 13.036C1.06089 12.9584 1.11902 12.8837 1.20759 12.8116L2.30367 11.723C2.70778 11.4127 3.0344 11.1496 3.2835 10.9335C3.53815 10.7175 3.72637 10.5208 3.84815 10.3435C3.96994 10.1662 4.03083 9.99446 4.03083 9.82825C4.03083 9.61219 3.96994 9.4349 3.84815 9.2964C3.7319 9.15235 3.54092 9.08033 3.2752 9.08033C3.09806 9.08033 2.94859 9.11911 2.8268 9.19668C2.71055 9.2687 2.61921 9.36565 2.55278 9.48753C2.48635 9.60942 2.44207 9.74238 2.41992 9.88643C2.40332 9.95845 2.36734 10.0083 2.31198 10.036C2.26216 10.0637 2.20957 10.0776 2.15421 10.0776H1.27402C1.21866 10.0776 1.17438 10.0609 1.14116 10.0277C1.10795 9.98892 1.09134 9.94737 1.09134 9.90305C1.09688 9.6482 1.14947 9.4072 1.24911 9.18006C1.35429 8.95291 1.50099 8.75069 1.6892 8.57341C1.87742 8.39612 2.10439 8.25762 2.3701 8.15789C2.63582 8.05263 2.93752 8 3.2752 8C3.74021 8 4.13048 8.07756 4.44602 8.23269C4.76156 8.38227 4.99959 8.59003 5.16013 8.85596C5.32067 9.12188 5.40094 9.42936 5.40094 9.77839C5.40094 10.0443 5.34558 10.2909 5.23486 10.518C5.12968 10.7452 4.97468 10.964 4.76986 11.1745C4.56504 11.3795 4.32146 11.5928 4.03914 11.8144L3.05931 12.795H5.3179C5.37879 12.795 5.42862 12.8144 5.46737 12.8532C5.50612 12.892 5.52549 12.9418 5.52549 13.0028V13.7091C5.52549 13.7701 5.50612 13.8199 5.46737 13.8587C5.42862 13.8975 5.37879 13.9169 5.3179 13.9169H1.20759Z" fill="#232323"/>
<path d="M8.67913 14C8.28055 14 7.93734 13.9446 7.64948 13.8338C7.36715 13.7175 7.13188 13.5596 6.94366 13.3601C6.76098 13.1551 6.62259 12.9197 6.52848 12.6537C6.43991 12.3823 6.38732 12.0942 6.37071 11.7895C6.36518 11.6399 6.35964 11.4737 6.3541 11.2909C6.3541 11.1025 6.3541 10.9141 6.3541 10.7258C6.35964 10.5374 6.36518 10.3657 6.37071 10.2105C6.38178 9.90582 6.43437 9.6205 6.52848 9.35457C6.62813 9.08864 6.77206 8.85596 6.96027 8.65651C7.14849 8.45706 7.38376 8.30194 7.66608 8.19114C7.95394 8.07479 8.29162 8.01662 8.67913 8.01662C9.06663 8.01662 9.40155 8.07479 9.68387 8.19114C9.9662 8.30194 10.2015 8.45706 10.3897 8.65651C10.5779 8.85596 10.7191 9.08864 10.8132 9.35457C10.9128 9.6205 10.9709 9.90582 10.9875 10.2105C10.9931 10.3657 10.9958 10.5374 10.9958 10.7258C11.0014 10.9141 11.0014 11.1025 10.9958 11.2909C10.9958 11.4737 10.9931 11.6399 10.9875 11.7895C10.9709 12.0942 10.9156 12.3823 10.8215 12.6537C10.7274 12.9197 10.5862 13.1551 10.398 13.3601C10.2153 13.5596 9.98003 13.7175 9.69217 13.8338C9.40985 13.9446 9.07217 14 8.67913 14ZM8.67913 12.9197C9.0002 12.9197 9.23547 12.8144 9.38494 12.6039C9.5344 12.3934 9.61467 12.108 9.62574 11.7479C9.63128 11.5873 9.63405 11.4211 9.63405 11.2493C9.63958 11.0776 9.63958 10.9058 9.63405 10.7341C9.63405 10.5623 9.63128 10.4017 9.62574 10.2521C9.61467 9.90859 9.5344 9.62881 9.38494 9.41274C9.23547 9.19668 9.0002 9.08587 8.67913 9.08033C8.35252 9.08587 8.11448 9.19668 7.96501 9.41274C7.82108 9.62881 7.74358 9.90859 7.73251 10.2521C7.72698 10.4017 7.72144 10.5623 7.7159 10.7341C7.7159 10.9058 7.7159 11.0776 7.7159 11.2493C7.72144 11.4211 7.72698 11.5873 7.73251 11.7479C7.74358 12.108 7.82385 12.3934 7.97332 12.6039C8.12278 12.8144 8.35805 12.9197 8.67913 12.9197Z" fill="#232323"/>
<path d="M1.5 4L6 7V5.01465C6.16505 5.00595 6.33174 5 6.5 5C10.0899 5 13 7.01472 13 9.5C13 10.4041 12.613 11.244 11.9502 11.9492C11.6152 12.3713 11.6558 12.9781 12.0479 13.3281C12.455 13.6916 13.1076 13.6232 13.4854 13.2002C14.4387 12.1498 15 10.8755 15 9.5C15 5.91015 11.1944 3 6.5 3C6.33214 3 6.16545 3.00438 6 3.01172V1L1.5 4Z" fill="#232323"/>
</svg>
