<svg width="16" height="16" viewBox="0 0 16 16" fill="none" xmlns="http://www.w3.org/2000/svg">
<path d="M3.74355 10.9448C4.04183 9.79939 5.07605 9 6.25963 9H9.74037C10.924 9 11.9582 9.79939 12.2565 10.9448L13 13.8C13 13.8 11.125 15 8 15C4.875 15 3 13.8 3 13.8L3.74355 10.9448Z" fill="#232323"/>
<path d="M6 6.65043C6 6.5507 6.01492 6.45154 6.04426 6.35623L7.52276 1.55309C7.66762 1.08249 8.33379 1.08257 8.47854 1.5532L9.95581 6.35633C9.98511 6.45158 10 6.55066 10 6.65031V7.9C10 7.95523 9.95523 8 9.9 8H6.1C6.04477 8 6 7.95523 6 7.9V6.65043Z" fill="#232323"/>
</svg>
