<svg width="16" height="16" viewBox="0 0 16 16" fill="none" xmlns="http://www.w3.org/2000/svg">
<g clip-path="url(#clip0_5303_122)">
<path d="M7.17537 5.59619L10.0038 8.42462L14.6 4.53553L11.0645 1L7.17537 5.59619Z" fill="#232323"/>
<path d="M8.96038 8.79497C7.89971 10.5628 8.25327 13.0376 8.25327 13.0376L1.1822 15.1589L4.46017 11.881C4.79354 11.9696 5.16336 11.8849 5.42484 11.6234C5.81537 11.2329 5.81537 10.5997 5.42484 10.2092C5.03432 9.81866 4.40115 9.81866 4.01063 10.2092C3.74915 10.4707 3.66438 10.8405 3.75306 11.1739L0.475095 14.4518L2.59642 7.38076C2.59642 7.38076 5.07125 7.73432 6.83906 6.67365L8.96038 8.79497Z" fill="#232323"/>
</g>
<defs>
<clipPath id="clip0_5303_122">
<rect width="16" height="16" fill="white"/>
</clipPath>
</defs>
</svg>
