<svg width="16" height="16" viewBox="0 0 16 16" fill="none" xmlns="http://www.w3.org/2000/svg">
<g clip-path="url(#clip0_5303_115)">
<path d="M2.48806 9.39943C2.37004 9.51746 2.28343 9.66315 2.23614 9.82322L1.10441 13.6541C1.05945 13.8063 1.20113 13.9477 1.35323 13.9024L5.19785 12.759C5.35724 12.7116 5.5023 12.6252 5.61989 12.5076L12 6.12749L8.88 3.00749L2.48806 9.39943ZM14.76 3.37749C15.09 3.04749 15.09 2.52749 14.76 2.19749L12.81 0.247492C12.733 0.169122 12.6412 0.106872 12.5399 0.064379C12.4386 0.0218856 12.3299 0 12.22 0C12.1101 0 12.0014 0.0218856 11.9001 0.064379C11.7988 0.106872 11.707 0.169122 11.63 0.247492L10 1.88749L13.12 5.00749L14.76 3.37749Z" fill="#232323"/>
</g>
<defs>
<clipPath id="clip0_5303_115">
<rect width="16" height="16" fill="white"/>
</clipPath>
</defs>
</svg>
