<svg width="16" height="16" viewBox="0 0 16 16" fill="none" xmlns="http://www.w3.org/2000/svg">
<path fill-rule="evenodd" clip-rule="evenodd" d="M12 2C13.6569 2 15 3.34315 15 5V11C15 12.6569 13.6569 14 12 14H4C2.34315 14 1 12.6569 1 11V5C1 3.34315 2.34315 2 4 2H12ZM4.5 3C3.11929 3 2 4.11929 2 5.5V10.5C2 11.8807 3.11929 13 4.5 13H11.5C12.8807 13 14 11.8807 14 10.5V5.5C14 4.11929 12.8807 3 11.5 3H4.5Z" fill="#232323"/>
<path fill-rule="evenodd" clip-rule="evenodd" d="M9 5C10.1046 5 11 5.89543 11 7V12C11 13.1046 10.1046 14 9 14H4C2.34315 14 1 12.6569 1 11V7C1 5.89543 1.89543 5 3 5H9ZM3.5 6C2.67157 6 2 6.67157 2 7.5V11.5C2 12.3284 2.67157 13 3.5 13H8.5C9.32843 13 10 12.3284 10 11.5V7.5C10 6.67157 9.32843 6 8.5 6H3.5Z" fill="#232323"/>
<path d="M1 9.5C1 8.67157 1.67157 8 2.5 8H5.5C6.32843 8 7 8.67157 7 9.5V12.5C7 13.3284 6.32843 14 5.5 14H4C2.34315 14 1 12.6569 1 11V9.5Z" fill="#232323"/>
</svg>
