<svg width="16" height="16" viewBox="0 0 16 16" fill="none" xmlns="http://www.w3.org/2000/svg">
<path d="M1 3.4C1 3.17909 1.17909 3 1.4 3H14.6C14.8209 3 15 3.17909 15 3.4V3.6C15 3.82091 14.8209 4 14.6 4H1.4C1.17909 4 1 3.82091 1 3.6V3.4Z" fill="#232323"/>
<path d="M1 6.7C1 6.3134 1.3134 6 1.7 6H14.3C14.6866 6 15 6.3134 15 6.7V7.3C15 7.6866 14.6866 8 14.3 8H1.7C1.3134 8 1 7.6866 1 7.3V6.7Z" fill="#232323"/>
<path d="M1 11C1 10.4477 1.44772 10 2 10H14C14.5523 10 15 10.4477 15 11V13C15 13.5523 14.5523 14 14 14H2C1.44772 14 1 13.5523 1 13V11Z" fill="#232323"/>
</svg>
