<svg width="16" height="16" viewBox="0 0 16 16" fill="none" xmlns="http://www.w3.org/2000/svg">
<path fill-rule="evenodd" clip-rule="evenodd" d="M3.92657 13.115L2.99689 14.0446C2.91654 14.1249 2.79799 14.1528 2.69025 14.1169L1.20489 13.6218C0.993788 13.5511 0.930451 13.2833 1.08771 13.1257L2.51251 11.7009L3.92657 13.115ZM7.74005 11.9782L7.14825 12.6716C6.92633 12.9319 6.54776 12.9932 6.23517 12.8542C5.65613 12.5969 4.74853 12.31 4.28888 12.7692L2.87482 11.3552C3.33407 10.8956 3.04718 9.98794 2.78986 9.4089C2.65093 9.09636 2.7123 8.71873 2.97247 8.49679L3.66681 7.90499L7.74005 11.9782ZM11.574 1.16769C11.8519 0.931027 12.2662 0.947712 12.5242 1.20577L14.4383 3.11983C14.6962 3.3778 14.7127 3.79127 14.4764 4.06905L8.06525 11.5964L4.04864 7.5798L11.574 1.16769Z" fill="#232323"/>
</svg>
