<svg width="16" height="16" viewBox="0 0 16 16" fill="none" xmlns="http://www.w3.org/2000/svg">
<path d="M14 2C14.5523 2 15 2.44772 15 3V13C15 13.5523 14.5523 14 14 14H2C1.44772 14 1 13.5523 1 13V3C1 2.44772 1.44772 2 2 2H14ZM3.7998 4C3.35813 4.00011 3.00011 4.35813 3 4.7998V11.2002C3.00011 11.6419 3.35813 11.9999 3.7998 12H12.2002C12.6419 11.9999 12.9999 11.6419 13 11.2002V4.7998C12.9999 4.35813 12.6419 4.00011 12.2002 4H3.7998Z" fill="#232323"/>
<path d="M6 5L3 8L6 11V9H10V11L13 8L10 5V7H6V5Z" fill="#232323"/>
</svg>
