<svg width="16" height="16" viewBox="0 0 16 16" fill="none" xmlns="http://www.w3.org/2000/svg">
<path fill-rule="evenodd" clip-rule="evenodd" d="M14 1C14.5523 1 15 1.44772 15 2V14C15 14.5523 14.5523 15 14 15H2C1.44772 15 1 14.5523 1 14V2C1 1.44772 1.44772 1 2 1H14ZM3.7998 3C3.35816 3.00014 3.00011 3.35816 3 3.7998V12.2002C3.00011 12.6418 3.35816 12.9999 3.7998 13H12.2002C12.6419 13 12.9999 12.6419 13 12.2002V3.7998C12.9999 3.35807 12.6419 3.00001 12.2002 3H3.7998Z" fill="#232323"/>
<path d="M8 4H4V8L5 7L9 11L8 12H12V8L11 9L7 5L8 4Z" fill="#232323"/>
</svg>
