<svg width="16" height="16" viewBox="0 0 16 16" fill="none" xmlns="http://www.w3.org/2000/svg">
<path d="M4 8v4h4l-1.29297-1.29297.99024-.99023c.0959-.0932.1726-.20497.2246-.32813C7.97398 9.26552 8 9.1337 8 9c0-.26522-.10547-.5195-.29297-.70703A.9999.9999 0 0 0 7 8a1.00006 1.00006 0 0 0-.70703.29297l-1 1z" fill="#232323"/>
<path d="M12 8V4H8l1.29297 1.29297-.99024.99023c-.0959.0932-.1726.20497-.2246.32813C8.02603 6.73448 8 6.8663 8 7c0 .26522.10547.5195.29297.70703A.9999.9999 0 0 0 9 8a1.00006 1.00006 0 0 0 .70703-.29297l1-1z" fill="#232323"/>
</svg>
