<svg width="16" height="16" viewBox="0 0 16 16" fill="none" xmlns="http://www.w3.org/2000/svg">
<path d="M8 4v4h4l-1.29297-1.29297.99024-.99023c.0959-.0932.1726-.20497.2246-.32813C11.97397 5.26552 12 5.1337 12 5c0-.26522-.10547-.5195-.29296-.70703A.9999.9999 0 0 0 11 4a1.00006 1.00006 0 0 0-.70704.29297l-1 1z" fill="#232323"/>
<path d="M8 12V8H4l1.29297 1.29297-.99024.99023c-.0959.0932-.1726.20497-.2246.32813C4.02603 10.73448 4 10.8663 4 11c0 .26522.10547.5195.29297.70703A.9999.9999 0 0 0 5 12a1.00006 1.00006 0 0 0 .70703-.29297l1-1z" fill="#232323"/>
</svg>
