<svg width="256" height="256" viewBox="0 0 256 256" fill="none" xmlns="http://www.w3.org/2000/svg">
<path d="M8 56C8 47.1634 15.1634 40 24 40H95.7971C99.1785 40 102.473 41.0713 105.208 43.0602L118.792 52.9398C121.527 54.9287 124.821 56 128.203 56H232C240.837 56 248 63.1634 248 72V200C248 208.837 240.837 216 232 216H24C15.1634 216 8 208.837 8 200V56Z" fill="url(#paint0_linear_2053_149)"/>
<path d="M8 88C8 79.1634 15.1634 72 24 72H232C240.837 72 248 79.1634 248 88V200C248 208.837 240.837 216 232 216H24C15.1634 216 8 208.837 8 200V88Z" fill="url(#paint1_linear_2053_149)"/>
<defs>
<linearGradient id="paint0_linear_2053_149" x1="121" y1="72.5" x2="121" y2="40" gradientUnits="userSpaceOnUse">
<stop stop-color="#484848"/>
<stop offset="1" stop-color="#636363"/>
</linearGradient>
<linearGradient id="paint1_linear_2053_149" x1="248" y1="72" x2="40.837" y2="253.483" gradientUnits="userSpaceOnUse">
<stop stop-color="#979FAD"/>
<stop offset="1" stop-color="#808080"/>
</linearGradient>
</defs>
</svg>
