<svg width="256" height="256" fill="none" version="1.1" viewBox="0 0 256 256" xmlns="http://www.w3.org/2000/svg">
 <path d="m8 56c0-8.8366 7.1634-16 16-16h71.797c3.3814 0 6.6759 1.0713 9.4109 3.0602l17.792 12.94h109c8.837 0 16 7.1634 16 16v128c0 8.837-7.163 16-16 16h-208c-8.8366 0-16-7.163-16-16v-144z" fill="url(#paint0_linear_2053_149)"/>
 <rect x="8" y="72" width="240" height="144" rx="16" fill="#8f959e"/>
 <defs>
  <linearGradient id="paint0_linear_2053_149" x1="121" x2="121" y1="72.5" y2="40" gradientUnits="userSpaceOnUse">
   <stop stop-color="#484848" offset="0"/>
   <stop stop-color="#636363" offset="1"/>
  </linearGradient>
 </defs>
 <g transform="translate(-.001 -.6175)">
  <path d="m128 97.18a90.722 90.722 0 0 0-34.062 6.625 89.93 89.93 0 0 0-15.75 8.282 90.855 90.855 0 0 0-14.188 11.593l52.406 63.453h0.016a16 16 0 0 0 11.548 4.922 16 16 0 0 0 11.562-4.969h0.032l52.438-63.406a90.476 90.476 0 0 0-21.922-16.156c-0.178-0.094-0.368-0.158-0.547-0.25-2.812-1.453-5.691-2.721-8.61-3.86-1.098-0.427-2.217-0.787-3.328-1.171a90.271 90.271 0 0 0-6.14-1.89 90.604 90.604 0 0 0-3.829-0.938 90.985 90.985 0 0 0-6.375-1.157c-1.166-0.172-2.328-0.373-3.5-0.5-3.242-0.348-6.49-0.578-9.75-0.578z" fill="#bbbec3"/>
  <path d="m128 121.18c-17.82 0-35.638 6.787-49.234 20.375l37.64 45.579h0.016a16 16 0 0 0 11.548 4.921 16 16 0 0 0 11.562-4.968h0.032l37.656-45.547c-13.594-13.578-31.406-20.36-49.218-20.36z" fill="#fff"/>
 </g>
</svg>
