<svg width="16" height="16" viewBox="0 0 16 16" fill="none" xmlns="http://www.w3.org/2000/svg">
<g clip-path="url(#clip0_758_3665)">
<path d="M0 0H16V16H0V0Z" fill="#808080" fill-opacity="0.01"/>
<path d="M3 1C2.46957 1 1.96089 1.21071 1.58582 1.58578C1.21074 1.96086 1 2.46957 1 3V12C1 12.5304 1.21074 13.0391 1.58582 13.4142C1.96089 13.7893 2.46957 14 3 14H13C13.5304 14 14.0391 13.7893 14.4142 13.4142C14.7893 13.0391 15 12.5304 15 12V5C15 4.46957 14.7893 3.96086 14.4142 3.58578C14.0391 3.21071 13.5304 3 13 3H9L7 1H3ZM9.59399 7C10.903 7 12.081 7.469 13.063 8.188L10.5 11C10.045 11.5 9.14003 11.506 8.67603 11L6.12598 8.219C7.10998 7.492 8.27499 7 9.59399 7Z" fill="#232323"/>
</g>
<defs>
<clipPath id="clip0_758_3665">
<rect width="16" height="16" fill="white"/>
</clipPath>
</defs>
</svg>
