<svg width="16" height="16" viewBox="0 0 16 16" fill="none" xmlns="http://www.w3.org/2000/svg">
<g clip-path="url(#clip0_758_3674)">
<path d="M0 0H16V16H0V0Z" fill="#808080" fill-opacity="0.00"/>
<path d="M6.5 1C5.678 1 5 1.678 5 2.5V4.5C5 5.322 5.678 6 6.5 6H7V7H1V9H3V10H2.5C1.678 10 1 10.678 1 11.5V13.5C1 14.322 1.678 15 2.5 15H5.5C6.322 15 7 14.322 7 13.5V11.5C7 10.678 6.322 10 5.5 10H5V9H11V10H10.5C9.678 10 9 10.678 9 11.5V13.5C9 14.322 9.678 15 10.5 15H13.5C14.322 15 15 14.322 15 13.5V11.5C15 10.678 14.322 10 13.5 10H13V9H15V7H9V6H9.5C10.322 6 11 5.322 11 4.5V2.5C11 1.678 10.322 1 9.5 1H6.5ZM6.5 2H9.5C9.786 2 10 2.214 10 2.5V4.5C10 4.786 9.786 5 9.5 5H6.5C6.43389 5.00165 6.36811 4.98984 6.3067 4.96529C6.24529 4.94075 6.18952 4.90398 6.14276 4.85722C6.096 4.81046 6.05927 4.75468 6.03473 4.69327C6.01018 4.63186 5.99835 4.56611 6 4.5V2.5C6 2.214 6.214 2 6.5 2ZM2.5 11H5.5C5.786 11 6 11.214 6 11.5V13.5C6 13.786 5.786 14 5.5 14H2.5C2.43389 14.0016 2.36811 13.9898 2.3067 13.9653C2.24529 13.9407 2.18952 13.904 2.14276 13.8572C2.096 13.8105 2.05927 13.7547 2.03473 13.6933C2.01018 13.6319 1.99835 13.5661 2 13.5V11.5C2 11.214 2.214 11 2.5 11ZM10.5 11H13.5C13.786 11 14 11.214 14 11.5V13.5C14 13.786 13.786 14 13.5 14H10.5C10.4339 14.0016 10.3681 13.9898 10.3067 13.9653C10.2453 13.9407 10.1895 13.904 10.1428 13.8572C10.096 13.8105 10.0593 13.7547 10.0347 13.6933C10.0102 13.6319 9.99835 13.5661 10 13.5V11.5C10 11.214 10.214 11 10.5 11Z" fill="#232323"/>
</g>
<defs>
<clipPath id="clip0_758_3674">
<rect width="16" height="16" fill="white"/>
</clipPath>
</defs>
</svg>
