<svg width="16" height="16" viewBox="0 0 16 16" fill="none" xmlns="http://www.w3.org/2000/svg">
<g clip-path="url(#clip0_758_3673)">
<path d="M16 0H0V16H16V0Z" fill="#808080" fill-opacity="0.01"/>
<path d="M14 1C14.554 1 15 1.446 15 2V4C15 4.554 14.554 5 14 5H2C1.446 5 1 4.554 1 4V2C1 1.446 1.446 1 2 1H14ZM13 2C12.446 2 12 2.446 12 3C12 3.554 12.446 4 13 4C13.554 4 14 3.554 14 3C14 2.446 13.554 2 13 2Z" fill="#232323"/>
<path d="M14 5.88C14.554 5.88 15 6.326 15 6.88V9.005C15 9.559 14.554 10.005 14 10.005H2C1.446 10.005 1 9.559 1 9.005V6.88C1 6.326 1.446 5.88 2 5.88H14ZM13 7.005C12.446 7.005 12 7.451 12 8.005C12 8.559 12.446 9.005 13 9.005C13.554 9.005 14 8.559 14 8.005C14 7.451 13.554 7.005 13 7.005Z" fill="#232323"/>
<path d="M14 11C14.554 11 15 11.446 15 12V14C15 14.554 14.554 15 14 15H2C1.446 15 1 14.554 1 14V12C1 11.446 1.446 11 2 11H14ZM13 12C12.7348 12 12.4804 12.1054 12.2929 12.2929C12.1054 12.4804 12 12.7348 12 13C12 13.2652 12.1054 13.5196 12.2929 13.7071C12.4804 13.8946 12.7348 14 13 14C13.2652 14 13.5196 13.8946 13.7071 13.7071C13.8946 13.5196 14 13.2652 14 13C14 12.7348 13.8946 12.4804 13.7071 12.2929C13.5196 12.1054 13.2652 12 13 12Z" fill="#232323"/>
</g>
<defs>
<clipPath id="clip0_758_3673">
<rect width="16" height="16" fill="white"/>
</clipPath>
</defs>
</svg>
