<svg width="16" height="16" viewBox="0 0 16 16" fill="none" xmlns="http://www.w3.org/2000/svg">
<g clip-path="url(#clip0_758_3681)">
<path d="M16 16.005H0V0.00500488H16V16.005Z" fill="#808080" fill-opacity="0.01"/>
<path d="M16 3.03497C16 2.48097 15.554 2.03497 15 2.03497H2C1.446 2.03497 1 2.48097 1 3.03497V4.03497H16V3.03497Z" fill="#232323"/>
<path opacity="0.35" d="M1 3.03497V13.035C1 13.589 1.446 14.035 2 14.035H15C15.554 14.035 16 13.589 16 13.035V3.03497H1ZM2 12.035H15V13.035H2V12.035Z" fill="#232323"/>
<path d="M1 11.035V13.035C1 13.589 1.446 14.035 2 14.035H15C15.554 14.035 16 13.589 16 13.035V11.035H2H1ZM4 12.035H5V13.035H4V12.035ZM6 12.035H7V13.035H6V12.035ZM8 12.035H9V13.035H8V12.035ZM10 12.035H11V13.035H10V12.035ZM12 12.035H13V13.035H12V12.035Z" fill="#232323"/>
</g>
<defs>
<clipPath id="clip0_758_3681">
<rect width="16" height="16" fill="white"/>
</clipPath>
</defs>
</svg>
