<svg width="256" height="256" fill="none" version="1.1" viewBox="0 0 256 256" xmlns="http://www.w3.org/2000/svg">
 <g>
  <path d="m8 56c0-8.8366 7.1634-16 16-16h71.797c3.3814 0 6.6759 1.0713 9.4109 3.0602l13.584 9.8796c2.735 1.9889 6.029 3.0602 9.411 3.0602h103.8c8.837 0 16 7.1634 16 16v128c0 8.837-7.163 16-16 16h-208c-8.8366 0-16-7.163-16-16z" fill="url(#paint0_linear_2053_149)"/>
  <path d="m8 88c0-8.8366 7.1634-16 16-16h208c8.837 0 16 7.1634 16 16v112c0 8.837-7.163 16-16 16h-208c-8.8366 0-16-7.163-16-16z" fill="url(#paint1_linear_2983_243)"/>
 </g>
 <path d="m74.318 96h106.36c2.937 0 5.318 2.8654 5.318 6.4v83.2c0 3.535-2.381 6.4-5.318 6.4h-106.36c-2.9372 0-5.3182-2.865-5.3182-6.4v-83.2c0-3.5346 2.381-6.4 5.3182-6.4zm4.5454 16h97.272c2.686 0 4.864 2.209 4.864 4.933v64.134c0 2.724-2.178 4.933-4.864 4.933h-97.272c-2.6861 0-4.8636-2.209-4.8636-4.933v-64.134c0-2.724 2.1775-4.933 4.8636-4.933z" clip-rule="evenodd" fill="#fff" fill-rule="evenodd"/>
 <rect x="85" y="160" width="85" height="21" rx="10.5" fill="#fff"/>
 <defs>
  <linearGradient id="paint1_linear_2983_243" x1="248" x2="40.837" y1="72" y2="253.48" gradientUnits="userSpaceOnUse">
   <stop stop-color="#979FAD" offset="0"/>
   <stop stop-color="#808080" offset="1"/>
  </linearGradient>
  <linearGradient id="paint0_linear_2053_149" x1="121" x2="121" y1="72.5" y2="40" gradientUnits="userSpaceOnUse">
   <stop stop-color="#484848" offset="0"/>
   <stop stop-color="#636363" offset="1"/>
  </linearGradient>
 </defs>
</svg>
