<svg width="16" height="16" viewBox="0 0 16 16" fill="none" xmlns="http://www.w3.org/2000/svg">
<g clip-path="url(#clip0_758_3663)">
<path d="M0 0H16V16H0V0Z" fill="#808080" fill-opacity="0.01"/>
<path d="M3 1C2.46957 1 1.96089 1.21071 1.58582 1.58578C1.21074 1.96086 1 2.46957 1 3V12C1 12.5304 1.21074 13.0391 1.58582 13.4142C1.96089 13.7893 2.46957 14 3 14H13C13.5304 14 14.0391 13.7893 14.4142 13.4142C14.7893 13.0391 15 12.5304 15 12V5C15 4.46957 14.7893 3.96086 14.4142 3.58578C14.0391 3.21071 13.5304 3 13 3H9L7 1H3ZM10.5 6C10.8978 6 11.2794 6.15803 11.5607 6.43934C11.842 6.72064 12 7.10218 12 7.5C12 7.89782 11.842 8.27936 11.5607 8.56066C11.2794 8.84197 10.8978 9 10.5 9C10.1022 9 9.72064 8.84197 9.43933 8.56066C9.15803 8.27936 9 7.89782 9 7.5C9 7.10218 9.15803 6.72064 9.43933 6.43934C9.72064 6.15803 10.1022 6 10.5 6ZM10.5 10C13 10 13 11.5 13 11.5V12H8V11.5C8 11.5 8 10 10.5 10Z" fill="#232323"/>
</g>
<defs>
<clipPath id="clip0_758_3663">
<rect width="16" height="16" fill="white"/>
</clipPath>
</defs>
</svg>
