<svg width="256" height="256" fill="none" version="1.1" viewBox="0 0 256 256" xmlns="http://www.w3.org/2000/svg">
 <defs>
  <linearGradient id="paint1_linear_2054_566" x1="248" x2="40.837" y1="72" y2="253.48" gradientUnits="userSpaceOnUse">
   <stop stop-color="#979FAD" offset="0"/>
   <stop stop-color="#808080" offset="1"/>
  </linearGradient>
  <linearGradient id="paint0_linear_2053_149" x1="121" x2="121" y1="72.5" y2="40" gradientUnits="userSpaceOnUse">
   <stop stop-color="#484848" offset="0"/>
   <stop stop-color="#636363" offset="1"/>
  </linearGradient>
 </defs>
 <path d="m8 56c0-8.8366 7.1634-16 16-16h71.797c3.3814 0 6.6759 1.0713 9.4109 3.0602l13.584 9.8796c2.735 1.9889 6.029 3.0602 9.411 3.0602h103.8c8.837 0 16 7.1634 16 16v128c0 8.837-7.163 16-16 16h-208c-8.8366 0-16-7.163-16-16z" fill="url(#paint0_linear_2053_149)"/>
 <path d="m8 88c0-8.8366 7.1634-16 16-16h208c8.837 0 16 7.1634 16 16v112c0 8.837-7.163 16-16 16h-208c-8.8366 0-16-7.163-16-16z" fill="url(#paint1_linear_2054_566)"/>
 <path d="m121 95c-3.713 0-7.274 1.475-9.899 4.1005-2.626 2.6255-4.101 6.1865-4.101 9.8995v43.316c-2.239-0.844-4.608-1.289-7-1.316-4.1534 0-8.2135 1.232-11.667 3.539-3.4534 2.308-6.145 5.587-7.7345 9.425-1.5894 3.837-2.0053 8.059-1.195 12.133 0.8103 4.073 2.8104 7.815 5.7473 10.752s6.6787 4.937 10.752 5.747c4.0736 0.811 8.2959 0.395 12.133-1.195 3.838-1.589 7.117-4.281 9.425-7.734 2.307-3.453 3.539-7.514 3.539-11.667v-49h42v29.316c-2.239-0.844-4.608-1.289-7-1.316-4.153 0-8.214 1.232-11.667 3.539-3.453 2.308-6.145 5.587-7.734 9.425-1.59 3.837-2.006 8.059-1.195 12.133 0.81 4.073 2.81 7.815 5.747 10.752s6.679 4.937 10.752 5.747c4.074 0.811 8.296 0.395 12.133-1.195 3.838-1.589 7.117-4.281 9.425-7.734 2.307-3.453 3.539-7.514 3.539-11.667v-63c0-3.713-1.475-7.274-4.101-9.8995-2.625-2.6255-6.186-4.1005-9.899-4.1005h-42z" fill="#fff"/>
</svg>
