<svg width="16" height="16" viewBox="0 0 16 16" fill="none" xmlns="http://www.w3.org/2000/svg">
<g clip-path="url(#clip0_758_3664)">
<path d="M16 16H0V0H16V16Z" fill="#808080" fill-opacity="0.01"/>
<path d="M5 0V1H4C2.355 1 1 2.355 1 4V12C1 13.645 2.355 15 4 15H5V16H11V15H12C13.645 15 15 13.645 15 12V4C15 2.355 13.645 1 12 1H11V0H5ZM4 3H12C12.571 3 13 3.429 13 4V12C13 12.571 12.571 13 12 13H4C3.429 13 3 12.571 3 12V4C3 3.429 3.429 3 4 3Z" fill="#232323"/>
<path d="M6 4V8.578L10.5 11.176L11.5 9.443L8 7.422V4H6Z" fill="#232323"/>
</g>
<defs>
<clipPath id="clip0_758_3664">
<rect width="16" height="16" fill="white"/>
</clipPath>
</defs>
</svg>
