<svg width="16" height="16" viewBox="0 0 16 16" fill="none" xmlns="http://www.w3.org/2000/svg">
<g clip-path="url(#clip0_758_3668)">
<path d="M0 0H16V16H0V0Z" fill="#808080" fill-opacity="0.01"/>
<path d="M0 15V13L8 5L16 13V15L14 14L8 8L2 14L0 15Z" fill="#232323"/>
<path d="M14.66 8.15997C14.2738 9.34828 13.5766 10.4116 12.6408 11.2394C11.7049 12.0673 10.5646 12.6296 9.33801 12.868C8.11148 13.1064 6.84349 13.0121 5.66567 12.595C4.48785 12.1779 3.44315 11.4532 2.64001 10.496" stroke="#232323" stroke-width="2" stroke-linecap="round"/>
<path d="M8 1C6.93913 1 5.92172 1.42143 5.17157 2.17157C4.42143 2.92172 4 3.93913 4 5C4 6.06087 4.42143 7.07828 5.17157 7.82843C5.92172 8.57857 6.93913 9 8 9C9.06087 9 10.0783 8.57857 10.8284 7.82843C11.5786 7.07828 12 6.06087 12 5C12 3.93913 11.5786 2.92172 10.8284 2.17157C10.0783 1.42143 9.06087 1 8 1ZM8 3C8.53043 3 9.03914 3.21071 9.41421 3.58579C9.78929 3.96086 10 4.46957 10 5C10 5.53043 9.78929 6.03914 9.41421 6.41421C9.03914 6.78929 8.53043 7 8 7C7.46957 7 6.96086 6.78929 6.58579 6.41421C6.21071 6.03914 6 5.53043 6 5C6 4.46957 6.21071 3.96086 6.58579 3.58579C6.96086 3.21071 7.46957 3 8 3Z" fill="#232323"/>
</g>
<defs>
<clipPath id="clip0_758_3668">
<rect width="16" height="16" fill="white"/>
</clipPath>
</defs>
</svg>
