<svg width="16" height="16" viewBox="0 0 16 16" fill="none" xmlns="http://www.w3.org/2000/svg">
<path d="M15 8C15 8.554 14.554 9 14 9H12.406L6.215 2.80899L5.96899 2.06299C5.70699 1.01599 5.704 1 6.5 1C6.932 1 6.93399 1.012 7.21899 1.5L10.906 7H14C14.554 7 15 7.446 15 8ZM10.379 9.785L7.21899 14.5C6.95199 14.957 6.93501 14.998 6.56201 15H6.5C5.706 14.999 5.71999 14.967 5.96899 13.969L7.59399 9H3.09399L1.87399 10.781C1.73599 10.99 1.75201 11 1.53101 11H1.31201C0.885012 11 1.03201 10.562 1.03201 10.562L1.31201 8L1.03201 5.43701C1.03201 5.43701 0.892013 5 1.28201 5H1.53201C1.74201 5 1.735 5.00899 1.875 5.21899L3.09399 6.99899H7.59399L10.379 9.785Z" fill="#232323"/>
<path d="M14.357 12.9516L3.04825 1.64285C2.65889 1.2535 2.02764 1.25348 1.63829 1.64284C1.24894 2.03219 1.24893 2.66346 1.63828 3.05281L12.947 14.3616C13.3364 14.7509 13.9677 14.7509 14.357 14.3616C14.7464 13.9722 14.7464 13.341 14.357 12.9516Z" fill="#232323"/>
</svg>
