<svg width="16" height="16" viewBox="0 0 16 16" fill="none" xmlns="http://www.w3.org/2000/svg">
<path d="M8.50011 0.0200195C7.23211 0.0200195 6.08412 0.504406 5.15612 1.28443L7.9691 4.09293V2.57981C7.96912 2.48112 7.99842 2.38467 8.0533 2.3026C8.10818 2.22053 8.18619 2.15651 8.27745 2.11869C8.36872 2.08086 8.46918 2.07089 8.56612 2.09003C8.66306 2.10918 8.75212 2.1566 8.8221 2.22628L11.8221 5.22253C11.8719 5.27212 11.9107 5.33162 11.9359 5.39718C11.9611 5.46274 11.9721 5.53286 11.9684 5.60298C11.9646 5.6731 11.9461 5.74166 11.914 5.80414C11.8819 5.86663 11.837 5.92163 11.7821 5.96559L10.7051 6.82551L13.9951 10.1114C13.9951 10.0765 14.0001 10.0425 14.0001 10.0075V6.01253C14.0001 2.69268 11.5471 0.0200195 8.50011 0.0200195ZM4.18611 2.29217C3.40742 3.37613 2.99225 4.67846 3.00011 6.01253V10.0075C3.00011 13.3274 5.45311 16.0001 8.50011 16.0001C10.9611 16.0001 13.0341 14.2552 13.7401 11.8352L9.60411 7.70543L9.14412 8.07197L11.7811 10.1793C11.836 10.2232 11.881 10.2782 11.9132 10.3406C11.9454 10.4031 11.964 10.4716 11.9679 10.5417C11.9718 10.6119 11.9608 10.682 11.9357 10.7476C11.9105 10.8132 11.8718 10.8727 11.8221 10.9224L8.8221 13.9186C8.75218 13.9883 8.66321 14.0356 8.56636 14.0548C8.46952 14.074 8.36914 14.0641 8.27791 14.0264C8.18668 13.9887 8.10868 13.9249 8.05373 13.843C7.99877 13.761 7.96932 13.6647 7.9691 13.5661V9.01178L5.78112 10.7596C5.26112 11.1771 4.63512 10.396 5.15612 9.98057L7.54311 8.07295L5.37712 6.01253C4.81112 5.60205 5.25712 4.92388 5.78112 5.3863L7.9691 7.13412V6.07145L4.18611 2.29217ZM8.9691 3.7853V5.09169L9.99211 6.1144L10.7211 5.53513L8.9691 3.7853ZM8.9691 9.21154V12.3606L10.7211 10.6108L8.9691 9.21154Z" fill="#232323"/>
<path d="M14.8599 12.9524L3.55118 1.65778C3.16182 1.26891 2.53057 1.2689 2.14122 1.65777C1.75187 2.04663 1.75186 2.67712 2.14121 3.06598L13.45 14.3606C13.8393 14.7495 14.4706 14.7495 14.8599 14.3606C15.2493 13.9718 15.2493 13.3413 14.8599 12.9524Z" fill="#232323"/>
</svg>
