<svg width="16" height="17" viewBox="0 0 16 17" fill="none" xmlns="http://www.w3.org/2000/svg">
<g clip-path="url(#clip0_412_3861)">
<path d="M0 0.00701904H16V16.007H0V0.00701904Z" fill="#808080" fill-opacity="0.01"/>
<path d="M8.47998 1.00702L6.97998 5.00702H9.97998L8.47998 1.00702Z" fill="#232323"/>
<path d="M2.98193 8.00702C2.42793 8.00702 1.98193 8.45302 1.98193 9.00702V14.007C1.98193 14.561 2.42793 15.007 2.98193 15.007H13.9819C14.5359 15.007 14.9819 14.561 14.9819 14.007V9.00702C14.9819 8.45302 14.5359 8.00702 13.9819 8.00702H2.98193ZM2.98193 9.00702H4.98193V11.007H2.98193V9.00702ZM5.98193 9.00702H7.98193V11.007H5.98193V9.00702ZM8.98193 9.00702H10.9819V11.007H8.98193V9.00702ZM11.9819 9.00702H13.9819V11.007H11.9819V9.00702ZM3.98193 12.007H12.9819V14.007H3.98193V12.007Z" fill="#232323"/>
<path d="M1.97998 3.00702L3.74798 6.89702L5.86898 4.77502L1.97998 3.00702Z" fill="#232323"/>
<path d="M14.9801 3.00702L11.0901 4.77502L13.2121 6.89602L14.9801 3.00702Z" fill="#232323"/>
</g>
<defs>
<clipPath id="clip0_412_3861">
<rect width="16" height="16" fill="white" transform="translate(0 0.00701904)"/>
</clipPath>
</defs>
</svg>
