<svg width="16" height="16" viewBox="0 0 16 16" fill="none" xmlns="http://www.w3.org/2000/svg">
<path d="M10.9601 2.99999C10.1727 3.0133 9.42176 3.33425 8.86801 3.89417C8.31426 4.45409 8.00166 5.20851 7.99707 5.99599V9.99599C7.99707 10.567 7.56807 10.996 6.99707 10.996H1.99707V12.996H6.99707C8.64207 12.996 9.99707 11.641 9.99707 9.99599V5.99599C9.99707 5.42499 10.4261 4.99599 10.9971 4.99599H14.0171C14.2817 4.99334 14.5345 4.88565 14.7198 4.69661C14.9051 4.50758 15.0077 4.25268 15.0051 3.988C15.0024 3.72331 14.8947 3.47051 14.7057 3.28522C14.5167 3.09994 14.2618 2.99734 13.9971 2.99999H11.9971H10.9601Z" fill="#232323"/>
<path d="M2 3V5H6.625C6.795 4.271 7.17501 3.64499 7.65601 3.09399C7.44172 3.03735 7.22157 3.00581 7 3H2ZM11.375 11C11.205 11.729 10.825 12.355 10.344 12.906C10.559 12.956 10.77 13 11 13H14.02C14.2847 12.9973 14.5375 12.8897 14.7228 12.7006C14.9081 12.5116 15.0106 12.2567 15.008 11.992C15.0053 11.7273 14.8977 11.4745 14.7086 11.2892C14.5196 11.1039 14.2647 11.0013 14 11.004H13V11H11.375Z" fill="#232323"/>
<path d="M4 1V7L0 4L4 1Z" fill="#232323"/>
<path d="M4 9V15L0 12L4 9Z" fill="#232323"/>
</svg>
