<svg width="17" height="17" viewBox="0 0 17 17" fill="none" xmlns="http://www.w3.org/2000/svg">
<g clip-path="url(#clip0_412_3844)">
<path d="M0.00390625 0.00701904H16.0049V16.008H0.00390625V0.00701904Z" fill="#808080" fill-opacity="0.01"/>
<path d="M8.00391 0.00702897C7.41409 0.00551045 6.83695 0.178168 6.34488 0.503367C5.85281 0.828566 5.46774 1.29183 5.23792 1.83503V1.83702L11.0039 7.60102V3.00703C11.0039 1.34503 9.66591 0.00702897 8.00391 0.00702897ZM5.00391 4.41303V8.00703C5.00292 8.63598 5.2001 9.24925 5.56744 9.75978C5.93478 10.2703 6.4536 10.6521 7.05026 10.8511C7.64692 11.05 8.29109 11.0559 8.8913 10.8679C9.49151 10.68 10.0173 10.3077 10.3939 9.80403L5.00391 4.41303ZM3.00391 7.00501C2.73869 7.00501 2.48435 7.11039 2.29681 7.29792C2.10928 7.48546 2.00391 7.7398 2.00391 8.00501C2.00391 8.00568 2.00391 8.00636 2.00391 8.00703V8.01103C2.00412 8.0384 2.00545 8.06576 2.0079 8.09303C2.02827 9.49434 2.53937 10.8441 3.45221 11.9075C4.36505 12.9709 5.62185 13.6806 7.00391 13.913V15.005C7.00391 15.2702 7.10928 15.5246 7.29681 15.7121C7.48435 15.8997 7.73869 16.005 8.00391 16.005C8.26912 16.005 8.52346 15.8997 8.711 15.7121C8.89854 15.5246 9.00391 15.2702 9.00391 15.005V13.913C10.372 13.6825 11.6176 12.984 12.5279 11.937L11.1099 10.519C10.7376 10.9849 10.2649 11.3606 9.72708 11.6183C9.18927 11.8759 8.60024 12.0088 8.00391 12.007C7.47751 12.011 6.95558 11.9103 6.46848 11.7107C5.98137 11.5111 5.5388 11.2166 5.16657 10.8444C4.79433 10.4721 4.49987 10.0296 4.30026 9.54246C4.10066 9.05535 3.99991 8.53343 4.00391 8.00703C4.00391 8.00636 4.00391 8.00568 4.00391 8.00501C4.00391 7.7398 3.89854 7.48546 3.711 7.29792C3.52346 7.11039 3.26912 7.00501 3.00391 7.00501ZM13.0039 7.00501C12.7387 7.00501 12.4844 7.11039 12.2968 7.29792C12.1093 7.48546 12.0039 7.7398 12.0039 8.00501C12.0039 8.00568 12.0039 8.00636 12.0039 8.00703C12.0039 8.19303 11.9749 8.36901 11.9509 8.54801L13.5879 10.185C13.8616 9.49145 14.0027 8.75266 14.0039 8.00703C14.0039 8.00636 14.0039 8.00568 14.0039 8.00501C14.0039 7.7398 13.8985 7.48546 13.711 7.29792C13.5235 7.11039 13.2691 7.00501 13.0039 7.00501Z" fill="#232323"/>
<path d="M15.2056 13.8052L2.20547 0.805083C1.81612 0.415731 1.18485 0.415737 0.795496 0.80509C0.406144 1.19444 0.406137 1.82571 0.79549 2.21507L13.7956 15.2152C14.185 15.6046 14.8163 15.6046 15.2056 15.2152C15.595 14.8259 15.595 14.1946 15.2056 13.8052Z" fill="#232323"/>
</g>
<defs>
<clipPath id="clip0_412_3844">
<rect width="16.001" height="16.001" fill="white" transform="translate(0.00292969 0.00701904)"/>
</clipPath>
</defs>
</svg>
