<svg width="17" height="17" viewBox="0 0 17 17" fill="none" xmlns="http://www.w3.org/2000/svg">
<g clip-path="url(#clip0_412_3846)">
<path d="M0.00195312 0.00701904H16.003V16.008H0.00195312V0.00701904Z" fill="#808080" fill-opacity="0.01"/>
<path opacity="0.35" d="M8.00195 0.00701904C6.33995 0.00701904 5.00195 1.34502 5.00195 3.00702V8.00702C5.00195 9.66902 6.33995 11.007 8.00195 11.007C9.66395 11.007 11.002 9.66902 11.002 8.00702V3.00702C11.002 1.34502 9.66395 0.00701904 8.00195 0.00701904ZM8.00195 2.00702C8.55595 2.00702 9.00195 2.45302 9.00195 3.00702V8.00702C9.00195 8.56102 8.55595 9.00702 8.00195 9.00702C7.44795 9.00702 7.00195 8.56102 7.00195 8.00702V3.00702C7.00195 2.45302 7.44795 2.00702 8.00195 2.00702ZM3.00195 7.00502C2.73674 7.00502 2.48238 7.11038 2.29485 7.29791C2.10731 7.48545 2.00195 7.7398 2.00195 8.00502C2.00195 8.00569 2.00195 8.00635 2.00195 8.00702V8.01102C2.00216 8.03839 2.0035 8.06575 2.00595 8.09302C2.02632 9.49433 2.5374 10.8441 3.45024 11.9075C4.36308 12.9709 5.6199 13.6806 7.00195 13.913V15.005C7.00195 15.2702 7.10731 15.5246 7.29485 15.7121C7.48238 15.8997 7.73674 16.005 8.00195 16.005C8.26717 16.005 8.52152 15.8997 8.70906 15.7121C8.8966 15.5246 9.00195 15.2702 9.00195 15.005V13.913C10.399 13.6785 11.6678 12.9566 12.5832 11.8754C13.4985 10.7942 14.0012 9.42364 14.002 8.00702C14.002 8.00635 14.002 8.00569 14.002 8.00502C14.002 7.7398 13.8966 7.48545 13.7091 7.29791C13.5215 7.11038 13.2672 7.00502 13.002 7.00502C12.7367 7.00502 12.4824 7.11038 12.2948 7.29791C12.1073 7.48545 12.002 7.7398 12.002 8.00502C12.002 8.00569 12.002 8.00635 12.002 8.00702C12.002 10.24 10.235 12.007 8.00195 12.007C7.47555 12.011 6.95361 11.9103 6.46651 11.7107C5.9794 11.5111 5.53686 11.2166 5.16463 10.8443C4.79239 10.4721 4.49791 10.0296 4.2983 9.54246C4.0987 9.05536 3.99796 8.53342 4.00195 8.00702C4.00195 8.00635 4.00195 8.00569 4.00195 8.00502C4.00195 7.7398 3.8966 7.48545 3.70906 7.29791C3.52152 7.11038 3.26717 7.00502 3.00195 7.00502Z" fill="#232323"/>
</g>
<defs>
<clipPath id="clip0_412_3846">
<rect width="16.001" height="16.001" fill="white" transform="translate(0.000976562 0.00701904)"/>
</clipPath>
</defs>
</svg>
