<svg width="16" height="17" viewBox="0 0 16 17" fill="none" xmlns="http://www.w3.org/2000/svg">
<g clip-path="url(#clip0_412_3847)">
<path d="M0.000976562 0.00701904H16.002V16.008H0.000976562V0.00701904Z" fill="#808080" fill-opacity="0.01"/>
<path d="M8.00098 0.00701904C6.33898 0.00701904 5.00098 1.34502 5.00098 3.00702V8.00702C5.00098 9.66902 6.33898 11.007 8.00098 11.007C9.66298 11.007 11.001 9.66902 11.001 8.00702V3.00702C11.001 1.34502 9.66298 0.00701904 8.00098 0.00701904ZM3.00098 7.00502C2.73576 7.00502 2.48141 7.11038 2.29387 7.29791C2.10633 7.48545 2.00098 7.7398 2.00098 8.00502C2.00098 8.00569 2.00098 8.00635 2.00098 8.00702V8.01102C2.00119 8.03839 2.00252 8.06575 2.00498 8.09302C2.02535 9.49433 2.53642 10.8441 3.44927 11.9075C4.36211 12.9709 5.61892 13.6806 7.00098 13.913V15.005C7.00098 15.2702 7.10633 15.5246 7.29387 15.7121C7.48141 15.8997 7.73576 16.005 8.00098 16.005C8.26619 16.005 8.52055 15.8997 8.70808 15.7121C8.89562 15.5246 9.00098 15.2702 9.00098 15.005V13.913C10.3981 13.6785 11.6669 12.9566 12.5822 11.8754C13.4975 10.7942 14.0002 9.42364 14.001 8.00702C14.001 8.00635 14.001 8.00569 14.001 8.00502C14.001 7.7398 13.8956 7.48545 13.7081 7.29791C13.5205 7.11038 13.2662 7.00502 13.001 7.00502C12.7358 7.00502 12.4814 7.11038 12.2939 7.29791C12.1063 7.48545 12.001 7.7398 12.001 8.00502C12.001 8.00569 12.001 8.00635 12.001 8.00702C12.001 10.24 10.234 12.007 8.00098 12.007C7.47458 12.011 6.95264 11.9103 6.46553 11.7107C5.97843 11.5111 5.53588 11.2166 5.16365 10.8443C4.79142 10.4721 4.49693 10.0296 4.29733 9.54246C4.09772 9.05536 3.99698 8.53342 4.00098 8.00702C4.00098 8.00635 4.00098 8.00569 4.00098 8.00502C4.00098 7.7398 3.89562 7.48545 3.70808 7.29791C3.52055 7.11038 3.26619 7.00502 3.00098 7.00502Z" fill="#232323"/>
</g>
<defs>
<clipPath id="clip0_412_3847">
<rect width="16.001" height="16.001" fill="white" transform="translate(0 0.00701904)"/>
</clipPath>
</defs>
</svg>
