<svg width="17" height="17" viewBox="0 0 17 17" fill="none" xmlns="http://www.w3.org/2000/svg">
<g clip-path="url(#clip0_412_3845)">
<path d="M0.00292969 0.00701904H16.0039V16.008H0.00292969V0.00701904Z" fill="#808080" fill-opacity="0.01"/>
<path d="M8.00293 0.00701904C6.34093 0.00701904 5.00293 1.34502 5.00293 3.00702V8.00702C5.00293 9.66902 6.34093 11.007 8.00293 11.007C9.66493 11.007 11.0029 9.66902 11.0029 8.00702V3.00702C11.0029 1.34502 9.66493 0.00701904 8.00293 0.00701904ZM8.00293 2.00702C8.55693 2.00702 9.00293 2.45302 9.00293 3.00702V8.00702C9.00293 8.56102 8.55693 9.00702 8.00293 9.00702C7.44893 9.00702 7.00293 8.56102 7.00293 8.00702V3.00702C7.00293 2.45302 7.44893 2.00702 8.00293 2.00702ZM3.00293 7.00502C2.73771 7.00502 2.48336 7.11038 2.29582 7.29791C2.10829 7.48545 2.00293 7.7398 2.00293 8.00502C2.00293 8.00569 2.00293 8.00635 2.00293 8.00702V8.01102C2.00314 8.03839 2.00447 8.06575 2.00693 8.09302C2.0273 9.49433 2.53838 10.8441 3.45122 11.9075C4.36406 12.9709 5.62087 13.6806 7.00293 13.913V15.005C7.00293 15.2702 7.10829 15.5246 7.29582 15.7121C7.48336 15.8997 7.73771 16.005 8.00293 16.005C8.26815 16.005 8.5225 15.8997 8.71004 15.7121C8.89757 15.5246 9.00293 15.2702 9.00293 15.005V13.913C10.4 13.6785 11.6688 12.9566 12.5841 11.8754C13.4995 10.7942 14.0021 9.42364 14.0029 8.00702C14.0029 8.00635 14.0029 8.00569 14.0029 8.00502C14.0029 7.7398 13.8976 7.48545 13.71 7.29791C13.5225 7.11038 13.2681 7.00502 13.0029 7.00502C12.7377 7.00502 12.4834 7.11038 12.2958 7.29791C12.1083 7.48545 12.0029 7.7398 12.0029 8.00502C12.0029 8.00569 12.0029 8.00635 12.0029 8.00702C12.0029 10.24 10.2359 12.007 8.00293 12.007C7.47653 12.011 6.95459 11.9103 6.46748 11.7107C5.98038 11.5111 5.53783 11.2166 5.1656 10.8443C4.79337 10.4721 4.49888 10.0296 4.29928 9.54246C4.09967 9.05536 3.99894 8.53342 4.00293 8.00702C4.00293 8.00635 4.00293 8.00569 4.00293 8.00502C4.00293 7.7398 3.89757 7.48545 3.71004 7.29791C3.5225 7.11038 3.26815 7.00502 3.00293 7.00502Z" fill="#232323"/>
</g>
<defs>
<clipPath id="clip0_412_3845">
<rect width="16.001" height="16.001" fill="white" transform="translate(0.00195312 0.00701904)"/>
</clipPath>
</defs>
</svg>
