<svg width="17" height="17" viewBox="0 0 17 17" fill="none" xmlns="http://www.w3.org/2000/svg">
<g clip-path="url(#clip0_412_3799)">
<path d="M16.001 16.007V0.00701904H0.000976562V16.007H16.001Z" fill="#808080" fill-opacity="0.01"/>
<path opacity="0.35" d="M8.00098 1.01703C6.54159 1.01647 5.09581 1.29761 3.74298 1.84503C2.34116 2.41317 1.06842 3.25837 0.000976562 4.33003L6.55098 12.261H6.55398C6.74106 12.4554 6.96555 12.61 7.21393 12.7154C7.46231 12.8208 7.72944 12.8748 7.99926 12.8742C8.26907 12.8737 8.53598 12.8185 8.78392 12.7121C9.03186 12.6057 9.2557 12.4502 9.44198 12.255H9.44598L16.001 4.32903C15.1947 3.52167 14.2709 2.84097 13.261 2.31003C13.239 2.29803 13.215 2.29003 13.193 2.27903C12.8426 2.09948 12.4831 1.93826 12.116 1.79603C11.979 1.74303 11.839 1.69803 11.7 1.65003C11.2918 1.50827 10.8757 1.39007 10.454 1.29603C10.19 1.23803 9.92398 1.19103 9.65698 1.15203C9.51198 1.13003 9.36698 1.10503 9.21998 1.08903C8.81522 1.04326 8.40831 1.01922 8.00098 1.01703Z" fill="#232323"/>
<path d="M8.00086 8.01704C7.31508 8.01588 6.63582 8.15018 6.00207 8.41223C5.36832 8.67427 4.79257 9.0589 4.30786 9.54404L6.55186 12.261H6.55386C6.74095 12.4555 6.96543 12.61 7.21381 12.7154C7.46219 12.8208 7.72933 12.8748 7.99914 12.8743C8.26895 12.8737 8.53586 12.8185 8.7838 12.7121C9.03174 12.6057 9.25559 12.4502 9.44186 12.255H9.44586L11.6899 9.54204C11.2056 9.05752 10.6305 8.67339 9.99743 8.41169C9.36437 8.14999 8.68587 8.01587 8.00086 8.01704Z" fill="#232323"/>
</g>
<defs>
<clipPath id="clip0_412_3799">
<rect width="16.001" height="16" fill="white" transform="translate(0.000976562 0.00701904)"/>
</clipPath>
</defs>
</svg>
