<svg width="16" height="16" viewBox="0 0 16 16" fill="none" xmlns="http://www.w3.org/2000/svg">
<g clip-path="url(#clip0_1702_320)">
<path opacity="0.35" d="M7.99707 1.01C6.53768 1.00944 5.0919 1.29058 3.73907 1.838C2.33725 2.40614 1.06451 3.25135 -0.00292969 4.323L6.54707 12.254H6.55007C6.73717 12.4486 6.96172 12.6033 7.21019 12.7087C7.45866 12.8142 7.72592 12.8683 7.99585 12.8677C8.26578 12.8672 8.53281 12.812 8.78084 12.7055C9.02888 12.599 9.25278 12.4434 9.43907 12.248H9.44307L15.9971 4.322C15.1908 3.51464 14.267 2.83394 13.2571 2.303C13.2351 2.291 13.2111 2.283 13.1891 2.272C12.8387 2.09245 12.4792 1.93123 12.1121 1.789C11.9751 1.736 11.8351 1.691 11.6961 1.643C11.2879 1.50124 10.8718 1.38305 10.4501 1.289C10.1861 1.231 9.92007 1.184 9.65307 1.145C9.50807 1.123 9.36307 1.098 9.21607 1.082C8.81132 1.03623 8.4044 1.01219 7.99707 1.01Z" fill="#232323"/>
<path d="M13.5 10C12.5767 10 11.8333 10.7807 11.8333 11.7411V12.5714H11V13.4286V15.1429V16H11.8333H15.1667H16V15.1429V13.4286V12.5714H15.1667V11.7411C15.1667 10.7812 14.4233 10 13.5 10ZM13.5 10.8571C13.9617 10.8571 14.3333 11.2363 14.3333 11.7143V12.5714H12.6667V11.7143C12.6667 11.2363 13.0383 10.8571 13.5 10.8571Z" fill="#232323"/>
</g>
<defs>
<clipPath id="clip0_1702_320">
<rect width="16.001" height="16" fill="white"/>
</clipPath>
</defs>
</svg>
