<svg width="17" height="17" viewBox="0 0 17 17" fill="none" xmlns="http://www.w3.org/2000/svg">
<g clip-path="url(#clip0_412_3812)">
<path d="M16.002 0.00701904H0.00195312V16.007H16.002V0.00701904Z" fill="#808080" fill-opacity="0.01"/>
<path d="M2.00195 2.00702C2.00195 2.00702 1.00195 2.00702 1.00195 3.00702V12.007C1.00195 13.007 2.00195 13.007 2.00195 13.007H4.00195L5.00195 14.007H11.002L12.002 13.007H14.002C14.002 13.007 15.002 13.137 15.002 12.007V3.00702C15.002 2.00702 14.002 2.00702 14.002 2.00702H2.00195ZM8.00195 4.00702C8.53239 4.00702 9.04109 4.21773 9.41617 4.59281C9.79124 4.96788 10.002 5.47659 10.002 6.00702C10.002 6.53745 9.79124 7.04616 9.41617 7.42123C9.04109 7.79631 8.53239 8.00702 8.00195 8.00702V9.00702H7.00195V7.00702H8.00195C8.19973 7.00702 8.39307 6.94837 8.55752 6.83849C8.72197 6.72861 8.85015 6.57243 8.92583 6.3897C9.00152 6.20698 9.02132 6.00591 8.98274 5.81193C8.94415 5.61795 8.84891 5.43976 8.70906 5.29991C8.56921 5.16006 8.39102 5.06482 8.19704 5.02623C8.00306 4.98765 7.802 5.00745 7.61927 5.08314C7.43654 5.15883 7.28036 5.287 7.17048 5.45145C7.0606 5.6159 7.00195 5.80924 7.00195 6.00702H6.00195C6.00195 5.47659 6.21267 4.96788 6.58774 4.59281C6.96281 4.21773 7.47152 4.00702 8.00195 4.00702ZM7.50195 9.75702C7.70087 9.75702 7.89163 9.83604 8.03228 9.97669C8.17294 10.1173 8.25195 10.3081 8.25195 10.507C8.25195 10.7059 8.17294 10.8967 8.03228 11.0373C7.89163 11.178 7.70087 11.257 7.50195 11.257C7.30304 11.257 7.11228 11.178 6.97162 11.0373C6.83097 10.8967 6.75195 10.7059 6.75195 10.507C6.75195 10.3081 6.83097 10.1173 6.97162 9.97669C7.11228 9.83604 7.30304 9.75702 7.50195 9.75702Z" fill="#232323"/>
</g>
<defs>
<clipPath id="clip0_412_3812">
<rect width="16" height="16" fill="white" transform="translate(0.00195312 0.00701904)"/>
</clipPath>
</defs>
</svg>
