<svg width="16" height="16" viewBox="0 0 16 16" fill="none" xmlns="http://www.w3.org/2000/svg">
<path opacity="0.35" d="M2.00195 2.00702C2.00195 2.00702 1.00195 2.00702 1.00195 3.00702V12.007C1.00195 13.007 2.00195 13.007 2.00195 13.007H4.00195L5.00195 14.007H11.002V11.007L10.002 12.007H6.00195L5.00195 11.007H3.00195V4.00702H4.00195V7.00702H6.00195V4.00702H7.00195V7.00702H9.00195V4.00702H10.002V7.00702H11.002V5.00702H12.002V4.00702H13.002V5.00702H15.002V3.00702C15.002 2.00702 14.002 2.00702 14.002 2.00702H2.00195Z" fill="#232323"/>
<path d="M12.002 6.00702V10.007L12.252 12.007H13.752L14.002 10.007V6.00702H12.002ZM12.002 13.007V15.007H14.002V13.007H12.002Z" fill="#F44336"/>
</svg>
