<svg width="16" height="17" viewBox="0 0 16 17" fill="none" xmlns="http://www.w3.org/2000/svg">
<g clip-path="url(#clip0_412_3800)">
<path d="M16 16.007V0.00701904H0V16.007H16Z" fill="#808080" fill-opacity="0.01"/>
<path opacity="0.35" d="M8 1.01703C6.54061 1.01647 5.09483 1.29761 3.742 1.84503C2.34018 2.41317 1.06744 3.25837 0 4.33003L6.55 12.261H6.553C6.74009 12.4554 6.96457 12.61 7.21295 12.7154C7.46133 12.8208 7.72847 12.8748 7.99828 12.8742C8.26809 12.8737 8.535 12.8185 8.78294 12.7121C9.03088 12.6057 9.25472 12.4502 9.441 12.255H9.445L16 4.32903C15.1937 3.52167 14.2699 2.84097 13.26 2.31003C13.238 2.29803 13.214 2.29003 13.192 2.27903C12.8416 2.09948 12.4821 1.93826 12.115 1.79603C11.978 1.74303 11.838 1.69803 11.699 1.65003C11.2908 1.50827 10.8748 1.39007 10.453 1.29603C10.189 1.23803 9.923 1.19103 9.656 1.15203C9.511 1.13003 9.366 1.10503 9.219 1.08903C8.81425 1.04326 8.40733 1.01922 8 1.01703Z" fill="#232323"/>
<path d="M7.99993 6.01704C7.08547 6.01557 6.17973 6.19477 5.33473 6.54434C4.48972 6.89391 3.72209 7.40696 3.07593 8.05404L6.55093 12.261H6.55293C6.74001 12.4555 6.9645 12.61 7.21288 12.7154C7.46126 12.8208 7.7284 12.8748 7.99821 12.8743C8.26802 12.8737 8.53493 12.8185 8.78287 12.7121C9.03081 12.6057 9.25465 12.4502 9.44093 12.255H9.44493L12.9199 8.05204C12.2742 7.40558 11.5072 6.89303 10.6629 6.5438C9.81859 6.19458 8.91361 6.01557 7.99993 6.01704Z" fill="#232323"/>
</g>
<defs>
<clipPath id="clip0_412_3800">
<rect width="16.001" height="16" fill="white" transform="translate(0 0.00701904)"/>
</clipPath>
</defs>
</svg>
