<svg width="16" height="16" viewBox="0 0 16 16" fill="none" xmlns="http://www.w3.org/2000/svg">
<path opacity="0.35" d="M8.00098 1.01404C6.85098 1.01404 5.70498 1.19504 4.59898 1.54404C4.26898 1.64704 3.94098 1.76404 3.61998 1.89904C3.47398 1.96004 3.33198 2.03204 3.18898 2.09904C2.79419 2.28383 2.41054 2.49151 2.03998 2.72104C1.80998 2.86404 1.58598 3.01904 1.36398 3.18004C1.23398 3.27504 1.10298 3.36604 0.975977 3.46704C0.639977 3.73404 0.311977 4.01604 0.000976562 4.32704L6.55098 12.258H6.55398C6.74108 12.4526 6.96563 12.6073 7.2141 12.7128C7.46257 12.8183 7.72982 12.8723 7.99976 12.8718C8.26969 12.8712 8.53672 12.816 8.78475 12.7095C9.03278 12.603 9.25669 12.4474 9.44298 12.252H9.44598L11.001 10.372V5.01204H15.433L16 4.32604C15.7494 4.0777 15.4875 3.84111 15.215 3.61704C15.148 3.56204 15.079 3.51104 15.012 3.45704C14.797 3.28704 14.577 3.12504 14.354 2.97304C14.281 2.92304 14.21 2.87204 14.137 2.82404C13.5427 2.43814 12.9132 2.10935 12.257 1.84204L12.256 1.84004C10.9036 1.29351 9.45857 1.01305 7.99998 1.01404H8.00098Z" fill="#232323"/>
<path d="M12 6.00403V10.004L12.25 12.004H13.75L14 10.004V6.00403H12ZM12 13.004V15.004H14V13.004H12Z" fill="#F44336"/>
</svg>
