<svg width="16" height="16" viewBox="0 0 16 16" fill="none" xmlns="http://www.w3.org/2000/svg">
<g clip-path="url(#clip0_1702_318)">
<path opacity="0.35" d="M8.00098 1.01C6.54159 1.00944 5.09581 1.29058 3.74298 1.838C2.34116 2.40614 1.06842 3.25135 0.000976562 4.323L6.55098 12.254H6.55398C6.74106 12.4484 6.96555 12.603 7.21393 12.7084C7.46231 12.8137 7.72944 12.8678 7.99926 12.8672C8.26907 12.8667 8.53598 12.8115 8.78392 12.7051C9.03186 12.5987 9.2557 12.4432 9.44198 12.248H9.44598L16.001 4.322C15.1947 3.51464 14.2709 2.83394 13.261 2.303C13.239 2.291 13.215 2.283 13.193 2.272C12.8426 2.09245 12.4831 1.93123 12.116 1.789C11.979 1.736 11.839 1.691 11.7 1.643C11.2918 1.50124 10.8757 1.38305 10.454 1.289C10.19 1.231 9.92398 1.184 9.65698 1.145C9.51198 1.123 9.36698 1.098 9.21998 1.082C8.81522 1.03623 8.40831 1.01219 8.00098 1.01Z" fill="#232323"/>
<path d="M8.00092 4.01C6.85796 4.00836 5.72593 4.23252 4.66985 4.66961C3.61376 5.1067 2.65443 5.74811 1.84692 6.557L6.55192 12.254H6.55392C6.74101 12.4484 6.9655 12.603 7.21388 12.7084C7.46226 12.8137 7.72939 12.8678 7.9992 12.8672C8.26902 12.8667 8.53592 12.8115 8.78386 12.7051C9.0318 12.5987 9.25565 12.4432 9.44192 12.248H9.44592L14.1529 6.555C13.3455 5.74671 12.3864 5.10581 11.3307 4.66907C10.275 4.23234 9.14341 4.00836 8.00092 4.01Z" fill="#232323"/>
<path d="M13.5 10C12.5767 10 11.8333 10.7807 11.8333 11.7411V12.5714H11V13.4286V15.1429V16H11.8333H15.1667H16V15.1429V13.4286V12.5714H15.1667V11.7411C15.1667 10.7812 14.4233 10 13.5 10ZM13.5 10.8571C13.9617 10.8571 14.3333 11.2363 14.3333 11.7143V12.5714H12.6667V11.7143C12.6667 11.2363 13.0383 10.8571 13.5 10.8571Z" fill="#232323"/>
</g>
<defs>
<clipPath id="clip0_1702_318">
<rect width="16.001" height="16" fill="white" transform="translate(0.000976562)"/>
</clipPath>
</defs>
</svg>
