<svg width="16" height="16" viewBox="0 0 16 16" fill="none" xmlns="http://www.w3.org/2000/svg">
<g clip-path="url(#clip0_412_3808)">
<path d="M-0.00195312 4.32704C0.598144 3.72749 1.24875 3.20926 1.93614 2.7724C1.98447 2.88104 2.05324 2.98281 2.14243 3.0719L10.2989 11.2182L9.44405 12.252H9.44005C9.25376 12.4474 9.02985 12.603 8.78182 12.7095C8.53379 12.816 8.26676 12.8712 7.99683 12.8718C7.72689 12.8723 7.45964 12.8183 7.21117 12.7128C6.9627 12.6073 6.73815 12.4526 6.55105 12.258H6.54505L-0.00195312 4.32704Z" fill="#232323"/>
<path d="M14.8612 12.9583L3.5524 1.6637C3.16304 1.27483 2.53179 1.27482 2.14244 1.66369C1.75309 2.05255 1.75308 2.68304 2.14243 3.0719L13.4512 14.3666C13.8405 14.7554 14.4718 14.7554 14.8612 14.3665C15.2505 13.9777 15.2505 13.3472 14.8612 12.9583Z" fill="#232323"/>
<path d="M12.3658 8.71868L15.998 4.32605C14.9483 3.27442 13.7013 2.44049 12.3284 1.87212C10.9555 1.30375 9.48391 1.01215 7.99805 1.01405C7.00377 1.01405 6.00949 1.14439 5.04296 1.40499L12.3658 8.71868Z" fill="#232323"/>
<path d="M1.96737 2.75263C1.9976 2.87619 2.05539 2.98497 2.14243 3.0719L10.2989 11.2182L9.44405 12.252H9.44005C9.25376 12.4474 9.02985 12.603 8.78182 12.7095C8.53379 12.816 8.26676 12.8712 7.99683 12.8718C7.72689 12.8723 7.45964 12.8183 7.21117 12.7128C6.9627 12.6073 6.73815 12.4526 6.55105 12.258H6.54505L-0.00195312 4.32705C0.607224 3.71842 1.26845 3.1936 1.96737 2.75263Z" fill="#232323"/>
</g>
<defs>
<clipPath id="clip0_412_3808">
<rect width="16" height="16.003" fill="white" transform="translate(0 0.00402832)"/>
</clipPath>
</defs>
</svg>
