<svg width="16" height="17" viewBox="0 0 16 17" fill="none" xmlns="http://www.w3.org/2000/svg">
<g clip-path="url(#clip0_412_3804)">
<path d="M16 16.004V0.00402832H0V16.004H16Z" fill="#808080" fill-opacity="0.01"/>
<path d="M8.00391 1.01404C6.85391 1.01404 5.70791 1.19504 4.60191 1.54404C4.27191 1.64704 3.94391 1.76404 3.62291 1.89904C3.47691 1.96004 3.33491 2.03204 3.19191 2.09904C2.79712 2.28383 2.41347 2.49151 2.04291 2.72104C1.81291 2.86404 1.58891 3.01904 1.36691 3.18004C1.23691 3.27504 1.10591 3.36604 0.978906 3.46704C0.642906 3.73404 0.314906 4.01604 0.00390625 4.32704L6.55391 12.258H6.55691C6.74401 12.4526 6.96855 12.6073 7.21703 12.7128C7.4655 12.8183 7.73275 12.8723 8.00269 12.8718C8.27262 12.8712 8.53965 12.816 8.78768 12.7095C9.03571 12.603 9.25962 12.4474 9.44591 12.252H9.44891L16.0039 4.32604C15.7533 4.07771 15.4914 3.84112 15.2189 3.61704C15.1519 3.56204 15.0829 3.51104 15.0159 3.45704C14.8009 3.28704 14.5809 3.12504 14.3579 2.97304C14.2849 2.92304 14.2139 2.87204 14.1409 2.82404C13.5469 2.4382 12.9178 2.1094 12.2619 1.84204L12.2599 1.84004C10.9076 1.29351 9.4625 1.01305 8.00391 1.01404ZM8.00391 3.01204C8.53434 3.01204 9.04305 3.22275 9.41812 3.59783C9.79319 3.9729 10.0039 4.48161 10.0039 5.01204C10.0039 5.54247 9.79319 6.05118 9.41812 6.42625C9.04305 6.80133 8.53434 7.01204 8.00391 7.01204V8.01204H7.00391V6.01204H8.00391C8.20169 6.01204 8.39503 5.95339 8.55948 5.84351C8.72393 5.73363 8.8521 5.57745 8.92779 5.39472C9.00347 5.212 9.02328 5.01093 8.98469 4.81695C8.94611 4.62297 8.85087 4.44479 8.71101 4.30493C8.57116 4.16508 8.39298 4.06984 8.199 4.03126C8.00502 3.99267 7.80395 4.01247 7.62122 4.08816C7.4385 4.16385 7.28232 4.29202 7.17244 4.45647C7.06255 4.62092 7.00391 4.81426 7.00391 5.01204H6.00391C6.00391 4.48161 6.21462 3.9729 6.58969 3.59783C6.96477 3.22275 7.47347 3.01204 8.00391 3.01204ZM7.50391 8.76204C7.70282 8.76204 7.89358 8.84106 8.03424 8.98171C8.17489 9.12236 8.25391 9.31313 8.25391 9.51204C8.25391 9.71095 8.17489 9.90172 8.03424 10.0424C7.89358 10.183 7.70282 10.262 7.50391 10.262C7.30499 10.262 7.11423 10.183 6.97358 10.0424C6.83292 9.90172 6.75391 9.71095 6.75391 9.51204C6.75391 9.31313 6.83292 9.12236 6.97358 8.98171C7.11423 8.84106 7.30499 8.76204 7.50391 8.76204Z" fill="#232323"/>
</g>
<defs>
<clipPath id="clip0_412_3804">
<rect width="16" height="16" fill="white" transform="translate(0 0.00402832)"/>
</clipPath>
</defs>
</svg>
