<svg width="17" height="17" viewBox="0 0 17 17" fill="none" xmlns="http://www.w3.org/2000/svg">
<g clip-path="url(#clip0_412_3801)">
<path d="M16.002 16.004V0.00402832H0.00195312V16.004H16.002Z" fill="#808080" fill-opacity="0.01"/>
<path opacity="0.35" d="M7.99902 1.01404C6.53963 1.01348 5.09385 1.29462 3.74102 1.84204C2.3392 2.41018 1.06646 3.25538 -0.000976562 4.32704L6.54902 12.258H6.55202C6.73912 12.4526 6.96367 12.6073 7.21214 12.7128C7.46062 12.8182 7.72787 12.8723 7.9978 12.8718C8.26774 12.8712 8.53476 12.816 8.7828 12.7095C9.03083 12.603 9.25473 12.4474 9.44102 12.252H9.44502L15.999 4.32604C15.1928 3.51868 14.269 2.83797 13.259 2.30704C13.237 2.29504 13.213 2.28704 13.191 2.27604C12.8406 2.09648 12.4812 1.93527 12.114 1.79304C11.977 1.74004 11.837 1.69504 11.698 1.64704C11.2898 1.50528 10.8738 1.38708 10.452 1.29304C10.188 1.23504 9.92202 1.18804 9.65502 1.14904C9.51002 1.12704 9.36502 1.10204 9.21802 1.08604C8.81327 1.04026 8.40635 1.01623 7.99902 1.01404Z" fill="#232323"/>
</g>
<defs>
<clipPath id="clip0_412_3801">
<rect width="16.001" height="16" fill="white" transform="translate(0.00195312 0.00402832)"/>
</clipPath>
</defs>
</svg>
