<svg width="16" height="16" viewBox="0 0 16 16" fill="none" xmlns="http://www.w3.org/2000/svg">
<path d="M8 1.01C5.105 1.01 2.21 2.115 0 4.323L6.547 12.254H6.553C6.7401 12.4486 6.96465 12.6033 7.21312 12.7087C7.46159 12.8142 7.72885 12.8683 7.99878 12.8677C8.26871 12.8672 8.53574 12.812 8.78377 12.7055C9.03181 12.599 9.25571 12.4434 9.442 12.248H9.446L16 4.322C14.9503 3.27038 13.7032 2.43644 12.3303 1.86807C10.9575 1.29971 9.48587 1.0081 8 1.01Z" fill="#232323"/>
<path d="M13.5 10C12.5767 10 11.8333 10.7807 11.8333 11.7411V12.5714H11V13.4286V15.1429V16H11.8333H15.1667H16V15.1429V13.4286V12.5714H15.1667V11.7411C15.1667 10.7812 14.4233 10 13.5 10ZM13.5 10.8571C13.9617 10.8571 14.3333 11.2363 14.3333 11.7143V12.5714H12.6667V11.7143C12.6667 11.2363 13.0383 10.8571 13.5 10.8571Z" fill="#232323"/>
</svg>
