<svg width="17" height="17" viewBox="0 0 17 17" fill="none" xmlns="http://www.w3.org/2000/svg">
<g clip-path="url(#clip0_412_3814)">
<path d="M11.7913 13.2117L10.2913 11.7117L10.001 12.002H6.00098L5.00098 11.002H3.00098V4.42143L1.10121 2.52167C1.03941 2.64838 1.00098 2.80599 1.00098 3.00204V12.002C1.00098 13.002 2.00098 13.002 2.00098 13.002H4.00098L5.00098 14.002H11.001L11.7913 13.2117Z" fill="#232323"/>
<path d="M4.00098 5.42143L5.58158 7.00204H4.00098V5.42143Z" fill="#232323"/>
<path d="M15.2076 13.8082L2.20743 0.808013C1.81807 0.41866 1.1868 0.418667 0.797449 0.808019C0.408097 1.19737 0.40809 1.82864 0.797443 2.218L13.7976 15.2182C14.187 15.6075 14.8182 15.6075 15.2076 15.2181C15.5969 14.8288 15.5969 14.1975 15.2076 13.8082Z" fill="#232323"/>
<path d="M15.0009 12.0031V3.00201C15.0009 2.00201 14.0009 2.00201 14.0009 2.00201H4.99976L6.99976 4.00201H7.00085V4.00311L9.00085 6.00311V4.00201H10.0009V7.00201H12.0009V4.00201H13.0009V10.0031L15.0009 12.0031Z" fill="#232323"/>
</g>
<defs>
<clipPath id="clip0_412_3814">
<rect width="16" height="16" fill="white" transform="translate(0.00195312 0.00701904)"/>
</clipPath>
</defs>
</svg>
