<svg width="17" height="17" viewBox="0 0 17 17" fill="none" xmlns="http://www.w3.org/2000/svg">
<g clip-path="url(#clip0_412_3802)">
<path d="M16.001 16.004V0.00402832H0.000976562V16.004H16.001Z" fill="#808080" fill-opacity="0.01"/>
<path opacity="0.35" d="M8.00098 1.01404C6.54159 1.01348 5.09581 1.29462 3.74298 1.84204C2.34116 2.41018 1.06842 3.25538 0.000976562 4.32704L6.55098 12.258H6.55398C6.74106 12.4525 6.96555 12.607 7.21393 12.7124C7.46231 12.8178 7.72944 12.8718 7.99926 12.8713C8.26907 12.8707 8.53598 12.8155 8.78392 12.7091C9.03186 12.6027 9.2557 12.4472 9.44198 12.252H9.44598L16.001 4.32604C15.1947 3.51868 14.2709 2.83797 13.261 2.30704C13.239 2.29504 13.215 2.28704 13.193 2.27604C12.8426 2.09648 12.4831 1.93527 12.116 1.79304C11.979 1.74004 11.839 1.69504 11.7 1.64704C11.2918 1.50528 10.8757 1.38708 10.454 1.29304C10.19 1.23504 9.92398 1.18804 9.65698 1.14904C9.51198 1.12704 9.36698 1.10204 9.21998 1.08604C8.81522 1.04026 8.40831 1.01623 8.00098 1.01404Z" fill="#232323"/>
<path d="M8.00092 4.01405C6.85796 4.01241 5.72593 4.23657 4.66985 4.67366C3.61376 5.11075 2.65443 5.75216 1.84692 6.56105L6.55192 12.258H6.55392C6.74101 12.4525 6.9655 12.607 7.21388 12.7124C7.46226 12.8178 7.72939 12.8718 7.9992 12.8713C8.26902 12.8707 8.53592 12.8156 8.78386 12.7091C9.0318 12.6027 9.25565 12.4472 9.44192 12.252H9.44592L14.1529 6.55905C13.3455 5.75075 12.3864 5.10985 11.3307 4.67312C10.275 4.23638 9.14341 4.01241 8.00092 4.01405Z" fill="#232323"/>
</g>
<defs>
<clipPath id="clip0_412_3802">
<rect width="16.001" height="16" fill="white" transform="translate(0.000976562 0.00402832)"/>
</clipPath>
</defs>
</svg>
