<svg width="17" height="17" viewBox="0 0 17 17" fill="none" xmlns="http://www.w3.org/2000/svg">
<g clip-path="url(#clip0_412_3815)">
<path d="M16.002 0.00701904H0.00195312V16.007H16.002V0.00701904Z" fill="#808080" fill-opacity="0.01"/>
<path d="M15.002 12.007C15.002 12.2722 14.8966 12.5266 14.7091 12.7141C14.5215 12.9017 14.2672 13.007 14.002 13.007C13.7367 13.007 13.4824 12.9017 13.2948 12.7141C13.1073 12.5266 13.002 12.2722 13.002 12.007C13.002 11.7418 13.1073 11.4874 13.2948 11.2999C13.4824 11.1124 13.7367 11.007 14.002 11.007C14.2672 11.007 14.5215 11.1124 14.7091 11.2999C14.8966 11.4874 15.002 11.7418 15.002 12.007ZM12.002 12.007C12.002 12.2722 11.8966 12.5266 11.7091 12.7141C11.5215 12.9017 11.2672 13.007 11.002 13.007C10.7367 13.007 10.4824 12.9017 10.2948 12.7141C10.1073 12.5266 10.002 12.2722 10.002 12.007C10.002 11.7418 10.1073 11.4874 10.2948 11.2999C10.4824 11.1124 10.7367 11.007 11.002 11.007C11.2672 11.007 11.5215 11.1124 11.7091 11.2999C11.8966 11.4874 12.002 11.7418 12.002 12.007ZM9.00195 12.007C9.00195 12.2722 8.8966 12.5266 8.70906 12.7141C8.52152 12.9017 8.26717 13.007 8.00195 13.007C7.73674 13.007 7.48238 12.9017 7.29485 12.7141C7.10731 12.5266 7.00195 12.2722 7.00195 12.007C7.00195 11.7418 7.10731 11.4874 7.29485 11.2999C7.48238 11.1124 7.73674 11.007 8.00195 11.007C8.26717 11.007 8.52152 11.1124 8.70906 11.2999C8.8966 11.4874 9.00195 11.7418 9.00195 12.007Z" fill="#232323"/>
<g opacity="0.35">
<path d="M1.99902 2.00201C1.99902 2.00201 0.999023 2.00201 0.999023 3.00201V12.002C0.999023 13.002 1.99902 13.002 1.99902 13.002H3.99902L4.99902 14.002H5.99902V12.002L4.99902 11.002H2.99902V4.00201H3.99902V7.00201H5.99902V4.00201H6.99902V7.00201H8.99902V4.00201H9.99902V7.00201H11.999V4.00201H12.999V10.002H14.999V3.00201C14.999 2.00201 13.999 2.00201 13.999 2.00201H1.99902Z" fill="#232323"/>
</g>
</g>
<defs>
<clipPath id="clip0_412_3815">
<rect width="16" height="16" fill="white" transform="translate(0.00195312 0.00701904)"/>
</clipPath>
</defs>
</svg>
