<svg width="16" height="17" viewBox="0 0 16 17" fill="none" xmlns="http://www.w3.org/2000/svg">
<g clip-path="url(#clip0_412_3809)">
<path d="M16 16.004V0.00402832H0V16.004H16Z" fill="#808080" fill-opacity="0.01"/>
<path d="M7.99707 1.01404C7.12176 1.01393 6.24935 1.1146 5.39707 1.31404L5.30207 1.33604C4.76951 1.46666 4.24714 1.63577 3.73907 1.84204C3.4844 1.9463 3.23357 2.05971 2.98707 2.18204C2.90307 2.22304 2.81807 2.26204 2.73507 2.30504C2.73507 2.30504 2.73507 2.30704 2.73307 2.30704C2.23653 2.56774 1.7602 2.86524 1.30807 3.19704L1.30607 3.20004C1.15319 3.31192 1.00314 3.42762 0.85607 3.54704L0.85407 3.54904C0.55807 3.79104 0.27307 4.05104 -0.00292969 4.32704L6.54707 12.258H6.55007C6.73716 12.4525 6.96164 12.607 7.21002 12.7124C7.4584 12.8178 7.72554 12.8718 7.99535 12.8713C8.26516 12.8707 8.53207 12.8155 8.78001 12.7091C9.02795 12.6027 9.25179 12.4472 9.43807 12.252H9.44207L14.8881 5.66804L15.9981 4.32704C15.9281 4.25704 15.8571 4.19004 15.7861 4.12304L15.6811 4.02204L15.6651 4.00804C15.5822 3.93214 15.4982 3.85747 15.4131 3.78404L15.2981 3.68604C15.2081 3.61004 15.1181 3.53404 15.0261 3.46104L15.0241 3.45904L15.0141 3.45104C14.6364 3.15195 14.2399 2.87739 13.8271 2.62904L13.6901 2.54704C13.6001 2.49504 13.5081 2.44504 13.4171 2.39504C13.3631 2.36504 13.3101 2.33504 13.2571 2.30704C13.2341 2.29504 13.2111 2.28704 13.1881 2.27604C12.8371 2.09404 12.4771 1.93604 12.1121 1.79304C11.9751 1.74004 11.8351 1.69504 11.6961 1.64704C11.2879 1.50528 10.8718 1.38708 10.4501 1.29304C10.1861 1.23504 9.92007 1.18804 9.65307 1.14904C9.50707 1.12704 9.36207 1.10204 9.21607 1.08604C8.81098 1.04023 8.40373 1.01619 7.99607 1.01404H7.99707ZM7.99707 3.00004C9.79307 3.00004 11.5111 3.69004 13.0691 4.73004L7.99707 10.871L2.92707 4.73104C4.48507 3.69104 6.20207 3.00104 7.99707 3.00104V3.00004Z" fill="#232323"/>
</g>
<defs>
<clipPath id="clip0_412_3809">
<rect width="16" height="16" fill="white" transform="translate(0 0.00402832)"/>
</clipPath>
</defs>
</svg>
