<svg width="16" height="17" viewBox="0 0 16 17" fill="none" xmlns="http://www.w3.org/2000/svg">
<g clip-path="url(#clip0_412_3810)">
<path d="M16 16.007V0.00701904H0V16.007H16Z" fill="#808080" fill-opacity="0.01"/>
<path opacity="0.35" d="M8.00391 1.01704C5.10891 1.01704 2.21391 2.12204 0.00390625 4.33004L6.55391 12.261H6.55691C6.68691 12.397 6.83991 12.504 6.99991 12.597V11.009H10.4799L16.0039 4.32904C14.9542 3.27741 13.7071 2.44348 12.3342 1.87511C10.9614 1.30674 9.48977 1.01514 8.00391 1.01704Z" fill="#232323"/>
<path d="M16 13.007C16 13.2722 15.8946 13.5266 15.7071 13.7141C15.5196 13.9017 15.2652 14.007 15 14.007C14.7348 14.007 14.4804 13.9017 14.2929 13.7141C14.1054 13.5266 14 13.2722 14 13.007C14 12.7418 14.1054 12.4874 14.2929 12.2999C14.4804 12.1124 14.7348 12.007 15 12.007C15.2652 12.007 15.5196 12.1124 15.7071 12.2999C15.8946 12.4874 16 12.7418 16 13.007ZM13 13.007C13 13.2722 12.8946 13.5266 12.7071 13.7141C12.5196 13.9017 12.2652 14.007 12 14.007C11.7348 14.007 11.4804 13.9017 11.2929 13.7141C11.1054 13.5266 11 13.2722 11 13.007C11 12.7418 11.1054 12.4874 11.2929 12.2999C11.4804 12.1124 11.7348 12.007 12 12.007C12.2652 12.007 12.5196 12.1124 12.7071 12.2999C12.8946 12.4874 13 12.7418 13 13.007ZM10 13.007C10 13.2722 9.89464 13.5266 9.70711 13.7141C9.51957 13.9017 9.26522 14.007 9 14.007C8.73478 14.007 8.48043 13.9017 8.29289 13.7141C8.10536 13.5266 8 13.2722 8 13.007C8 12.7418 8.10536 12.4874 8.29289 12.2999C8.48043 12.1124 8.73478 12.007 9 12.007C9.26522 12.007 9.51957 12.1124 9.70711 12.2999C9.89464 12.4874 10 12.7418 10 13.007Z" fill="#232323"/>
</g>
<defs>
<clipPath id="clip0_412_3810">
<rect width="16" height="16" fill="white" transform="translate(0 0.00402832)"/>
</clipPath>
</defs>
</svg>
