<svg width="16" height="17" viewBox="0 0 16 17" fill="none" xmlns="http://www.w3.org/2000/svg">
<g clip-path="url(#clip0_412_3807)">
<path d="M0 16.004V0.00402832H16V16.004H0Z" fill="#808080" fill-opacity="0.01"/>
<path d="M8 1.00403C5.784 1.00403 4 2.82603 4 5.06703V7.00403C2.892 7.00403 2 7.89603 2 9.00403V13.002C2 14.11 2.892 15.002 4 15.002H11.994C13.102 15.002 13.994 14.11 13.994 13.002V9.00403C13.9945 8.74174 13.9434 8.48192 13.8434 8.23943C13.7435 7.99693 13.5967 7.77651 13.4115 7.59076C13.2263 7.40502 13.0063 7.2576 12.7641 7.15692C12.522 7.05624 12.2623 7.00429 12 7.00403V5.06603C12 2.82603 10.216 1.00403 8 1.00403ZM8 3.00403C9.108 3.00403 10 3.89603 10 5.00403V7.00403H6V5.00403C6 3.89603 6.892 3.00403 8 3.00403ZM7.994 9.00203C9.304 9.00203 10.482 9.47103 11.463 10.19L8.9 13.002C8.445 13.502 7.54 13.508 7.076 13.002L4.526 10.221C5.51 9.49403 6.675 9.00203 7.994 9.00203Z" fill="#232323"/>
</g>
<defs>
<clipPath id="clip0_412_3807">
<rect width="16" height="16" fill="white" transform="translate(0 0.00402832)"/>
</clipPath>
</defs>
</svg>
