<svg width="16" height="16" viewBox="0 0 16 16" fill="none" xmlns="http://www.w3.org/2000/svg">
<g clip-path="url(#clip0_412_3811)">
<path d="M1.99805 2.00201C1.99805 2.00201 0.998047 2.00201 0.998047 3.00201V12.002C0.998047 13.002 1.99805 13.002 1.99805 13.002H3.99805L4.99805 14.002H10.998L11.998 13.002H13.998C13.998 13.002 14.998 13.132 14.998 12.002V3.00201C14.998 2.00201 13.998 2.00201 13.998 2.00201H1.99805ZM2.99805 4.00201H3.99805V7.00201H5.99805V4.00201H6.99805V7.00201H8.99805V4.00201H9.99805V7.00201H11.998V4.00201H12.998V11.002H10.998L9.99805 12.002H5.99805L4.99805 11.002H2.99805V4.00201Z" fill="#232323"/>
</g>
<defs>
<clipPath id="clip0_412_3811">
<rect width="16" height="16" fill="white" transform="translate(0.00195312 0.00701904)"/>
</clipPath>
</defs>
</svg>
