<svg width="16" height="16" viewBox="0 0 16 16" fill="none" xmlns="http://www.w3.org/2000/svg">
<g clip-path="url(#clip0_1702_315)">
<path opacity="0.35" d="M8 1.01C6.54061 1.00944 5.09483 1.29058 3.742 1.838C2.34018 2.40614 1.06744 3.25135 0 4.323L6.55 12.254H6.553C6.74009 12.4484 6.96457 12.603 7.21295 12.7084C7.46133 12.8137 7.72847 12.8678 7.99828 12.8672C8.26809 12.8667 8.535 12.8115 8.78294 12.7051C9.03088 12.5987 9.25472 12.4432 9.441 12.248H9.445L16 4.322C15.1937 3.51464 14.2699 2.83394 13.26 2.303C13.238 2.291 13.214 2.283 13.192 2.272C12.8416 2.09245 12.4821 1.93123 12.115 1.789C11.978 1.736 11.838 1.691 11.699 1.643C11.2908 1.50124 10.8748 1.38305 10.453 1.289C10.189 1.231 9.923 1.184 9.656 1.145C9.511 1.123 9.366 1.098 9.219 1.082C8.81425 1.03623 8.40733 1.01219 8 1.01Z" fill="#232323"/>
<path d="M7.99993 6.01C7.08547 6.00854 6.17973 6.18774 5.33473 6.53731C4.48972 6.88688 3.72209 7.39993 3.07593 8.047L6.55093 12.254H6.55293C6.74001 12.4484 6.9645 12.603 7.21288 12.7084C7.46126 12.8137 7.7284 12.8678 7.99821 12.8672C8.26802 12.8667 8.53493 12.8115 8.78287 12.7051C9.03081 12.5987 9.25465 12.4432 9.44093 12.248H9.44493L12.9199 8.045C12.2742 7.39855 11.5072 6.88599 10.6629 6.53677C9.81859 6.18755 8.91361 6.00853 7.99993 6.01Z" fill="#232323"/>
<path d="M13.5 10C12.5767 10 11.8333 10.7807 11.8333 11.7411V12.5714H11V13.4286V15.1429V16H11.8333H15.1667H16V15.1429V13.4286V12.5714H15.1667V11.7411C15.1667 10.7812 14.4233 10 13.5 10ZM13.5 10.8571C13.9617 10.8571 14.3333 11.2363 14.3333 11.7143V12.5714H12.6667V11.7143C12.6667 11.2363 13.0383 10.8571 13.5 10.8571Z" fill="#232323"/>
</g>
<defs>
<clipPath id="clip0_1702_315">
<rect width="16.001" height="16" fill="white"/>
</clipPath>
</defs>
</svg>
