<svg width="16" height="16" viewBox="0 0 16 16" fill="none" xmlns="http://www.w3.org/2000/svg">
<g clip-path="url(#clip0_412_3797)">
<path d="M12.5426 12.1413L2.70035 2.2991C2.311 1.90975 1.67972 1.90976 1.29037 2.29911C0.901017 2.68846 0.901033 3.31971 1.29039 3.70907L11.1326 13.5513C11.522 13.9406 12.1532 13.9407 12.5426 13.5513C12.9319 13.1619 12.9319 12.5307 12.5426 12.1413Z" fill="#232323"/>
<path d="M3.00195 3.00708C1.89395 3.00708 1.00195 3.89908 1.00195 5.00708V10.0071C1.00195 11.1151 1.89395 12.0071 3.00195 12.0071H12.412L3.41196 3.00708H3.00195ZM5.39197 3.00708L14.076 11.6911C14.632 11.3361 15.002 10.7181 15.002 10.0071V5.00708C15.002 3.89908 14.11 3.00708 13.002 3.00708H5.39197Z" fill="#232323"/>
<path d="M8.00195 12.0071L6.00195 15.0071L4.00195 12.0071H8.00195Z" fill="#232323"/>
</g>
<defs>
<clipPath id="clip0_412_3797">
<rect width="16" height="16" fill="white" transform="translate(0.00195312 0.00701904)"/>
</clipPath>
</defs>
</svg>
