<svg width="16" height="16" viewBox="0 0 16 16" fill="none" xmlns="http://www.w3.org/2000/svg">
<g clip-path="url(#clip0_412_3796)">
<path d="M7.24191 3.00702C7.73764 3.74662 8.00282 4.61665 8.00391 5.50702C8.00391 6.09797 7.88751 6.68313 7.66136 7.22909C7.43522 7.77506 7.10375 8.27114 6.68589 8.689C6.26802 9.10686 5.77195 9.43833 5.22598 9.66448C4.68002 9.89062 4.09485 10.007 3.50391 10.007C2.61375 10.0065 1.74373 9.74204 1.00391 9.24702V10.007C1.00391 11.115 1.89591 12.007 3.00391 12.007H13.0039C14.1119 12.007 15.0039 11.115 15.0039 10.007V5.00702C15.0039 3.89902 14.1119 3.00702 13.0039 3.00702H7.24191Z" fill="#232323"/>
<path d="M12.002 12.007L10.002 15.007L8.00195 12.007H12.002Z" fill="#232323"/>
<path d="M3.50195 2.00702C2.5737 2.00702 1.68346 2.37577 1.02708 3.03215C0.370702 3.68852 0.00195313 4.57876 0.00195312 5.50702C0.00195313 6.43528 0.370702 7.32552 1.02708 7.98189C1.68346 8.63827 2.5737 9.00702 3.50195 9.00702C4.43021 9.00702 5.32045 8.63827 5.97683 7.98189C6.6332 7.32552 7.00195 6.43528 7.00195 5.50702C7.00195 4.57876 6.6332 3.68852 5.97683 3.03215C5.32045 2.37577 4.43021 2.00702 3.50195 2.00702ZM3.00195 3.00702H4.00195V6.00702H3.00195V3.00702ZM3.00195 7.00702H4.00195V8.00702H3.00195V7.00702Z" fill="#232323"/>
</g>
<defs>
<clipPath id="clip0_412_3796">
<rect width="16" height="16" fill="white" transform="translate(0.00195312 0.00701904)"/>
</clipPath>
</defs>
</svg>
