<svg width="16" height="16" viewBox="0 0 16 16" fill="none" xmlns="http://www.w3.org/2000/svg">
<path d="M14 13.3V9H11V11.1C11 11.5971 10.5971 12 10.1 12H4V13.3C4 13.6866 4.3134 14 4.7 14H13.3C13.6866 14 14 13.6866 14 13.3Z" fill="#232323"/>
<path d="M15.3 1L6.7 1.00002C6.3134 1.00002 6 1.31342 6 1.70002V3.00001H10.1C10.5971 3.00001 11 3.40295 11 3.90001V8H15.3C15.6866 8 16 7.6866 16 7.3V1.7C16 1.3134 15.6866 1 15.3 1Z" fill="#232323"/>
<path d="M9.3 4H0.7C0.313401 4 0 4.3134 0 4.7V10.3C0 10.6866 0.313401 11 0.7 11H9.3C9.6866 11 10 10.6866 10 10.3V4.7C10 4.3134 9.6866 4 9.3 4Z" fill="#232323"/>
</svg>
