<svg width="16" height="16" viewBox="0 0 16 16" fill="none" xmlns="http://www.w3.org/2000/svg">
<g clip-path="url(#clip0_1527_4610)">
<path d="M0 0H16V16H0V0Z" fill="#808080" fill-opacity="0.01"/>
<path d="M2 1C2 1 0 1 0 3V14C0 14 0 16 2 16H13C13 16 15 16 15 14V3C15 1 13 1 13 1H2ZM2 3H7V8H2V3ZM8 3H13V8H8V3ZM9.5 4C9.40076 3.99934 9.30358 4.02828 9.22088 4.08313C9.13818 4.13797 9.0737 4.21624 9.0357 4.30791C8.9977 4.39958 8.9879 4.50051 9.00755 4.59778C9.02719 4.69505 9.0754 4.78426 9.146 4.854L9.793 5.5L9.146 6.146C9.09958 6.19242 9.06275 6.24753 9.03763 6.30819C9.01251 6.36884 8.99958 6.43385 8.99958 6.4995C8.99958 6.56515 9.01251 6.63016 9.03763 6.69081C9.06275 6.75147 9.09958 6.80658 9.146 6.853C9.19242 6.89942 9.24753 6.93625 9.30819 6.96137C9.36884 6.98649 9.43385 6.99942 9.4995 6.99942C9.56515 6.99942 9.63016 6.98649 9.69081 6.96137C9.75147 6.93625 9.80658 6.89942 9.853 6.853L10.5 6.207L11.146 6.854C11.1924 6.90042 11.2475 6.93725 11.3082 6.96237C11.3688 6.98749 11.4338 7.00042 11.4995 7.00042C11.5652 7.00042 11.6302 6.98749 11.6908 6.96237C11.7515 6.93725 11.8066 6.90042 11.853 6.854C11.8994 6.80758 11.9362 6.75247 11.9614 6.69181C11.9865 6.63116 11.9994 6.56615 11.9994 6.5005C11.9994 6.43485 11.9865 6.36984 11.9614 6.30919C11.9362 6.24853 11.8994 6.19342 11.853 6.147L11.207 5.5L11.854 4.854C11.9004 4.80758 11.9372 4.75247 11.9624 4.69181C11.9875 4.63116 12.0004 4.56615 12.0004 4.5005C12.0004 4.43485 11.9875 4.36984 11.9624 4.30919C11.9372 4.24853 11.9004 4.19342 11.854 4.147C11.8076 4.10058 11.7525 4.06375 11.6918 4.03863C11.6312 4.01351 11.5662 4.00058 11.5005 4.00058C11.4348 4.00058 11.3698 4.01351 11.3092 4.03863C11.2485 4.06375 11.1934 4.10058 11.147 4.147L10.5 4.793L9.854 4.146C9.80755 4.09951 9.75235 4.06267 9.69159 4.03762C9.63084 4.01256 9.56572 3.99977 9.5 4ZM2 9H7V14H2V9ZM9 10H12V11H9V10ZM9 12H12V13H9V12Z" fill="#232323"/>
<path d="M4 4V5H3V6H4V7H5V6H6V5H5V4H4Z" fill="#232323"/>
<path d="M3 11H6V12H3V11Z" fill="#232323"/>
</g>
<defs>
<clipPath id="clip0_1527_4610">
<rect width="16" height="16" fill="white"/>
</clipPath>
</defs>
</svg>
