<svg width="17" height="16" viewBox="0 0 17 16" fill="none" xmlns="http://www.w3.org/2000/svg">
<g clip-path="url(#clip0_1527_4615)">
<path d="M0.0310059 -0.00299072H16.031V15.997H0.0310059V-0.00299072Z" fill="#808080" fill-opacity="0.01"/>
<path d="M1.021 11.888V15.008H4.141L12.021 7.12798L8.901 4.00798L1.021 11.888ZM14.781 4.37798C15.111 4.04798 15.111 3.52798 14.781 3.19798L12.831 1.24798C12.754 1.16961 12.6622 1.10736 12.5609 1.06487C12.4596 1.02237 12.3508 1.00049 12.241 1.00049C12.1311 1.00049 12.0224 1.02237 11.9211 1.06487C11.8198 1.10736 11.728 1.16961 11.651 1.24798L10.021 2.88798L13.141 6.00798L14.781 4.37798Z" fill="#232323"/>
</g>
<defs>
<clipPath id="clip0_1527_4615">
<rect width="16" height="16" fill="white" transform="translate(0.0310059)"/>
</clipPath>
</defs>
</svg>
