<svg width="17" height="16" viewBox="0 0 17 16" fill="none" xmlns="http://www.w3.org/2000/svg">
<g clip-path="url(#clip0_1527_4631)">
<path d="M9.03101 15H7.03101V13H9.03101V15ZM11.101 7.25L10.201 8.17C9.48101 8.9 9.03101 9.5 9.03101 11H7.03101V10.5C7.03101 9.4 7.48101 8.4 8.20101 7.67L9.44101 6.41C9.81101 6.05 10.031 5.55 10.031 5C10.031 3.9 9.13101 3 8.03101 3C6.93101 3 6.03101 3.9 6.03101 5H4.03101C4.03101 2.79 5.82101 1 8.03101 1C10.241 1 12.031 2.79 12.031 5C12.031 5.88 11.671 6.68 11.101 7.25Z" fill="#232323"/>
<path d="M0.0310059 0H16.031V16H0.0310059V0Z" fill="#808080" fill-opacity="0.01"/>
</g>
<defs>
<clipPath id="clip0_1527_4631">
<rect width="16" height="16" fill="white" transform="translate(0.0310059)"/>
</clipPath>
</defs>
</svg>
