<svg width="256" height="256" viewBox="0 0 256 256" fill="none" xmlns="http://www.w3.org/2000/svg">
<path d="M24 40C24 31.1634 31.1634 24 40 24H216C224.837 24 232 31.1634 232 40V216C232 224.837 224.837 232 216 232H40C31.1634 232 24 224.837 24 216V40Z" fill="url(#paint0_linear_2082_745)"/>
<path d="M208 56H48C43.5817 56 40 60.2981 40 65.6V190.4C40 195.702 43.5817 200 48 200H208C212.418 200 216 195.702 216 190.4V65.6C216 60.2981 212.418 56 208 56Z" fill="white"/>
<path d="M56 72V181L83 144.667L111 181L155.692 114.389L200 181V72H56Z" fill="#AE46DE"/>
<circle cx="86" cy="95" r="10" fill="white"/>
<path d="M90.3333 135L122 183H46L90.3333 135Z" fill="white"/>
<path d="M152.203 95L206 183H86L152.203 95Z" fill="white"/>
<defs>
<linearGradient id="paint0_linear_2082_745" x1="24" y1="232" x2="232" y2="24" gradientUnits="userSpaceOnUse">
<stop stop-color="#48658B"/>
<stop offset="1" stop-color="#8E1EBD"/>
</linearGradient>
</defs>
</svg>
