<svg width="17" height="17" viewBox="0 0 17 17" fill="none" xmlns="http://www.w3.org/2000/svg">
<g clip-path="url(#clip0_1527_4666)">
<path d="M16.011 16.007H0.0109863V0.00701904H16.011V16.007Z" fill="#808080" fill-opacity="0.01"/>
<path d="M2.01099 5.03699C0.0109863 5.03699 0.0109863 7.03699 0.0109863 7.03699V14.037C0.0109863 16.002 2.01099 16.037 2.01099 16.037H11.011V12.037H8.44899C8.43899 12.182 8.42399 12.333 8.41699 12.475H8.85499V12.975H8.35499C8.27399 13.682 7.99499 14.037 7.51099 14.037C7.3326 14.0307 7.15502 14.01 6.97999 13.975L6.88599 13.475C7.14899 13.515 7.36999 13.537 7.51099 13.537C7.65199 13.537 7.72099 13.338 7.76099 12.975H5.41699C5.46099 12.683 5.47999 12.35 5.51099 12.037H4.82299C4.59172 12.7236 4.28801 13.3837 3.91699 14.006L3.41699 13.6C3.73699 13.087 4.00499 12.572 4.22999 12.037H4.01099V9.63099C3.98899 9.61199 3.97099 9.58599 3.94799 9.56799L4.01099 9.50599V7.72499C3.98799 7.70599 3.97099 7.67999 3.94799 7.66199L4.01099 7.59999V5.03699H2.01099ZM2.10499 7.75599H3.69899V12.537H3.16699V12.006H2.63599V12.787H2.10499V7.75599ZM2.63599 8.28699V11.506H3.16699V8.28699H2.63599ZM6.10499 12.037C6.08499 12.18 6.06299 12.34 6.04199 12.475H7.82299C7.83799 12.326 7.84299 12.185 7.85499 12.037H7.38499L7.16699 12.318C7.07099 12.213 6.95999 12.133 6.85499 12.038L6.10499 12.037Z" fill="#232323"/>
<path d="M5.01099 0.0369873V11.037H14.011C14.011 11.037 16.011 11.037 16.011 9.03699V2.03699C16.011 2.03699 16.011 0.0369873 14.011 0.0369873H5.01099ZM9.57399 2.03699H11.449L13.636 9.03699H11.98L11.542 7.38099H9.41699L8.98099 9.03699H7.38599L9.57399 2.03699ZM10.449 3.22499C10.277 3.96499 10.111 4.80799 9.91699 5.50499L9.72999 6.13099H11.23L11.074 5.50599C10.8665 4.74816 10.6685 3.98777 10.48 3.22499H10.449Z" fill="#232323"/>
</g>
<defs>
<clipPath id="clip0_1527_4666">
<rect width="16" height="16.035" fill="white" transform="translate(0.0310059)"/>
</clipPath>
</defs>
</svg>
