<svg width="17" height="16" viewBox="0 0 17 16" fill="none" xmlns="http://www.w3.org/2000/svg">
<g clip-path="url(#clip0_1527_4663)">
<path d="M0.0310059 0H16.031V16H0.0310059V0Z" fill="#808080" fill-opacity="0.01"/>
<path d="M8.03101 0C5.90927 0 3.87444 0.842855 2.37415 2.34315C0.873861 3.84344 0.0310059 5.87827 0.0310059 8C0.0310059 10.1217 0.873861 12.1566 2.37415 13.6569C3.87444 15.1571 5.90927 16 8.03101 16C10.1527 16 12.1876 15.1571 13.6879 13.6569C15.1882 12.1566 16.031 10.1217 16.031 8C16.031 5.87827 15.1882 3.84344 13.6879 2.34315C12.1876 0.842855 10.1527 0 8.03101 0ZM8.00001 1C8.26265 1 8.52272 1.05173 8.76537 1.15224C9.00802 1.25275 9.2285 1.40007 9.41422 1.58579C9.59994 1.7715 9.74726 1.99198 9.84776 2.23463C9.94827 2.47728 10 2.73736 10 3C10 3.53043 9.78929 4.03914 9.41422 4.41421C9.03915 4.78929 8.53044 5 8.00001 5C7.46957 5 6.96087 4.78929 6.58579 4.41421C6.21072 4.03914 6.00001 3.53043 6.00001 3C6.00001 2.46957 6.21072 1.96086 6.58579 1.58579C6.96087 1.21071 7.46957 1 8.00001 1ZM2.50001 6H13.5V8H10.5V14H8.50001V10H7.50001V14H5.50001V8H2.50001V6Z" fill="#232323"/>
</g>
<defs>
<clipPath id="clip0_1527_4663">
<rect width="16" height="16" fill="white" transform="translate(0.0310059)"/>
</clipPath>
</defs>
</svg>
