<svg width="16" height="17" viewBox="0 0 16 17" fill="none" xmlns="http://www.w3.org/2000/svg">
<path d="M0 0H16V16H0V0Z" fill="#808080" fill-opacity="0.01"/>
<path d="M2 1C2 1 1 1 1 2V3H15C15 3 15 2 14 2H8L7 1H2Z" fill="#232323"/>
<path d="M1 4C0.446 4 0 4.446 0 5V15C0 15.554 0.446 16 1 16H15C15.554 16 16 15.554 16 15V5C16 4.446 15.554 4 15 4H1ZM6.25 6H9.75C9.8163 6 9.87989 6.02634 9.92678 6.07322C9.97366 6.12011 10 6.1837 10 6.25V6.75C10 6.8163 9.97366 6.87989 9.92678 6.92678C9.87989 6.97366 9.8163 7 9.75 7H6.25C6.1837 7 6.12011 6.97366 6.07322 6.92678C6.02634 6.87989 6 6.8163 6 6.75V6.25C6 6.1837 6.02634 6.12011 6.07322 6.07322C6.12011 6.02634 6.1837 6 6.25 6Z" fill="#232323"/>
</svg>
