<svg width="17" height="16" viewBox="0 0 17 16" fill="none" xmlns="http://www.w3.org/2000/svg">
<g clip-path="url(#clip0_1527_4685)">
<path d="M16.531 16.005H0.531006V0.00500488H16.531V16.005Z" fill="#808080" fill-opacity="0.01"/>
<path d="M2.53101 1C1.42301 1 0.531006 1.892 0.531006 3V13C0.531006 14.108 1.42301 15 2.53101 15H14.531C15.639 15 16.531 14.108 16.531 13V3C16.531 1.892 15.639 1 14.531 1H2.53101ZM2.50001 3H14.5V13H2.50001V3Z" fill="#232323"/>
<path d="M5.50098 4.005H6.50098V5.005C7.15498 5.005 7.70298 5.423 7.90898 6.005H6.50098V7.005C7.33198 7.005 8.00098 7.67401 8.00098 8.505C8.00098 9.336 7.33198 10.005 6.50098 10.005V11.005H5.50098V10.005C5.19157 10.0049 4.88985 9.90859 4.63759 9.72943C4.38533 9.55026 4.19501 9.29711 4.09298 9.005H5.50098V8.005C4.66998 8.005 4.00098 7.336 4.00098 6.505C4.00098 5.674 4.66998 5.005 5.50098 5.005V4.005ZM5.50098 6.005C5.36837 6.005 5.24119 6.05768 5.14742 6.15145C5.05365 6.24522 5.00098 6.3724 5.00098 6.505C5.00098 6.63761 5.05365 6.76479 5.14742 6.85856C5.24119 6.95233 5.36837 7.005 5.50098 7.005V6.005ZM6.50098 8.005V9.005C6.63358 9.005 6.76076 8.95233 6.85453 8.85856C6.9483 8.76479 7.00098 8.63761 7.00098 8.505C7.00098 8.3724 6.9483 8.24522 6.85453 8.15145C6.76076 8.05768 6.63358 8.005 6.50098 8.005ZM9.50098 10.005H13.501V11.005H9.50098V10.005Z" fill="#232323"/>
</g>
<defs>
<clipPath id="clip0_1527_4685">
<rect width="16" height="16" fill="white" transform="translate(0.531006)"/>
</clipPath>
</defs>
</svg>
