<svg width="17" height="17" viewBox="0 0 17 17" fill="none" xmlns="http://www.w3.org/2000/svg">
<g clip-path="url(#clip0_1527_4679)">
<path d="M0.0310059 0.0529785H16.031V16.053H0.0310059V0.0529785Z" fill="#808080" fill-opacity="0.012"/>
<path d="M5.03101 2.05298C3.92301 2.05298 3.03101 2.94498 3.03101 4.05298V12.053C3.03101 13.161 3.92301 14.053 5.03101 14.053H12.031C13.139 14.053 14.031 13.161 14.031 12.053V4.05298C14.031 2.94498 13.139 2.05298 12.031 2.05298H5.03101ZM8.53101 4.05298C9.91601 4.05298 11.031 5.16798 11.031 6.55298C11.0326 7.1297 10.8342 7.68914 10.4695 8.13591C10.1048 8.58268 9.59638 8.88912 9.03101 9.00298V10.053H8.03101V8.05298H8.53101C9.36201 8.05298 10.031 7.38398 10.031 6.55298C10.031 5.72198 9.36201 5.05298 8.53101 5.05298C7.70001 5.05298 6.98801 5.72298 7.03101 6.55298V7.05298H6.03101V6.55298C6.03101 5.16798 7.14601 4.05298 8.53101 4.05298ZM8.03101 11.053H9.03101V12.053H8.03101V11.053Z" fill="#232323"/>
</g>
<defs>
<clipPath id="clip0_1527_4679">
<rect width="16" height="16" fill="white" transform="translate(0.0310059 0.0529785)"/>
</clipPath>
</defs>
</svg>
