<svg width="16" height="16" viewBox="0 0 16 16" fill="none" xmlns="http://www.w3.org/2000/svg">
<g clip-path="url(#clip0_1527_4614)">
<path d="M0 0H16V16H0V0Z" fill="#808080" fill-opacity="0.01"/>
<path d="M2 0C0 0 0 2 0 2V11C0 11 0 13 2 13H3V10.978L2 10.977V2H14V7H16V2C16 2 16 0 14 0H2Z" fill="#232323"/>
<path d="M8.03002 7L7.03002 8H4.99902C4.53002 8.065 3.99902 8.542 3.99902 9V15C3.99902 15.458 4.52602 16 4.99902 16H14.999C15.472 16 15.999 15.458 15.999 15V9C15.999 8.542 15.472 8 14.999 8H13.03L12.03 7H8.03002ZM9.99902 9C10.7947 9 11.5577 9.31607 12.1203 9.87868C12.683 10.4413 12.999 11.2044 12.999 12C12.999 12.7956 12.683 13.5587 12.1203 14.1213C11.5577 14.6839 10.7947 15 9.99902 15C9.20337 15 8.44031 14.6839 7.8777 14.1213C7.31509 13.5587 6.99902 12.7956 6.99902 12C6.99902 11.2044 7.31509 10.4413 7.8777 9.87868C8.44031 9.31607 9.20337 9 9.99902 9ZM9.99902 10C9.46859 10 8.95988 10.2107 8.58481 10.5858C8.20974 10.9609 7.99902 11.4696 7.99902 12C7.99902 12.5304 8.20974 13.0391 8.58481 13.4142C8.95988 13.7893 9.46859 14 9.99902 14C10.5295 14 11.0382 13.7893 11.4132 13.4142C11.7883 13.0391 11.999 12.5304 11.999 12C11.999 11.4696 11.7883 10.9609 11.4132 10.5858C11.0382 10.2107 10.5295 10 9.99902 10Z" fill="#232323"/>
</g>
<defs>
<clipPath id="clip0_1527_4614">
<rect width="16" height="16" fill="white"/>
</clipPath>
</defs>
</svg>
