<svg width="16" height="16" viewBox="0 0 16 16" fill="none" xmlns="http://www.w3.org/2000/svg">
<g clip-path="url(#clip0_1527_4621)">
<path d="M0 0H16V16H0V0Z" fill="#808080" fill-opacity="0.012"/>
<path d="M9.99999 16H15C15 16 15.335 15 15 14C14.82 14.157 13.434 15 12.5 15C11.566 15 10.36 14.314 9.99999 14C9.68799 15.226 9.99999 16 9.99999 16Z" fill="#232323"/>
<path d="M1 2V14C1 16 3 16 3 16H8V14H3V2H13V6H15V2C15 0 13 0 13 0H3C1 0 1 2 1 2ZM5 5.004C4.73478 5.004 4.48043 5.10936 4.29289 5.29689C4.10536 5.48443 4 5.73878 4 6.004C4 6.26922 4.10536 6.52357 4.29289 6.71111C4.48043 6.89864 4.73478 7.004 5 7.004C5.26522 7.004 5.51957 6.89864 5.70711 6.71111C5.89464 6.52357 6 6.26922 6 6.004C6 5.73878 5.89464 5.48443 5.70711 5.29689C5.51957 5.10936 5.26522 5.004 5 5.004ZM11 5.004C10.7355 5.004 10.4817 5.10881 10.2943 5.29548C10.1069 5.48215 10.0011 5.73548 10 6H12C11.9989 5.73548 11.8931 5.48215 11.7057 5.29548C11.5183 5.10881 11.2645 5.004 11 5.004ZM5.174 9.83L4.467 10.537C5.40358 11.4751 6.67441 12.0028 8 12.004V11.004C6.93963 11.0027 5.92315 10.5804 5.174 9.83Z" fill="#232323"/>
<path d="M12.5 7C11.5717 7 10.6815 7.36875 10.0251 8.02513C9.36875 8.6815 9 9.57174 9 10.5C9 11.4283 9.36875 12.3185 10.0251 12.9749C10.6815 13.6313 11.5717 14 12.5 14C13.4283 14 14.3185 13.6313 14.9749 12.9749C15.6313 12.3185 16 11.4283 16 10.5C16 9.57174 15.6313 8.6815 14.9749 8.02513C14.3185 7.36875 13.4283 7 12.5 7ZM12.5 9C12.7002 8.99476 12.8994 9.02966 13.0858 9.10263C13.2723 9.1756 13.4423 9.28517 13.5857 9.42487C13.7292 9.56458 13.8432 9.73159 13.9211 9.91607C13.999 10.1005 14.0392 10.2987 14.0392 10.499C14.0393 10.6992 13.9993 10.8975 13.9215 11.082C13.8437 11.2665 13.7298 11.4336 13.5865 11.5734C13.4431 11.7132 13.2732 11.8229 13.0868 11.896C12.9003 11.9691 12.7012 12.0041 12.501 11.999C12.11 11.989 11.7384 11.8267 11.4653 11.5467C11.1922 11.2667 11.0394 10.8911 11.0392 10.5C11.0391 10.1089 11.1917 9.73317 11.4646 9.45297C11.7375 9.17276 12.109 9.01023 12.5 9Z" fill="#232323"/>
</g>
<defs>
<clipPath id="clip0_1527_4621">
<rect width="16" height="16" fill="white"/>
</clipPath>
</defs>
</svg>
