<svg width="16" height="16" viewBox="0 0 16 16" fill="none" xmlns="http://www.w3.org/2000/svg">
<g clip-path="url(#clip0_1527_4622)">
<path d="M0 16H16V0H0V16Z" fill="#808080" fill-opacity="0.01"/>
<path d="M3 1.03998C3 1.03998 1 1.03998 1 3.03998V13.04C1 13.04 1 15.04 3 15.04H13C13 15.04 15 15.04 15 13.04V3.03998C15 1.03998 13 1.03998 13 1.03998H3ZM8 4.00498C9.06087 4.00498 10.0783 4.42641 10.8284 5.17655C11.5786 5.9267 12 6.94411 12 8.00498C12 9.56998 11.091 10.91 9.781 11.567L8.891 9.78798C9.546 9.45998 10 8.78798 10 8.00498C10 7.47455 9.78929 6.96584 9.41421 6.59076C9.03914 6.21569 8.53043 6.00498 8 6.00498C7.46957 6.00498 6.96086 6.21569 6.58579 6.59076C6.21071 6.96584 6 7.47455 6 8.00498H8L6.219 11.567C4.909 10.91 4 9.56998 4 8.00498C4 6.94411 4.42143 5.9267 5.17157 5.17655C5.92172 4.42641 6.93913 4.00498 8 4.00498Z" fill="#232323"/>
</g>
<defs>
<clipPath id="clip0_1527_4622">
<rect width="16" height="16" fill="white"/>
</clipPath>
</defs>
</svg>
