<svg width="16" height="16" viewBox="0 0 16 16" fill="none" xmlns="http://www.w3.org/2000/svg">
<g clip-path="url(#clip0_1527_4623)">
<path d="M0 16V0H16V16H0Z" fill="#808080" fill-opacity="0.01"/>
<path d="M3.00403 1.03003C2.00403 1.03003 2.00403 2.03003 2.00403 2.03003V14.03C2.00403 14.03 2.00403 15.03 3.00403 15.03H13.004C13.004 15.03 14.004 15.03 14.004 14.03V2.03003C14.004 2.03003 14.004 1.03003 13.004 1.03003H3.00403ZM8.00403 3.03003C9.06489 3.03003 10.0823 3.45145 10.8325 4.2016C11.5826 4.95175 12.004 5.96916 12.004 7.03003C12.004 8.0909 11.5826 9.10831 10.8325 9.85846C10.0823 10.6086 9.06489 11.03 8.00403 11.03H4.00403V7.03003C4.00403 5.96916 4.42546 4.95175 5.17561 4.2016C5.92575 3.45145 6.94316 3.03003 8.00403 3.03003ZM8.00403 5.03003C7.4736 5.03003 6.96489 5.24074 6.58982 5.61581C6.21475 5.99089 6.00403 6.4996 6.00403 7.03003C6.00403 7.56046 6.21475 8.06917 6.58982 8.44424C6.96489 8.81932 7.4736 9.03003 8.00403 9.03003C8.53446 9.03003 9.04317 8.81932 9.41824 8.44424C9.79332 8.06917 10.004 7.56046 10.004 7.03003C10.004 6.4996 9.79332 5.99089 9.41824 5.61581C9.04317 5.24074 8.53446 5.03003 8.00403 5.03003Z" fill="#232323"/>
</g>
<defs>
<clipPath id="clip0_1527_4623">
<rect width="16" height="16" fill="white"/>
</clipPath>
</defs>
</svg>
