<svg width="16" height="17" viewBox="0 0 16 17" fill="none" xmlns="http://www.w3.org/2000/svg">
<g clip-path="url(#clip0_1527_4625)">
<path d="M0 0.0200195H16V16.02H0V0.0200195Z" fill="#808080" fill-opacity="0.01"/>
<path d="M3.96997 1.03003C3.83897 1.03003 3.71097 1.04503 3.58697 1.07003C3.52897 1.08003 3.47497 1.10003 3.41897 1.11603C3.35897 1.13303 3.29997 1.14803 3.24297 1.17103C3.17297 1.19803 3.10997 1.23203 3.04397 1.26603C3.00297 1.28803 2.96097 1.30803 2.92097 1.33303C2.85402 1.37526 2.78958 1.42133 2.72797 1.47103C2.69997 1.49403 2.67197 1.51403 2.64597 1.53803C2.4873 1.67969 2.35226 1.84578 2.24597 2.03003C2.23897 2.04003 2.23397 2.05003 2.22797 2.06103C2.17587 2.15394 2.13139 2.25093 2.09497 2.35103C2.08997 2.36303 2.08797 2.37603 2.08297 2.38903C2.04767 2.49165 2.02092 2.59701 2.00297 2.70403C1.98312 2.81162 1.97208 2.92065 1.96997 3.03003V14.03C1.96997 14.142 1.98597 14.25 2.00297 14.356C2.02097 14.465 2.04897 14.569 2.08297 14.671L2.09497 14.71C2.13197 14.81 2.17597 14.906 2.22797 14.999L2.24497 15.03C2.35114 15.2144 2.48619 15.3805 2.64497 15.522C2.67197 15.546 2.69997 15.566 2.72797 15.589C2.78997 15.638 2.85297 15.685 2.92097 15.727C2.96097 15.752 3.00297 15.772 3.04397 15.794C3.10997 15.828 3.17397 15.862 3.24397 15.889C3.29997 15.912 3.35997 15.927 3.41897 15.944C3.47497 15.96 3.52897 15.98 3.58697 15.991C3.71097 16.015 3.83897 16.03 3.96997 16.03H11.97C13.06 16.03 13.944 15.156 13.966 14.071C13.976 12.977 13.971 8.64803 13.966 5.94103C13.9568 5.44274 13.7617 4.96588 13.419 4.60403L10.45 1.63503C10.2636 1.44359 10.0408 1.29142 9.7947 1.18751C9.54857 1.0836 9.28413 1.03005 9.01697 1.03003H4.96997H3.96997ZM7.96997 6.03003C9.98197 6.03103 11.86 7.35203 12.97 9.03003C11.86 10.708 9.98197 12.029 7.96997 12.03C5.95797 12.028 4.08197 10.708 2.97197 9.03003C4.08197 7.35203 5.95797 6.03203 7.96997 6.03003ZM7.96997 7.03003C7.43954 7.03003 6.93083 7.24074 6.55576 7.61582C6.18068 7.99089 5.96997 8.4996 5.96997 9.03003C5.96997 9.56046 6.18068 10.0692 6.55576 10.4442C6.93083 10.8193 7.43954 11.03 7.96997 11.03C8.5004 11.03 9.00911 10.8193 9.38418 10.4442C9.75926 10.0692 9.96997 9.56046 9.96997 9.03003C9.96997 8.4996 9.75926 7.99089 9.38418 7.61582C9.00911 7.24074 8.5004 7.03003 7.96997 7.03003Z" fill="#232323"/>
</g>
<defs>
<clipPath id="clip0_1527_4625">
<rect width="16" height="16.01" fill="white" transform="translate(0 0.0200195)"/>
</clipPath>
</defs>
</svg>
