<svg width="16" height="17" viewBox="0 0 16 17" fill="none" xmlns="http://www.w3.org/2000/svg">
<g clip-path="url(#clip0_1527_4629)">
<path d="M0 0.0200195H16V16.02H0V0.0200195Z" fill="#808080" fill-opacity="0.01"/>
<path d="M8 0.0200195C5.87827 0.0200195 3.84344 0.862874 2.34315 2.36317C0.842855 3.86346 0 5.89829 0 8.02002C0 10.1418 0.842855 12.1766 2.34315 13.6769C3.84344 15.1772 5.87827 16.02 8 16.02C10.1217 16.02 12.1566 15.1772 13.6569 13.6769C15.1571 12.1766 16 10.1418 16 8.02002C16 5.89829 15.1571 3.86346 13.6569 2.36317C12.1566 0.862874 10.1217 0.0200195 8 0.0200195ZM8 3.44902V7.02002H11.429L8 12.591V9.02002H4.571L8 3.44902Z" fill="#232323"/>
</g>
<defs>
<clipPath id="clip0_1527_4629">
<rect width="16" height="16.003" fill="white" transform="translate(0 0.0200195)"/>
</clipPath>
</defs>
</svg>
