<svg width="16" height="17" viewBox="0 0 16 17" fill="none" xmlns="http://www.w3.org/2000/svg">
<g clip-path="url(#clip0_1527_4633)">
<path d="M0 0.0150146H16V16.015H0V0.0150146Z" fill="#808080" fill-opacity="0.01"/>
<path opacity="0.5" d="M6.96998 1.02502C5.96998 1.02502 5.14998 1.76102 5.00098 2.71802V3.02502H8.40698L13.001 7.61902C13.004 9.41902 12.999 11.22 13.001 13.021C13.5255 13.0134 14.026 12.7998 14.3944 12.4264C14.7628 12.0529 14.9695 11.5496 14.97 11.025V6.02502C14.9704 5.51182 14.7734 5.0181 14.42 4.64602L11.45 1.67702C11.074 1.29002 10.51 1.02502 9.96998 1.02502H6.96998Z" fill="#232323"/>
<path d="M3.96998 4.02502C2.96998 4.02502 2.14998 4.76102 2.00098 5.71802V14.332C2.14998 15.289 2.97098 16.025 3.96998 16.025H9.96998C10.5004 16.025 11.0091 15.8143 11.3842 15.4392C11.7593 15.0642 11.97 14.5555 11.97 14.025V9.02502C11.9704 8.51182 11.7734 8.0181 11.42 7.64602L8.44998 4.67702C8.07398 4.29002 7.50998 4.02502 6.96998 4.02502H3.96998ZM7.00098 7.02502C7.26362 7.02502 7.52369 7.07676 7.76634 7.17727C8.00899 7.27777 8.22947 7.42509 8.41519 7.61081C8.60091 7.79653 8.74823 8.01701 8.84874 8.25966C8.94924 8.50231 9.00098 8.76238 9.00098 9.02502C9.00098 9.28767 8.94924 9.54774 8.84874 9.79039C8.74823 10.033 8.60091 10.2535 8.41519 10.4392C8.22947 10.625 8.00899 10.7723 7.76634 10.8728C7.52369 10.9733 7.26362 11.025 7.00098 11.025V12.025H6.00098V10.025H7.00098C7.19876 10.025 7.3921 9.96638 7.55655 9.85649C7.721 9.74661 7.84917 9.59043 7.92486 9.40771C8.00054 9.22498 8.02035 9.02392 7.98176 8.82993C7.94318 8.63595 7.84794 8.45777 7.70808 8.31792C7.56823 8.17807 7.39005 8.08282 7.19607 8.04424C7.00209 8.00565 6.80102 8.02546 6.61829 8.10114C6.43557 8.17683 6.27939 8.305 6.16951 8.46945C6.05963 8.6339 6.00098 8.82724 6.00098 9.02502H5.00098C5.00098 8.49459 5.21169 7.98588 5.58676 7.61081C5.96184 7.23574 6.47054 7.02502 7.00098 7.02502ZM6.00098 13.025H7.00098V14.025H6.00098V13.025Z" fill="#232323"/>
</g>
<defs>
<clipPath id="clip0_1527_4633">
<rect width="16" height="16.01" fill="white" transform="translate(0 0.0200195)"/>
</clipPath>
</defs>
</svg>
