<svg width="16" height="17" viewBox="0 0 16 17" fill="none" xmlns="http://www.w3.org/2000/svg">
<g clip-path="url(#clip0_1527_4636)">
<path d="M0 0.0310059H16V16.031H0V0.0310059Z" fill="#808080" fill-opacity="0.01"/>
<path d="M8 10.0341V11.0341H1V13.0341H8V14.0341H10V10.0341H8ZM11 11.0341V13.0341H15V11.0341H11Z" fill="#232323"/>
<path d="M4 6.03406V7.03406H1V9.03406H4V10.0341H6V6.03406H4ZM7 7.03406V9.03406H15V7.03406H7Z" fill="#232323"/>
<path d="M10 2.03406V3.03406H1V5.03406H10V6.03406H12V2.03406H10ZM13 3.03406V5.03406H15V3.03406H13Z" fill="#232323"/>
</g>
<defs>
<clipPath id="clip0_1527_4636">
<rect width="16" height="16" fill="white" transform="translate(0 0.0300293)"/>
</clipPath>
</defs>
</svg>
