<svg width="16" height="17" viewBox="0 0 16 17" fill="none" xmlns="http://www.w3.org/2000/svg">
<g clip-path="url(#clip0_1527_4638)">
<path d="M0 0.0300293H16V16.03H0V0.0300293Z" fill="#808080" fill-opacity="0.01"/>
<path d="M1 0.0300293C0 0.0300293 0 1.03003 0 1.03003V11.03C0 11.852 0.648008 11.992 0.889008 12.018L1.104 11.583C1.38712 11.0227 1.74065 10.5008 2.15601 10.03H2V7.53003L4.5 4.59303L6.85699 7.26303C7.56099 7.11103 8.27699 7.03303 8.98999 7.02603H9C9.053 7.02603 9.107 7.03303 9.16 7.03403L9.93799 6.28003L10.856 7.19803C11.9735 7.39518 13.0416 7.80931 14 8.41703V1.03003C14 0.0300293 13 0.0300293 13 0.0300293H1ZM12 9.85003V10.03H11.838C12.246 10.598 12.5 11.28 12.5 12.026V12.03H13C13 12.03 13.894 12.02 13.982 11.159C13.431 10.616 12.755 10.184 12 9.85003ZM5.23801 10.03C4.89401 10.247 4.54601 10.48 4.29501 10.694C3.86201 11.083 3.56499 11.542 3.26999 11.994C3.27799 12.007 3.289 12.017 3.297 12.03H5.5V12.026C5.5 11.282 5.74801 10.598 6.15201 10.03H5.23801Z" fill="#232323"/>
<path fill-rule="evenodd" clip-rule="evenodd" d="M9 8.03004C7.643 8.04204 6.278 8.32604 5.096 8.93804C4.625 9.21804 4.059 9.58104 3.633 9.94604C2.963 10.546 2.387 11.246 2 12.03C3.063 14.174 5.4 15.747 7.97 15.98C9.657 16.154 11.422 15.887 12.904 15.124C13.375 14.844 13.941 14.481 14.367 14.116C15.037 13.516 15.613 12.814 16 12.03C14.937 9.88604 12.6 8.31504 10.03 8.08304C9.68785 8.04713 9.34403 8.02944 9 8.03004ZM9 9.53004C9.3283 9.53004 9.65339 9.59471 9.95671 9.72035C10.26 9.84598 10.5356 10.0301 10.7678 10.2623C10.9999 10.4944 11.1841 10.77 11.3097 11.0733C11.4353 11.3766 11.5 11.7017 11.5 12.03C11.5 12.3583 11.4353 12.6834 11.3097 12.9868C11.1841 13.2901 10.9999 13.5657 10.7678 13.7978C10.5356 14.03 10.26 14.2141 9.95671 14.3397C9.65339 14.4654 9.3283 14.53 9 14.53C8.33696 14.53 7.70107 14.2667 7.23223 13.7978C6.76339 13.329 6.5 12.6931 6.5 12.03C6.5 11.367 6.76339 10.7311 7.23223 10.2623C7.70107 9.79344 8.33696 9.53004 9 9.53004ZM9 11.03C8.73478 11.03 8.48043 11.1354 8.29289 11.3229C8.10536 11.5105 8 11.7648 8 12.03C8 12.2953 8.10536 12.5496 8.29289 12.7372C8.48043 12.9247 8.73478 13.03 9 13.03C9.26522 13.03 9.51957 12.9247 9.70711 12.7372C9.89464 12.5496 10 12.2953 10 12.03C10 11.7648 9.89464 11.5105 9.70711 11.3229C9.51957 11.1354 9.26522 11.03 9 11.03Z" fill="#232323"/>
</g>
<defs>
<clipPath id="clip0_1527_4638">
<rect width="16" height="16.001" fill="white" transform="translate(0 0.0300293)"/>
</clipPath>
</defs>
</svg>
