<svg width="17" height="17" viewBox="0 0 17 17" fill="none" xmlns="http://www.w3.org/2000/svg">
<g clip-path="url(#clip0_1527_4641)">
<path d="M0.0351562 0.0300293H16.0352V16.03H0.0351562V0.0300293Z" fill="#808080" fill-opacity="0.01"/>
<path d="M2.03516 1.03003C2.03516 1.03003 1.03516 1.03003 1.03516 2.03003V3.03003H15.0352C15.0352 3.03003 15.0352 2.03003 14.0352 2.03003H8.03516L7.03516 1.03003H2.03516Z" fill="#232323"/>
<path d="M1.03516 4.03003C0.481156 4.03003 0.0351562 4.47603 0.0351562 5.03003V15.03C0.0351562 15.584 0.481156 16.03 1.03516 16.03H15.0352C15.5892 16.03 16.0352 15.584 16.0352 15.03V5.03003C16.0352 4.47603 15.5892 4.03003 15.0352 4.03003H1.03516ZM6.28516 6.03003H9.78516C9.85146 6.03003 9.91505 6.05637 9.96193 6.10325C10.0088 6.15014 10.0352 6.21373 10.0352 6.28003V6.78003C10.0352 6.84633 10.0088 6.90992 9.96193 6.95681C9.91505 7.00369 9.85146 7.03003 9.78516 7.03003H6.28516C6.21885 7.03003 6.15526 7.00369 6.10838 6.95681C6.0615 6.90992 6.03516 6.84633 6.03516 6.78003V6.28003C6.03516 6.21373 6.0615 6.15014 6.10838 6.10325C6.15526 6.05637 6.21885 6.03003 6.28516 6.03003Z" fill="#232323"/>
</g>
<defs>
<clipPath id="clip0_1527_4641">
<rect width="16" height="16.003" fill="white" transform="translate(0.0351562 0.0300293)"/>
</clipPath>
</defs>
</svg>
