<svg width="17" height="17" viewBox="0 0 17 17" fill="none" xmlns="http://www.w3.org/2000/svg">
<g clip-path="url(#clip0_1527_4660)">
<path d="M0.0378418 0.0379639H16.0378V16.038H0.0378418V0.0379639Z" fill="#808080" fill-opacity="0.01"/>
<path d="M4.00802 1.04797C3.01502 1.04797 2.19802 1.77397 2.04102 2.72197V14.373C2.11733 14.8398 2.35699 15.2644 2.71725 15.571C3.07751 15.8776 3.53495 16.0463 4.00802 16.047H12.008C13.098 16.047 13.982 15.173 14.004 14.087C14.014 12.994 14.009 8.66497 14.004 5.95697C13.9946 5.45903 13.7995 4.98257 13.457 4.62097L10.488 1.65297C10.3017 1.46153 10.0789 1.30936 9.83274 1.20545C9.58662 1.10154 9.32217 1.048 9.05502 1.04797H4.00802ZM8.04102 6.04797C8.30366 6.04797 8.56373 6.0997 8.80638 6.20021C9.04903 6.30072 9.26951 6.44804 9.45523 6.63376C9.64095 6.81948 9.78826 7.03996 9.88877 7.28261C9.98928 7.52526 10.041 7.78533 10.041 8.04797C10.041 8.31062 9.98928 8.57069 9.88877 8.81334C9.78826 9.05599 9.64095 9.27647 9.45523 9.46219C9.26951 9.6479 9.04903 9.79522 8.80638 9.89573C8.56373 9.99624 8.30366 10.048 8.04102 10.048V11.048H7.04102V9.04797H8.04102C8.2388 9.04797 8.43214 8.98932 8.59659 8.87944C8.76103 8.76956 8.88921 8.61338 8.96489 8.43066C9.04058 8.24793 9.06039 8.04686 9.0218 7.85288C8.98322 7.6589 8.88798 7.48072 8.74812 7.34087C8.60827 7.20101 8.43009 7.10577 8.23611 7.06719C8.04212 7.0286 7.84106 7.04841 7.65833 7.12409C7.47561 7.19978 7.31943 7.32795 7.20955 7.4924C7.09966 7.65685 7.04102 7.85019 7.04102 8.04797H6.04102C6.04102 7.51754 6.25173 7.00883 6.6268 6.63376C7.00187 6.25869 7.51058 6.04797 8.04102 6.04797ZM7.04102 12.048H8.04102V13.048H7.04102V12.048Z" fill="#232323"/>
</g>
<defs>
<clipPath id="clip0_1527_4660">
<rect width="16" height="16.01" fill="white" transform="translate(0.0349121 0.0429688)"/>
</clipPath>
</defs>
</svg>
