<svg width="16" height="17" viewBox="0 0 16 17" fill="none" xmlns="http://www.w3.org/2000/svg">
<g clip-path="url(#clip0_1527_4655)">
<path d="M0 0.032959H16V16.0329H0V0.032959Z" fill="#808080" fill-opacity="0.012"/>
<path d="M4 2.03595C2.892 2.03595 2 2.92795 2 4.03595V13.036C2 14.144 2.892 15.036 4 15.036H13C14.108 15.036 15 14.144 15 13.036V4.03595C15 2.92795 14.108 2.03595 13 2.03595H4ZM5 4.03595H12C12.554 4.03595 13 4.48197 13 5.03596V12.036C13 12.59 12.554 13.036 12 13.036H5C4.446 13.036 4 12.59 4 12.036V5.03596C4 4.48197 4.446 4.03595 5 4.03595Z" fill="#232323"/>
<path d="M4 5.03296H2C1.44772 5.03296 1 5.48067 1 6.03296C1 6.58524 1.44772 7.03296 2 7.03296H4C4.55228 7.03296 5 6.58524 5 6.03296C5 5.48067 4.55228 5.03296 4 5.03296Z" fill="#232323"/>
<path d="M4 10.033H2C1.44772 10.033 1 10.4807 1 11.033C1 11.5852 1.44772 12.033 2 12.033H4C4.55228 12.033 5 11.5852 5 11.033C5 10.4807 4.55228 10.033 4 10.033Z" fill="#232323"/>
<path d="M8.5 8.03296H5.5C5.22386 8.03296 5 8.25682 5 8.53296C5 8.8091 5.22386 9.03296 5.5 9.03296H8.5C8.77614 9.03296 9 8.8091 9 8.53296C9 8.25682 8.77614 8.03296 8.5 8.03296Z" fill="#232323"/>
<path d="M9.68018 8.35299L11.1802 5.75491C11.3182 5.51577 11.2363 5.20997 10.9972 5.0719C10.758 4.93383 10.4522 5.01577 10.3142 5.25491L8.81415 7.85299C8.67608 8.09213 8.75802 8.39793 8.99716 8.536C9.23631 8.67407 9.5421 8.59213 9.68018 8.35299Z" fill="#232323"/>
<path d="M8.81812 9.21995L10.3181 11.818C10.4562 12.0572 10.762 12.1391 11.0011 12.001C11.2403 11.863 11.3222 11.5572 11.1841 11.318L9.68414 8.71995C9.54607 8.4808 9.24027 8.39886 9.00113 8.53694C8.76198 8.67501 8.68004 8.9808 8.81812 9.21995Z" fill="#232323"/>
<path d="M9 9.53296C9.55228 9.53296 10 9.08524 10 8.53296C10 7.98067 9.55228 7.53296 9 7.53296C8.44772 7.53296 8 7.98067 8 8.53296C8 9.08524 8.44772 9.53296 9 9.53296Z" fill="#232323"/>
</g>
<defs>
<clipPath id="clip0_1527_4655">
<rect width="16" height="16" fill="white" transform="translate(0 0.032959)"/>
</clipPath>
</defs>
</svg>
