<svg width="16" height="17" viewBox="0 0 16 17" fill="none" xmlns="http://www.w3.org/2000/svg">
<g clip-path="url(#clip0_1527_4654)">
<path d="M0 0.032959H16V16.033H0V0.032959Z" fill="#808080" fill-opacity="0.01"/>
<path d="M8 0.032959C5.87827 0.032959 3.84344 0.875814 2.34315 2.3761C0.842855 3.8764 0 5.91123 0 8.03296C0 10.1547 0.842855 12.1895 2.34315 13.6898C3.84344 15.1901 5.87827 16.033 8 16.033C10.1217 16.033 12.1566 15.1901 13.6569 13.6898C15.1571 12.1895 16 10.1547 16 8.03296C16 5.91123 15.1571 3.8764 13.6569 2.3761C12.1566 0.875814 10.1217 0.032959 8 0.032959ZM8 3.46196V7.03296H11.429L8 12.604V9.03296H4.571L8 3.46196Z" fill="#232323"/>
</g>
<defs>
<clipPath id="clip0_1527_4654">
<rect width="16" height="16.003" fill="white" transform="translate(0 0.032959)"/>
</clipPath>
</defs>
</svg>
