<svg width="16" height="17" viewBox="0 0 16 17" fill="none" xmlns="http://www.w3.org/2000/svg">
<g clip-path="url(#clip0_1527_4651)">
<path d="M0 0.032959H16V16.033H0V0.032959Z" fill="#808080" fill-opacity="0.012"/>
<path d="M4 2.03296C2.892 2.03296 2 2.92496 2 4.03296V12.033C2 13.141 2.892 14.033 4 14.033H12C13.108 14.033 14 13.141 14 12.033V4.03296C14 2.92496 13.108 2.03296 12 2.03296H4ZM5 4.03296H6V11.033H5V4.03296ZM9 4.03296C10.108 4.03296 11 4.92496 11 6.03296V11.033H10V9.03296H8V11.033H7V6.03296C7 4.92496 7.892 4.03296 9 4.03296ZM9 5.03296C8.446 5.03296 8 5.47896 8 6.03296V8.03296H10V6.03296C10 5.47896 9.554 5.03296 9 5.03296ZM7 12.033H11V13.033H7V12.033Z" fill="#232323"/>
<path opacity="0.35" d="M7 12.033H11V13.033H7V12.033Z" fill="#232323"/>
<path opacity="0.35" d="M5 4.03296H6V11.033H5V4.03296Z" fill="#232323"/>
</g>
<defs>
<clipPath id="clip0_1527_4651">
<rect width="16" height="16" fill="white" transform="translate(0 0.032959)"/>
</clipPath>
</defs>
</svg>
