<svg width="16" height="17" viewBox="0 0 16 17" fill="none" xmlns="http://www.w3.org/2000/svg">
<g clip-path="url(#clip0_1527_4647)">
<path d="M0 16.033V0.032959H16V16.033H0Z" fill="#808080" fill-opacity="0.01"/>
<path d="M3.00391 1.06299C2.00391 1.06299 2.00391 2.06299 2.00391 2.06299V14.063C2.00391 14.063 2.00391 15.063 3.00391 15.063H13.0039C13.0039 15.063 14.0039 15.063 14.0039 14.063V2.06299C14.0039 2.06299 14.0039 1.06299 13.0039 1.06299H3.00391ZM8.00391 3.06299C9.06477 3.06299 10.0822 3.48441 10.8323 4.23456C11.5825 4.9847 12.0039 6.00212 12.0039 7.06299C12.0039 8.12385 11.5825 9.14127 10.8323 9.89142C10.0822 10.6416 9.06477 11.063 8.00391 11.063H4.00391V7.06299C4.00391 6.00212 4.42534 4.9847 5.17548 4.23456C5.92563 3.48441 6.94304 3.06299 8.00391 3.06299ZM8.00391 5.06299C7.47347 5.06299 6.96477 5.2737 6.5897 5.64877C6.21463 6.02385 6.00391 6.53256 6.00391 7.06299C6.00391 7.59342 6.21463 8.10213 6.5897 8.4772C6.96477 8.85228 7.47347 9.06299 8.00391 9.06299C8.53434 9.06299 9.04305 8.85228 9.41812 8.4772C9.79319 8.10213 10.0039 7.59342 10.0039 7.06299C10.0039 6.53256 9.79319 6.02385 9.41812 5.64877C9.04305 5.2737 8.53434 5.06299 8.00391 5.06299Z" fill="#232323"/>
</g>
<defs>
<clipPath id="clip0_1527_4647">
<rect width="16" height="16" fill="white" transform="translate(0 0.032959)"/>
</clipPath>
</defs>
</svg>
