<svg width="17" height="17" viewBox="0 0 17 17" fill="none" xmlns="http://www.w3.org/2000/svg">
<g clip-path="url(#clip0_1527_4644)">
<path d="M0.0350342 0.0300293H16.035V16.03H0.0350342V0.0300293Z" fill="#808080" fill-opacity="0.01"/>
<path d="M2.03503 1.03003C2.03503 1.03003 0.0350342 1.03003 0.0350342 3.03003V14.03C0.0350342 14.03 0.0350342 16.03 2.03503 16.03H13.035C13.035 16.03 15.035 16.03 15.035 14.03V3.03003C15.035 1.03003 13.035 1.03003 13.035 1.03003H2.03503ZM2.03503 3.03003H7.03503V8.03003H2.03503V3.03003ZM8.03503 3.03003H13.035V8.03003H8.03503V3.03003ZM9.53503 4.03003C9.4358 4.02937 9.33862 4.05831 9.25591 4.11316C9.17321 4.168 9.10874 4.24626 9.07074 4.33794C9.03273 4.42961 9.02293 4.53054 9.04258 4.62781C9.06223 4.72508 9.11043 4.81429 9.18103 4.88403L9.82803 5.53003L9.18103 6.17603C9.13461 6.22245 9.09779 6.27756 9.07266 6.33822C9.04754 6.39887 9.03461 6.46388 9.03461 6.52953C9.03461 6.59518 9.04754 6.66019 9.07266 6.72084C9.09779 6.7815 9.13461 6.83661 9.18103 6.88303C9.22746 6.92945 9.28257 6.96628 9.34322 6.9914C9.40388 7.01652 9.46888 7.02945 9.53453 7.02945C9.60019 7.02945 9.66519 7.01652 9.72585 6.9914C9.7865 6.96628 9.84161 6.92945 9.88803 6.88303L10.535 6.23703L11.181 6.88403C11.2275 6.93045 11.2826 6.96728 11.3432 6.9924C11.4039 7.01752 11.4689 7.03045 11.5345 7.03045C11.6002 7.03045 11.6652 7.01752 11.7258 6.9924C11.7865 6.96728 11.8416 6.93045 11.888 6.88403C11.9345 6.83761 11.9713 6.7825 11.9964 6.72184C12.0215 6.66119 12.0345 6.59618 12.0345 6.53053C12.0345 6.46488 12.0215 6.39987 11.9964 6.33922C11.9713 6.27856 11.9345 6.22345 11.888 6.17703L11.242 5.53003L11.889 4.88403C11.9355 4.83761 11.9723 4.7825 11.9974 4.72184C12.0225 4.66119 12.0355 4.59618 12.0355 4.53053C12.0355 4.46488 12.0225 4.39987 11.9974 4.33922C11.9723 4.27856 11.9355 4.22345 11.889 4.17703C11.8426 4.13061 11.7875 4.09378 11.7268 4.06866C11.6662 4.04354 11.6012 4.0306 11.5355 4.0306C11.4699 4.0306 11.4049 4.04354 11.3442 4.06866C11.2836 4.09378 11.2285 4.13061 11.182 4.17703L10.535 4.82303L9.88903 4.17603C9.84258 4.12954 9.78738 4.0927 9.72663 4.06764C9.66587 4.04259 9.60075 4.0298 9.53503 4.03003ZM2.03503 9.03003H7.03503V14.03H2.03503V9.03003ZM9.03503 10.03H12.035V11.03H9.03503V10.03ZM9.03503 12.03H12.035V13.03H9.03503V12.03Z" fill="#232323"/>
<path d="M4.03503 4.03003V5.03003H3.03503V6.03003H4.03503V7.03003H5.03503V6.03003H6.03503V5.03003H5.03503V4.03003H4.03503Z" fill="#232323"/>
<path d="M3.03503 11.03H6.03503V12.03H3.03503V11.03Z" fill="#232323"/>
</g>
<defs>
<clipPath id="clip0_1527_4644">
<rect width="16" height="16" fill="white" transform="translate(0.0350342 0.0300293)"/>
</clipPath>
</defs>
</svg>
