<svg width="16" height="17" viewBox="0 0 16 17" fill="none" xmlns="http://www.w3.org/2000/svg">
<g clip-path="url(#clip0_1527_4646)">
<path d="M0 0.032959H16V16.033H0V0.032959Z" fill="#808080" fill-opacity="0.012"/>
<path d="M4.96997 1.03296C3.86197 1.03296 2.96997 1.92496 2.96997 3.03296V13.033C2.96997 14.141 3.86197 15.033 4.96997 15.033H11.97C13.078 15.033 13.97 14.141 13.97 13.033V3.03296C13.97 1.92496 13.078 1.03296 11.97 1.03296H4.96997ZM4.96997 2.03296H11.97C12.524 2.03296 12.97 2.47896 12.97 3.03296V13.033C12.97 13.587 12.524 14.033 11.97 14.033H4.96997V2.03296Z" fill="#232323"/>
<path d="M4.96997 1.03296H2.96997V15.033H4.96997V1.03296Z" fill="#232323"/>
<path d="M8.96997 5.03296C7.30797 5.03296 5.96997 6.37096 5.96997 8.03296C5.96997 9.69496 7.30797 11.033 8.96997 11.033H9.46997C9.60258 11.033 9.72975 10.9803 9.82352 10.8865C9.91728 10.7928 9.96997 10.6656 9.96997 10.533C9.96997 10.4004 9.91728 10.2732 9.82352 10.1794C9.72975 10.0856 9.60258 10.033 9.46997 10.033H8.96997C7.86197 10.033 6.96997 9.14096 6.96997 8.03296C6.96997 6.92496 7.86197 6.03296 8.96997 6.03296C10.078 6.03296 10.97 6.92496 10.97 8.03296H9.96997C9.96997 7.76774 9.8646 7.5134 9.67706 7.32587C9.48953 7.13833 9.23519 7.03296 8.96997 7.03296C8.70475 7.03296 8.45038 7.13833 8.26285 7.32587C8.07531 7.5134 7.96997 7.76774 7.96997 8.03296C7.96997 8.29818 8.07531 8.55251 8.26285 8.74005C8.45038 8.92759 8.70475 9.03296 8.96997 9.03296H10.97C11.524 9.03296 11.97 8.58696 11.97 8.03296C11.97 6.37096 10.632 5.03296 8.96997 5.03296Z" fill="#232323"/>
<path d="M14.97 4.03296C14.97 3.48067 14.5223 3.03296 13.97 3.03296C13.4177 3.03296 12.97 3.48067 12.97 4.03296V5.03296C12.97 5.58524 13.4177 6.03296 13.97 6.03296C14.5223 6.03296 14.97 5.58524 14.97 5.03296V4.03296Z" fill="#232323"/>
<path d="M14.97 8.03296C14.97 7.48067 14.5223 7.03296 13.97 7.03296C13.4177 7.03296 12.97 7.48067 12.97 8.03296V9.03296C12.97 9.58524 13.4177 10.033 13.97 10.033C14.5223 10.033 14.97 9.58524 14.97 9.03296V8.03296Z" fill="#232323"/>
<path d="M14.97 12.033C14.97 11.4807 14.5223 11.033 13.97 11.033C13.4177 11.033 12.97 11.4807 12.97 12.033V13.033C12.97 13.5852 13.4177 14.033 13.97 14.033C14.5223 14.033 14.97 13.5852 14.97 13.033V12.033Z" fill="#232323"/>
</g>
<defs>
<clipPath id="clip0_1527_4646">
<rect width="16" height="16" fill="white" transform="translate(0 0.032959)"/>
</clipPath>
</defs>
</svg>
