<svg width="16" height="17" viewBox="0 0 16 17" fill="none" xmlns="http://www.w3.org/2000/svg">
<g clip-path="url(#clip0_1527_4649)">
<path d="M0 0.032959H16V16.033H0V0.032959Z" fill="#808080" fill-opacity="0.01"/>
<path d="M3.96997 1.04297C3.83897 1.04297 3.71097 1.05797 3.58697 1.08297C3.52897 1.09297 3.47497 1.11297 3.41897 1.12897C3.35897 1.14597 3.29997 1.16097 3.24297 1.18397C3.17297 1.21097 3.10997 1.24497 3.04397 1.27897C3.00297 1.30097 2.96097 1.32097 2.92097 1.34597C2.85402 1.38819 2.78958 1.43427 2.72797 1.48397C2.69997 1.50697 2.67197 1.52697 2.64597 1.55097C2.4873 1.69263 2.35226 1.85872 2.24597 2.04297C2.23897 2.05297 2.23397 2.06297 2.22797 2.07397C2.17587 2.16688 2.13139 2.26387 2.09497 2.36397C2.08997 2.37597 2.08797 2.38897 2.08297 2.40197C2.04767 2.50459 2.02092 2.60994 2.00297 2.71697C1.98312 2.82456 1.97208 2.93359 1.96997 3.04297V14.043C1.96997 14.155 1.98597 14.263 2.00297 14.369C2.02097 14.478 2.04897 14.582 2.08297 14.684L2.09497 14.723C2.13197 14.823 2.17597 14.919 2.22797 15.012L2.24497 15.043C2.35114 15.2273 2.48619 15.3934 2.64497 15.535C2.67197 15.559 2.69997 15.579 2.72797 15.602C2.78997 15.651 2.85297 15.698 2.92097 15.74C2.96097 15.765 3.00297 15.785 3.04397 15.807C3.10997 15.841 3.17397 15.875 3.24397 15.902C3.29997 15.925 3.35997 15.94 3.41897 15.957C3.47497 15.973 3.52897 15.993 3.58697 16.004C3.71097 16.028 3.83897 16.043 3.96997 16.043H11.97C13.06 16.043 13.944 15.169 13.966 14.084C13.976 12.99 13.971 8.66097 13.966 5.95397C13.9568 5.45568 13.7617 4.97882 13.419 4.61697L10.45 1.64797C10.2636 1.45653 10.0408 1.30436 9.7947 1.20045C9.54857 1.09654 9.28413 1.04299 9.01697 1.04297H4.96997H3.96997ZM7.96997 6.04297C9.98197 6.04397 11.86 7.36497 12.97 9.04297C11.86 10.721 9.98197 12.042 7.96997 12.043C5.95797 12.041 4.08197 10.721 2.97197 9.04297C4.08197 7.36497 5.95797 6.04497 7.96997 6.04297ZM7.96997 7.04297C7.43954 7.04297 6.93083 7.25368 6.55576 7.62876C6.18068 8.00383 5.96997 8.51254 5.96997 9.04297C5.96997 9.5734 6.18068 10.0821 6.55576 10.4572C6.93083 10.8323 7.43954 11.043 7.96997 11.043C8.5004 11.043 9.00911 10.8323 9.38418 10.4572C9.75926 10.0821 9.96997 9.5734 9.96997 9.04297C9.96997 8.51254 9.75926 8.00383 9.38418 7.62876C9.00911 7.25368 8.5004 7.04297 7.96997 7.04297Z" fill="#232323"/>
</g>
<defs>
<clipPath id="clip0_1527_4649">
<rect width="16" height="16.01" fill="white" transform="translate(0 0.032959)"/>
</clipPath>
</defs>
</svg>
