<svg width="16" height="17" viewBox="0 0 16 17" fill="none" xmlns="http://www.w3.org/2000/svg">
<g clip-path="url(#clip0_1527_4656)">
<path d="M16 16.048H0V0.0479736H16V16.048Z" fill="#808080" fill-opacity="0.01"/>
<path d="M2 1.04297C0.892 1.04297 0 1.93497 0 3.04297V13.043C0 14.151 0.892 15.043 2 15.043H14C15.108 15.043 16 14.151 16 13.043V3.04297C16 1.93497 15.108 1.04297 14 1.04297H2ZM1.969 3.04297H13.969V13.043H1.969V3.04297Z" fill="#232323"/>
<path d="M4.96997 4.04797H5.96997V5.04797C6.62397 5.04797 7.17197 5.46597 7.37797 6.04797H5.96997V7.04797C6.80097 7.04797 7.46997 7.71697 7.46997 8.54797C7.46997 9.37897 6.80097 10.048 5.96997 10.048V11.048H4.96997V10.048C4.66056 10.0479 4.35884 9.95156 4.10658 9.77239C3.85432 9.59323 3.664 9.34008 3.56197 9.04797H4.96997V8.04797C4.13897 8.04797 3.46997 7.37897 3.46997 6.54797C3.46997 5.71697 4.13897 5.04797 4.96997 5.04797V4.04797ZM4.96997 6.04797C4.83736 6.04797 4.71019 6.10065 4.61642 6.19442C4.52265 6.28819 4.46997 6.41537 4.46997 6.54797C4.46997 6.68058 4.52265 6.80776 4.61642 6.90153C4.71019 6.9953 4.83736 7.04797 4.96997 7.04797V6.04797ZM5.96997 8.04797V9.04797C6.10258 9.04797 6.22976 8.99529 6.32352 8.90153C6.41729 8.80776 6.46997 8.68058 6.46997 8.54797C6.46997 8.41537 6.41729 8.28819 6.32352 8.19442C6.22976 8.10065 6.10258 8.04797 5.96997 8.04797ZM8.96997 10.048H12.97V11.048H8.96997V10.048Z" fill="#232323"/>
</g>
<defs>
<clipPath id="clip0_1527_4656">
<rect width="16" height="16" fill="white" transform="translate(0 0.0429688)"/>
</clipPath>
</defs>
</svg>
