<svg width="16" height="17" viewBox="0 0 16 17" fill="none" xmlns="http://www.w3.org/2000/svg">
<g clip-path="url(#clip0_1527_4653)">
<path d="M0 0.032959H16V16.033H0V0.032959Z" fill="#808080" fill-opacity="0.01"/>
<path d="M2 1.03296C2 1.03296 1 1.03296 1 2.03296V3.03296H15C15 3.03296 15 2.03296 14 2.03296H8L7 1.03296H2Z" fill="#232323"/>
<path d="M1 4.03296C0.446 4.03296 0 4.47896 0 5.03296V15.033C0 15.587 0.446 16.033 1 16.033H15C15.554 16.033 16 15.587 16 15.033V5.03296C16 4.47896 15.554 4.03296 15 4.03296H1ZM6.25 6.03296H9.75C9.8163 6.03296 9.87989 6.0593 9.92678 6.10618C9.97366 6.15307 10 6.21665 10 6.28296V6.78296C10 6.84926 9.97366 6.91285 9.92678 6.95974C9.87989 7.00662 9.8163 7.03296 9.75 7.03296H6.25C6.1837 7.03296 6.12011 7.00662 6.07322 6.95974C6.02634 6.91285 6 6.84926 6 6.78296V6.28296C6 6.21665 6.02634 6.15307 6.07322 6.10618C6.12011 6.0593 6.1837 6.03296 6.25 6.03296Z" fill="#232323"/>
</g>
<defs>
<clipPath id="clip0_1527_4653">
<rect width="16" height="16.003" fill="white" transform="translate(0 0.032959)"/>
</clipPath>
</defs>
</svg>
