<svg width="16" height="17" viewBox="0 0 16 17" fill="none" xmlns="http://www.w3.org/2000/svg">
<g clip-path="url(#clip0_1527_4652)">
<path d="M0 0.0299683H16V16.03H0V0.0299683Z" fill="#808080" fill-opacity="0.01"/>
<path d="M0.98999 11.9209V15.0409H4.10999L11.99 7.16094L8.86999 4.04094L0.98999 11.9209ZM14.75 4.41094C15.08 4.08094 15.08 3.56094 14.75 3.23094L12.8 1.28094C12.723 1.20257 12.6312 1.14032 12.5299 1.09783C12.4286 1.05533 12.3198 1.03345 12.21 1.03345C12.1001 1.03345 11.9914 1.05533 11.8901 1.09783C11.7888 1.14032 11.697 1.20257 11.62 1.28094L9.98999 2.92094L13.11 6.04094L14.75 4.41094Z" fill="#232323"/>
</g>
<defs>
<clipPath id="clip0_1527_4652">
<rect width="16" height="16" fill="white" transform="translate(0 0.032959)"/>
</clipPath>
</defs>
</svg>
