<svg width="16" height="17" viewBox="0 0 16 17" fill="none" xmlns="http://www.w3.org/2000/svg">
<g clip-path="url(#clip0_1527_4648)">
<path d="M0 0.032959H16V16.033H0V0.032959Z" fill="#808080" fill-opacity="0.01"/>
<path d="M1 0.032959C0 0.032959 0 1.03296 0 1.03296V11.033C0 11.855 0.648008 11.995 0.889008 12.021L1.104 11.586C1.38712 11.0256 1.74065 10.5037 2.15601 10.033H2V7.53296L4.5 4.59596L6.85699 7.26596C7.56099 7.11396 8.27699 7.03596 8.98999 7.02896H9C9.053 7.02896 9.107 7.03596 9.16 7.03696L9.93799 6.28296L10.856 7.20096C11.9735 7.39811 13.0416 7.81224 14 8.41996V1.03296C14 0.032959 13 0.032959 13 0.032959H1ZM12 9.85296V10.033H11.838C12.246 10.601 12.5 11.283 12.5 12.029V12.033H13C13 12.033 13.894 12.023 13.982 11.162C13.431 10.619 12.755 10.187 12 9.85296ZM5.23801 10.033C4.89401 10.25 4.54601 10.483 4.29501 10.697C3.86201 11.086 3.56499 11.545 3.26999 11.997C3.27799 12.01 3.289 12.02 3.297 12.033H5.5V12.029C5.5 11.285 5.74801 10.601 6.15201 10.033H5.23801Z" fill="#232323"/>
<path fill-rule="evenodd" clip-rule="evenodd" d="M9 8.03297C7.643 8.04497 6.278 8.32897 5.096 8.94097C4.625 9.22097 4.059 9.58397 3.633 9.94897C2.963 10.549 2.387 11.249 2 12.033C3.063 14.177 5.4 15.75 7.97 15.983C9.657 16.157 11.422 15.89 12.904 15.127C13.375 14.847 13.941 14.484 14.367 14.119C15.037 13.519 15.613 12.817 16 12.033C14.937 9.88897 12.6 8.31797 10.03 8.08597C9.68785 8.05006 9.34403 8.03237 9 8.03297ZM9 9.53297C9.3283 9.53297 9.65339 9.59764 9.95671 9.72327C10.26 9.84891 10.5356 10.0331 10.7678 10.2652C10.9999 10.4974 11.1841 10.773 11.3097 11.0763C11.4353 11.3796 11.5 11.7047 11.5 12.033C11.5 12.3613 11.4353 12.6864 11.3097 12.9897C11.1841 13.293 10.9999 13.5686 10.7678 13.8007C10.5356 14.0329 10.26 14.217 9.95671 14.3427C9.65339 14.4683 9.3283 14.533 9 14.533C8.33696 14.533 7.70107 14.2696 7.23223 13.8007C6.76339 13.3319 6.5 12.696 6.5 12.033C6.5 11.3699 6.76339 10.734 7.23223 10.2652C7.70107 9.79637 8.33696 9.53297 9 9.53297ZM9 11.033C8.73478 11.033 8.48043 11.1383 8.29289 11.3259C8.10536 11.5134 8 11.7678 8 12.033C8 12.2982 8.10536 12.5525 8.29289 12.7401C8.48043 12.9276 8.73478 13.033 9 13.033C9.26522 13.033 9.51957 12.9276 9.70711 12.7401C9.89464 12.5525 10 12.2982 10 12.033C10 11.7678 9.89464 11.5134 9.70711 11.3259C9.51957 11.1383 9.26522 11.033 9 11.033Z" fill="#232323"/>
</g>
<defs>
<clipPath id="clip0_1527_4648">
<rect width="16" height="16.001" fill="white" transform="translate(0 0.032959)"/>
</clipPath>
</defs>
</svg>
