<svg width="17" height="17" viewBox="0 0 17 17" fill="none" xmlns="http://www.w3.org/2000/svg">
<g clip-path="url(#clip0_1527_4657)">
<path d="M0.0339355 0.0429688V16.043H16.0339V0.0429688H0.0339355Z" fill="#808080" fill-opacity="0.01"/>
<path d="M2.03988 1.04297C0.934883 1.04297 0.00488281 1.93797 0.00488281 3.04297V13.043C0.00488281 13.5734 0.215597 14.0821 0.590669 14.4572C0.965742 14.8323 1.47445 15.043 2.00488 15.043H14.0049C14.5352 15.0424 15.0436 14.8316 15.4185 14.4566C15.7935 14.0816 16.0044 13.5732 16.0049 13.043L16.0399 2.04297L16.0049 1.04297H12.5049L14.0049 4.04297H12.0049L10.5049 1.04297H8.50488L10.0049 4.04297H8.00488L6.50488 1.04297H4.50488L6.00488 4.04297H4.00488L2.50488 1.04297H2.03988ZM6.00488 6.04297L12.0049 9.04297L6.00488 12.043L5.99988 7.04297L6.00388 7.04497L6.00488 6.04297Z" fill="#232323"/>
</g>
<defs>
<clipPath id="clip0_1527_4657">
<rect width="16.035" height="16" fill="white" transform="translate(0 0.0429688)"/>
</clipPath>
</defs>
</svg>
