<svg width="17" height="17" viewBox="0 0 17 17" fill="none" xmlns="http://www.w3.org/2000/svg">
<g clip-path="url(#clip0_1527_4658)">
<path d="M0.0349121 0.0429688H16.0349V16.043H0.0349121V0.0429688Z" fill="#808080" fill-opacity="0.012"/>
<path d="M10.0349 7.04297C9.24157 7.04312 8.46619 7.27918 7.80736 7.72113C7.14852 8.16309 6.63598 8.79098 6.33491 9.52497C5.97291 9.21444 5.51186 9.04349 5.03491 9.04297C4.50448 9.04297 3.99577 9.25368 3.6207 9.62876C3.24563 10.0038 3.03491 10.5125 3.03491 11.043C1.92691 11.043 1.03491 11.935 1.03491 13.043C1.03491 14.151 1.92691 15.043 3.03491 15.043H13.0349C13.4757 15.0432 13.9041 14.8975 14.2533 14.6287C14.6026 14.3598 14.8531 13.9829 14.9656 13.5568C15.0782 13.1307 15.0466 12.6793 14.8757 12.273C14.7048 11.8668 14.4042 11.5285 14.0209 11.311C14.0286 11.2218 14.0332 11.1324 14.0349 11.043C14.0349 9.9821 13.6135 8.96469 12.8633 8.21454C12.1132 7.4644 11.0958 7.04297 10.0349 7.04297Z" fill="#232323"/>
<path d="M8.03491 1.04297C6.44361 1.04297 4.91749 1.67511 3.79227 2.80033C2.66705 3.92555 2.03491 5.45167 2.03491 7.04297C2.03691 7.93297 2.23691 8.81297 2.62091 9.61697C3.09491 8.70597 3.93791 8.04297 5.03491 8.04297C5.39491 8.04297 5.68391 8.28297 6.01491 8.40597C6.93091 7.03097 8.34391 6.04397 10.0349 6.04297C11.6329 6.04297 13.0419 6.81697 13.9529 7.99597C14.0059 7.68097 14.0329 7.36197 14.0349 7.04297C14.0349 5.45167 13.4028 3.92555 12.2776 2.80033C11.1523 1.67511 9.62621 1.04297 8.03491 1.04297Z" fill="#232323"/>
</g>
<defs>
<clipPath id="clip0_1527_4658">
<rect width="16" height="16" fill="white" transform="translate(0.0349121 0.0429688)"/>
</clipPath>
</defs>
</svg>
