<svg width="17" height="17" viewBox="0 0 17 17" fill="none" xmlns="http://www.w3.org/2000/svg">
<g clip-path="url(#clip0_1527_4643)">
<path d="M0.0350342 16.03V0.0300293H16.035V16.03H0.0350342Z" fill="#808080" fill-opacity="0.01"/>
<path d="M3.03906 1.06006C2.03906 1.06006 2.03906 2.06006 2.03906 2.06006V14.0601C2.03906 14.0601 2.03906 15.0601 3.03906 15.0601H13.0391C13.0391 15.0601 14.0391 15.0601 14.0391 14.0601V2.06006C14.0391 2.06006 14.0391 1.06006 13.0391 1.06006H3.03906ZM8.03906 3.06006C9.09993 3.06006 10.1173 3.48148 10.8675 4.23163C11.6176 4.98177 12.0391 5.99919 12.0391 7.06006C12.0391 8.12092 11.6176 9.13834 10.8675 9.88849C10.1173 10.6386 9.09993 11.0601 8.03906 11.0601H4.03906V7.06006C4.03906 5.99919 4.46049 4.98177 5.21064 4.23163C5.96079 3.48148 6.9782 3.06006 8.03906 3.06006ZM8.03906 5.06006C7.50863 5.06006 6.99993 5.27077 6.62486 5.64584C6.24978 6.02092 6.03906 6.52963 6.03906 7.06006C6.03906 7.59049 6.24978 8.0992 6.62486 8.47427C6.99993 8.84935 7.50863 9.06006 8.03906 9.06006C8.5695 9.06006 9.0782 8.84935 9.45328 8.47427C9.82835 8.0992 10.0391 7.59049 10.0391 7.06006C10.0391 6.52963 9.82835 6.02092 9.45328 5.64584C9.0782 5.27077 8.5695 5.06006 8.03906 5.06006Z" fill="#232323"/>
<path opacity="0.2" d="M4.03503 2.03003C3.48103 2.03003 3.03503 2.47603 3.03503 3.03003V12.03C3.03503 12.584 3.48103 13.03 4.03503 13.03H12.035C12.589 13.03 13.035 12.584 13.035 12.03V3.03003C13.035 2.47603 12.589 2.03003 12.035 2.03003H4.03503ZM8.03503 7.03003H12.035C12.035 8.0909 11.6136 9.10831 10.8635 9.85846C10.1133 10.6086 9.0959 11.03 8.03503 11.03V7.03003Z" fill="#232323"/>
<path opacity="0.2" d="M4.03503 7.03003C5.0959 7.03003 6.11332 6.6086 6.86346 5.85846C7.61361 5.10831 8.03503 4.0909 8.03503 3.03003C8.03503 4.0909 8.45647 5.10831 9.20661 5.85846C9.95676 6.6086 10.9742 7.03003 12.035 7.03003" fill="#232323"/>
<path opacity="0.2" d="M4.03503 7.03003C5.0959 7.03003 6.11332 6.6086 6.86346 5.85846C7.61361 5.10831 8.03503 4.0909 8.03503 3.03003V7.03003H4.03503Z" fill="#232323"/>
</g>
<defs>
<clipPath id="clip0_1527_4643">
<rect width="16" height="16" fill="white" transform="translate(0.0350342 0.0300293)"/>
</clipPath>
</defs>
</svg>
