<svg width="256" height="256" viewBox="0 0 256 256" fill="none" xmlns="http://www.w3.org/2000/svg">
<path d="M24 40C24 31.1634 31.1634 24 40 24H216C224.837 24 232 31.1634 232 40V216C232 224.837 224.837 232 216 232H40C31.1634 232 24 224.837 24 216V40Z" fill="url(#paint0_linear_4160_351)"/>
<path d="M58 198L111.604 129.914L58 58H92.6686L135.602 116.192L70.2523 198H58ZM120.072 140.282L185.403 58H198L144.38 125.515L198 198H163.331L120.072 140.282Z" fill="white"/>
<defs>
<linearGradient id="paint0_linear_4160_351" x1="24" y1="232" x2="232" y2="24" gradientUnits="userSpaceOnUse">
<stop stop-color="#865900"/>
<stop offset="1" stop-color="#AC7300"/>
</linearGradient>
</defs>
</svg>
