<svg width="17" height="17" viewBox="0 0 17 17" fill="none" xmlns="http://www.w3.org/2000/svg">
<g clip-path="url(#clip0_1527_4673)">
<path d="M16.031 16.053H0.0310059V0.0529785H16.031V16.053Z" fill="#808080" fill-opacity="0.01"/>
<path d="M8.03101 0.0529785L1.03101 1.05298V11.803L8.03101 16.053L15.031 11.803V1.05298L8.03101 0.0529785ZM8.03101 2.05298L13.031 2.80298V10.803L8.03101 13.803L3.03101 10.803V2.80298L8.03101 2.05298Z" fill="#232323"/>
<path d="M8.03101 3.05298C7.50057 3.05298 6.99186 3.26369 6.61679 3.63876C6.24172 4.01384 6.03101 4.52255 6.03101 5.05298C6.03101 5.58341 6.24172 6.09212 6.61679 6.46719C6.99186 6.84226 7.50057 7.05298 8.03101 7.05298C8.56144 7.05298 9.07015 6.84226 9.44522 6.46719C9.82029 6.09212 10.031 5.58341 10.031 5.05298C10.031 4.52255 9.82029 4.01384 9.44522 3.63876C9.07015 3.26369 8.56144 3.05298 8.03101 3.05298Z" fill="#232323"/>
<path d="M8.03101 8.05298C4.03101 8.05098 4.03101 10.053 4.03101 10.053V11.053H12.031V10.053C12.031 10.053 12.031 8.05098 8.03101 8.05298Z" fill="#232323"/>
</g>
<defs>
<clipPath id="clip0_1527_4673">
<rect width="16" height="16" fill="white" transform="translate(0.0310059 0.0529785)"/>
</clipPath>
</defs>
</svg>
