<svg width="16" height="16" viewBox="0 0 16 16" fill="none" xmlns="http://www.w3.org/2000/svg">
<g clip-path="url(#clip0_2823_376)">
<path d="M7.99999 0.720001C7.26199 1.448 6.55499 2.277 5.80899 3.001H2.99999V5.81C2.27499 6.556 1.44699 7.263 0.718994 8C1.44699 8.74 2.27499 9.475 2.99999 10.224V13H5.80699C6.55399 13.725 7.26099 14.553 7.99999 15.281C8.73899 14.552 9.47499 13.725 10.225 13.001H13V10.223C13.725 9.473 14.553 8.739 15.281 8C14.553 7.262 13.725 6.556 13 5.809V3H10.223C9.47299 2.276 8.73799 1.45 7.99999 0.720001ZM7.99999 4.154L10.563 7.997H8.99999V12.001H6.99999V7.997H5.43699C6.3057 6.72565 7.16009 5.44457 7.99999 4.154Z" fill="#232323"/>
</g>
<defs>
<clipPath id="clip0_2823_376">
<rect width="16" height="16" fill="white"/>
</clipPath>
</defs>
</svg>
