<svg width="16" height="16" viewBox="0 0 16 16" fill="none" xmlns="http://www.w3.org/2000/svg">
<path opacity="0.35" d="M8 2.01001C6.54061 2.00945 5.09483 2.29059 3.742 2.83801C2.34018 3.40615 1.06744 4.25135 0 5.32301L6.55 13.254H6.553C6.74009 13.4484 6.96457 13.603 7.21295 13.7084C7.46133 13.8137 7.72847 13.8678 7.99828 13.8672C8.26809 13.8667 8.535 13.8115 8.78294 13.7051C9.03088 13.5987 9.25472 13.4432 9.441 13.248H9.445L16 5.32201C15.1937 4.51465 14.2699 3.83395 13.26 3.30301C13.238 3.29101 13.214 3.28301 13.192 3.27201C12.8416 3.09246 12.4821 2.93124 12.115 2.78901C11.978 2.73601 11.838 2.69101 11.699 2.64301C11.2908 2.50125 10.8748 2.38306 10.453 2.28901C10.189 2.23101 9.923 2.18401 9.656 2.14501C9.511 2.12301 9.366 2.09801 9.219 2.08201C8.81425 2.03624 8.40733 2.0122 8 2.01001Z" fill="#232323"/>
<path d="M7.99995 5.00999C6.85699 5.00835 5.72496 5.23251 4.66887 5.6696C3.61279 6.10669 2.65345 6.7481 1.84595 7.55699L6.55095 13.254H6.55295C6.74003 13.4484 6.96629 13.7358 7.21467 13.8411C7.46305 13.9465 7.73019 14.0006 8 14C8.26981 13.9994 8.53672 13.9443 8.78466 13.8379C9.0326 13.7315 9.25467 13.4432 9.44095 13.248H9.44495L14.1519 7.55499C13.3445 6.7467 12.3854 6.1058 11.3297 5.66906C10.274 5.23232 9.14243 5.00835 7.99995 5.00999Z" fill="#232323"/>
</svg>
