<svg width="256" height="256" viewBox="0 0 256 256" fill="none" xmlns="http://www.w3.org/2000/svg">
<path d="M24 40C24 31.1634 31.1634 24 40 24H216C224.837 24 232 31.1634 232 40V216C232 224.837 224.837 232 216 232H40C31.1634 232 24 224.837 24 216V40Z" fill="url(#paint0_linear_2090_1466)"/>
<path d="M128 52C101.962 52 81 75.1502 81 103.906V151.094C81 179.85 101.962 203 128 203C154.038 203 175 179.85 175 151.094V103.906C175 75.1502 154.038 52 128 52ZM128 80.3125C133.208 80.3125 137.4 84.5216 137.4 89.75V108.625C137.4 113.853 133.208 118.062 128 118.062C122.792 118.062 118.6 113.853 118.6 108.625V89.75C118.6 84.5216 122.792 80.3125 128 80.3125Z" fill="white"/>
<path d="M131 188.501C116.814 192.87 100.877 192.255 93.0806 185.907C101.67 196.415 114.113 203 128 203C154.038 203 175 179.85 175 151.094C175 151.094 175 108.312 175 103.906C175 99.501 174.463 96.001 174.463 96.001C174.463 96.001 173.635 126.548 168 144.093C161.098 165.585 152.573 181.856 131 188.501Z" fill="#DEDEDE"/>
<defs>
<linearGradient id="paint0_linear_2090_1466" x1="24" y1="232" x2="232" y2="24" gradientUnits="userSpaceOnUse">
<stop stop-color="#B31D5C"/>
<stop offset="1" stop-color="#F7558F"/>
</linearGradient>
</defs>
</svg>
