<svg width="256" height="256" viewBox="0 0 256 256" fill="none" xmlns="http://www.w3.org/2000/svg">
<path d="M24 40C24 31.1634 31.1634 24 40 24H216C224.837 24 232 31.1634 232 40V216C232 224.837 224.837 232 216 232H40C31.1634 232 24 224.837 24 216V40Z" fill="url(#paint0_linear_2086_984)"/>
<path d="M208 56H48C43.5817 56 40 60.2981 40 65.6V190.4C40 195.702 43.5817 200 48 200H208C212.418 200 216 195.702 216 190.4V65.6C216 60.2981 212.418 56 208 56Z" fill="white"/>
<path d="M200.727 64H55.2727C51.2561 64 48 67.5817 48 72V176C48 180.418 51.2561 184 55.2727 184H200.727C204.744 184 208 180.418 208 176V72C208 67.5817 204.744 64 200.727 64Z" fill="#00717C"/>
<path d="M114.611 117C117.587 117 120 118.949 120 121.353V149.647C120 152.051 117.587 154 114.611 154H61.3895C58.4129 154 56 152.051 56 149.647V121.353C56 118.949 58.413 117 61.3895 117H114.611Z" fill="#63D0DF"/>
<path d="M114.611 72C117.587 72 120 73.9489 120 76.3529V104.647C120 107.051 117.587 109 114.611 109H61.3895C58.4129 109 56 107.051 56 104.647V76.3529C56 73.9489 58.413 72 61.3895 72H114.611Z" fill="white"/>
<path d="M120 166.353C120 163.949 117.587 162 114.611 162H61.3895C58.413 162 56 163.949 56 166.353V184H120V166.353Z" fill="#05919F"/>
<defs>
<linearGradient id="paint0_linear_2086_984" x1="24" y1="232" x2="232" y2="24" gradientUnits="userSpaceOnUse">
<stop stop-color="#05919F"/>
<stop offset="1" stop-color="#49BAC8"/>
</linearGradient>
</defs>
</svg>
