<svg width="256" height="256" viewBox="0 0 256 256" fill="none" xmlns="http://www.w3.org/2000/svg">
<path d="M24 40C24 31.1634 31.1634 24 40 24H216C224.837 24 232 31.1634 232 40V216C232 224.837 224.837 232 216 232H40C31.1634 232 24 224.837 24 216V40Z" fill="url(#paint0_linear_2673_522)"/>
<path d="M98 50V60H88.3571C72.2596 60 59 72.9613 59 89V167C59 183.039 72.4025 196 88.5 196H98V206H157V196H166.5C182.598 196 196 183.039 196 167V89C196 72.9613 182.74 60 166.643 60H157V50H98ZM88.5 79H166.786C172.373 79 177 83.4328 177 89V167C177 172.567 172.088 177 166.5 177H88.2143C82.6266 177 78 172.567 78 167V89C78 83.4328 82.9124 79 88.5 79Z" fill="white"/>
<path d="M108 89V133.657L152 159L162 142L128 122V89H108Z" fill="white"/>
<defs>
<linearGradient id="paint0_linear_2673_522" x1="24" y1="232" x2="232" y2="24" gradientUnits="userSpaceOnUse">
<stop stop-color="#8E1EBD"/>
<stop offset="1" stop-color="#AE46DE"/>
</linearGradient>
</defs>
</svg>
