<svg width="16" height="16" viewBox="0 0 16 16" fill="none" xmlns="http://www.w3.org/2000/svg">
<g clip-path="url(#clip0_2789_379)">
<path fill-rule="evenodd" clip-rule="evenodd" d="M10.9718 14C13.8859 13.0884 16 10.3723 16 7.16337C16 3.20715 12.7865 0 8.82248 0C5.63906 0 2.93969 2.06835 2 4.93207C2.86779 4.42528 3.8626 4.1099 4.92556 4.04439C4.75537 3.65751 4.40469 3.36692 4.1212 3.36692C4.03877 3.36692 4.00227 3.42295 3.96657 3.47777C3.93361 3.52841 3.90124 3.57805 3.8341 3.58182C3.6242 3.59344 3.51112 3.36692 3.51111 3.15202C3.51111 2.69662 3.8734 2.45233 4.30064 2.29242C4.58775 2.18497 6.1668 1.71921 6.4539 1.71935C6.61999 1.71935 6.73391 1.79972 6.84769 1.87999L6.84852 1.88057C6.96267 1.96129 7.07679 2.04198 7.24342 2.0417H7.81763C7.84736 2.0417 7.85941 2.01484 7.87146 1.98797C7.88351 1.96111 7.89557 1.93425 7.92529 1.93425C7.96176 1.93425 8.72423 2.55153 9.28902 3.15188C9.83588 3.73321 10.1862 4.15475 10.1862 4.29816C10.1862 4.35551 10.069 4.49902 9.9247 4.67568C9.73854 4.90356 9.50718 5.18679 9.4245 5.411C9.35705 5.36133 9.28851 5.31321 9.21899 5.26634C10.6675 6.24303 11.6732 7.82419 11.8725 9.64719C11.9165 9.95284 11.9393 10.2653 11.9393 10.583C11.9393 11.8351 11.5855 13.0052 10.9718 14ZM7.17165 0.751034C7.17165 0.716057 8.20991 0.41749 8.89426 0.428683C9.5236 0.439036 10.4733 0.68052 10.4733 0.751034C10.4733 0.823788 10.0427 1.32494 9.89911 1.35992C9.61368 1.42316 8.54344 1.42946 8.24892 1.43113H8.24597L8.17651 1.43155C8.14062 1.43239 7.17165 0.786152 7.17165 0.751034ZM13.7032 4.79974C13.9185 4.79946 15.1028 5.15763 15.354 5.37281C15.4886 5.48809 15.5512 6.32769 15.5694 6.94847C15.5694 6.94847 15.6125 7.74707 15.4976 8.23815C15.4017 8.64795 15.1028 9.24103 15.1028 9.24103C15.1028 9.24103 14.7794 8.66768 14.421 8.38142C14.2651 8.25695 14.1036 8.15984 13.9379 8.0602L13.9361 8.05907C13.7209 7.92979 13.4988 7.79618 13.2726 7.59345C12.9138 7.2718 12.5548 6.73385 12.5548 6.59058V5.87424C12.5548 5.74413 13.5596 4.79988 13.7032 4.79974ZM13.8109 3.93971C13.9185 3.93971 14.9234 4.44115 14.9234 4.44115C14.9234 4.44115 14.3864 3.42569 13.9185 2.86521C13.5596 2.43541 13.129 2.14901 13.0931 2.14887C13.0572 2.14873 12.9137 2.33537 12.9137 2.43541V4.15461C12.9137 4.22625 13.2008 4.29592 13.2725 4.29788C13.289 4.2983 13.3169 4.27969 13.3523 4.25059C13.377 4.23031 13.4054 4.20484 13.4362 4.17728C13.5523 4.07338 13.7017 3.93971 13.8109 3.93971Z" fill="#232323"/>
<path fill-rule="evenodd" clip-rule="evenodd" d="M5.5 16C8.53757 16 11 13.5376 11 10.5C11 7.46243 8.53757 5 5.5 5C2.46243 5 0 7.46243 0 10.5C0 13.5376 2.46243 16 5.5 16ZM5.5 6.14925C5.36399 6.14925 5.25373 6.25951 5.25373 6.39552V10.0734C5.17896 10.1166 5.11661 10.179 5.07336 10.2537H2.79104C2.65503 10.2537 2.54478 10.364 2.54478 10.5C2.54478 10.636 2.65503 10.7463 2.79104 10.7463H5.07336C5.15852 10.8935 5.31769 10.9925 5.5 10.9925C5.77202 10.9925 5.99254 10.772 5.99254 10.5C5.99254 10.3177 5.89349 10.1585 5.74627 10.0734V6.39552C5.74627 6.25951 5.63601 6.14925 5.5 6.14925Z" fill="#232323"/>
</g>
<defs>
<clipPath id="clip0_2789_379">
<rect width="16" height="16" fill="white"/>
</clipPath>
</defs>
</svg>
