<svg width="16" height="17" viewBox="0 0 16 17" fill="none" xmlns="http://www.w3.org/2000/svg">
<g clip-path="url(#clip0_1527_4671)">
<path d="M13.03 0.862976C13.032 0.864976 13.03 1.65098 13.03 2.05098H5.99902C5.99902 2.05098 3.99902 2.05098 3.99902 4.05098V11.051H3.03002V9.86298L-0.000976562 12.551L3.03002 15.238C3.02802 15.236 3.03002 14.451 3.03002 14.051H9.99902C9.99902 14.051 11.999 14.051 11.999 12.051C12.004 10.622 11.999 6.87198 11.999 5.05098H13.03V6.23798L15.999 3.55098L13.03 0.862976ZM5.99902 4.05098H9.99902V11.051H5.99902V4.05098ZM6.99902 5.05098V7.05098H8.99902V5.05098H6.99902Z" fill="#232323"/>
<path d="M16 0.0529785H0V16.053H16V0.0529785Z" fill="#808080" fill-opacity="0.01"/>
</g>
<defs>
<clipPath id="clip0_1527_4671">
<rect width="16" height="16" fill="white" transform="translate(0 0.0529785)"/>
</clipPath>
</defs>
</svg>
