<svg width="17" height="17" viewBox="0 0 17 17" fill="none" xmlns="http://www.w3.org/2000/svg">
<g clip-path="url(#clip0_1527_4674)">
<path d="M16.011 0.0529785H0.0109863V16.053H16.011V0.0529785Z" fill="#808080" fill-opacity="0.01"/>
<path d="M11.6911 10.338L10.2691 11.76L13.2791 14.77C14.2381 15.707 15.6441 14.27 14.6851 13.332L11.6911 10.338Z" fill="#232323"/>
<path d="M6.48096 1.05298C5.02227 1.05298 3.62332 1.63244 2.59187 2.66389C1.56042 3.69534 0.980957 5.09429 0.980957 6.55298C0.980957 8.01167 1.56042 9.41062 2.59187 10.4421C3.62332 11.4735 5.02227 12.053 6.48096 12.053C7.93965 12.053 9.33859 11.4735 10.37 10.4421C11.4015 9.41062 11.981 8.01167 11.981 6.55298C11.981 5.09429 11.4015 3.69534 10.37 2.66389C9.33859 1.63244 7.93965 1.05298 6.48096 1.05298ZM6.48096 3.05298C7.40921 3.05298 8.29945 3.42173 8.95583 4.0781C9.61221 4.73448 9.98096 5.62472 9.98096 6.55298C9.98096 7.48124 9.61221 8.37147 8.95583 9.02785C8.29945 9.68423 7.40921 10.053 6.48096 10.053C5.5527 10.053 4.66246 9.68423 4.00608 9.02785C3.34971 8.37147 2.98096 7.48124 2.98096 6.55298C2.98096 5.62472 3.34971 4.73448 4.00608 4.0781C4.66246 3.42173 5.5527 3.05298 6.48096 3.05298Z" fill="#232323"/>
</g>
<defs>
<clipPath id="clip0_1527_4674">
<rect width="16" height="16" fill="white" transform="translate(0.0310059 0.0529785)"/>
</clipPath>
</defs>
</svg>
