<svg width="17" height="17" viewBox="0 0 17 17" fill="none" xmlns="http://www.w3.org/2000/svg">
<g clip-path="url(#clip0_1527_4668)">
<path d="M0.0349121 0.0429688H16.0349V16.043H0.0349121V0.0429688Z" fill="#808080" fill-opacity="0.01"/>
<path d="M3.53491 5.04297C3.53491 5.04297 3.03491 5.04297 3.03491 5.54297V9.54297C3.03491 10.043 3.53491 10.043 3.53491 10.043H7.53491C8.03491 10.043 8.03491 9.54297 8.03491 9.54297V5.54297C8.03491 5.04297 7.59791 5.04297 7.53491 5.04297H3.53491ZM4.03491 7.04097H7.03491V9.04097H4.03491V7.04097Z" fill="#232323"/>
<path d="M9.53491 3.04295C9.53491 3.04295 9.03491 3.04295 9.03491 3.54295V5.54095C9.03491 5.54095 9.03491 6.04095 9.53491 6.04095L11.5349 6.03895C11.5349 6.03895 12.0349 6.03895 12.0349 5.53895V3.54095C12.0349 3.54095 12.0349 3.04095 11.5349 3.04095L9.53491 3.04295Z" fill="#232323"/>
<path d="M2.03491 0.0429688C0.0349121 0.0429688 0.0349121 2.04297 0.0349121 2.04297V11.043C0.0349121 11.043 0.0349121 13.043 2.03491 13.043H14.0349C14.0349 13.043 16.0349 13.043 16.0349 11.043V2.04297C16.0349 2.04297 16.0349 0.0429688 14.0349 0.0429688H2.03491ZM2.03491 2.04297H14.0349V11.043L2.03491 11.019V2.04297ZM3.03491 15.043V16.04H13.0349V15.043C13.0349 14.043 12.0349 14.043 12.0349 14.043H4.01291C4.01291 14.043 3.03491 14.043 3.03491 15.043Z" fill="#232323"/>
</g>
<defs>
<clipPath id="clip0_1527_4668">
<rect width="16" height="16" fill="white" transform="translate(0.0349121 0.0429688)"/>
</clipPath>
</defs>
</svg>
