<svg width="17" height="17" viewBox="0 0 17 17" fill="none" xmlns="http://www.w3.org/2000/svg">
<g clip-path="url(#clip0_1527_4662)">
<path d="M0.0349121 0.0429688H16.0349V16.043H0.0349121V0.0429688Z" fill="#808080" fill-opacity="0.012"/>
<path d="M8.03772 8.51167C9.95232 8.51167 11.5044 6.95958 11.5044 5.04499C11.5044 3.13039 9.95232 1.57831 8.03772 1.57831C6.12313 1.57831 4.57104 3.13039 4.57104 5.04499C4.57104 6.95958 6.12313 8.51167 8.03772 8.51167Z" stroke="#232323" stroke-width="1.06675" stroke-linecap="round" stroke-linejoin="round"/>
<path d="M4.03772 15.5117C5.95232 15.5117 7.50441 13.9596 7.50441 12.045C7.50441 10.1304 5.95232 8.57831 4.03772 8.57831C2.12313 8.57831 0.571045 10.1304 0.571045 12.045C0.571045 13.9596 2.12313 15.5117 4.03772 15.5117Z" stroke="#232323" stroke-width="1.06675" stroke-linecap="round" stroke-linejoin="round"/>
<path d="M12.0331 16.0427C14.2418 16.0427 16.0323 14.2522 16.0323 12.0435C16.0323 9.8348 14.2418 8.04431 12.0331 8.04431C9.82442 8.04431 8.03394 9.8348 8.03394 12.0435C8.03394 14.2522 9.82442 16.0427 12.0331 16.0427Z" fill="#232323"/>
<path opacity="0.35" d="M4.03772 15.5117C5.95232 15.5117 7.50441 13.9596 7.50441 12.045C7.50441 10.1304 5.95232 8.57831 4.03772 8.57831C2.12313 8.57831 0.571045 10.1304 0.571045 12.045C0.571045 13.9596 2.12313 15.5117 4.03772 15.5117Z" fill="#232323"/>
</g>
<defs>
<clipPath id="clip0_1527_4662">
<rect width="16" height="16" fill="white" transform="translate(0.0349121 0.0429688)"/>
</clipPath>
</defs>
</svg>
