<svg width="256" height="256" viewBox="0 0 256 256" fill="none" xmlns="http://www.w3.org/2000/svg">
<path d="M24 40C24 31.1634 31.1634 24 40 24H216C224.837 24 232 31.1634 232 40V216C232 224.837 224.837 232 216 232H40C31.1634 232 24 224.837 24 216V40Z" fill="url(#paint0_linear_2615_47)"/>
<path d="M208 56H48C43.5817 56 40 60.2981 40 65.6V190.4C40 195.702 43.5817 200 48 200H208C212.418 200 216 195.702 216 190.4V65.6C216 60.2981 212.418 56 208 56Z" fill="white"/>
<path d="M200.727 64H55.2727C51.2561 64 48 67.5817 48 72V176C48 180.418 51.2561 184 55.2727 184H200.727C204.744 184 208 180.418 208 176V72C208 67.5817 204.744 64 200.727 64Z" fill="#6582AA"/>
<path d="M107 145H186C190.418 145 194 141.418 194 137V85C194 80.5817 190.418 77 186 77H107C102.582 77 99 80.5817 99 85V137C99 141.418 102.582 145 107 145Z" fill="#C9E0FF"/>
<path d="M148 102C152.418 102 156 105.582 156 110V162C156 166.418 152.418 170 148 170H69C64.5817 170 61 166.418 61 162V110C61 105.582 64.5817 102 69 102H148Z" fill="white"/>
<defs>
<linearGradient id="paint0_linear_2615_47" x1="24" y1="232" x2="232" y2="24" gradientUnits="userSpaceOnUse">
<stop stop-color="#48658B"/>
<stop offset="1" stop-color="#6582AA"/>
</linearGradient>
</defs>
</svg>
