<svg width="16" height="16" viewBox="0 0 16 16" fill="none" xmlns="http://www.w3.org/2000/svg">
<path d="M4.23136 9H5.80026L5.79821 9.00411C5.67499 9.2582 5.44485 9.61279 5.01581 10.0298C4.58677 9.61279 4.35662 9.2582 4.23341 9.00411L4.23136 9Z" fill="#232323"/>
<path fill-rule="evenodd" clip-rule="evenodd" d="M8.57143 7H1.42857C0.639593 7 0 7.59695 0 8.33333V11.6667C0 12.403 0.639593 13 1.42857 13H1.75L2.5 14L3.25 13H8.57143C9.36041 13 10 12.403 10 11.6667V8.33333C10 7.59695 9.36041 7 8.57143 7ZM4.5 8.4C4.5 8.17909 4.67909 8 4.9 8H5.1C5.32091 8 5.5 8.17909 5.5 8.4V8.5H6.75C6.88807 8.5 7 8.61193 7 8.75C7 8.88807 6.88807 9 6.75 9H6.26026C6.25997 9.00288 6.25954 9.00576 6.25898 9.00864C6.22823 9.1658 6.07979 9.67614 5.38825 10.3634C5.94924 10.828 6.39772 11.0351 6.69701 11.1271C6.84743 11.1733 6.93911 11.403 6.83603 11.5219C6.80545 11.5572 6.76203 11.5787 6.71548 11.5753C6.51315 11.5603 5.90018 11.4499 5.01581 10.7037C4.13144 11.4499 3.51847 11.5603 3.31614 11.5753C3.26959 11.5787 3.22616 11.5572 3.19559 11.5219C3.0925 11.403 3.18419 11.1733 3.3346 11.1271C3.6339 11.0351 4.08238 10.828 4.64337 10.3634C3.95183 9.67614 3.80339 9.1658 3.77264 9.00864C3.77208 9.00576 3.77165 9.00288 3.77135 9H3.25C3.11193 9 3 8.88807 3 8.75C3 8.61193 3.11193 8.5 3.25 8.5H4.5V8.4Z" fill="#232323"/>
<path d="M11.4276 5.69992H10.5476L10.9876 4.04992L11.4276 5.69992Z" fill="#232323"/>
<path fill-rule="evenodd" clip-rule="evenodd" d="M14.5714 2H7.42857C6.63959 2 6 2.59695 6 3.33333V6.66667C6 7.40305 6.63959 8 7.42857 8H12.75L13.5 9L14.25 8H14.5714C15.3604 8 16 7.40305 16 6.66667V3.33333C16 2.59695 15.3604 2 14.5714 2ZM11.5626 6.19992L11.7776 6.99992H12.4776L11.4076 3.54492H10.5926L9.51758 6.99992H10.2026L10.4176 6.19992H11.5626Z" fill="#232323"/>
</svg>
