<svg width="256" height="256" viewBox="0 0 256 256" fill="none" xmlns="http://www.w3.org/2000/svg">
<path d="M24 40C24 31.1634 31.1634 24 40 24H216C224.837 24 232 31.1634 232 40V216C232 224.837 224.837 232 216 232H40C31.1634 232 24 224.837 24 216V40Z" fill="url(#paint0_linear_2094_963)"/>
<rect x="48" y="56" width="160" height="144" rx="24" fill="white"/>
<path d="M72 88C72 83.5817 75.5817 80 80 80H176C180.418 80 184 83.5817 184 88V136H72V88Z" fill="#B59F00"/>
<path d="M72 152H184V168C184 172.418 180.418 176 176 176H80C75.5817 176 72 172.418 72 168V152Z" fill="#B59F00"/>
<rect x="120" y="144" width="16" height="40" fill="white"/>
<defs>
<linearGradient id="paint0_linear_2094_963" x1="24" y1="232" x2="232" y2="24" gradientUnits="userSpaceOnUse">
<stop stop-color="#726300"/>
<stop offset="1" stop-color="#B59F00"/>
</linearGradient>
</defs>
</svg>
