<svg width="256" height="256" viewBox="0 0 256 256" fill="none" xmlns="http://www.w3.org/2000/svg">
<path d="M24 40C24 31.1634 31.1634 24 40 24H216C224.837 24 232 31.1634 232 40V216C232 224.837 224.837 232 216 232H40C31.1634 232 24 224.837 24 216V40Z" fill="url(#paint0_linear_2826_412)"/>
<path d="M128 50C120.094 57.7995 112.52 66.681 104.528 74.4376H74.4359V104.532C66.6691 112.524 57.7989 120.099 50 127.995C57.7989 135.923 66.6691 143.797 74.4359 151.822V181.562H104.507C112.509 189.33 120.083 198.201 128 206C135.917 198.19 143.801 189.33 151.836 181.573H181.564V151.811C189.331 143.776 198.201 135.912 206 127.995C198.201 120.088 189.331 112.524 181.564 104.521V74.4269H151.815C143.78 66.6703 135.906 57.8209 128 50ZM128 86.7903L155.457 127.963H138.713V170.86H117.287V127.963H100.543C109.849 114.342 119.002 100.617 128 86.7903Z" fill="white"/>
<defs>
<linearGradient id="paint0_linear_2826_412" x1="24" y1="232" x2="232" y2="24" gradientUnits="userSpaceOnUse">
<stop stop-color="#8E1EBD"/>
<stop offset="1" stop-color="#AE46DE"/>
</linearGradient>
</defs>
</svg>
