<svg width="17" height="17" viewBox="0 0 17 17" fill="none" xmlns="http://www.w3.org/2000/svg">
<g clip-path="url(#clip0_1527_4665)">
<path d="M1.5307 8.04297C0.698789 8.04297 0.0290527 8.71197 0.0290527 9.54297V13.543C0.0290527 14.374 0.698789 15.043 1.5307 15.043H10.5406C11.3725 15.043 12.0423 14.374 12.0423 13.543V9.54297C12.0423 8.71197 11.3725 8.04297 10.5406 8.04297H1.5307ZM1.59378 9.04297C4.77827 9.31197 7.70849 9.27297 10.4775 9.04297C10.7799 9.01797 11.0412 9.30296 11.0412 9.60596V12.481C11.0412 12.783 10.7799 13.009 10.4775 13.043C7.47423 13.383 4.51398 13.37 1.59277 13.043C1.29244 13.009 1.03015 12.783 1.03015 12.48V9.60498C1.03015 9.30298 1.29044 9.01797 1.59378 9.04297Z" fill="#232323"/>
<path d="M9.53949 0.0429688C8.70758 0.0429688 8.03784 0.711969 8.03784 1.54297V5.54297C8.03784 6.37397 8.70758 7.04297 9.53949 7.04297H13.5439C14.3758 7.04297 15.0455 6.37397 15.0455 5.54297V1.54297C15.0455 0.711969 14.3758 0.0429688 13.5439 0.0429688H9.53949ZM9.60256 1.04297C10.8926 1.16795 12.1918 1.16795 13.4818 1.04297C13.7832 1.01397 14.0444 1.30296 14.0444 1.60596V4.48096C14.0444 4.78296 13.7821 5.00597 13.4808 5.04297C12.2264 5.19697 10.94 5.22297 9.60156 5.04297C9.30123 5.00297 9.03894 4.78298 9.03894 4.47998V1.60498C9.03894 1.30298 9.30023 1.01297 9.60256 1.04297Z" fill="#232323"/>
<path d="M1.5307 1.04297C0.698789 1.04297 0.0290527 1.71197 0.0290527 2.54297V5.54297C0.0290527 6.37397 0.698789 7.04297 1.5307 7.04297H5.5351C6.36702 7.04297 7.03675 6.37397 7.03675 5.54297V2.54297C7.03675 1.71197 6.36702 1.04297 5.5351 1.04297H1.5307ZM1.59378 2.04297C3.28563 2.24297 4.4409 2.17297 5.47203 2.04297C5.77336 2.00497 6.03565 2.30296 6.03565 2.60596V5.48096C6.03565 5.78296 5.77336 6.00397 5.47203 6.04297C4.18466 6.2096 2.88115 6.2096 1.59378 6.04297C1.29244 6.00497 1.03015 5.78298 1.03015 5.47998V2.60498C1.03015 2.30298 1.29244 2.00697 1.59378 2.04297Z" fill="#232323"/>
</g>
<defs>
<clipPath id="clip0_1527_4665">
<rect width="16" height="16" fill="white" transform="translate(0.0349121 0.0429688)"/>
</clipPath>
</defs>
</svg>
