<svg width="256" height="256" viewBox="0 0 256 256" fill="none" xmlns="http://www.w3.org/2000/svg">
<path d="M24 40C24 31.1634 31.1634 24 40 24H216C224.837 24 232 31.1634 232 40V216C232 224.837 224.837 232 216 232H40C31.1634 232 24 224.837 24 216V40Z" fill="url(#paint0_linear_2807_330)"/>
<path d="M128 59C101.962 59 81 81.9133 81 110.375V144.625C81 173.087 101.962 196 128 196C154.038 196 175 173.087 175 144.625V110.375C175 81.9133 154.038 59 128 59ZM127.658 76.6559C128.232 76.6469 128.801 76.7537 129.333 76.9699C129.864 77.1862 130.347 77.5074 130.752 77.9146L156.388 103.602C156.814 104.027 157.145 104.537 157.36 105.099C157.576 105.661 157.67 106.263 157.638 106.864C157.606 107.465 157.447 108.053 157.173 108.588C156.899 109.124 156.515 109.596 156.046 109.973L133.512 128.039L156.038 146.098C156.507 146.474 156.891 146.945 157.166 147.481C157.442 148.016 157.601 148.603 157.634 149.205C157.667 149.806 157.573 150.407 157.358 150.97C157.144 151.532 156.813 152.043 156.388 152.468L130.752 178.156C130.154 178.753 129.394 179.159 128.566 179.323C127.738 179.488 126.881 179.403 126.101 179.08C125.322 178.756 124.655 178.209 124.185 177.507C123.716 176.804 123.464 175.979 123.462 175.133V136.08L104.765 151.064C103.877 151.732 102.765 152.028 101.664 151.889C100.562 151.749 99.5584 151.186 98.8642 150.318C98.1701 149.45 97.8403 148.345 97.9448 147.238C98.0493 146.131 98.5798 145.108 99.424 144.385L119.822 128.031L99.424 111.676C98.9664 111.332 98.5825 110.899 98.2952 110.403C98.0078 109.907 97.8228 109.358 97.7512 108.789C97.6796 108.22 97.7228 107.643 97.8782 107.091C98.0336 106.539 98.2981 106.024 98.656 105.576C99.0139 105.129 99.4578 104.758 99.9615 104.486C100.465 104.213 101.018 104.045 101.588 103.991C102.158 103.937 102.733 103.999 103.278 104.171C103.824 104.344 104.33 104.625 104.765 104.998L123.462 119.982V80.9371C123.462 79.8134 123.903 78.7347 124.69 77.9338C125.476 77.1328 126.545 76.6739 127.667 76.6559H127.658ZM132.008 91.2721V118.27L146.979 106.282L132.008 91.2721ZM132.008 137.801V164.79L146.979 149.788L132.008 137.801Z" fill="white"/>
<defs>
<linearGradient id="paint0_linear_2807_330" x1="24" y1="232" x2="232" y2="24" gradientUnits="userSpaceOnUse">
<stop stop-color="#6E605A"/>
<stop offset="1" stop-color="#8C7C77"/>
</linearGradient>
</defs>
</svg>
