<svg width="16" height="16" viewBox="0 0 16 16" fill="none" xmlns="http://www.w3.org/2000/svg">
<path d="M13 5C11.338 5 10 6.53313 10 8.4375V11.5625C10 13.4669 11.338 15 13 15C14.662 15 16 13.4669 16 11.5625V8.4375C16 6.53313 14.662 5 13 5ZM13 6.875C13.3324 6.875 13.6 7.15375 13.6 7.5V8.75C13.6 9.09625 13.3324 9.375 13 9.375C12.6676 9.375 12.4 9.09625 12.4 8.75V7.5C12.4 7.15375 12.6676 6.875 13 6.875Z" fill="#232323"/>
<path fill-rule="evenodd" clip-rule="evenodd" d="M0 4C0 2 2 2 2 2H13C13 2 15 2 15 4V4.53513C14.4117 4.19479 13.7286 4 13 4C12.9328 4 12.8659 4.00166 12.7995 4.00494C12.7833 4.00168 12.7667 4 12.75 4H11.25C11.1837 4 11.1201 4.02633 11.0732 4.07321C11.0263 4.1201 11 4.1837 11 4.25V4.53513C10.6236 4.75287 10.286 5.03018 10 5.35418V4.25C10 4.1837 9.97367 4.1201 9.92679 4.07321C9.8799 4.02633 9.8163 4 9.75 4H8.25C8.1837 4 8.1201 4.02633 8.07321 4.07321C8.02633 4.1201 8 4.1837 8 4.25V5.75C8 5.8163 8.02633 5.87989 8.07321 5.92677C8.1201 5.97366 8.1837 6 8.25 6H9.53513C9.35609 6.30951 9.21733 6.64523 9.12602 7H8.25C8.1837 7 8.1201 7.02633 8.07321 7.07321C8.02633 7.1201 8 7.1837 8 7.25V8.75C8 8.8163 8.02633 8.87989 8.07321 8.92677C8.1201 8.97366 8.1837 9 8.25 9H9V10H4.25C4.1837 10 4.1201 10.0263 4.07321 10.0732C4.02633 10.1201 4 10.1837 4 10.25V11.75C4 11.8163 4.02633 11.8799 4.07321 11.9268C4.1201 11.9737 4.1837 12 4.25 12H9C9 12.7286 9.19479 13.4117 9.53513 14H2C2 14 0 14 0 12V4ZM3.75 4H2.25C2.1837 4 2.1201 4.02633 2.07321 4.07321C2.02633 4.1201 2 4.1837 2 4.25V5.75C2 5.8163 2.02633 5.87989 2.07321 5.92677C2.1201 5.97366 2.1837 6 2.25 6H3.75C3.8163 6 3.8799 5.97366 3.92679 5.92677C3.97367 5.87989 4 5.8163 4 5.75V4.25C4 4.1837 3.97367 4.1201 3.92679 4.07321C3.8799 4.02633 3.8163 4 3.75 4ZM6.75 4H5.25C5.1837 4 5.1201 4.02633 5.07321 4.07321C5.02633 4.1201 5 4.1837 5 4.25V5.75C5 5.8163 5.02633 5.87989 5.07321 5.92677C5.1201 5.97366 5.1837 6 5.25 6H6.75C6.8163 6 6.8799 5.97366 6.92679 5.92677C6.97367 5.87989 7 5.8163 7 5.75V4.25C7 4.1837 6.97367 4.1201 6.92679 4.07321C6.8799 4.02633 6.8163 4 6.75 4ZM3.75 7H2.25C2.1837 7 2.1201 7.02633 2.07321 7.07321C2.02633 7.1201 2 7.1837 2 7.25V8.75C2 8.8163 2.02633 8.87989 2.07321 8.92677C2.1201 8.97366 2.1837 9 2.25 9H3.75C3.8163 9 3.8799 8.97366 3.92679 8.92677C3.97367 8.87989 4 8.8163 4 8.75V7.25C4 7.1837 3.97367 7.1201 3.92679 7.07321C3.8799 7.02633 3.8163 7 3.75 7ZM6.75 7H5.25C5.1837 7 5.1201 7.02633 5.07321 7.07321C5.02633 7.1201 5 7.1837 5 7.25V8.75C5 8.8163 5.02633 8.87989 5.07321 8.92677C5.1201 8.97366 5.1837 9 5.25 9H6.75C6.8163 9 6.8799 8.97366 6.92679 8.92677C6.97367 8.87989 7 8.8163 7 8.75V7.25C7 7.1837 6.97367 7.1201 6.92679 7.07321C6.8799 7.02633 6.8163 7 6.75 7Z" fill="#232323"/>
</svg>
