<svg width="17" height="17" viewBox="0 0 17 17" fill="none" xmlns="http://www.w3.org/2000/svg">
<g clip-path="url(#clip0_1527_4675)">
<path d="M0.0310059 16.053H16.031V0.0529785H0.0310059V16.053Z" fill="#808080" fill-opacity="0.01"/>
<path d="M5.00098 0.0529785V1.05298H4.00098C2.35598 1.05298 1.00098 2.40798 1.00098 4.05298V12.053C1.00098 13.698 2.35598 15.053 4.00098 15.053H5.00098V16.053H11.001V15.053H12.001C13.646 15.053 15.001 13.698 15.001 12.053V4.05298C15.001 2.40798 13.646 1.05298 12.001 1.05298H11.001V0.0529785H5.00098ZM4.00098 3.05298H12.001C12.572 3.05298 13.001 3.48198 13.001 4.05298V12.053C13.001 12.624 12.572 13.053 12.001 13.053H4.00098C3.42998 13.053 3.00098 12.624 3.00098 12.053V4.05298C3.00098 3.48198 3.42998 3.05298 4.00098 3.05298Z" fill="#232323"/>
<path d="M6.00098 4.05298V8.63098L10.501 11.229L11.501 9.49598L8.00098 7.47498V4.05298H6.00098Z" fill="#232323"/>
</g>
<defs>
<clipPath id="clip0_1527_4675">
<rect width="16" height="16" fill="white" transform="translate(0.0310059 0.0529785)"/>
</clipPath>
</defs>
</svg>
