<svg width="256" height="256" viewBox="0 0 256 256" fill="none" xmlns="http://www.w3.org/2000/svg">
<path d="M24 40C24 31.1634 31.1634 24 40 24H216C224.837 24 232 31.1634 232 40V216C232 224.837 224.837 232 216 232H40C31.1634 232 24 224.837 24 216V40Z" fill="url(#paint0_linear_2673_551)"/>
<path fill-rule="evenodd" clip-rule="evenodd" d="M192 73H122C114.268 73 108 79.5665 108 87.6667V124.333C108 132.434 114.268 139 122 139H168.115L179.5 155L190.885 139H192C199.732 139 206 132.434 206 124.333V87.6667C206 79.5665 199.732 73 192 73ZM162.035 114.359L164.142 122H171L160.517 89H152.532L142 122H148.711L150.818 114.359H162.035ZM156.402 93.8234L160.713 109.583H152.091L156.402 93.8234Z" fill="white"/>
<path fill-rule="evenodd" clip-rule="evenodd" d="M134 118H64C56.268 118 50 124.566 50 132.667V169.333C50 177.434 56.268 184 64 184H65.1154L76.5 200L87.8846 184H134C141.732 184 148 177.434 148 169.333V132.667C148 124.566 141.732 118 134 118ZM92.875 138.58C92.875 136.603 94.8897 135 97.375 135H99.625C102.11 135 104.125 136.603 104.125 138.58V139.475H118.188C119.741 139.475 121 140.476 121 141.712C121 142.948 119.741 143.949 118.188 143.949H112.678C112.675 143.975 112.67 144.001 112.663 144.027C112.318 145.433 110.648 150.001 102.868 156.151C109.179 160.309 114.224 162.163 117.591 162.986C119.284 163.399 120.315 165.455 119.155 166.519C118.811 166.835 118.323 167.028 117.799 166.997C115.523 166.863 108.627 165.875 98.6778 159.196C88.7287 165.875 81.8327 166.863 79.5565 166.997C79.0329 167.028 78.5443 166.835 78.2003 166.519C77.0407 165.455 78.0721 163.399 79.7643 162.986C83.1314 162.163 88.1768 160.309 94.4879 156.151C86.7081 150.001 85.0381 145.433 84.6922 144.027C84.6859 144.001 84.6811 143.975 84.6777 143.949H78.8125C77.2592 143.949 76 142.948 76 141.712C76 140.476 77.2592 139.475 78.8125 139.475H92.875V138.58ZM89.8758 143.986L89.8527 143.949H107.503L107.48 143.986C106.094 146.26 103.505 149.434 98.6778 153.165C93.8511 149.434 91.262 146.26 89.8758 143.986Z" fill="white"/>
<defs>
<linearGradient id="paint0_linear_2673_551" x1="24" y1="232" x2="232" y2="24" gradientUnits="userSpaceOnUse">
<stop stop-color="#726300"/>
<stop offset="1" stop-color="#938000"/>
</linearGradient>
</defs>
</svg>
