<svg width="17" height="17" viewBox="0 0 17 17" fill="none" xmlns="http://www.w3.org/2000/svg">
<g clip-path="url(#clip0_1527_4664)">
<path d="M0.0349121 3.03296V10.033H12.0549L0.0349121 3.03296ZM2.03491 6.08696L5.15091 8.06296H2.03491V6.08696Z" fill="#232323"/>
<path d="M0.0349121 0.0429688H16.0349V16.043H0.0349121V0.0429688Z" fill="#808080" fill-opacity="0.01"/>
<path d="M2.03491 0.0429688C0.0349121 0.0429688 0.0349121 2.04297 0.0349121 2.04297H14.0349V11.043L5.61691 11.027C5.58891 11.032 5.56391 11.043 5.53491 11.043H0.0349121C0.0349121 11.043 0.0349121 13.043 2.03491 13.043H14.0349C14.0349 13.043 16.0349 13.043 16.0349 11.043V2.04297C16.0349 2.04297 16.0349 0.0429688 14.0349 0.0429688H2.03491ZM4.01291 14.043C4.01291 14.043 3.03491 14.043 3.03491 15.043V16.039H13.0349V15.043C13.0349 14.043 12.0349 14.043 12.0349 14.043H4.01291Z" fill="#232323"/>
</g>
<defs>
<clipPath id="clip0_1527_4664">
<rect width="16" height="16" fill="white" transform="translate(0.0349121 0.0429688)"/>
</clipPath>
</defs>
</svg>
