<svg width="256" height="256" viewBox="0 0 256 256" fill="none" xmlns="http://www.w3.org/2000/svg">
<path d="M24 40C24 31.1634 31.1634 24 40 24H216C224.837 24 232 31.1634 232 40V216C232 224.837 224.837 232 216 232H40C31.1634 232 24 224.837 24 216V40Z" fill="url(#paint0_linear_2673_448)"/>
<path fill-rule="evenodd" clip-rule="evenodd" d="M206 124.133C206 159.285 182.147 188.798 149.928 197C158.538 186.084 163.684 172.246 163.684 157.191C163.684 135.147 152.649 115.713 135.863 104.236C136.582 104.727 137.291 105.232 137.989 105.753C138.844 103.401 141.236 100.432 143.162 98.0418C144.655 96.1884 145.867 94.6828 145.867 94.0812C145.867 92.5771 142.244 88.1557 136.588 82.0585C130.746 75.7617 122.86 69.2873 122.483 69.2873C122.175 69.2873 122.05 69.5691 121.926 69.8508C121.801 70.1326 121.677 70.4143 121.369 70.4143H115.43C113.706 70.4173 112.526 69.5706 111.345 68.7238C110.165 67.8801 108.986 67.0334 107.264 67.0334C104.294 67.0319 87.9621 71.917 84.9925 73.044C80.5735 74.7213 76.8263 77.2834 76.8264 82.0599C76.8264 84.3139 77.996 86.6897 80.1671 86.5679C80.8615 86.5283 81.1956 86.0088 81.5365 85.4776C81.906 84.9024 82.2834 84.3139 83.1366 84.3139C86.6376 84.3139 91.1292 88.659 92.2512 93.8801C79.6015 95.5677 68.136 101.047 59 109.155C65.86 74.8357 95.8299 49 131.762 49C172.763 49 206 82.6381 206 124.133ZM132.505 53.4962C125.426 53.3788 114.688 56.5104 114.688 56.8772C114.688 57.2455 124.71 64.0236 125.081 64.0148L125.799 64.0104H125.83C128.876 63.9928 139.946 63.9268 142.898 63.2635C144.383 62.8966 148.837 57.6403 148.837 56.8772C148.837 56.1376 139.014 53.6048 132.505 53.4962ZM199.319 105.353C196.72 103.096 184.471 99.339 182.244 99.342C180.759 99.3434 170.366 109.247 170.366 110.612V118.125C170.366 119.628 174.079 125.27 177.79 128.644C180.129 130.77 182.427 132.171 184.652 133.527C186.373 134.577 188.049 135.598 189.668 136.908C193.376 139.911 196.72 145.924 196.72 145.924C196.72 145.924 199.812 139.704 200.803 135.406C201.992 130.255 201.546 121.882 201.546 121.879C201.358 115.368 200.71 106.562 199.319 105.353ZM194.864 95.5809C194.864 95.5809 184.471 90.3216 183.357 90.3216C182.227 90.3216 180.684 91.723 179.482 92.8133C179.164 93.1024 178.87 93.3695 178.614 93.5823C178.249 93.8875 177.96 94.0827 177.79 94.0783C177.047 94.0577 174.078 93.3269 174.078 92.5756V74.5437C174.078 73.4945 175.562 71.5369 175.934 71.5384C176.305 71.5399 180.759 74.5437 184.471 79.0517C189.311 84.9302 194.864 95.5809 194.864 95.5809Z" fill="white"/>
<path fill-rule="evenodd" clip-rule="evenodd" d="M150 156.5C150 184.39 127.614 207 100 207C72.3858 207 50 184.39 50 156.5C50 128.61 72.3858 106 100 106C127.614 106 150 128.61 150 156.5ZM100 116C98.3431 116 97 117.343 97 119V153C96.6212 153.284 96.2841 153.621 95.9996 154H75C73.3431 154 72 155.343 72 157C72 158.657 73.3431 160 75 160H95.9996C96.9118 161.214 98.3642 162 100 162C102.761 162 105 159.761 105 157C105 155.364 104.214 153.912 103 153V119C103 117.343 101.657 116 100 116Z" fill="white"/>
<defs>
<linearGradient id="paint0_linear_2673_448" x1="24" y1="232" x2="232" y2="24" gradientUnits="userSpaceOnUse">
<stop stop-color="#48658B"/>
<stop offset="1" stop-color="#6582AA"/>
</linearGradient>
</defs>
</svg>
