<svg width="256" height="256" viewBox="0 0 256 256" fill="none" xmlns="http://www.w3.org/2000/svg">
<path d="M24 40C24 31.1634 31.1634 24 40 24H216C224.837 24 232 31.1634 232 40V216C232 224.837 224.837 232 216 232H40C31.1634 232 24 224.837 24 216V40Z" fill="url(#paint0_linear_2099_1415)"/>
<path d="M48 84C48 72.9543 56.9543 64 68 64H188C199.046 64 208 72.9543 208 84V172C208 183.046 199.046 192 188 192H68C56.9543 192 48 183.046 48 172V84Z" fill="#CABAB4"/>
<path d="M69 88C69 86.3431 70.3431 85 72 85H88C89.6569 85 91 86.3431 91 88V104C91 105.657 89.6569 107 88 107H72C70.3431 107 69 105.657 69 104V88Z" fill="white"/>
<path d="M69 120C69 118.343 70.3431 117 72 117H88C89.6569 117 91 118.343 91 120V136C91 137.657 89.6569 139 88 139H72C70.3431 139 69 137.657 69 136V120Z" fill="white"/>
<path d="M101 88C101 86.3431 102.343 85 104 85H120C121.657 85 123 86.3431 123 88V104C123 105.657 121.657 107 120 107H104C102.343 107 101 105.657 101 104V88Z" fill="white"/>
<path d="M101 120C101 118.343 102.343 117 104 117H120C121.657 117 123 118.343 123 120V136C123 137.657 121.657 139 120 139H104C102.343 139 101 137.657 101 136V120Z" fill="white"/>
<path d="M90 152C90 150.343 91.3431 149 93 149H163C164.657 149 166 150.343 166 152V168C166 169.657 164.657 171 163 171H93C91.3431 171 90 169.657 90 168V152Z" fill="white"/>
<path d="M133 88C133 86.3431 134.343 85 136 85H152C153.657 85 155 86.3431 155 88V104C155 105.657 153.657 107 152 107H136C134.343 107 133 105.657 133 104V88Z" fill="white"/>
<path d="M133 120C133 118.343 134.343 117 136 117H152C153.657 117 155 118.343 155 120V136C155 137.657 153.657 139 152 139H136C134.343 139 133 137.657 133 136V120Z" fill="white"/>
<path d="M165 88C165 86.3431 166.343 85 168 85H184C185.657 85 187 86.3431 187 88V104C187 105.657 185.657 107 184 107H168C166.343 107 165 105.657 165 104V88Z" fill="white"/>
<path d="M165 120C165 118.343 166.343 117 168 117H184C185.657 117 187 118.343 187 120V136C187 137.657 185.657 139 184 139H168C166.343 139 165 137.657 165 136V120Z" fill="white"/>
<path d="M155 88C155 86.3431 153.657 85 152 85V107C153.657 107 155 105.657 155 104V88Z" fill="#FCEAE4"/>
<path d="M155 120C155 118.343 153.657 117 152 117V139C153.657 139 155 137.657 155 136V120Z" fill="#FCEAE4"/>
<path d="M166 152C166 150.343 164.657 149 163 149V171C164.657 171 166 169.657 166 168V152Z" fill="#FCEAE4"/>
<path d="M123 88C123 86.3431 121.657 85 120 85V107C121.657 107 123 105.657 123 104V88Z" fill="#FCEAE4"/>
<path d="M123 120C123 118.343 121.657 117 120 117V139C121.657 139 123 137.657 123 136V120Z" fill="#FCEAE4"/>
<path d="M91 88C91 86.3431 89.6569 85 88 85V107C89.6569 107 91 105.657 91 104V88Z" fill="#FCEAE4"/>
<path d="M91 120C91 118.343 89.6569 117 88 117V139C89.6569 139 91 137.657 91 136V120Z" fill="#FCEAE4"/>
<path d="M187 120C187 118.343 185.657 117 184 117V139C185.657 139 187 137.657 187 136V120Z" fill="#FCEAE4"/>
<path d="M187 88C187 86.3431 185.657 85 184 85V107C185.657 107 187 105.657 187 104V88Z" fill="#FCEAE4"/>
<defs>
<linearGradient id="paint0_linear_2099_1415" x1="24" y1="232" x2="232" y2="24" gradientUnits="userSpaceOnUse">
<stop stop-color="#6E605A"/>
<stop offset="1" stop-color="#8C7C77"/>
</linearGradient>
</defs>
</svg>
