<svg width="256" height="256" viewBox="0 0 256 256" fill="none" xmlns="http://www.w3.org/2000/svg">
<path d="M24 40C24 31.1634 31.1634 24 40 24H216C224.837 24 232 31.1634 232 40V216C232 224.837 224.837 232 216 232H40C31.1634 232 24 224.837 24 216V40Z" fill="url(#paint0_linear_2800_448)"/>
<path d="M121.584 68.009C119.496 68.0723 117.479 68.7805 115.812 70.0353L80.375 97.7563H60.125C54.5157 97.7563 50 102.252 50 107.837V148.158C50 153.743 54.5157 158.238 60.125 158.238H80.375L115.812 185.959C120.875 189.921 131 188.479 131 178.399V77.5956C131 70.6704 126.221 67.8175 121.584 68.009Z" fill="white"/>
<path d="M141 103.25L160.636 97C170.455 117 170.455 137 160.636 157L141 150.75C150.818 130.75 150.818 123.25 141 103.25Z" fill="white"/>
<path opacity="0.35" d="M170 87.3799L190.571 78C211.143 108 211.143 148 190.571 178L170 168.63C190.571 138.63 190.571 117.38 170 87.3799Z" fill="white"/>
<defs>
<linearGradient id="paint0_linear_2800_448" x1="24" y1="232" x2="232" y2="24" gradientUnits="userSpaceOnUse">
<stop stop-color="#865900"/>
<stop offset="1" stop-color="#AC7300"/>
</linearGradient>
</defs>
</svg>
