<svg width="16" height="17" viewBox="0 0 16 17" fill="none" xmlns="http://www.w3.org/2000/svg">
<g clip-path="url(#clip0_1527_4669)">
<path d="M12.0001 0.0549927C11.2044 0.0549927 10.4413 0.371063 9.87873 0.933672C9.31612 1.49628 9.00005 2.25934 9.00005 3.05499C9.00005 3.28599 9.04405 3.49499 9.09405 3.71099L5.87405 5.71099C5.43267 5.35842 4.90071 5.13764 4.33939 5.07406C3.77807 5.01047 3.2102 5.10666 2.70114 5.35157C2.19207 5.59647 1.7625 5.98013 1.46186 6.45839C1.16121 6.93665 1.00171 7.49008 1.00171 8.05499C1.00171 8.6199 1.16121 9.17333 1.46186 9.6516C1.7625 10.1299 2.19207 10.5135 2.70114 10.7584C3.2102 11.0033 3.77807 11.0995 4.33939 11.0359C4.90071 10.9723 5.43267 10.7516 5.87405 10.399L9.09405 12.399C9.04405 12.615 9.00005 12.824 9.00005 13.055C9.00053 13.7348 9.23187 14.3942 9.65617 14.9254C10.0805 15.4565 10.6726 15.8277 11.3355 15.9783C11.9983 16.1289 12.6927 16.0499 13.3049 15.7543C13.917 15.4586 14.4105 14.9638 14.7047 14.3509C14.9988 13.7381 15.0761 13.0435 14.9238 12.381C14.7716 11.7185 14.3989 11.1273 13.8667 10.7043C13.3345 10.2814 12.6745 10.0517 11.9947 10.0529C11.3149 10.0541 10.6557 10.2861 10.1251 10.711L6.90605 8.71099C6.95605 8.49499 7.00005 8.28599 7.00005 8.05499C7.00005 7.82399 6.95605 7.61499 6.90605 7.39899L10.1251 5.39899C10.4994 5.69801 10.9399 5.90302 11.4097 5.99687C11.8796 6.09072 12.365 6.07068 12.8255 5.93842C13.286 5.80617 13.7081 5.56554 14.0566 5.23668C14.405 4.90783 14.6696 4.5003 14.8282 4.04821C14.9868 3.59612 15.0349 3.11262 14.9683 2.63816C14.9017 2.16369 14.7225 1.71208 14.4456 1.32109C14.1687 0.930111 13.8021 0.611136 13.3767 0.390861C12.9512 0.170586 12.4792 0.0554174 12.0001 0.0549927Z" fill="#232323"/>
<path d="M0 0.0549927H16V16.055H0V0.0549927Z" fill="#808080" fill-opacity="0.01"/>
</g>
<defs>
<clipPath id="clip0_1527_4669">
<rect width="16" height="16.003" fill="white" transform="translate(0 0.0529785)"/>
</clipPath>
</defs>
</svg>
