<svg width="256" height="256" viewBox="0 0 256 256" fill="none" xmlns="http://www.w3.org/2000/svg">
<path d="M24 40C24 31.1634 31.1634 24 40 24H216C224.837 24 232 31.1634 232 40V216C232 224.837 224.837 232 216 232H40C31.1634 232 24 224.837 24 216V40Z" fill="url(#paint0_linear_2077_655)"/>
<path d="M40 73.8411C40 71.7197 41.6492 70 43.6836 70H212.316C214.351 70 216 71.7197 216 73.8411V162.159C216 164.28 214.351 166 212.316 166H43.6836C41.6492 166 40 164.28 40 162.159V73.8411Z" fill="#88F1FF"/>
<path d="M44 166H212.316C214.35 166 215.999 164.28 215.999 162.159V73.8411C215.999 71.7197 214.35 70 212.316 70H195.271C195.271 70 184.5 93 158.5 113.5C106.193 154.742 44 166 44 166Z" fill="#63D0DF"/>
<path fill-rule="evenodd" clip-rule="evenodd" d="M43.6836 70C41.6492 70 40 71.7197 40 73.8411V162.159C40 164.28 41.6492 166 43.6836 166H212.316C214.351 166 216 164.28 216 162.159V73.8411C216 71.7197 214.351 70 212.316 70H43.6836ZM45 74C44.5394 74 44 74.5199 44 75V161C44 161.48 44.5392 162 45 162H211C211.461 162 212 161.48 212 161V75C212 74.52 211.461 73.9999 211 74H45Z" fill="white"/>
<path d="M71 186C71 181.582 73.6863 178 77 178H178C181.314 178 184 181.582 184 186H71Z" fill="white"/>
<path d="M110 168H145V176H110V168Z" fill="white"/>
<defs>
<linearGradient id="paint0_linear_2077_655" x1="24" y1="232" x2="232" y2="24" gradientUnits="userSpaceOnUse">
<stop stop-color="#6582AA"/>
<stop offset="1" stop-color="#82A1CA"/>
</linearGradient>
</defs>
</svg>
