<svg width="17" height="17" viewBox="0 0 17 17" fill="none" xmlns="http://www.w3.org/2000/svg">
<g clip-path="url(#clip0_1527_4672)">
<path d="M0.0300293 0.0529785H16.03V16.053H0.0300293V0.0529785Z" fill="#808080" fill-opacity="0.01"/>
<path d="M7.23995 2.05298C7.73568 2.79258 8.00087 3.66261 8.00195 4.55298C8.00195 5.74645 7.52785 6.89105 6.68393 7.73496C5.84002 8.57887 4.69543 9.05298 3.50195 9.05298C2.61179 9.05249 1.74178 8.788 1.00195 8.29298V9.05298C1.00195 10.161 1.89395 11.053 3.00195 11.053H13.002C14.11 11.053 15.002 10.161 15.002 9.05298V4.05298C15.002 2.94498 14.11 2.05298 13.002 2.05298H7.23995Z" fill="#232323"/>
<path d="M12 11.053L10 13.053L8 11.053H12Z" fill="#232323"/>
<path d="M3.5 1.05298C2.57174 1.05298 1.6815 1.42173 1.02513 2.0781C0.368749 2.73448 0 3.62472 0 4.55298C0 5.48124 0.368749 6.37147 1.02513 7.02785C1.6815 7.68423 2.57174 8.05298 3.5 8.05298C4.42826 8.05298 5.3185 7.68423 5.97487 7.02785C6.63125 6.37147 7 5.48124 7 4.55298C7 3.62472 6.63125 2.73448 5.97487 2.0781C5.3185 1.42173 4.42826 1.05298 3.5 1.05298ZM3 2.05298H4V5.05298H3V2.05298ZM3 6.05298H4V7.05298H3V6.05298Z" fill="#232323"/>
</g>
<defs>
<clipPath id="clip0_1527_4672">
<rect width="16.031" height="16" fill="white" transform="translate(0 0.0529785)"/>
</clipPath>
</defs>
</svg>
