<svg width="256" height="256" viewBox="0 0 256 256" fill="none" xmlns="http://www.w3.org/2000/svg">
<path d="M24 40C24 31.1634 31.1634 24 40 24H216C224.837 24 232 31.1634 232 40V216C232 224.837 224.837 232 216 232H40C31.1634 232 24 224.837 24 216V40Z" fill="url(#paint0_linear_2796_441)"/>
<path d="M66.75 64C56.3947 64 48 72.3947 48 82.75V165.25C48 175.605 56.3947 184 66.75 184H143.949C140.177 177.896 138 170.702 138 163V123C138 100.909 155.909 83 178 83C185.286 83 192.117 84.9479 198 88.3513V82.75C198 72.3947 189.605 64 179.25 64H66.75Z" fill="#CABAB4"/>
<path d="M68 85.7273C68 84.221 69.221 83 70.7273 83H85.2727C86.779 83 88 84.221 88 85.7273V100.273C88 101.779 86.779 103 85.2727 103H70.7273C69.221 103 68 101.779 68 100.273V85.7273Z" fill="white"/>
<path d="M68 115.727C68 114.221 69.221 113 70.7273 113H85.2727C86.779 113 88 114.221 88 115.727V130.273C88 131.779 86.779 133 85.2727 133H70.7273C69.221 133 68 131.779 68 130.273V115.727Z" fill="white"/>
<path d="M100.727 83C99.221 83 98 84.221 98 85.7273V100.273C98 101.779 99.221 103 100.727 103H115.273C116.779 103 118 101.779 118 100.273V85.7273C118 84.221 116.779 83 115.273 83H100.727Z" fill="white"/>
<path d="M98 115.727C98 114.221 99.221 113 100.727 113H115.273C116.779 113 118 114.221 118 115.727V130.273C118 131.779 116.779 133 115.273 133H100.727C99.221 133 98 131.779 98 130.273V115.727Z" fill="white"/>
<path d="M87.9605 143C86.3255 143 85 144.282 85 145.864V161.136C85 162.718 86.3255 164 87.9605 164H138.012C138.004 163.668 138 163.334 138 163V143H87.9605Z" fill="white"/>
<path d="M139.26 113C138.438 116.196 138 119.547 138 123V133H129.727C128.221 133 127 131.779 127 130.273V115.727C127 114.221 128.221 113 129.727 113H139.26Z" fill="white"/>
<path d="M147 97.7196C145.649 99.3747 144.427 101.14 143.351 103H129.727C128.221 103 127 101.779 127 100.273V85.7273C127 84.221 128.221 83 129.727 83H144.273C145.779 83 147 84.221 147 85.7273V97.7196Z" fill="white"/>
<path d="M175.036 83.1082C168.453 83.5903 162.314 85.6654 157 88.9494V85.7273C157 84.221 158.221 83 159.727 83H174.273C174.538 83 174.794 83.0378 175.036 83.1082Z" fill="white"/>
<path d="M85 83C86.6569 83 88 84.221 88 85.7273V100.273C88 101.779 86.6569 103 85 103V83Z" fill="#FCEAE4"/>
<path d="M115 83C116.657 83 118 84.221 118 85.7273V100.273C118 101.779 116.657 103 115 103V83Z" fill="#FCEAE4"/>
<path d="M144 83C145.657 83 147 84.221 147 85.7273V97.7196C145.913 99.0506 144.911 100.453 144 101.918V83Z" fill="#FCEAE4"/>
<path d="M118 115.727C118 114.221 116.657 113 115 113V133C116.657 133 118 131.779 118 130.273V115.727Z" fill="#FCEAE4"/>
<path d="M88 115.727C88 114.221 86.6569 113 85 113V133C86.6569 133 88 131.779 88 130.273V115.727Z" fill="#FCEAE4"/>
<path d="M178 93C161.38 93 148 108.331 148 127.375V158.625C148 177.669 161.38 193 178 193C194.62 193 208 177.669 208 158.625V127.375C208 108.331 194.62 93 178 93ZM178 112C181.324 112 184 114.538 184 118V131C184 134.463 181.324 137 178 137C174.676 137 172 134.463 172 131V118C172 114.538 174.676 112 178 112Z" fill="white"/>
<defs>
<linearGradient id="paint0_linear_2796_441" x1="24" y1="232" x2="232" y2="24" gradientUnits="userSpaceOnUse">
<stop stop-color="#6E605A"/>
<stop offset="1" stop-color="#8C7C77"/>
</linearGradient>
</defs>
</svg>
