<svg width="16" height="16" viewBox="0 0 16 16" fill="none" xmlns="http://www.w3.org/2000/svg">
<path d="M2 2.0033C0.000409961 2.0033 0 4.0033 0 4.0033V13.0033C0 13.0033 0 15.0033 2 15.0033H14C14 15.0033 15.9995 15.0033 16 13.0033V4.0033C16 4.0033 16.0004 2.0033 14 2.0033H2ZM2 4.0033H14V13.0033L2 12.9793V4.0033Z" fill="#232323"/>
<path d="M14 4H8V10H12C12.5523 10 13 10.4477 13 11C13 11.5523 12.5523 12 12 12H8V13H14V4Z" fill="#232323"/>
<path d="M3 11C3 10.4477 3.44772 10 4 10H8V12H4C3.44772 12 3 11.5523 3 11Z" fill="#232323"/>
</svg>
