<svg width="17" height="17" viewBox="0 0 17 17" fill="none" xmlns="http://www.w3.org/2000/svg">
<g clip-path="url(#clip0_1527_4676)">
<path d="M0.0310059 16.053H16.031V0.0529785H0.0310059V16.053Z" fill="#808080" fill-opacity="0.01"/>
<path d="M4.03101 16.053C2.03101 16.053 2.03101 14.053 2.03101 14.053V3.05298C2.03101 1.05298 3.92401 1.05698 4.03101 1.05298H12.031C12.031 1.05298 14.031 1.05698 14.031 3.05298V14.053C14.031 16.053 12.031 16.053 12.031 16.053H4.03101ZM11.031 15.303C11.3625 15.303 11.6805 15.1713 11.9149 14.9369C12.1493 14.7024 12.281 14.3845 12.281 14.053C12.281 13.7215 12.1493 13.4035 11.9149 13.1691C11.6805 12.9347 11.3625 12.803 11.031 12.803C10.6995 12.803 10.3815 12.9347 10.1471 13.1691C9.9127 13.4035 9.78101 13.7215 9.78101 14.053C9.78101 14.3845 9.9127 14.7024 10.1471 14.9369C10.3815 15.1713 10.6995 15.303 11.031 15.303ZM8.03101 11.053C9.09187 11.053 10.1093 10.6316 10.8594 9.88141C11.6096 9.13126 12.031 8.11384 12.031 7.05298C12.031 5.99211 11.6096 4.9747 10.8594 4.22455C10.1093 3.47441 9.09187 3.05298 8.03101 3.05298C6.97014 3.05298 5.95272 3.47441 5.20258 4.22455C4.45243 4.9747 4.03101 5.99211 4.03101 7.05298C4.03101 8.11384 4.45243 9.13126 5.20258 9.88141C5.95272 10.6316 6.97014 11.053 8.03101 11.053ZM8.03101 9.05298C7.50057 9.05298 6.99187 8.84226 6.61679 8.46719C6.24172 8.09212 6.03101 7.58341 6.03101 7.05298C6.03101 6.52255 6.24172 6.01384 6.61679 5.63876C6.99187 5.26369 7.50057 5.05298 8.03101 5.05298C8.56144 5.05298 9.07015 5.26369 9.44522 5.63876C9.82029 6.01384 10.031 6.52255 10.031 7.05298C10.031 7.58341 9.82029 8.09212 9.44522 8.46719C9.07015 8.84226 8.56144 9.05298 8.03101 9.05298Z" fill="#232323"/>
</g>
<defs>
<clipPath id="clip0_1527_4676">
<rect width="16" height="16.004" fill="white" transform="translate(0.0310059 0.0529785)"/>
</clipPath>
</defs>
</svg>
