<svg width="17" height="17" viewBox="0 0 17 17" fill="none" xmlns="http://www.w3.org/2000/svg">
<g clip-path="url(#clip0_1527_4677)">
<path d="M9.03101 1.05597V6.05597H10.031V10.056L13.031 5.05597H12.031L13.531 1.05597H9.03101ZM5.03101 2.05597V3.05597H7.03101V4.05597H5.53101L3.03101 6.55597V8.05597H2.03101V6.05597H1.03101V12.056H2.03101V10.056H3.03101V11.056C3.03101 12.056 4.03101 12.056 4.03101 12.056H6.03101L7.03101 13.056H12.031C12.031 13.056 13.031 13.056 13.031 12.056V10.056H14.031V12.056H16.031V5.05597H14.031V7.05597H13.031V6.99897L11.031 10.331V11.056H8.03101L7.03101 10.056H5.03101V7.55597L6.53101 6.05597H8.03101V2.05597H5.03101Z" fill="#232323"/>
<path d="M0.0310059 0.0529785H16.031V16.053H0.0310059V0.0529785Z" fill="#808080" fill-opacity="0.01"/>
</g>
<defs>
<clipPath id="clip0_1527_4677">
<rect width="16" height="16" fill="white" transform="translate(0.0310059 0.0529785)"/>
</clipPath>
</defs>
</svg>
