<svg width="17" height="17" viewBox="0 0 17 17" fill="none" xmlns="http://www.w3.org/2000/svg">
<g clip-path="url(#clip0_1527_4678)">
<path d="M0.0310059 0.0529785H16.031V16.053H0.0310059V0.0529785Z" fill="#808080" fill-opacity="0.01"/>
<path d="M3.03101 2.05597C2.50057 2.05597 1.99183 2.26668 1.61676 2.64175C1.24169 3.01683 1.03101 3.52554 1.03101 4.05597V13.056C1.03101 13.5864 1.24169 14.0951 1.61676 14.4702C1.99183 14.8453 2.50057 15.056 3.03101 15.056H13.031C13.5614 15.056 14.0701 14.8453 14.4452 14.4702C14.8203 14.0951 15.031 13.5864 15.031 13.056V6.05597C15.031 5.52554 14.8203 5.01683 14.4452 4.64175C14.0701 4.26668 13.5614 4.05597 13.031 4.05597H9.03101L7.03101 2.05597H3.03101ZM10.656 7.97997C11.392 7.97997 10.856 9.60796 11.451 10.04C12.046 10.473 13.429 9.45997 13.656 10.16C13.883 10.86 12.169 10.852 11.941 11.552C11.714 12.252 13.1049 13.254 12.5099 13.687C11.9139 14.119 11.392 12.486 10.656 12.486C9.92001 12.486 9.39798 14.119 8.80298 13.686C8.20698 13.254 9.59897 12.252 9.37097 11.552C9.14297 10.852 7.42901 10.86 7.65601 10.16C7.88401 9.45997 9.26596 10.473 9.86096 10.04C10.457 9.60796 9.92001 7.97997 10.656 7.97997Z" fill="#232323"/>
</g>
<defs>
<clipPath id="clip0_1527_4678">
<rect width="16" height="16" fill="white" transform="translate(0.0310059 0.0529785)"/>
</clipPath>
</defs>
</svg>
