<svg width="16" height="17" viewBox="0 0 16 17" fill="none" xmlns="http://www.w3.org/2000/svg">
<g clip-path="url(#clip0_1527_4682)">
<path d="M0 0.0568848H16V16.0569H0V0.0568848Z" fill="#808080" fill-opacity="0.01"/>
<path d="M11 4.0069C10.612 4.0069 10.247 4.09687 9.91599 4.24487C10.0518 4.89519 10.0224 5.56919 9.83017 6.20514C9.63799 6.84109 9.28928 7.41865 8.81601 7.88489C9.05344 8.24708 9.37755 8.54426 9.75894 8.74945C10.1403 8.95464 10.5669 9.06133 11 9.05988C12.433 9.05988 13.594 7.92987 13.594 6.53387C13.594 5.13787 12.433 4.0069 11 4.0069ZM11 10.0599C10.804 10.0599 10.628 10.0719 10.447 10.0809C11.145 10.4809 11.677 10.9579 12.051 11.4579C12.993 12.7149 13 14.0599 13 14.0599H16V13.0599C16 13.0599 16 10.0599 11 10.0599ZM7.09799 11.1099C6.00799 11.9759 6 13.0599 6 13.0599V14.0599H11C11 14.0599 11.007 13.4019 10.45 12.6569C9.97201 12.0199 9.07899 11.3049 7.09799 11.1109V11.1099Z" fill="#232323"/>
<path d="M6 2.05688C6.79565 2.05688 7.5587 2.37297 8.12131 2.93558C8.68392 3.49819 9 4.26124 9 5.05688C9 5.85253 8.68392 6.61561 8.12131 7.17822C7.5587 7.74083 6.79565 8.05688 6 8.05688C5.20435 8.05688 4.4413 7.74083 3.87869 7.17822C3.31608 6.61561 3 5.85253 3 5.05688C3 4.26124 3.31608 3.49819 3.87869 2.93558C4.4413 2.37297 5.20435 2.05688 6 2.05688ZM6 10.0569C12 10.0539 12 14.0599 12 14.0599V15.0599H0V14.0599C0 14.0599 0 10.0599 6 10.0569Z" fill="#232323"/>
</g>
<defs>
<clipPath id="clip0_1527_4682">
<rect width="16" height="16" fill="white" transform="translate(0 0.0568848)"/>
</clipPath>
</defs>
</svg>
