<svg width="16" height="17" viewBox="0 0 16 17" fill="none" xmlns="http://www.w3.org/2000/svg">
<g clip-path="url(#clip0_1527_4683)">
<path d="M0 0.0568848H16V16.0569H0V0.0568848Z" fill="#808080" fill-opacity="0.01"/>
<path d="M8.87997 8.05691C8.76461 8.05529 8.65011 8.07682 8.54322 8.12022C8.43633 8.16362 8.33922 8.22802 8.25765 8.30959C8.17607 8.39117 8.11168 8.48827 8.06828 8.59516C8.02488 8.70205 8.00335 8.81655 8.00497 8.93191V15.1819C8.00497 15.6739 8.38797 16.0569 8.87997 16.0569H15.13C15.2453 16.0585 15.3598 16.037 15.4667 15.9936C15.5736 15.9502 15.6707 15.8858 15.7523 15.8042C15.8339 15.7227 15.8983 15.6255 15.9417 15.5187C15.9851 15.4118 16.0066 15.2973 16.005 15.1819V8.93191C16.0066 8.81655 15.9851 8.70205 15.9417 8.59516C15.8983 8.48827 15.8339 8.39117 15.7523 8.30959C15.6707 8.22802 15.5736 8.16362 15.4667 8.12022C15.3598 8.07682 15.2453 8.05529 15.13 8.05691H8.87997ZM11.005 9.05691H13.005V10.0569H11.005V9.05691ZM11.005 11.0569H13.005V15.0569H11.005V11.0569Z" fill="#232323"/>
<path d="M8 2.05686C7.26538 2.05337 6.55511 2.32008 6.00436 2.80625C5.45362 3.29241 5.10087 3.96408 5.01318 4.69345C4.9255 5.42283 5.10901 6.15897 5.52884 6.76181C5.94866 7.36466 6.57549 7.79215 7.29001 7.96286C7.62501 7.42786 8.217 7.05686 8.875 7.05686H10.221C10.7202 6.51019 10.998 5.79718 11 5.05686C11 4.26121 10.6839 3.49813 10.1213 2.93552C9.5587 2.37291 8.79565 2.05686 8 2.05686ZM7 10.0999C2.003 10.5219 2 14.0598 2 14.0598V15.0598H7V10.0999ZM9 10.0999V15.0569H10V10.2329C9.66927 10.1708 9.33546 10.1264 9 10.0999Z" fill="#232323"/>
</g>
<defs>
<clipPath id="clip0_1527_4683">
<rect width="16" height="16" fill="white" transform="translate(0 0.0568848)"/>
</clipPath>
</defs>
</svg>
