<svg width="16" height="17" viewBox="0 0 16 17" fill="none" xmlns="http://www.w3.org/2000/svg">
<g clip-path="url(#clip0_1527_4686)">
<path d="M2 0.0609131C2 0.0609131 0 0.0569131 0 2.06091V14.0609C0 16.0569 2 16.0609 2 16.0609H14C14.095 16.0569 16 16.0569 16 14.0609V2.06091C16 2.06091 16 0.0609131 14 0.0609131H2ZM4.906 3.06091H11.094C12.15 3.06091 13 3.91091 13 4.96691V5.15391C13 6.20991 12.15 7.06091 11.094 7.06091H4.906C4.65547 7.06144 4.4073 7.01247 4.17575 6.91681C3.9442 6.82115 3.73383 6.68068 3.55672 6.50348C3.37962 6.32628 3.23926 6.11584 3.14372 5.88424C3.04818 5.65264 2.99934 5.40445 3 5.15391V4.96691C3 3.91091 3.85 3.06091 4.906 3.06091ZM5 4.06091C4.73478 4.06091 4.48043 4.16627 4.29289 4.35381C4.10536 4.54134 4 4.7957 4 5.06091C4 5.32613 4.10536 5.58048 4.29289 5.76802C4.48043 5.95556 4.73478 6.06091 5 6.06091C5.26522 6.06091 5.51957 5.95556 5.70711 5.76802C5.89464 5.58048 6 5.32613 6 5.06091C6 4.7957 5.89464 4.54134 5.70711 4.35381C5.51957 4.16627 5.26522 4.06091 5 4.06091ZM4.943 9.06091H11.057C11.3123 9.06052 11.5651 9.11051 11.801 9.20801C12.0369 9.30552 12.2513 9.44862 12.4318 9.62912C12.6123 9.80963 12.7554 10.024 12.8529 10.2599C12.9504 10.4958 13.0004 10.7486 13 11.0039V11.1169C13.0005 11.3723 12.9506 11.6252 12.8532 11.8612C12.7557 12.0973 12.6127 12.3117 12.4321 12.4923C12.2516 12.673 12.0372 12.8162 11.8013 12.9137C11.5653 13.0113 11.3124 13.0613 11.057 13.0609H4.943C4.68765 13.0613 4.43473 13.0113 4.19875 12.9137C3.96277 12.8162 3.74837 12.673 3.56786 12.4923C3.38734 12.3117 3.24426 12.0973 3.14681 11.8612C3.04936 11.6252 2.99947 11.3723 3 11.1169V11.0039C2.9996 10.7486 3.04959 10.4958 3.1471 10.2599C3.2446 10.024 3.38771 9.80963 3.56821 9.62912C3.74871 9.44862 3.96306 9.30552 4.19898 9.20801C4.43489 9.11051 4.68773 9.06052 4.943 9.06091ZM11 10.0609C10.7348 10.0609 10.4804 10.1663 10.2929 10.3538C10.1054 10.5413 10 10.7957 10 11.0609C10 11.3261 10.1054 11.5805 10.2929 11.768C10.4804 11.9556 10.7348 12.0609 11 12.0609C11.2652 12.0609 11.5196 11.9556 11.7071 11.768C11.8946 11.5805 12 11.3261 12 11.0609C12 10.7957 11.8946 10.5413 11.7071 10.3538C11.5196 10.1663 11.2652 10.0609 11 10.0609Z" fill="#232323"/>
<path d="M0 0.0568848H16V16.0569H0V0.0568848Z" fill="#808080" fill-opacity="0.01"/>
</g>
<defs>
<clipPath id="clip0_1527_4686">
<rect width="16" height="16.003" fill="white" transform="translate(0 0.0568848)"/>
</clipPath>
</defs>
</svg>
