<svg width="17" height="17" viewBox="0 0 17 17" fill="none" xmlns="http://www.w3.org/2000/svg">
<g clip-path="url(#clip0_1527_4688)">
<path d="M0.0300293 0.0588989H16.03V16.0589H0.0300293V0.0588989Z" fill="#808080" fill-opacity="0.012"/>
<path d="M8 15.0589C11.866 15.0589 15 11.9249 15 8.0589C15 4.19291 11.866 1.0589 8 1.0589C4.13401 1.0589 1 4.19291 1 8.0589C1 11.9249 4.13401 15.0589 8 15.0589Z" stroke="#232323" stroke-width="2" stroke-linecap="square"/>
<path opacity="0.35" d="M13.5 5.0589H2.5C2.22386 5.0589 2 5.28276 2 5.5589C2 5.83504 2.22386 6.0589 2.5 6.0589H13.5C13.7761 6.0589 14 5.83504 14 5.5589C14 5.28276 13.7761 5.0589 13.5 5.0589Z" fill="#232323"/>
<path opacity="0.35" d="M13.5 10.0589H2.5C2.22386 10.0589 2 10.2828 2 10.5589C2 10.835 2.22386 11.0589 2.5 11.0589H13.5C13.7761 11.0589 14 10.835 14 10.5589C14 10.2828 13.7761 10.0589 13.5 10.0589Z" fill="#232323"/>
<path opacity="0.35" d="M8 14.5589C9.933 14.5589 11.5 11.6488 11.5 8.0589C11.5 4.46905 9.933 1.5589 8 1.5589C6.067 1.5589 4.5 4.46905 4.5 8.0589C4.5 11.6488 6.067 14.5589 8 14.5589Z" stroke="#232323" stroke-linecap="square"/>
<path opacity="0.35" d="M8.5 1.0589H7.5C7.22386 1.0589 7 1.28276 7 1.5589V14.5589C7 14.835 7.22386 15.0589 7.5 15.0589H8.5C8.77614 15.0589 9 14.835 9 14.5589V1.5589C9 1.28276 8.77614 1.0589 8.5 1.0589Z" fill="#232323"/>
</g>
<defs>
<clipPath id="clip0_1527_4688">
<rect width="16.032" height="16.003" fill="white" transform="translate(0 0.0568848)"/>
</clipPath>
</defs>
</svg>
