<svg width="16" height="16" viewBox="0 0 16 16" fill="none" xmlns="http://www.w3.org/2000/svg">
<path d="M7.88 0.999996C6.48736 1.02937 5.13524 1.47404 3.997 2.27699C3.24443 2.80201 2.60288 3.47045 2.10919 4.24394C1.61549 5.01743 1.27932 5.88076 1.11999 6.78443C0.960658 7.68811 0.981319 8.61436 1.18072 9.51005C1.38012 10.4057 1.75434 11.2532 2.28198 12.004C2.80682 12.7565 3.47509 13.398 4.24841 13.8917C5.02172 14.3853 5.88487 14.7215 6.78838 14.8808C7.6919 15.0401 8.61801 15.0195 9.51354 14.8202C10.4091 14.6208 11.2564 14.2466 12.007 13.719C13.0868 12.966 13.9313 11.9227 14.4427 10.7097C14.9542 9.49677 15.1117 8.16377 14.897 6.865C14.7961 6.27779 14.619 5.70627 14.37 5.16499L8.01898 12.422L7.33099 13.234L6.54998 12.484L3.54998 9.48399C3.17398 9.10799 3.17398 8.42399 3.54998 8.04699C3.92598 7.67099 4.61099 7.67099 4.98699 8.04699L7.23699 10.297L13.261 3.404C12.5953 2.63308 11.7682 2.01807 10.8383 1.60261C9.90831 1.18715 8.89836 0.981416 7.88 0.999996Z" fill="#232323"/>
</svg>
