<svg width="16" height="16" viewBox="0 0 16 16" fill="none" xmlns="http://www.w3.org/2000/svg">
<g clip-path="url(#clip0_1527_5085)">
<path d="M6.89997 1.01001C6.38766 1.0334 5.90403 1.25319 5.54949 1.62375C5.19495 1.9943 4.99672 2.48716 4.99597 3.00001V3.01001H8.40197L12.996 7.60401V8.01001C12.999 9.28301 12.994 11.02 12.996 12.448V13C13.5264 13 14.0351 12.7893 14.4102 12.4142C14.7853 12.0392 14.996 11.5304 14.996 11V6.00001C14.9958 5.48701 14.7986 4.99368 14.445 4.62201L11.476 1.65201C11.1047 1.27468 10.6081 1.04631 10.08 1.01001H6.89997Z" fill="#232323"/>
<path d="M0 0H16V16H0V0Z" fill="#808080" fill-opacity="0.00"/>
<path d="M4 4C3.46957 4 2.96086 4.21071 2.58579 4.58579C2.21071 4.96086 2 5.46957 2 6V14C2 14.5304 2.21071 15.0391 2.58579 15.4142C2.96086 15.7893 3.46957 16 4 16H10C10.5304 16 11.0391 15.7893 11.4142 15.4142C11.7893 15.0391 12 14.5304 12 14V9C12.0004 8.48679 11.8035 7.99308 11.45 7.621L8.48 4.652C8.104 4.265 7.54 4 7 4H4Z" fill="#232323"/>
</g>
<defs>
<clipPath id="clip0_1527_5085">
<rect width="16" height="16" fill="white"/>
</clipPath>
</defs>
</svg>
