<svg width="16" height="16" viewBox="0 0 16 16" fill="none" xmlns="http://www.w3.org/2000/svg">
<g clip-path="url(#clip0_1527_5090)">
<path d="M8 0.97998C6.14348 0.97998 4.36301 1.71748 3.05025 3.03023C1.7375 4.34299 1 6.12347 1 7.97998C1 9.8365 1.7375 11.617 3.05025 12.9297C4.36301 14.2425 6.14348 14.98 8 14.98C9.85652 14.98 11.637 14.2425 12.9497 12.9297C14.2625 11.617 15 9.8365 15 7.97998C15 6.12347 14.2625 4.34299 12.9497 3.03023C11.637 1.71748 9.85652 0.97998 8 0.97998ZM7 3.97998H9V6.97998L8.75 8.97998H7.281L7 6.97998V3.97998ZM8 9.72998C8.33152 9.72998 8.64946 9.86168 8.88388 10.0961C9.1183 10.3305 9.25 10.6485 9.25 10.98C9.25 11.3115 9.1183 11.6294 8.88388 11.8639C8.64946 12.0983 8.33152 12.23 8 12.23C7.66848 12.23 7.35054 12.0983 7.11612 11.8639C6.8817 11.6294 6.75 11.3115 6.75 10.98C6.75 10.6485 6.8817 10.3305 7.11612 10.0961C7.35054 9.86168 7.66848 9.72998 8 9.72998Z" fill="#232323"/>
<path d="M0 -0.0200195H16V15.98H0V-0.0200195Z" fill="#808080" fill-opacity="0.00"/>
</g>
<defs>
<clipPath id="clip0_1527_5090">
<rect width="16" height="16" fill="white"/>
</clipPath>
</defs>
</svg>
