<svg width="16" height="16" viewBox="0 0 16 16" fill="none" xmlns="http://www.w3.org/2000/svg">
<path d="M12 0C11.2043 0 10.4413 0.31607 9.87867 0.87868C9.31606 1.44129 8.99999 2.20435 8.99999 3C8.99999 3.231 9.04399 3.44 9.09399 3.656L5.87399 5.656C5.43261 5.30343 4.90065 5.08265 4.33933 5.01906C3.77801 4.95548 3.21014 5.05167 2.70108 5.29657C2.19201 5.54148 1.76244 5.92513 1.46179 6.4034C1.16115 6.88166 1.00165 7.43509 1.00165 8C1.00165 8.56491 1.16115 9.11834 1.46179 9.5966C1.76244 10.0749 2.19201 10.4585 2.70108 10.7034C3.21014 10.9483 3.77801 11.0445 4.33933 10.9809C4.90065 10.9173 5.43261 10.6966 5.87399 10.344L9.09399 12.344C9.04399 12.56 8.99999 12.769 8.99999 13C9.00047 13.6798 9.23181 14.3393 9.65611 14.8704C10.0804 15.4015 10.6725 15.7727 11.3354 15.9233C11.9983 16.0739 12.6927 15.9949 13.3048 15.6993C13.9169 15.4036 14.4105 14.9088 14.7046 14.296C14.9988 13.6831 15.076 12.9885 14.9238 12.326C14.7715 11.6635 14.3988 11.0723 13.8666 10.6493C13.3345 10.2264 12.6744 9.99667 11.9946 9.99788C11.3149 9.99909 10.6556 10.2311 10.125 10.656L6.90599 8.656C6.95599 8.44 6.99999 8.231 6.99999 8C6.99999 7.769 6.95599 7.56 6.90599 7.344L10.125 5.344C10.4993 5.64302 10.9399 5.84803 11.4097 5.94188C11.8795 6.03573 12.365 6.01569 12.8255 5.88343C13.286 5.75117 13.7081 5.51055 14.0565 5.18169C14.4049 4.85283 14.6695 4.44531 14.8281 3.99322C14.9868 3.54113 15.0348 3.05762 14.9682 2.58316C14.9017 2.1087 14.7224 1.65708 14.4455 1.2661C14.1686 0.875118 13.8021 0.556144 13.3766 0.335868C12.9511 0.115593 12.4791 0.000424751 12 0V0Z" fill="#232323"/>
<path d="M0 0H16V16H0V0Z" fill="#808080" fill-opacity="0.00"/>
</svg>
