<svg width="16" height="16" viewBox="0 0 16 16" fill="none" xmlns="http://www.w3.org/2000/svg">
<g clip-path="url(#clip0_511_3570)">
<path d="M0.000976562 0H16.002V16.001H0.000976562V0Z" fill="#808080" fill-opacity="0.00"/>
<path d="M8.00098 0C6.33898 0 5.00098 1.338 5.00098 3V8C5.00098 9.662 6.33898 11 8.00098 11C9.66298 11 11.001 9.662 11.001 8V3C11.001 1.338 9.66298 0 8.00098 0ZM3.00098 6.998C2.73576 6.998 2.48139 7.10336 2.29385 7.29089C2.10632 7.47843 2.00098 7.73278 2.00098 7.998C2.00098 7.99867 2.00098 7.99933 2.00098 8V8.004C2.00119 8.03137 2.00252 8.05873 2.00497 8.086C2.02534 9.48731 2.53641 10.8371 3.44925 11.9005C4.36209 12.9639 5.61892 13.6736 7.00098 13.906V14.998C7.00098 15.2632 7.10632 15.5176 7.29385 15.7051C7.48139 15.8926 7.73576 15.998 8.00098 15.998C8.26619 15.998 8.52053 15.8926 8.70807 15.7051C8.89561 15.5176 9.00098 15.2632 9.00098 14.998V13.906C10.3981 13.6715 11.6668 12.9495 12.5822 11.8683C13.4975 10.7872 14.0002 9.41662 14.001 8C14.001 7.99933 14.001 7.99867 14.001 7.998C14.001 7.73278 13.8956 7.47843 13.7081 7.29089C13.5205 7.10336 13.2662 6.998 13.001 6.998C12.7358 6.998 12.4814 7.10336 12.2939 7.29089C12.1063 7.47843 12.001 7.73278 12.001 7.998C12.001 7.99867 12.001 7.99933 12.001 8C12.001 10.233 10.235 12 8.00098 12C7.47458 12.004 6.95262 11.9033 6.46552 11.7037C5.97841 11.5041 5.53587 11.2096 5.16364 10.8373C4.7914 10.4651 4.49694 10.0226 4.29733 9.53545C4.09773 9.04834 3.99698 8.5264 4.00098 8C4.00098 7.99933 4.00098 7.99867 4.00098 7.998C4.00098 7.73278 3.89561 7.47843 3.70807 7.29089C3.52053 7.10336 3.26619 6.998 3.00098 6.998Z" fill="#232323"/>
</g>
<defs>
<clipPath id="clip0_511_3570">
<rect width="16.001" height="16.001" fill="white"/>
</clipPath>
</defs>
</svg>
