<svg width="16" height="16" viewBox="0 0 16 16" fill="none" xmlns="http://www.w3.org/2000/svg">
<g clip-path="url(#clip0_511_3564)">
<path d="M0 15.9999H16V-6.10352e-05H0V15.9999Z" fill="#808080" fill-opacity="0.00"/>
<path d="M6.00001 2.99988H11V8.49988C11 8.79655 10.912 9.08655 10.7472 9.33322C10.5824 9.5799 10.3481 9.77216 10.074 9.8857C9.79996 9.99923 9.49835 10.0289 9.20738 9.97105C8.91641 9.91318 8.64912 9.77031 8.43935 9.56053C8.22957 9.35075 8.0867 9.08348 8.02882 8.79251C7.97095 8.50154 8.00065 8.19993 8.11418 7.92584C8.22771 7.65175 8.42 7.41749 8.66667 7.25267C8.91334 7.08785 9.20334 6.99988 9.50001 6.99988C9.67301 6.99988 9.84601 7.03987 10 7.09387V4.99988H7.00001V8.49988C7.00001 8.79655 6.91203 9.08655 6.74721 9.33322C6.58238 9.5799 6.34814 9.77216 6.07405 9.8857C5.79996 9.99923 5.49835 10.0289 5.20738 9.97105C4.91641 9.91318 4.64912 9.77031 4.43935 9.56053C4.22957 9.35075 4.0867 9.08348 4.02882 8.79251C3.97095 8.50154 4.00065 8.19993 4.11418 7.92584C4.22771 7.65175 4.42 7.41749 4.66667 7.25267C4.91334 7.08785 5.20334 6.99988 5.50001 6.99988C5.67301 6.99988 5.84601 7.03987 6.00001 7.09387V4.99988V2.99988Z" fill="#232323"/>
<path d="M3.5 -6.10352e-05C2.57296 0.00388668 1.68502 0.373895 1.0295 1.02942C0.373972 1.68494 0.00394771 2.5729 0 3.49994V12.4999C0 14.4219 1.578 15.9999 3.5 15.9999H11.5C13.422 15.9999 15 14.4219 15 12.4999V3.49994C15 1.57794 13.422 -6.10352e-05 11.5 -6.10352e-05H3.5ZM3.5 1.99994H11.5C12.348 1.99994 13 2.65194 13 3.49994V9.49994C13 10.3309 12.331 10.9999 11.5 10.9999H3.5C2.669 10.9999 2 10.3309 2 9.49994V3.49994C2 2.65194 2.652 1.99994 3.5 1.99994ZM3.5 11.9999C3.89782 11.9999 4.27935 12.158 4.56065 12.4393C4.84196 12.7206 5 13.1021 5 13.4999C5 13.8978 4.84196 14.2793 4.56065 14.5606C4.27935 14.8419 3.89782 14.9999 3.5 14.9999C3.10218 14.9999 2.72065 14.8419 2.43935 14.5606C2.15804 14.2793 2 13.8978 2 13.4999C2 13.1021 2.15804 12.7206 2.43935 12.4393C2.72065 12.158 3.10218 11.9999 3.5 11.9999ZM7.5 11.9999C7.89782 11.9999 8.27935 12.158 8.56065 12.4393C8.84196 12.7206 9 13.1021 9 13.4999C9 13.8978 8.84196 14.2793 8.56065 14.5606C8.27935 14.8419 7.89782 14.9999 7.5 14.9999C7.10218 14.9999 6.72065 14.8419 6.43935 14.5606C6.15804 14.2793 6 13.8978 6 13.4999C6 13.1021 6.15804 12.7206 6.43935 12.4393C6.72065 12.158 7.10218 11.9999 7.5 11.9999ZM11.5 11.9999C11.8978 11.9999 12.2793 12.158 12.5607 12.4393C12.842 12.7206 13 13.1021 13 13.4999C13 13.8978 12.842 14.2793 12.5607 14.5606C12.2793 14.8419 11.8978 14.9999 11.5 14.9999C11.1022 14.9999 10.7207 14.8419 10.4393 14.5606C10.158 14.2793 10 13.8978 10 13.4999C10 13.1021 10.158 12.7206 10.4393 12.4393C10.7207 12.158 11.1022 11.9999 11.5 11.9999Z" fill="#232323"/>
</g>
<defs>
<clipPath id="clip0_511_3564">
<rect width="16" height="16" fill="white"/>
</clipPath>
</defs>
</svg>
