<svg width="16" height="16" viewBox="0 0 16 16" fill="none" xmlns="http://www.w3.org/2000/svg">
<g clip-path="url(#clip0_514_3592)">
<path d="M16.001 0V16H0.000976562V0H16.001Z" fill="#808080" fill-opacity="0.00"/>
<path d="M8.00098 0C7.47054 0 6.96186 0.210712 6.58679 0.585785C6.21172 0.960858 6.00098 1.46957 6.00098 2H5.00098C4.47054 2 3.96186 2.21071 3.58679 2.58578C3.21172 2.96086 3.00098 3.46957 3.00098 4V13C3.00098 13.5304 3.21172 14.0391 3.58679 14.4142C3.96186 14.7893 4.47054 15 5.00098 15H11.001C11.5314 15 12.0401 14.7893 12.4152 14.4142C12.7902 14.0391 13.001 13.5304 13.001 13V4C13.001 3.46957 12.7902 2.96086 12.4152 2.58578C12.0401 2.21071 11.5314 2 11.001 2L10.001 2.002V2C10.001 1.46957 9.79023 0.960858 9.41516 0.585785C9.04009 0.210712 8.53141 0 8.00098 0Z" fill="#232323"/>
</g>
<defs>
<clipPath id="clip0_514_3592">
<rect width="16" height="16" fill="white" transform="translate(0.000976562)"/>
</clipPath>
</defs>
</svg>
