<svg width="16" height="16" viewBox="0 0 16 16" fill="none" xmlns="http://www.w3.org/2000/svg">
<g clip-path="url(#clip0_514_3594)">
<path d="M0.000976562 0V16H16.001V0H0.000976562Z" fill="#808080" fill-opacity="0.00"/>
<path d="M4.00098 8C5.65783 8 7.00098 6.65685 7.00098 5C7.00098 3.34315 5.65783 2 4.00098 2C2.34412 2 1.00098 3.34315 1.00098 5C1.00098 6.65685 2.34412 8 4.00098 8Z" fill="#232323"/>
<path d="M11.001 8C12.6578 8 14.001 6.65685 14.001 5C14.001 3.34315 12.6578 2 11.001 2C9.34412 2 8.00098 3.34315 8.00098 5C8.00098 6.65685 9.34412 8 11.001 8Z" fill="#232323"/>
<path d="M12.001 9L15.001 7V13L12.001 11V9Z" fill="#232323"/>
<path d="M10.001 7H3.00098C1.89641 7 1.00098 7.89543 1.00098 9V11C1.00098 12.1046 1.89641 13 3.00098 13H10.001C11.1055 13 12.001 12.1046 12.001 11V9C12.001 7.89543 11.1055 7 10.001 7Z" fill="#232323"/>
</g>
<defs>
<clipPath id="clip0_514_3594">
<rect width="16" height="16" fill="white" transform="translate(0.000976562)"/>
</clipPath>
</defs>
</svg>
