<svg width="16" height="16" viewBox="0 0 16 16" fill="none" xmlns="http://www.w3.org/2000/svg">
<g clip-path="url(#clip0_514_3593)">
<path d="M3.00098 2V3H2.00098C1.44698 3 1.00098 3.446 1.00098 4V13C1.00098 13.554 1.44698 14 2.00098 14H14.001C14.555 14 15.001 13.554 15.001 13V4C15.001 3.446 14.555 3 14.001 3H6.00098V2H3.00098ZM4.00098 5C4.26619 5 4.52053 5.10536 4.70807 5.29289C4.89561 5.48043 5.00098 5.73478 5.00098 6C5.00098 6.26522 4.89561 6.51957 4.70807 6.70711C4.52053 6.89464 4.26619 7 4.00098 7C3.73576 7 3.48142 6.89464 3.29388 6.70711C3.10635 6.51957 3.00098 6.26522 3.00098 6C3.00098 5.73478 3.10635 5.48043 3.29388 5.29289C3.48142 5.10536 3.73576 5 4.00098 5ZM9.00098 6C9.79663 6 10.5597 6.31607 11.1223 6.87868C11.6849 7.44129 12.001 8.20435 12.001 9C12.001 9.79565 11.6849 10.5587 11.1223 11.1213C10.5597 11.6839 9.79663 12 9.00098 12C8.20533 12 7.44225 11.6839 6.87964 11.1213C6.31703 10.5587 6.00098 9.79565 6.00098 9C6.00098 8.20435 6.31703 7.44129 6.87964 6.87868C7.44225 6.31607 8.20533 6 9.00098 6Z" fill="#232323"/>
<path d="M16.001 -0.00299072H0.000976562V15.997H16.001V-0.00299072Z" fill="#808080" fill-opacity="0.00"/>
</g>
<defs>
<clipPath id="clip0_514_3593">
<rect width="16" height="16" fill="white" transform="translate(0.000976562)"/>
</clipPath>
</defs>
</svg>
