<svg width="16" height="16" viewBox="0 0 16 16" fill="none" xmlns="http://www.w3.org/2000/svg">
<g clip-path="url(#clip0_514_3595)">
<path d="M0.000976562 0H16.001V16H0.000976562V0Z" fill="#808080" fill-opacity="0.00"/>
<path d="M8.00098 1C6.71235 1.00078 5.45823 1.41641 4.42419 2.18538C3.39015 2.95435 2.63114 4.03581 2.25952 5.26968C1.8879 6.50356 1.92341 7.8243 2.36078 9.03644C2.79815 10.2486 3.61413 11.2877 4.68799 12H4.00098C2.00098 12 2.00098 14 2.00098 14V15H14.001V14C14.001 14 14.001 12 12.001 12H11.313C12.3868 11.2877 13.2027 10.2487 13.6401 9.03667C14.0775 7.82463 14.1131 6.50398 13.7416 5.27016C13.3701 4.03633 12.6113 2.95487 11.5774 2.18582C10.5435 1.41677 9.28952 1.00099 8.00098 1ZM8.00098 5.004C8.53141 5.004 9.04009 5.21471 9.41516 5.58978C9.79023 5.96486 10.001 6.47356 10.001 7.004C10.001 7.53443 9.79023 8.04314 9.41516 8.41821C9.04009 8.79329 8.53141 9.004 8.00098 9.004C7.47054 9.004 6.96186 8.79329 6.58679 8.41821C6.21172 8.04314 6.00098 7.53443 6.00098 7.004C6.00098 6.47356 6.21172 5.96486 6.58679 5.58978C6.96186 5.21471 7.47054 5.004 8.00098 5.004Z" fill="#232323"/>
</g>
<defs>
<clipPath id="clip0_514_3595">
<rect width="16" height="16" fill="white" transform="translate(0.000976562)"/>
</clipPath>
</defs>
</svg>
