<svg width="16" height="16" viewBox="0 0 16 16" fill="none" xmlns="http://www.w3.org/2000/svg">
<g clip-path="url(#clip0_514_3609)">
<path d="M0 0.00299072H16V16.003H0V0.00299072Z" fill="#808080" fill-opacity="0.00"/>
<path d="M8 0.00299072C5.23 0.00299072 3 2.45599 3 5.50299V10.503C3 13.55 5.23 16.003 8 16.003C10.77 16.003 13 13.55 13 10.503V5.50299C13 2.45599 10.77 0.00299072 8 0.00299072ZM8 3.00299C8.554 3.00299 9 3.44899 9 4.00299V6.00299C9 6.55699 8.554 7.00299 8 7.00299C7.446 7.00299 7 6.55699 7 6.00299V4.00299C7 3.44899 7.446 3.00299 8 3.00299Z" fill="#232323"/>
</g>
<defs>
<clipPath id="clip0_514_3609">
<rect width="16" height="16.003" fill="white"/>
</clipPath>
</defs>
</svg>
