<svg width="16" height="16" viewBox="0 0 16 16" fill="none" xmlns="http://www.w3.org/2000/svg">
<g clip-path="url(#clip0_515_3611)">
<path d="M0 0H16V16H0V0Z" fill="#808080" fill-opacity="0.00"/>
<path d="M2 1C0.892 1 0 1.892 0 3V12C0 13.108 0.892 14 2 14C5.336 14 8.665 14.006 12 14C13.108 14 14 13.108 14 12V6.875L12 8.875V12H2V3H12V3.125L13.473 1.65199C13.2866 1.44655 13.0592 1.28241 12.8055 1.17012C12.5518 1.05783 12.2774 0.999883 12 1H2Z" fill="#232323"/>
<path d="M15 2C14.723 2 14.462 2.10001 14.281 2.28101L8.28101 8.28101C8.10101 8.46201 8 8.723 8 9V10H9C9.277 10 9.53799 9.89999 9.71899 9.71899L15.719 3.71899C15.899 3.53799 16 3.277 16 3C16 2.446 15.554 2 15 2Z" fill="#232323"/>
</g>
<defs>
<clipPath id="clip0_515_3611">
<rect width="16" height="16" fill="white"/>
</clipPath>
</defs>
</svg>
