<svg width="16" height="16" viewBox="0 0 16 16" fill="none" xmlns="http://www.w3.org/2000/svg">
<g clip-path="url(#clip0_515_3616)">
<path d="M3 2C1 2 1 4 1 4V12C1 12 1 14 3 14H13C13 14 15 14 15 12V4C15 2 13 2 13 2H3ZM5 6C5.53043 6 6.03914 6.21071 6.41422 6.58578C6.78929 6.96086 7 7.46957 7 8C7 8.365 6.88999 8.705 6.71899 9H9.28101C9.10068 8.69733 9.00372 8.3523 9 8C9 7.60444 9.1173 7.21775 9.33707 6.88885C9.55683 6.55996 9.86917 6.30361 10.2346 6.15224C10.6001 6.00086 11.0022 5.96127 11.3902 6.03844C11.7782 6.11561 12.1345 6.30608 12.4142 6.58578C12.6939 6.86549 12.8844 7.22186 12.9615 7.60982C13.0387 7.99778 12.9992 8.39991 12.8478 8.76537C12.6964 9.13082 12.44 9.44317 12.1111 9.66293C11.7822 9.8827 11.3956 10 11 10H5C4.46957 10 3.96086 9.78929 3.58578 9.41422C3.21071 9.03914 3 8.53043 3 8C3 7.46957 3.21071 6.96086 3.58578 6.58578C3.96086 6.21071 4.46957 6 5 6ZM5 7C4.73478 7 4.48044 7.10536 4.29291 7.29289C4.10537 7.48043 4 7.73478 4 8C4 8.26522 4.10537 8.51957 4.29291 8.70711C4.48044 8.89464 4.73478 9 5 9C5.26522 9 5.51956 8.89464 5.70709 8.70711C5.89463 8.51957 6 8.26522 6 8C6 7.73478 5.89463 7.48043 5.70709 7.29289C5.51956 7.10536 5.26522 7 5 7ZM11 7C10.7348 7 10.4804 7.10536 10.2929 7.29289C10.1054 7.48043 10 7.73478 10 8C10 8.26522 10.1054 8.51957 10.2929 8.70711C10.4804 8.89464 10.7348 9 11 9C11.2652 9 11.5196 8.89464 11.7071 8.70711C11.8946 8.51957 12 8.26522 12 8C12 7.73478 11.8946 7.48043 11.7071 7.29289C11.5196 7.10536 11.2652 7 11 7Z" fill="#232323"/>
<path d="M16 0V16H0V0H16Z" fill="#808080" fill-opacity="0.00"/>
</g>
<defs>
<clipPath id="clip0_515_3616">
<rect width="16" height="16" fill="white"/>
</clipPath>
</defs>
</svg>
