<svg width="16" height="16" viewBox="0 0 16 16" fill="none" xmlns="http://www.w3.org/2000/svg">
<g clip-path="url(#clip0_515_3618)">
<path d="M0 0H16V16H0V0Z" fill="#808080" fill-opacity="0.00"/>
<path d="M4 0C2 0 2 2 2 2V14C2 14 2 16 4 16H12C12 16 14 16.25 14 14V2C14 0 12 0 12 0H4ZM4 1H12V8H4V1ZM8 9C8.79565 9 9.5587 9.31607 10.1213 9.87868C10.6839 10.4413 11 11.2044 11 12C11 12.7956 10.6839 13.5587 10.1213 14.1213C9.5587 14.6839 8.79565 15 8 15C7.20435 15 6.4413 14.6839 5.87869 14.1213C5.31608 13.5587 5 12.7956 5 12C5 11.2044 5.31608 10.4413 5.87869 9.87868C6.4413 9.31607 7.20435 9 8 9ZM8 11C7.73478 11 7.48044 11.1054 7.29291 11.2929C7.10537 11.4804 7 11.7348 7 12C7 12.2652 7.10537 12.5196 7.29291 12.7071C7.48044 12.8946 7.73478 13 8 13C8.26522 13 8.51956 12.8946 8.70709 12.7071C8.89463 12.5196 9 12.2652 9 12C9 11.7348 8.89463 11.4804 8.70709 11.2929C8.51956 11.1054 8.26522 11 8 11Z" fill="#232323"/>
</g>
<defs>
<clipPath id="clip0_515_3618">
<rect width="16" height="16.012" fill="white"/>
</clipPath>
</defs>
</svg>
