<svg width="16" height="16" viewBox="0 0 16 16" fill="none" xmlns="http://www.w3.org/2000/svg">
<g clip-path="url(#clip0_515_3620)">
<path d="M0 16V0H16V16H0Z" fill="#808080" fill-opacity="0.00"/>
<path d="M8 2.00001C5.105 2.00001 2.21 3.10501 0 5.31301L6.547 13.244H6.55298C6.74008 13.4386 6.96466 13.5933 7.21313 13.6987C7.46161 13.8042 7.72885 13.8583 7.99878 13.8578C8.26871 13.8572 8.53572 13.802 8.78375 13.6955C9.03179 13.589 9.25573 13.4334 9.44202 13.238H9.44598L16 5.31201C14.9503 4.26038 13.7032 3.42645 12.3303 2.85809C10.9575 2.28972 9.48587 1.99811 8 2.00001Z" fill="#232323"/>
</g>
<defs>
<clipPath id="clip0_515_3620">
<rect width="16" height="16" fill="white"/>
</clipPath>
</defs>
</svg>
