<svg width="16" height="16" viewBox="0 0 16 16" fill="none" xmlns="http://www.w3.org/2000/svg">
<g clip-path="url(#clip0_515_3625)">
<path d="M16 16.003H0V0.00299072H16V16.003Z" fill="#808080" fill-opacity="0.00"/>
<path d="M3.00009 1.00299C3.00009 1.00299 2.00109 0.999991 2.00009 2.00299L1.99609 5.99898H-0.00390625V7.99898H15.9961V5.99898H13.9961L14.0001 2.00299C14.0011 0.999991 13.0001 1.00299 13.0001 1.00299H3.00009ZM3.99609 2.99898H11.9961L11.9921 5.99898H3.9921L3.99609 2.99898ZM2.00009 8.99998V14.004C2.00009 14.004 2.00009 15.004 3.00009 15.004H13.0001C14.0001 15.004 14.0001 14.004 14.0001 14.004V8.99998H11.9961V13H3.99609V8.99998H2.00009Z" fill="#232323"/>
</g>
<defs>
<clipPath id="clip0_515_3625">
<rect width="16" height="16" fill="white"/>
</clipPath>
</defs>
</svg>
