<svg width="16" height="17" viewBox="0 0 16 17" fill="none" xmlns="http://www.w3.org/2000/svg">
<path d="M5.99697 14C5.99697 13.4696 6.20768 12.9609 6.58276 12.5858C6.95783 12.2107 7.46654 12 7.99697 12C8.5274 12 9.03611 12.2107 9.41118 12.5858C9.78626 12.9609 9.99697 13.4696 9.99697 14C9.99697 14.5304 9.78626 15.0391 9.41118 15.4142C9.03611 15.7893 8.5274 16 7.99697 16C7.46654 16 6.95783 15.7893 6.58276 15.4142C6.20768 15.0391 5.99697 14.5304 5.99697 14ZM1.93697 4.93801L7.99997 11L14.062 4.93801C15.5 3.50001 14 2.25001 12.937 3.31301L7.99997 8.25001L3.06197 3.31301C2.24997 2.50001 0.749971 3.75001 1.93697 4.93801Z" fill="#232323"/>
</svg>
