<svg width="16" height="16" viewBox="0 0 16 16" fill="none" xmlns="http://www.w3.org/2000/svg">
<g clip-path="url(#clip0_409_3678)">
<path d="M2 5.99997C2.53043 5.99997 3.03914 6.21069 3.41421 6.58576C3.78929 6.96083 4 7.46954 4 7.99997C4 8.53041 3.78929 9.03911 3.41421 9.41419C3.03914 9.78926 2.53043 9.99997 2 9.99997C1.46957 9.99997 0.960859 9.78926 0.585786 9.41419C0.210714 9.03911 0 8.53041 0 7.99997C0 7.46954 0.210714 6.96083 0.585786 6.58576C0.960859 6.21069 1.46957 5.99997 2 5.99997ZM11.062 1.93997L5 8.00397L11.062 14.067C12.5 15.504 13.75 14.004 12.687 12.942L7.75 8.00297L12.687 3.06597C13.5 2.25297 12.25 0.752973 11.062 1.94097V1.93997Z" fill="#232323"/>
</g>
<defs>
<clipPath id="clip0_409_3678">
<rect width="16" height="16" fill="white"/>
</clipPath>
</defs>
</svg>
