<svg width="16" height="16" viewBox="0 0 16 16" fill="none" xmlns="http://www.w3.org/2000/svg">
<g clip-path="url(#clip0_409_3674)">
<path d="M4.9399 1.94L11.0019 8.003L4.9399 14.066C3.5019 15.503 2.2519 14.003 3.3149 12.941L8.2519 8.003L3.3149 3.066C2.5019 2.253 3.7519 0.753004 4.9399 1.94ZM14.0029 6C13.4725 6 12.9638 6.21072 12.5887 6.58579C12.2136 6.96086 12.0029 7.46957 12.0029 8C12.0029 8.53044 12.2136 9.03914 12.5887 9.41422C12.9638 9.78929 13.4725 10 14.0029 10C14.5333 10 15.042 9.78929 15.4171 9.41422C15.7922 9.03914 16.0029 8.53044 16.0029 8C16.0029 7.46957 15.7922 6.96086 15.4171 6.58579C15.042 6.21072 14.5333 6 14.0029 6Z" fill="#232323"/>
</g>
<defs>
<clipPath id="clip0_409_3674">
<rect width="16" height="16" fill="white"/>
</clipPath>
</defs>
</svg>
