<svg width="16" height="16" viewBox="0 0 16 16" fill="none" xmlns="http://www.w3.org/2000/svg">
<g clip-path="url(#clip0_409_3671)">
<path d="M10.0028 2C10.0028 2.53043 9.79211 3.03914 9.41704 3.41421C9.04197 3.78929 8.53326 4 8.00283 4C7.4724 4 6.96369 3.78929 6.58861 3.41421C6.21354 3.03914 6.00283 2.53043 6.00283 2C6.00283 1.46957 6.21354 0.960859 6.58861 0.585786C6.96369 0.210714 7.4724 0 8.00283 0C8.53326 0 9.04197 0.210714 9.41704 0.585786C9.79211 0.960859 10.0028 1.46957 10.0028 2ZM14.0628 11.062L7.99983 5L1.93683 11.062C0.499829 12.5 1.99983 13.75 3.06183 12.687L7.99983 7.75L12.9368 12.687C13.7498 13.5 15.2498 12.25 14.0618 11.062H14.0628Z" fill="#232323"/>
</g>
<defs>
<clipPath id="clip0_409_3671">
<rect width="16" height="16" fill="white"/>
</clipPath>
</defs>
</svg>
